<?xml version="1.0" encoding="utf-8"?>
<!-- Generator: Adobe Illustrator 22.1.0, SVG Export Plug-In . SVG Version: 6.00 Build 0)  -->
<svg version="1.1" id="Layer_1" xmlns="http://www.w3.org/2000/svg" xmlns:xlink="http://www.w3.org/1999/xlink" x="0px" y="0px"
	 viewBox="0 0 600 600" style="enable-background:new 0 0 600 600;" xml:space="preserve">
<g>
	<path d="M195.6,599.9c-2.5-0.6-5.1-1.2-7.6-1.8c-6.3-1.6-11.3-5.4-15.5-10.2c-5.9-6.7-7.6-14.8-8.4-23.3c-0.6-7.6-1.3-15.3-2-22.9
		c-0.6-6.3-1.1-12.7-1.6-19c-0.7-7.6-1.3-15.2-2-22.8c-0.6-6.3-1.1-12.7-1.6-19c-0.7-7.6-1.3-15.2-2-22.8
		c-0.5-6.3-1.1-12.6-1.6-18.8c-0.7-7.7-1.3-15.4-2-23.1c-0.5-6.3-1.1-12.7-1.6-19c-0.1-1-0.2-2-0.3-3.2c-3.6,0.3-7.1,0.6-10.6,0.9
		c-4.1,0.4-8.1,0.7-12.2,1.1c-5.3,0.5-10.6,1-15.9,1.4c-3.9,0.3-7.8,0.7-11.7,1c-5.3,0.5-10.6,1-15.9,1.4c-3.9,0.3-7.8,0.7-11.7,1
		c-5.3,0.5-10.6,0.9-15.9,1.4c-3.9,0.3-7.8,0.7-11.7,1c-2.7,0.2-5.4,0.5-8,0.3c-8.4-0.9-16-3.9-22-10.3c-4.7-5-7.4-10.9-8.7-17.6
		c-1.1-5.5-0.6-10.9,1.2-16.1c1.6-4.6,3.6-9.1,5.7-13.5c19.6-42.1,39.3-84.2,59-126.3c14.6-31.2,29.2-62.5,43.8-93.7
		c0.3-0.6,0.6-1.2,1.2-1.7c0,0.6,0,1.2,0,1.8c-0.2,6.7,2.7,11.9,8.1,15.7c2.5,1.7,5.1,3.1,7.9,4.7c-0.3,0.7-0.5,1.3-0.8,1.9
		c-18.2,39-36.5,78.1-54.7,117.1C60.4,299,44.8,332.4,29.2,365.8c-2.7,5.8,0.7,11.9,6.6,13.5c1.3,0.4,2.8,0.2,4.2,0.1
		c5.1-0.4,10.2-1,15.3-1.4c4.1-0.4,8.1-0.6,12.2-1c4-0.3,8-0.8,12-1.1c4-0.4,7.9-0.6,11.9-1c4.1-0.4,8.2-0.8,12.3-1.1
		c2.7-0.2,5.4-0.5,8.1-0.7c4.3-0.4,8.5-0.8,12.8-1.1c3.6-0.3,7.2-0.6,10.8-0.9c3.9-0.3,7.7-0.6,11.8-1c-1-11.8-2-23.6-3.1-35.7
		c5.9,10,14,15.6,25.6,15.7c0.3,3.8,0.7,7.4,1,11.1c0.7,7.7,1.4,15.5,2,23.2c0.7,7.5,1.3,15.1,1.9,22.6c0.7,7.5,1.3,15.1,2,22.6
		c0.5,6.3,1.1,12.6,1.6,18.8c0.7,7.6,1.3,15.3,2,22.9c0.6,6.3,1.1,12.7,1.6,19c0.7,7.6,1.3,15.2,2,22.8c0.6,6.3,1.1,12.7,1.6,19
		c0.7,7.6,1.3,15.2,2,22.8c0.4,4,0.8,8,1,12.1c0.4,6.2,7.8,10.9,13.3,8c3.6-1.9,6.8-4.3,10.1-6.6c43.9-30.7,87.8-61.4,131.6-92.2
		c24.8-17.4,49.7-34.8,74.5-52.2c0.4-0.3,0.7-0.5,1.3-1c-3.7-1-7.1-2-10.6-2.9c-17.4-4.7-34.9-9.3-52.3-14c-2.8-0.8-5.6-1.6-7.8-3.8
		c-3.7-3.6-4.7-9.2-2.3-13.8c2.4-4.6,7.6-7.3,12.7-6c11.2,2.8,22.3,5.6,33.4,8.6c30.8,8.2,61.6,16.5,92.4,24.8
		c24.6,6.6,49.2,13.2,73.8,19.7c5.5,1.5,10.8-1.2,12.3-6.7c0.6-2.1,0.4-4.6-0.2-6.7c-13.2-49.5-26.5-99.1-39.8-148.6
		c-0.9-3.5-1.9-6.9-2.8-10.3c-0.1-0.4-0.2-0.9-0.3-1.3c10.5-2.6,17-8.9,19.1-19.8c0.2,0.4,0.3,0.7,0.4,1
		c9.2,34.2,18.4,68.3,27.5,102.5c6.2,23.1,12.4,46.2,18.6,69.3c1,3.9,2.4,7.8,2.1,11.9c-0.6,7.9-2.7,15.2-8,21.4
		c-5.3,6.1-12,9.7-19.9,11.4c-5.7,1.2-11,0.3-16.4-1.2c-30.5-8.2-61-16.3-91.5-24.5c-3-0.8-5.9-1.6-8.9-2.3c-0.7-0.2-1.6,0-2.2,0.4
		c-26.1,18.2-52.3,36.5-78.4,54.8c-28.6,20-57.2,40-85.8,60.1c-22.6,15.9-45.3,31.7-67.9,47.6c-4.1,2.9-8.7,3.9-13.3,5
		c-0.9,0.2-1.8,0.4-2.8,0.6C199.1,599.9,197.4,599.9,195.6,599.9z"/>
	<path d="M187.1,186.2c-7.2-4.9-9.1-12.3-9.6-20.3c-0.4-6.5-0.9-13.1-1.4-19.6c-0.3-3.9-0.6-7.7-1.1-11.6c-1.3,2.9-2.9,5.4-5.3,7.4
		c-4.1,3.6-9,5.3-14.2,5.7c-5.8,0.5-11.6,0.7-17.3-0.8c-3.7-0.9-7.1-2.5-10.2-4.8c-1.8-1.4-4-2.4-5.7-3.9c-4.8-4.2-6-9.8-5-15.8
		c0.6-3.8,1.8-7.5,2.8-11.2c0.4-1.3,1.2-2.4,1.8-3.7c7.2-15,14.3-30.1,21.5-45.1c7.8-16.3,15.6-32.7,23.5-49c3.4-7,8.7-11.6,16.6-13
		c1-0.2,2.1-0.3,3.1-0.5c0.5,0,1,0,1.5,0c1.5,0.3,3.1,0.4,4.6,0.8c5.9,1.4,10.3,4.9,13.6,9.9c9.7,14.8,19.4,29.6,29.1,44.4
		c4.6,7,9.2,14,13.8,21c1.8,2.7,3.4,5.6,5.3,8.3c8.1,12.1,16.1,24.3,24.3,36.3c2.6,3.8,5.4,7.5,6.8,11.9c3.5,11.2,0.9,21.1-9.3,28.3
		c-6.9,4.8-14.6,7.8-22.9,9c-10.4,1.5-18.1-2.8-22.8-12.5c-1.5-3.1-2.7-6.3-4.3-9.3c-0.6-1.1-1.7-2.1-2.9-2.7
		c-1.7-0.9-3.4-0.2-3.7,1.7c-0.4,2.2-0.5,4.5-0.4,6.7c0.1,4,0.6,8,0.6,12.1c0,4.3-0.9,8.5-3,12.4c-3.5,6.3-9.1,9.1-16,9.9
		c-3.9,0.4-7.7,0.3-11.5-0.9C188.5,186.9,187.8,186.6,187.1,186.2z M199.5,151.3c0.2-1.8,0.2-3.4,0.4-4.9c1-6.8,3.5-12.7,9.3-16.8
		c9.3-6.5,22.4-4.8,30.4,3.8c3,3.2,4.6,7.2,6.4,11.1c2.2,4.9,5.4,6.5,10.4,4.6c3-1.1,5.9-2.5,8.7-4.2c2.7-1.6,3.1-3.4,1.9-6.3
		c-0.5-1.2-1.2-2.5-1.9-3.6c-6.4-9.5-12.9-18.9-19.2-28.5c-8.2-12.3-16.3-24.8-24.3-37.2c-10-15.4-20-30.8-30-46.1
		c-0.8-1.2-1.8-2.3-2.8-3.3c-0.9-0.9-2.1-0.8-3,0.2c-0.6,0.6-1.1,1.3-1.5,2c-0.9,1.7-1.7,3.4-2.5,5.2c-7.5,16-15,32-22.5,48
		c-1.3,2.8-2.5,5.7-3.9,8.5c-1,2-2.3,3.9-3.4,5.9c-2.6,4.8-5.1,9.6-7.7,14.4c-2.3,4.2-4.8,8.4-7,12.7c-2.7,5.2-0.4,10,5.3,11.3
		c4.1,0.9,8.2,0.8,12.3,0.1c2.5-0.4,4.5-1.9,5.6-4.2c1.1-2.4,2.1-4.9,3.1-7.3c0.6-1.6,1.2-3.2,1.7-4.8c0.7-2.3,1.2-4.7,1.9-7
		c0.4-1.5,0.6-3.3,1.6-4.3c2.7-2.8,6.3-4.1,10.2-3.6c5.3,0.7,8.8,4,11.2,8.5c2,3.7,2.5,7.8,2.8,12c0.6,8.4,1.6,16.8,2.3,25.2
		c0.7,8.2,1.2,16.4,1.8,24.6c0.1,0.7-0.1,1.7,1.2,1.6c1.1,0,1.9-0.1,1.9-1.5c0-2.7,0.2-5.3,0-8C200.2,156.6,199.8,153.8,199.5,151.3
		z"/>
	<path d="M523.9,260.4c-4.3,0.1-8.2-1.1-11.7-3.4c-3.1-2-5.5-4.6-6.8-7.9c-2.6-6.9-4.7-13.9-7-20.8c-0.4-1.3-0.6-2.6-1.2-3.8
		c-1.2-2.5-4.2-2.8-5.9-0.6c-0.9,1.2-1.4,2.7-1.8,4.1c-3.6,13.6-7.1,27.2-10.7,40.7c-2.2,8.2-8.5,13.7-16.6,14.1
		c-7.9,0.4-14.5-2.5-18.9-9.1c-3.1-4.6-3.5-9.8-2.1-15.1c1.2-4.7,2.5-9.4,3.6-14.1c0.6-2.3-0.3-4.5-2-5.2c-2.3-0.9-4.3-0.1-5.2,2.4
		c-1.1,3.3-2,6.7-3,10.1c-1.9,6.4-3.6,12.9-5.6,19.2c-1.6,5-4.8,9-8.6,12.6c-5.5,5.2-11.9,8.4-19.4,9.4c-15.6,2.1-28.3-3.1-37.5-16
		c-5.2-7.2-6.6-15.7-6-24.5c0.2-2.2,0.7-4.4,0.5-6.6c-0.2-3-2.1-4.9-4.8-6c-3-1.2-5.7-0.8-8.2,1.4c-1,0.9-1.8,1.9-2.6,2.9
		c-4.1,5.1-9.2,8.7-15.6,9.8c-6.3,1.1-12.2-0.2-17.9-2.9c-5.6-2.6-9.4-6.9-12.1-12.2c-5.2-10.6-3.1-21.8,4.7-30
		c3.9-4.1,7.9-8,11.9-12.1c5.8-5.9,11.6-11.8,17.4-17.7c5.9-6,11.8-12,17.7-18c5.8-5.9,11.7-11.9,17.5-17.8c6-6.1,12-12.2,18-18.3
		c5.8-5.9,11.6-11.9,17.5-17.8c5.9-6.1,11.9-12.1,17.8-18.2c5.8-5.9,11.7-11.9,17.5-17.8c5.9-6,11.9-12.1,17.8-18.1
		c3.3-3.4,6.4-7,10-10.1c7.5-6.7,17.1-7.5,25.9-2.8c4.4,2.4,7.6,5.9,9.4,10.5c1.3,3.3,2.1,6.9,3.1,10.4c1.2,4.7,2.4,9.3,3.6,14
		c2,8.1,4.1,16.3,6.1,24.4c2.1,8.3,4.1,16.6,6.2,24.9c2.1,8.2,4.1,16.4,6.2,24.6c2.1,8.3,4.1,16.6,6.2,24.9
		c2.1,8.3,4.2,16.6,6.3,24.8c1,4,2.1,8.1,3,12.1c1.4,5.6,3.1,11.1,3.9,16.7c0.8,5.5,2.2,11.1,0.4,16.7c-2.5,8-7.7,13-15.6,15.4
		c-0.8,0.2-1.6,0.5-2.3,0.5C526,260.4,524.9,260.4,523.9,260.4z M460.2,261.6c0.2,0.1,0.4,0.1,0.5,0.2c0.2-0.5,0.6-0.9,0.7-1.4
		c2-7.3,3.9-14.5,5.8-21.8c0.8-3.1,1.9-6.3,2.4-9.5c0.7-4.4,1.7-8.6,3.6-12.5c2.9-6,7.3-10.5,13.7-12.4c7-2.1,13.7-1.3,19.8,2.8
		c3.4,2.3,6.1,5.2,7.5,9c2,5.4,3.6,10.9,5.4,16.3c0.8,2.5,1.5,5.1,2.4,7.6c0.6,1.6,1.3,1.9,2.9,1.3c2.1-0.7,2.8-2.5,2.2-4.9
		c-2.1-8-4.1-16.1-6.1-24.1c-2.1-8.4-4.2-16.9-6.4-25.3c-2-8-4-16.1-6.1-24.1c-2.1-8.4-4.2-16.9-6.4-25.3c-2-8-4-16-6-24
		c-2.2-8.9-4.5-17.7-6.8-26.6c-0.8-3.1-1.7-6.2-2.5-9.3c-1.5-5.8-2.8-11.7-4.4-17.5c-1.1-4.2-3.2-4.7-6.4-1.6
		c-1.8,1.7-3.5,3.6-5.3,5.4c-6.1,6.2-12.1,12.4-18.2,18.6c-2.7,2.7-5.4,5.5-8,8.2c-6.3,6.4-12.5,12.7-18.8,19.1
		c-5.6,5.7-11.2,11.4-16.7,17.1c-6,6.1-12,12.2-18,18.3c-5.7,5.8-11.4,11.6-17,17.4c-6.1,6.3-12.3,12.5-18.4,18.8
		c-2.8,2.8-5.5,5.6-8.3,8.4c-6,6.1-11.9,12.2-17.9,18.2c-4.8,4.9-9.7,9.8-14.6,14.8c-1.7,1.8-2.3,3.8-1.6,6.2
		c1.7,5.6,7.3,8.5,12.1,5.1c1-0.7,1.8-1.7,2.6-2.7c3.3-4.5,7.6-7.7,12.8-9.5c7.5-2.6,14.9-2.3,22.1,1.5c4.8,2.5,8.6,6,11.1,10.8
		c3.1,6.1,3.7,12.6,2.6,19.3c-0.8,4.7,0.3,9.2,2.9,13.1c5.4,8.2,16.6,10.4,25,5c3.9-2.5,6.4-5.8,7.6-10.3c2.1-8.2,4.4-16.4,6.7-24.6
		c1.8-6.4,5.7-11.3,11.5-14.3c6.2-3.1,12.7-3.3,19.2-0.8c8.5,3.3,15.1,11,14.4,21.2c-0.2,3.4-1,6.8-1.7,10.1
		C461.7,255.8,460.9,258.7,460.2,261.6z"/>
	<path d="M187.1,186.2c0.7,0.4,1.4,0.7,2.2,1.1c1.8,1,3.6,2,5.4,2.9c4.9,2.4,9.8,4.8,14.8,7.2c5.3,2.6,10.6,5.1,15.9,7.7
		c5.6,2.7,11.1,5.4,16.7,8.1c5.5,2.7,11.1,5.3,16.6,7.9c5.2,2.5,10.5,5.1,15.7,7.7c1.3,0.7,2.7,1.3,4.2,2c-2.8,2.8-5.5,5.5-8.2,8.2
		c-1.8,1.8-3.7,3.6-5.5,5.5c-0.6,0.6-1.1,0.7-1.8,0.3c-5.4-2.7-10.8-5.3-16.2-8c-4.7-2.3-9.5-4.5-14.3-6.8
		c-4.7-2.3-9.3-4.6-13.9-6.8c-4.6-2.2-9.2-4.4-13.8-6.7c-4.8-2.3-9.6-4.7-14.3-7c-4.7-2.3-9.3-4.5-14-6.7c-4.7-2.3-9.4-4.6-14.1-6.9
		c-2.8-1.3-5.5-2.6-8.4-3.7c-2.5-1-3.9,0-3.9,2.8c0,2,0.2,3.9,0.4,5.9c0.3,3.8,0.8,7.5,1.1,11.3c0.6,6,1.1,11.9,1.7,17.9
		c0.6,6.1,1.3,12.3,1.9,18.4c0.8,7.6,1.6,15.2,2.3,22.8c0.6,6,1,11.9,1.6,17.9c0.4,4.3,1,8.7,1.4,13c0.5,5.1,0.9,10.1,1.4,15.2
		c0.2,2.1,0.5,4.2,0.8,6.3c0.4,2.9,2.4,4.4,5,5.2c4.7,1.3,9-0.8,10-5.2c0.4-1.6,0.2-3.4-0.2-5.1c-2.9-11.4,2.7-24,12.5-29.8
		c6.2-3.7,12.9-5.1,20-3.3c3.4,0.8,6.6,2.4,9.5,4.6c-2.4,2.4-4.8,4.8-7.1,7.1c-1.5,1.5-3,2.9-4.4,4.4c-1.4,1.5-2.8,2.5-5,2.6
		c-4.1,0.3-6.9,3.7-6.8,7.9c0,1.2-0.2,2.2-1,3.2c-3.7,4.4-5,9.9-5.9,15.3c-0.5,2.9-0.4,5.9-0.3,8.9c0,0.9-0.2,1.5-0.9,2
		c-4.3,3.5-9.1,6-14.6,7c-4.4,0.8-8.7,0-12.9-1.5c-8-3-13.2-8.7-15.9-16.6c-1-2.9-1.2-6-1.6-9c-0.7-5.7-1.1-11.5-1.7-17.2
		c-0.6-6.1-1.3-12.3-1.9-18.4c-0.8-7.7-1.6-15.5-2.3-23.2c-0.6-6-1-11.9-1.6-17.9c-0.6-5.8-1.2-11.6-1.8-17.4
		c-0.7-7.7-1.5-15.4-2.2-23.1c-0.3-3.1-0.7-6.3-0.7-9.4c-0.1-8.6,5.4-16.6,13.4-20c6-2.6,11.9-2.5,17.8,0.1
		c4.1,1.8,8.2,3.8,12.2,5.8c3.9,1.9,7.9,3.8,11.8,5.7C186.3,186.1,186.7,186.1,187.1,186.2z"/>
	<path d="M294.1,217.6c-1.4,4.2-1.9,8.2-1.5,12.3c0.5,5.6,2.4,10.8,6.1,15.1c0.8,0.9,0.8,1.4-0.1,2.3c-9.9,9.8-19.7,19.7-29.6,29.5
		c-17.1,17.1-34.2,34.2-51.4,51.2c-5.8,5.7-3.8,14.9,4.2,17.1c8.5,2.3,17.1,4.6,25.6,6.9c23,6.2,46.1,12.3,69.1,18.6
		c2.9,0.8,5.8,2.3,7.7,5c1.5,2.1,2.4,4.4,2.4,7c0,7.9-7.2,13.5-14.9,11.5c-24.7-6.6-49.4-13.3-74.1-19.9c-8-2.1-15.9-4.3-23.9-6.4
		c-7-1.9-12.4-6-16.9-11.6c-4.6-5.8-6.2-12.6-7-19.6c-0.5-4.2,1.1-8.3,2.1-12.3c1.3-5,4.3-9.1,7.8-12.7c31-31.1,62.1-62.1,93.2-93.1
		C293.4,218.2,293.7,218,294.1,217.6z"/>
	<path d="M275.5,163.7c11.3-9.8,12.2-11.4,13-23.4c11,15.7,21.8,31.1,32.6,46.5c-5.8,5.8-11.5,11.5-17.3,17.3
		C294.4,190.7,285,177.3,275.5,163.7z"/>
</g>
</svg>
