<?xml version="1.0" encoding="utf-8"?>
<!-- Generator: Adobe Illustrator 22.1.0, SVG Export Plug-In . SVG Version: 6.00 Build 0)  -->
<svg version="1.1" id="Layer_1" xmlns="http://www.w3.org/2000/svg" xmlns:xlink="http://www.w3.org/1999/xlink" x="0px" y="0px"
	 viewBox="0 0 600 600" style="enable-background:new 0 0 600 600;" xml:space="preserve">
<g>
	<path d="M557,39.5c0,2.6,0,5.2,0,7.8c-0.1,0.4-0.3,0.9-0.3,1.3c-0.7,8.2-1.3,16.4-2,24.6c-0.7,8.5-1.4,16.9-2.1,25.4
		c-0.9,10.3-1.7,20.7-2.6,31c-0.7,8.4-1.4,16.8-2.1,25.2c-0.9,10.2-1.7,20.4-2.6,30.6c-0.7,8.5-1.4,16.9-2.1,25.4
		c-0.9,10.3-1.7,20.7-2.6,31c-0.7,8.5-1.4,16.9-2.1,25.4c-0.7,8.7-1.5,17.4-2.2,26.1c-0.7,8.4-1.4,16.8-2.1,25.2
		c-0.7,8.7-1.5,17.4-2.2,26.1c-0.7,8.4-1.4,16.8-2.1,25.2c-0.7,8.7-1.5,17.3-2.2,26c-0.7,8.5-1.4,16.9-2.1,25.4
		c-0.8,10.1-1.7,20.3-2.6,30.4c-0.7,8.5-1.4,16.9-2.1,25.4c-0.9,10.3-1.7,20.5-2.6,30.8c-0.7,8.6-1.5,17.2-2.2,25.8
		c-0.7,8.4-1.6,16.8-2,25.2c-0.3,5.3-2.1,9.7-6.3,12.8c-3.6,2.6-7.5,4.9-11.6,6.6c-14.2,5.9-29.3,8.6-44.4,10.9
		c-14.7,2.2-29.4,4-44.1,5.5c-13.8,1.4-27.6,2.5-41.5,3.4c-13.9,0.9-27.8,1.2-41.8,1.8c-0.8,0-1.5,0.2-2.3,0.3
		c-14.9,0-29.8,0-44.8,0c-0.8-0.1-1.5-0.3-2.3-0.3c-9.7-0.4-19.4-0.6-29.2-1.1c-11.1-0.6-22.1-1.3-33.2-2.2
		c-10.3-0.8-20.7-1.7-31-2.9c-11.3-1.3-22.6-2.8-33.9-4.5c-12.5-1.9-24.9-4.3-36.9-8.2c-6.9-2.2-13.6-4.8-19.1-9.6
		c-3.9-3.3-6-7.5-6.3-12.7c-0.7-8.9-1.4-17.8-2.1-26.7c-0.7-8.8-1.5-17.6-2.2-26.3c-0.7-8.6-1.4-17.2-2.1-25.8
		c-0.9-10.3-1.7-20.7-2.6-31c-0.7-8.3-1.4-16.7-2.1-25c-0.7-8.7-1.5-17.4-2.2-26.1c-0.7-8.4-1.4-16.8-2.1-25.2
		c-0.9-10.2-1.7-20.4-2.6-30.6c-0.7-8.5-1.4-16.9-2.1-25.4c-0.9-10.2-1.7-20.4-2.6-30.6c-0.7-8.5-1.4-16.9-2.1-25.4
		c-0.9-10.2-1.7-20.4-2.6-30.6c-0.7-8.5-1.4-16.9-2.1-25.4c-0.7-8.7-1.5-17.3-2.2-26c-0.7-8.4-1.4-16.8-2.1-25.2
		c-0.7-8.7-1.5-17.4-2.2-26.1c-0.7-8.4-1.4-16.8-2.1-25.2c-0.9-10.2-1.7-20.4-2.6-30.6c-0.7-8.2-1-16.4-2.1-24.6
		c-1.2-9.3,2.1-16,9.9-20.8c6-3.7,12.6-6,19.4-7.8c20.6-5.6,41.6-8.2,62.7-10.5c12.2-1.3,24.5-2.3,36.8-3.2c14.9-1,29.9-2,44.8-2.6
		c15.3-0.7,30.6-1,45.9-1.3c49.2-0.9,98.4-0.4,147.6,2.8c19.1,1.2,38.1,2.9,57.1,4.7c15.9,1.5,31.7,3.8,47.4,7
		c9.7,2,19.3,4.4,28.2,8.8c4,2,8,4.3,10.5,8.1C555.1,34.3,555.9,37,557,39.5z M74.1,71.7c0,0.6,0,1.2,0,1.7c0.5,6.3,1,12.5,1.6,18.8
		c1.4,16.3,2.8,32.5,4.2,48.8c1.4,17,2.8,34.1,4.3,51.1c1.4,16.6,3,33.1,4.4,49.7c1.2,14.3,2.2,28.6,3.3,43
		c0.9,12.1,1.9,24.2,3,36.2c1.1,13.2,2.3,26.3,3.4,39.5c1,12.4,2.1,24.8,3.1,37.2c1.2,14.1,2.4,28.3,3.5,42.4
		c1.1,12.9,2.1,25.8,3.1,38.7c0.1,1.1,0.5,1.6,1.5,1.8c2.3,0.5,4.6,1.1,7,1.7c26.3,5.8,53,8.8,79.8,11.2c13.6,1.2,27.1,2.2,40.7,2.8
		c18.7,0.9,37.3,1.6,56,1.8c31.8,0.4,63.5-0.9,95.2-3.4c13.3-1.1,26.6-2.1,39.9-3.7c13.8-1.6,27.5-3.6,41.1-5.8
		c7.2-1.1,14.3-3,21.4-4.6c0.6-0.1,1.4-0.8,1.4-1.3c0.6-6.1,1.1-12.1,1.6-18.2c0.7-8.5,1.4-16.9,2.1-25.4
		c0.8-10.1,1.7-20.3,2.6-30.4c0.7-8.5,1.4-16.9,2.1-25.4c0.7-8.7,1.5-17.4,2.2-26.1c0.7-8.4,1.4-16.8,2.1-25.2
		c0.7-8.6,1.6-17.2,2.1-25.8c0.4-6.7,0.8-13.4,1.3-20.1c1.1-16.5,1.7-33.1,4.4-49.5c1.1-6.8,1.2-13.7,1.7-20.5
		c0.7-8.4,1.4-16.8,2.1-25.2c0.7-8.8,1.5-17.6,2.2-26.3c0.7-8.5,1.4-16.9,2.1-25.4c0.7-8.7,1.5-17.4,2.2-26.2
		c0.7-8.7,1.5-17.3,2.2-26c0.3-4,0.6-8,1-12.1c-0.7,0.1-1.2,0.3-1.7,0.4c-9.3,1.9-18.4,4.3-27.8,5.4c-17.4,2.1-34.8,3.9-52.2,5.1
		c-18.6,1.3-37.3,2-56,2.4c-28.9,0.6-57.8,1.1-86.8,0.9c-37.9-0.2-75.9-1-113.8-1.6c-8.8-0.2-17.6-0.7-26.4-1.3
		c-12.6-0.9-25.2-1.7-37.8-3c-11.6-1.2-23.1-3.1-34.6-4.9C84,74.2,79.2,72.9,74.1,71.7z M489.4,510.7c-0.7,0.1-1,0-1.3,0.1
		c-24.6,5.3-49.5,8.3-74.5,10.7c-14.3,1.4-28.7,2.5-43,3.2c-19.1,1-38.2,1.8-57.3,2.2c-25.8,0.5-51.6-0.2-77.4-1.8
		c-12.2-0.7-24.5-1.4-36.7-2.5c-13.3-1.2-26.6-2.5-39.8-4.2c-13.3-1.7-26.6-4-39.9-6.1c-2.9-0.5-5.8-1.1-8.9-1.7
		c0.2,2.6,0.4,5,0.6,7.4c0.9,10.5,1.8,20.9,2.6,31.4c0.1,1.5,0.5,2.4,2,2.8c6.5,1.7,12.9,3.8,19.5,5.2c19.7,4.2,39.6,6.6,59.6,8.5
		c14.8,1.4,29.7,2.7,44.6,3.5c18.6,0.9,37.3,1.5,56,1.7c26.7,0.4,53.3-0.7,79.9-2.7c13.6-1.1,27.3-2.1,40.8-3.7
		c14.3-1.7,28.5-3.7,42.6-6.2c8.6-1.5,16.9-4.1,25.4-6.2c1.6-0.4,2.1-1.4,2.2-3.1c0.6-8.8,1.4-17.6,2.2-26.3
		C488.8,518.9,489.1,514.9,489.4,510.7z M508,43.6c0-0.3,0-0.5,0-0.8c-3.1-0.6-6.3-1.3-9.4-1.7c-17.9-2.2-35.8-4.8-53.8-6.5
		c-17.2-1.7-34.4-2.7-51.6-3.6c-19.4-0.9-38.7-1.6-58.1-1.9c-41.4-0.6-82.9-0.5-124.3,1.8c-19.3,1.1-38.5,2.4-57.8,3.9
		c-18.1,1.4-36.2,3.7-54.1,6.7c-2.4,0.4-4.7,0.9-7.5,1.5c0.6,0.3,0.7,0.4,0.9,0.4c17.9,3.5,35.9,5.7,54,7.4
		c14.1,1.3,28.3,2.4,42.4,3.2c19.3,1.1,38.6,2.2,57.9,2.6c25.1,0.5,50.2,0.6,75.3,0.5c18.6-0.1,37.2-0.6,55.8-1.3
		c14.2-0.5,28.5-1.4,42.7-2.3c8.5-0.5,16.9-1.2,25.4-2c10.4-1,20.9-2.1,31.3-3.4C487.5,46.7,497.7,45.1,508,43.6z"/>
	<path d="M89.9,234.7c30.3-7.9,61.1-10.3,92.5-12.9c-0.9,0.8-1.3,1.2-1.7,1.6c-10.1,9.1-20.1,18.2-30.2,27.2
		c-0.3,0.3-0.7,0.5-0.8,0.8c-0.6,2.4-2.6,2.2-4.5,2.4c-10.8,1.5-21.7,3-32.5,4.4c0,0.2,0,0.3,0,0.5c1.6,0.4,3.2,0.9,4.8,1.2
		c1.7,0.3,3.5,0.5,5.2,0.7c4.8,0.7,9.6,1.5,14.4,2.2c5.3,0.7,10.5,1.3,15.8,1.8c6.6,0.6,13.1,1.2,19.7,1.7c6.1,0.5,12.3,1,18.4,1.4
		c7.6,0.5,15.1,1,22.7,1.4c6.1,0.3,12.3,0.6,18.4,0.9c31.2,1.1,62.5,1.5,93.7,1.1c14.8-0.2,29.6-0.6,44.3-1.2
		c12.4-0.5,24.9-1.1,37.3-1.9c13-0.9,25.9-2.1,38.9-3.4c9.5-0.9,18.9-2,28.4-3.2c4.4-0.5,8.8-1.5,13.2-2.2c0-0.2,0-0.4,0-0.6
		c-6.1-1-12.2-2.1-18.4-3c-4.7-0.7-9.5-1.2-14.3-1.7c-2-0.2-2.9-1.1-4-2.7c-2.9-4-6.1-7.9-9.2-11.8c-4.4-5.6-8.8-11.2-13.3-16.8
		c8.1-1.6,73.5,7.7,81.1,11.6c-0.8,10-1.7,20-2.5,30c-0.5,6.2-1,12.4-1.4,18.6c-0.1,1.1-0.3,1.8-1.5,1.9c-1.5,0.2-3,0.8-4.5,1
		c-1.2,0.2-1.5,0.8-1.6,1.8c-0.8,9.2-1.6,18.5-2.4,27.7c-0.8,9.4-1.7,18.8-2.6,28.3c-0.8,9.4-1.6,18.7-2.5,28.1
		c-0.8,9.4-1.7,18.8-2.6,28.3c-0.8,9.4-2,18.7-2.4,28.1c-0.8,17.8-8.5,31.6-23.4,41.3c-5.8,3.8-12.2,5.4-19,6.4
		c-11.7,1.7-23.4,3.6-35.2,5c-11.9,1.5-23.8,2.6-35.8,3.6c-27.5,2.4-55.1,3.5-82.8,2.9c-17.9-0.4-35.8-1.1-53.6-2.3
		c-14.9-1-29.8-2.7-44.6-4.5c-12.8-1.5-25.5-3.4-38.2-5.6c-13.7-2.4-23.6-10.7-30.9-22.3c-4.2-6.7-6.1-14-6.7-21.9
		c-0.7-9.7-1.7-19.4-2.6-29c-0.8-9.4-1.6-18.7-2.5-28.1c-0.8-9.4-1.7-18.8-2.6-28.3c-0.8-9.4-1.6-18.7-2.5-28.1
		c-0.9-10.1-1.8-20.1-2.8-30.2c0-0.4-0.6-1.1-1.1-1.2c-2.2-0.6-4.4-1-6.6-1.6c-0.5-0.2-1.2-0.9-1.2-1.5c-1.1-12.7-2.1-25.3-3.1-38
		C90.5,241.8,90.2,238.4,89.9,234.7z M127.8,290.4c0,0.8,0,1.4,0,1.9c0.9,10.4,1.9,20.8,2.8,31.2c1.1,12.3,2.3,24.5,3.4,36.8
		c1,10.8,1.9,21.7,2.9,32.5c1.1,12.3,2.5,24.5,3.3,36.8c0.5,8.1,4.3,14.1,10.7,18.7c1.9,1.4,4.3,2.3,6.7,2.9c3.4,0.8,7,1.2,10.5,1.7
		c22.6,3.7,45.4,6.4,68.3,8c16,1.1,32.1,1.9,48.2,2.3c25.9,0.7,51.9-0.1,77.7-2.1c11.9-1,23.9-1.9,35.8-3.3
		c13.8-1.6,27.4-3.7,41.2-5.7c3.8-0.6,7.7-1,11-3.4c6.2-4.5,10.4-10.1,10.9-18.1c0.7-9.8,1.7-19.6,2.6-29.4
		c0.8-9.1,1.6-18.2,2.5-27.3c0.9-9.5,1.7-19.1,2.6-28.6c0.7-7.9,1.4-15.9,2.2-23.8c0.8-9.3,1.7-18.6,2.5-27.9c0.1-0.9,0-1.8,0-2.6
		c-3.2,0.2-6.3,0.4-9.3,0.7c-8.1,0.8-16.1,1.8-24.2,2.5c-8.7,0.8-17.4,1.5-26.2,2.1c-11.1,0.8-22.2,1.6-33.4,2.2
		c-10.9,0.5-21.8,0.7-32.6,1c-7.3,0.2-14.5,0.5-21.8,0.5c-22,0-44.1,0.2-66.1-0.3c-33.1-0.7-66.2-1.8-99.1-5.5
		c-8.1-0.9-16.2-1.8-24.3-2.6C133.6,291,130.8,290.7,127.8,290.4z"/>
	<path d="M452.4,262.4c-7.8,0.7-15.4,1.4-23,2c-1.5,0.1-3,0.4-4.4,0.3c-0.6,0-1.3-0.5-1.7-1c-1.3-1.7-2.3-3.6-3.7-5.2
		c-14.6-15.7-29.2-31.3-43.8-46.9c-6.4-6.8-14.7-7.1-21.6-0.7c-15.9,14.9-31.9,29.7-47.8,44.6c-3.8,3.5-5.5,7.8-4.6,13
		c0,0.2,0,0.5,0,0.8c-0.3,0-0.5,0.1-0.8,0.1c-16.7-0.2-33.4-0.5-50.2-0.7c-0.5,0-1.1-0.1-1.6-0.1c-4.6,0.8-7.8-1.1-10.8-4.6
		c-5-5.9-10.5-11.3-15.7-17c-6.3-6.8-14.7-7.1-21.5-0.9c-6.4,5.9-12.8,11.8-19.1,17.7c-1.1,1-2.1,1.3-3.5,1.1
		c-5.7-0.5-11.5-0.9-17.2-1.5c-6.1-0.6-12.3-1.3-18.7-2c0.3-0.4,0.4-0.6,0.6-0.8c9.4-8.6,18.8-17.2,28.2-25.9
		c4.2-3.8,8.1-7.9,12.5-11.4c14.9-11.7,31.1-12.8,48.1-4.8c0.9,0.4,1.7,1.3,2.5,2c5.8,5.6,11.6,11.1,17.3,16.8
		c6.4,6.4,12.6,12.9,18.9,19.3c0.7,0.7,1.4,1.5,2,2.2c1.4-3.9,2.7-7.7,4.1-11.4c0.3-0.7,0.7-1.4,1.2-1.9c18-19.7,37-38.3,56.8-56.3
		c16.2-14.8,41.4-15.4,57.9-1.1c5.2,4.5,9.6,9.8,14.3,14.9c5.5,5.8,11.1,11.5,16.3,17.5c7.9,9.3,15.3,18.9,23.1,28.3
		c2.9,3.4,4.9,7.1,5.6,11.5C452.3,261.1,452.3,261.6,452.4,262.4z"/>
	<path d="M208.5,393.6c-8.1-0.1-15.7-2-22.4-6.3c-3.2-2.1-6.4-4.5-9-7.3c-14.2-15-28.2-30.1-42.2-45.2c-0.7-0.7-1.2-1.7-1.3-2.7
		c-1.2-13.1-2.4-26.2-3.5-39.5c6.8,0.8,13.5,1.5,20.1,2.2c-0.5,2.1-1.3,4.2-1.5,6.3c-0.4,3.9,1,7.3,3.7,10.3
		c13.7,14.6,27.3,29.3,41,44c1.4,1.5,2.8,3,4.2,4.6c5.8,6.2,14.8,6.6,21,0.7c15.6-14.5,31.1-29.1,46.7-43.5
		c4.6-4.3,7.1-9.1,5.9-15.5c3.3,0,6.6,0,9.8,0c15.2,0,30.5-0.1,45.7-0.2c1.8,0,3,0.5,4.2,1.8c6.5,7.1,13.1,14,19.6,21.1
		c6,6.4,14.9,6.7,21.3,0.8c8.9-8.3,17.8-16.7,26.8-24.9c0.8-0.7,2-1.3,3-1.3c11.4-0.9,22.9-1.7,34.3-2.5c2.7-0.2,5.4-0.5,8.8-0.8
		c-1.7,1.9-2.8,3.4-4.2,4.7c-4.4,4.3-9,8.5-13.5,12.7c-11,10.3-22.2,20.5-33.1,31c-6.6,6.4-13.9,11.3-23.3,13.3
		c2.4,2.7,4.7,5.1,6.9,7.6c4.9,5.5,8.4,11.8,9.9,19.1c3.3,15.6-0.5,29.3-11.9,40.4c-11.3,11.1-23.2,21.6-34.5,32.6
		c-3.1,3-6.3,4.1-10.5,4.1c-15,0-30.1,0.3-45.1,0.3c-8.6,0-17.1-0.6-25.7-0.8c-1.6,0-2.6-0.6-3.7-1.8
		c-11.7-12.6-23.5-25.3-35.3-37.8c-7-7.4-11.1-16.1-12.1-26.3C208.7,394.3,208.6,394.1,208.5,393.6z M296.7,453.2
		c3.9,0.1,7.2-1.2,10.1-3.8c1.6-1.5,3.1-2.9,4.7-4.4c14.6-13.7,29.3-27.3,43.9-41.1c5.9-5.6,6.4-14.2,1-20.1
		c-15.2-16.4-30.5-32.8-45.8-49c-5.6-5.9-14.3-6-20.2-0.5c-16.2,15.1-32.3,30.2-48.4,45.3c-6.4,6-6.7,14.2-0.8,20.5
		c15,16.2,30.1,32.4,45.2,48.5C289.1,451.7,292.6,453.2,296.7,453.2z"/>
</g>
</svg>
