<?xml version="1.0" encoding="utf-8"?>
<!-- Generator: Adobe Illustrator 22.1.0, SVG Export Plug-In . SVG Version: 6.00 Build 0)  -->
<svg version="1.1" id="Layer_1" xmlns="http://www.w3.org/2000/svg" xmlns:xlink="http://www.w3.org/1999/xlink" x="0px" y="0px"
	 viewBox="0 0 600 600" style="enable-background:new 0 0 600 600;" xml:space="preserve">
<g>
	<path d="M0.1,297.5c0.2-0.5,0.5-0.9,0.7-1.4c2.1-5.1,5.6-7.4,11.1-7.4c172.6,0,345.2,0,517.9,0c18.6,0,37.2,0.3,55.8-0.1
		c7.2-0.2,11.8,2.3,14.3,8.9c0,6.7,0,13.4,0,20.1c-0.2,1-0.5,2-0.6,3c-1.8,29.1-7.2,57.6-15.8,85.5c-17,55.5-45.1,104.5-86.7,145.3
		c-24.4,23.9-53,39.7-86.8,45.9c-5,0.9-10,1.5-15.1,2.3c-63.3,0-126.6,0-189.9,0c-3.4-0.5-6.8-0.9-10.1-1.4
		c-34-5.2-63.4-20-88.3-43.5c-37.9-35.9-65.1-79-83.2-127.8c-11-29.7-18.2-60.4-21.5-91.9c-0.6-5.8-1.2-11.6-1.8-17.4
		C0.1,310.9,0.1,304.2,0.1,297.5z M563.2,390.8c-1.7,0-2.9,0-4.2,0c-38,0-76,0-114.1,0c-1.3,0-2.7,0-4-0.5
		c-6.1-2.1-9.5-7.7-8.4-13.7c1.1-5.8,7-9.8,12.4-9.8c40.1,0.2,80.2,0.1,120.3,0.1c1.2,0,2.4,0,3.6,0c3.8-18.4,6.2-36.5,7.1-54.9
		c-184.3,0-368.1,0-552.2,0c1,18.6,3.2,36.7,7.1,54.9c1.3,0,2.5,0,3.6,0c122.5,0,245,0,367.5,0c1.3,0,2.7,0,4,0.4
		c6,1.6,9.6,7.2,8.8,13.4c-0.8,6-6,10.1-12.7,10.1c-120.4,0-240.9,0-361.3,0c-1.3,0-2.6,0-4,0c0.2,1,0.2,1.5,0.3,2
		c10.2,35.3,25.1,68.4,46.3,98.6c15,21.4,31.7,41.3,52.7,57.1c22.5,16.9,47.9,27,76.2,27.2c57,0.5,114.1,0.2,171.1,0.1
		c6.8,0,13.6-0.4,20.3-1.5c29.9-4.9,55.2-18.8,76.7-39.9c37.8-37.1,63.5-81.6,79.4-131.9C561,398.7,562,395,563.2,390.8z"/>
	<path d="M239.5,0.4c5.4,1.1,10.9,1.8,16.1,3.3c30.8,8.5,52.8,27.5,66.6,56.2c-7.3,7-12.2,15.3-16.6,24.4c-1.1-3.5-1.8-6.5-3-9.3
		c-11.5-28.7-32.4-46-63.3-50.2c-40.5-5.4-79,23.6-85.2,63.8c-1.2,7.5-4.5,10-11.8,12.2c-8.2,2.5-16.1,2.8-24.6,1.4
		c-8.6-1.4-17.5-0.7-26.4,1.2c0.7-0.8,1.3-1.6,2.1-2.3c10.2-10.1,22.1-17.4,35.8-21.6c1.9-0.6,2.8-1.5,3.3-3.5
		c11.9-40.5,38.5-65.3,79.8-74.2c2.9-0.6,5.9-1,8.9-1.5C227.4,0.4,233.5,0.4,239.5,0.4z"/>
	<path d="M309.9,271.1c-1.5-7.6-2.6-15.2-4.5-22.5c-2.6-9.9-7.6-18.7-14-26.6c-0.3-0.4-0.6-0.9-1.1-1.1c-4.9-2.6-5-7.1-5.1-11.8
		c-0.5-21.9,6.6-40.9,21.2-57.2c0.7-0.8,1-2.5,0.7-3.5c-5.8-18-5.4-35.9-0.6-54.2c2.6-10,6.8-18.9,13.3-26.5
		c20.8-24.4,46.8-37,79.4-33.8c10.9,1.1,21.2,4.3,30.9,9.6c2,1.1,3.4,1,5.3-0.1c59.7-35,136.5-0.5,149.8,67.4
		c4.7,24.2,1,47.3-10.9,69c-1.1,1.9-1,3.1,0.3,5c20.4,29.4,20.7,68.2,0.8,98c-1.5,2.3-3.1,3.1-5.8,3c-9.5-0.2-19-0.1-29.1-0.1
		c1.2-1.1,2-1.8,2.8-2.5c27.8-23.1,30.9-63.9,7.1-91.1c-5.1-5.8-5.3-10.8-0.9-17.2c31.1-45.2,7.9-106.5-45.3-119.4
		C481.8,50,461,54.2,442,67.2c-6.8,4.7-10.5,4.8-17.4,0.3c-38-25.1-89.2-3-97.2,42c-2.3,12.7-0.7,25.1,4.5,37
		c3.4,7.8,2.6,11.7-3.9,17.4c-22.6,19.8-25.6,53.7-7.1,77.4c5.3,6.8,5.1,11.9-0.8,18.4C316.7,263.6,313.2,267.5,309.9,271.1z"/>
	<path d="M439.7,168.2c1.7-1.8,2.8-3.2,4-4.4c8.7-8.9,17.3-17.8,26.1-26.6c6.7-6.7,17.4-4.1,20,4.8c1.3,4.7-0.1,8.8-3.6,12.3
		c-9.3,9.5-18.5,19-27.8,28.5c-0.7,0.7-1.4,1.5-2.4,2.6c3.5,0.7,6.6,1.2,9.7,1.9c9.2,2.1,17.9,5.6,25.8,10.8c4.1,2.7,6,6.7,5.3,11.5
		c-0.7,5-3.7,8.4-8.5,9.8c-3.6,1-6.9,0.2-10.2-1.7c-9.9-5.8-20.4-9.3-32.1-8.7c-10.1,0.5-18.1,5.1-25,12.1c-6,6-11.8,12.1-17.7,18.1
		c-0.3,0.3-0.4,0.6-0.8,1.2c10.8,1.6,20.7,5,29.5,10.9c4.2,2.8,8.2,6.1,11.9,9.6c5.2,4.9,5.1,12.3,0.4,17
		c-4.7,4.7-11.8,4.6-17.1-0.3c-10-9.4-21.8-14.7-35.7-13.8c-4.8,0.3-9.6,1.8-14.3,3c-1.1,0.3-2.1,1.3-3,2.1c-5,5-9.9,10.1-15,15.2
		c-0.7,0.7-1.7,1.5-2.5,1.5c-10.4,0.1-20.8,0.1-31.8,0.1c1-1.1,1.6-1.9,2.3-2.6c8.5-8.7,16.8-17.7,25.7-26.1
		c4.9-4.6,7.1-10.2,8.2-16.4c2.9-16.3-1.9-30.3-13.1-42.2c-6-6.4-4.7-15.8,2.8-19.5c4.6-2.2,10-1.3,14,2.8
		c9.4,9.5,15.4,20.9,18.7,33.8c0.6,2.5,1,5.1,1.6,8c0.8-0.7,1.5-1.2,2.1-1.8c6.3-6.4,12.5-12.9,18.8-19.3
		c9.3-9.2,11.6-20.4,9.8-32.8c-1.2-8-4.2-15.4-8.3-22.4c-3.7-6.4-2.2-13.4,3.6-16.9c5.9-3.6,12.7-1.7,16.7,4.7
		C434.2,144.7,437.9,155.6,439.7,168.2z"/>
	<path d="M193.1,196.8c-7.1,4.4-14,8.6-20.3,12.5c-3.8-10.5-7.2-21.5-11.7-32.1c-5.9-14.1-14.1-27-25.6-37.4
		c-6.7-6.1-14.2-10.9-23.6-11.8c-7.2-0.7-13.6,1.4-19.7,5c-9.1,5.4-16,13-21.9,21.6c-13,18.8-20.8,39.8-25,62.1
		c-2.3,11.9-3.7,23.9-2.7,36.1c0.9,11,4.4,21.2,10.3,30.5c0.3,0.5,0.6,1.1,0.9,1.6c0,0.1,0,0.2-0.2,0.6c-8.4,0-16.9,0.1-25.4-0.1
		c-0.7,0-1.7-1.3-2.1-2.2c-4.9-11.2-7.6-23-7.5-35.2c0.5-38.1,10.3-73.5,31.3-105.5C56,133.2,63.4,125,72.1,118
		c19.8-16,51.3-19.7,75.5,0.8c10.6,8.9,19.1,19.5,26.1,31.4c8.4,14.2,14.7,29.4,19.1,45.3C193,196.1,193,196.7,193.1,196.8z"/>
	<path d="M305.2,285.4c-8.1,0-15.8,0-23.7,0c2.8-20.6-2.8-38.4-18.1-52.6c-11.6-10.7-25.5-15.7-41.3-14.9
		c-32.2,1.6-59.1,30.4-53.6,67.3c-6.9,0-13.7,0-20.8,0c-1.5-7-1.4-14.1-0.8-21.3c3.1-36.7,33.6-61.5,59.4-66.9
		c30.1-6.3,56.5,0.5,78.3,23.3c16.7,17.3,22.3,38,21.1,61.2C305.7,282.9,305.4,284.1,305.2,285.4z"/>
	<path d="M223.6,159.2c0-9.4,0-18.8,0-28.2c0-4.4-0.3-8.8-0.3-13.1c0-7,4.9-12.1,11.5-12.2c6.9-0.1,12,4.8,12.2,12
		c0.3,11.3,0.5,22.5,0.8,33.8c0.1,2.6,0.2,5.1,0.3,7.1c8.1-3.5,16-7.1,24.1-10.4c3.1-1.3,6.4-1.9,9.6-2.6c5-1,9.1,0.8,12,4.9
		c2.7,3.9,2.9,7.9,0.2,12.3c-2.2,3.6-5,5.5-9,6.4c-8.8,2.1-17.1,5.4-24.3,10.9c-4.4,3.3-7.9,7.3-10.4,12.3c-0.4,0.8-1.8,1.5-2.7,1.5
		c-7.7-0.5-15.3-1.1-23-1.8c-1.1-0.1-2.6-0.5-3.1-1.3c-5.8-10.2-15.2-15.8-25.8-19.1c-6.2-1.9-10.4-4.7-12.3-11
		c-0.9-2.9-2.8-5.6-3.9-8.5c-0.4-0.9-0.2-2.6,0.4-3.2c3-3.1,6.7-4.4,11.1-3.5C202.7,148.1,213.7,152.7,223.6,159.2z"/>
	<path d="M144.3,285.4c-6.8,0-13.3,0-20.5,0c9-6.3,13.9-14.3,13.8-24.9c-0.1-8.2-3.2-15-9.2-20.5c-11.7-10.8-30-9.7-40.5,2.6
		c-9.9,11.5-9.9,31.3,7.3,43c-2.9,0-5.1,0-7.3,0c-7.3,0-14.6-0.1-21.9,0c-1.7,0-2.5-0.5-3.3-2c-15.2-30.2,3.9-68.2,37.4-73.8
		c21.3-3.5,38.5,3.8,51.5,20.9c0.7,0.9,0.9,2.8,0.4,3.8c-7.7,15.2-9.7,31.3-7.9,48.1C144.2,283.4,144.2,284.3,144.3,285.4z"/>
</g>
</svg>
