<?xml version="1.0" encoding="utf-8"?>
<!-- Generator: Adobe Illustrator 22.1.0, SVG Export Plug-In . SVG Version: 6.00 Build 0)  -->
<svg version="1.1" id="Layer_1" xmlns="http://www.w3.org/2000/svg" xmlns:xlink="http://www.w3.org/1999/xlink" x="0px" y="0px"
	 viewBox="0 0 600 600" style="enable-background:new 0 0 600 600;" xml:space="preserve">
<g>
	<path d="M206,600c-0.1-0.1-0.1-0.3-0.2-0.3c-6.9-1.9-9.8-6.8-10.3-13.6c-1-12.3-2.3-24.6-3.4-37c-1-10.5-1.9-21-2.9-31.5
		c-1.1-11.9-2.3-23.7-3.4-35.6c-1.1-11.9-2.2-23.7-3.3-35.6c-1.1-11.9-2.3-23.7-3.4-35.6c-1-10.5-1.9-21-2.9-31.5
		c-1.1-11.9-2.3-23.7-3.4-35.6c-1-10.5-1.9-21-2.9-31.5c-1.1-11.9-2.3-23.7-3.4-35.6c-1.1-11.9-2.2-23.7-3.3-35.6
		c-0.8-9.1-1.8-18.1-2.6-27.2c-0.1-1-0.1-2.1-0.2-3.2c8.8,0,17.4,0,26.2,0c11.3,121,22.6,241.9,33.9,362.9c53.3,0,106.3,0,159.6,0
		c0.3-2.5,0.5-5,0.8-7.5c1.2-14.3,2.4-28.7,3.6-43c1.2-14.4,2.3-28.8,3.6-43.2c0.9-10.9,2-21.9,3-32.8c0.9-10.1,1.6-20.2,2.5-30.3
		c0.8-10,1.8-19.9,2.6-29.9c0.6-7.4,1.1-14.9,1.7-22.3c0.6-7.7,1.4-15.4,2.1-23.1c0.6-7,1.2-14,1.8-20.9c0.7-8.6,1.5-17.2,2.2-25.8
		c0.7-8.4,1.4-16.8,2.1-25.2c0.8-8.7,1.4-17.5,2.4-26.2c0.7-6.7,7-11.7,13.6-11.2c6.9,0.5,12.4,6.1,12.2,12.9
		c-0.2,5.7-0.8,11.4-1.3,17c-0.7,8.6-1.5,17.2-2.2,25.8c-0.9,10-1.7,20.1-2.6,30.1c-0.7,8.3-1.4,16.7-2.1,25
		c-0.9,10.1-1.7,20.2-2.6,30.3c-0.7,8.3-1.4,16.6-2.1,24.9c-0.9,10.2-1.8,20.5-2.6,30.7c-0.7,8.2-1.4,16.4-2.1,24.7
		c-0.9,10.2-1.8,20.5-2.6,30.7c-0.7,8.4-1.4,16.8-2.1,25.2c-0.9,10-1.7,20.1-2.6,30.1c-0.7,8.3-1.4,16.7-2.1,25.1
		c-0.7,8-1.2,15.9-2.1,23.9c-0.6,5.5-4,9.1-9.2,10.9c-0.4,0.1-0.8,0.3-1.3,0.5C331.8,600,268.9,600,206,600z"/>
	<path d="M458.1,16.1c-0.1,0.3-0.3,0.5-0.4,0.8c-1.4,4.5-4.3,7.5-8.8,9c-21.2,7.1-42.4,14.2-63.6,21.2c-1.4,0.5-2.1,1.1-2.5,2.6
		c-8.1,28.7-16.2,57.3-24.3,86c-0.1,0.4-0.2,0.7-0.3,1.4c1,0,1.9,0,2.7,0c26.6,0,53.2,0,79.8,0c5,0,9.1,1.4,12.1,5.5
		c1.7,2.4,2.5,5,2.5,7.9c0,15,0.1,30,0,45c0,7.8-5.7,13.3-13.5,13.3c-95.3,0-190.7,0-286,0.1c-7.1,0-13.5-5.9-13.4-13.4
		c0.2-15,0-30,0.1-45c0-7.5,5.1-12.9,12.6-13.3c0.9-0.1,1.8,0,2.8,0c56.9,0,113.7,0,170.6,0c2,0,2.7-0.6,3.3-2.5
		c9.4-33.3,18.8-66.6,28.2-99.9c1.4-4.8,4.4-8.1,9.2-9.7c23.7-7.9,47.4-15.9,71.2-23.7c8.1-2.7,15.1,1,17.6,9.3
		c0.1,0.2,0.2,0.3,0.3,0.5C458.1,12.7,458.1,14.4,458.1,16.1z M428.9,163.3c-86.9,0-173.6,0-260.4,0c0,6.5,0,12.8,0,19.3
		c86.8,0,173.6,0,260.4,0C428.9,176.1,428.9,169.8,428.9,163.3z"/>
	<path d="M191.3,237.2c1,0.6,1.7,0.9,2.4,1.3c67.2,37.4,134.4,74.9,201.6,112.3c1.5,0.9,1.6,1.8,1.5,3.3c-0.8,8.5-1.4,17-2.1,25.4
		c0,0.2-0.1,0.4-0.2,0.8c-0.7-0.3-1.3-0.6-1.9-1c-65.6-36.6-131.2-73.1-196.8-109.6c-1.4-0.8-1.8-1.6-1.9-3.2
		c-0.5-6.8-1.1-13.6-1.8-20.3C191.8,243.3,191.6,240.5,191.3,237.2z"/>
	<path d="M384.6,497.9c-9.6-5.3-18.9-10.5-28.2-15.7c-46.8-26.1-93.6-52.2-140.4-78.2c-4.6-2.5-7.5-6.1-7.6-11.5
		c-0.4-10.3,10.2-16.9,19.3-12c7.9,4.3,15.7,8.7,23.5,13.1c44.7,24.9,89.3,49.8,134,74.7c1.3,0.7,1.9,1.4,1.7,3
		c-0.8,8.5-1.4,17-2.1,25.4C384.8,497,384.7,497.3,384.6,497.9z"/>
</g>
</svg>
