<?xml version="1.0" encoding="utf-8"?>
<!-- Generator: Adobe Illustrator 22.1.0, SVG Export Plug-In . SVG Version: 6.00 Build 0)  -->
<svg version="1.1" id="Layer_1" xmlns="http://www.w3.org/2000/svg" xmlns:xlink="http://www.w3.org/1999/xlink" x="0px" y="0px"
	 viewBox="0 0 600 600" style="enable-background:new 0 0 600 600;" xml:space="preserve">
<g>
	<path d="M149.8,600c-2-0.4-4.1-0.8-6.1-1.3c-17.9-4.5-29.3-15.8-34-33.6c-2.9-11.1-5-22.3-7.3-33.5c-1.1-5.4,2.1-10.6,7.4-12.1
		c5.2-1.5,10.9,1.3,12.6,6.5c1.2,3.6,2,7.5,2.8,11.2c1.7,7.5,3.2,14.9,4.9,22.4c2.4,11,10.9,18.4,22.1,19.3c2.3,0.2,4.6,0.3,6.9,0.3
		c92.9,0,185.8,0,278.7,0c3.5,0,6.9-0.3,10.2-1.4c9.5-3.2,15-10.1,17.2-19.5c6.2-27.2,12.1-54.4,18.2-81.6
		c3.1-13.7,6.1-27.5,9.2-41.2c0.1-0.5,0.2-1,0.2-1.4c-0.1-0.1-0.1-0.2-0.2-0.3c-0.1,0-0.1-0.1-0.2-0.1c-129.2,0-258.4-0.1-387.5-0.1
		c-0.6,0-1.1,0-1.7,0.1c-0.1,0-0.2,0.1-0.5,0.3c1,4.7,2,9.4,3.1,14.2c3,13.9,6.1,27.8,9.1,41.7c0.5,2.1,0.8,4.2,0.2,6.4
		c-1.2,4.7-5.1,7.9-9.9,8c-4.8,0.1-9.1-2.8-10.3-7.4c-1.3-5.1-2.4-10.3-3.5-15.5c-3.2-14.4-6.3-28.7-9.4-43.1
		c-0.2-1-0.6-1.6-1.7-1.9c-9.1-2.9-15.8-8.7-20.6-16.8c-5.4-9.1-8.6-19.1-10.8-29.5c-0.2-1-0.6-2-0.9-3c0-2.3,0-4.6,0-6.9
		c0.3-0.7,0.7-1.4,0.8-2.2c1.3-6,4.7-10.5,9.9-13.6c5.3-3.1,11.1-4.5,17.2-4.9c0.5,0,1,0,1.5,0c147,0,293.9,0,440.9,0
		c5.3,0,10.4,1.1,15.2,3.2c10,4.3,14.8,13,13.5,23.9c-1.4,11.6-5.3,22.5-11,32.7c-4.3,7.7-10.5,13.5-19,16.5c-1,0.4-2,0.7-3.2,1.1
		c-0.7,3.2-1.5,6.5-2.2,9.7c-6.7,30-13.4,59.9-20,89.9c-2.1,9.2-4.1,18.4-6.2,27.6c-4.2,18.4-19.9,32.8-38.5,35.4
		c-0.5,0.1-0.9,0.3-1.4,0.4C346.9,600,248.4,600,149.8,600z M297.9,377.3c-68.2,0-136.3,0-204.5,0c-4.1,0-8.3,0.1-12.4,0.4
		c-3,0.2-6.1,0.7-9.1,1.5c-4.4,1.1-5.2,2.3-4.4,6.7c1.5,8.3,4.1,16.2,8.2,23.6c1.3,2.3,2.9,4.4,5,6.1c2.2,1.8,4.6,2.8,7.6,2.8
		c138.9-0.1,277.8,0,416.7,0c0.9,0,1.7-0.1,2.6,0c2.2,0.4,4.1-0.4,5.8-1.7c1.6-1.2,3.1-2.5,4.3-4.1c1.5-1.9,2.7-4.1,3.7-6.2
		c2.5-5.1,4.2-10.5,5.6-15.9c0.5-2.1,0.9-4.2,1.1-6.3c0.3-2.6-0.3-3.5-2.7-4.4c-1.5-0.5-3-1-4.5-1.3c-6-1.1-12.1-1.2-18.2-1.2
		C434.5,377.3,366.2,377.3,297.9,377.3z"/>
	<path d="M449.8,0c2.7,0.6,5.4,1.1,8.1,1.7C467.6,4,477,7.3,485.8,12c9.3,5,15.1,12.6,17.4,23c1.2,5.5,0.6,10.9-1.2,16.2
		c-6.7,19.1-13.4,38.2-20,57.2c-10.1,28.9-20.3,57.8-30.4,86.8c-0.2,0.7-0.5,1.3-0.8,2c-6.2-2.6-12.3-5.2-18.5-7.8
		c0.2-0.6,0.4-1.3,0.6-1.9c16.6-47.4,33.1-94.8,49.8-142.2c2.2-6.1-1-12.8-5.7-15.3c-9.1-4.7-18.6-8.1-28.7-9.8
		c-5.2-0.9-11.6,2.4-13.7,8.3c-17.5,50.4-35.2,100.7-52.8,151.1c-0.3,0.8-0.6,1.6-0.9,2.3c-7.4,0.9-14.7,1.8-22.3,2.7
		c0.3-0.8,0.5-1.5,0.7-2.3c5.9-16.7,11.7-33.4,17.6-50.2c12.8-36.7,25.7-73.4,38.5-110c4.3-12.3,13.1-19.2,25.6-21.8
		c0.6-0.1,1.2-0.3,1.8-0.5C445.2,0,447.5,0,449.8,0z"/>
	<path d="M355.7,354.4c-6.8,0-13.6,0-20.5,0c7.3-33.6,1.7-64.8-17.2-93.4c-11.9-18-27.8-31.8-47.2-41.3c-18.9-9.3-39-13.6-60.1-12.2
		c-37,2.4-67.4,18.1-90.1,47.5c-22.8,29.5-29.1,63-21.6,99.4c-6.8,0-13.6,0-20.5,0c-0.4-2-0.8-4-1.1-6.1c-1.8-12.4-2-24.8-0.6-37.2
		c4.9-43.2,30-81.9,69-104.6c11.4-6.6,23.5-11.7,36.4-14.9c15.2-3.8,30.7-5.3,46.4-4c25.7,2.2,49.3,10.4,70.3,25.5
		c26,18.7,44.3,43.2,53.8,73.9c5,16.2,6.9,32.9,5.7,49.8c-0.4,5.5-1.4,10.9-2.1,16.4C356.1,353.5,355.9,353.9,355.7,354.4z"/>
	<path d="M525.2,354.5c-6.9,0-13.6,0-20.4,0c7.2-32.7,2.2-63.3-15.8-91.3c-18-28-43.5-45.9-76.1-53c-32.5-7.1-63-1.4-91.4,16
		c-5.3-4.4-10.5-8.8-15.8-13.2c36.6-27,100.5-39.3,156.5-3.9C520.1,245.6,535.6,309.4,525.2,354.5z"/>
</g>
</svg>
