<?xml version="1.0" encoding="utf-8"?>
<!-- Generator: Adobe Illustrator 22.1.0, SVG Export Plug-In . SVG Version: 6.00 Build 0)  -->
<svg version="1.1" id="Layer_1" xmlns="http://www.w3.org/2000/svg" xmlns:xlink="http://www.w3.org/1999/xlink" x="0px" y="0px"
	 viewBox="0 0 600 600" style="enable-background:new 0 0 600 600;" xml:space="preserve">
<g>
	<path d="M0,310.5c0.2-0.3,0.5-0.5,0.6-0.8c1-3.4,3.7-5,6.8-6c3.4-1.2,6.9-1.9,10.5-1.9c97,0,194,0,291,0c82.5,0,165,0,247.6-0.1
		c4.2,0,9.4,3,10.5,8.3c0.2,0.8,0.2,1.7,0.2,2.5c0,19.7-3.3,38.8-9.6,57.5c-3.1,9.2-13.5,9.2-18.5,4.3c-2.8-2.7-3.7-6-2.7-9.8
		c1.1-4.2,2.4-8.3,3.4-12.6c2.1-9.2,3-18.5,3.5-27.9c0-0.2-0.1-0.5-0.1-0.7c-0.1-0.1-0.1-0.2-0.2-0.2c-0.1-0.1-0.1-0.1-0.2-0.1
		c-0.4-0.1-0.8-0.1-1.3-0.1c-172.2,0-344.4,0-516.6,0c-0.2,0-0.5,0.1-0.8,0.2c-0.6,3.4,0.1,6.8,0.6,10.1c1.5,10.4,4.3,20.5,7.5,30.4
		c2.4,7.4,5.2,14.6,8.9,21.4c3.7,7,7.8,13.8,12.1,20.4c16.5,25.3,38.4,45.3,63.6,61.7c2.4,1.6,4.8,3.6,7.5,4.4
		c2.6,0.8,5.6,0.3,8.4,0.3c95.6,0,191.3,0,286.9-0.1c7.2,0,14.5,0,21.7,0.1c1.7,0,3.1-0.4,4.6-1.3c9.8-6,19.2-12.6,28.3-19.8
		c9.3-7.3,17.7-15.5,25.4-24.4c6.8-7.8,13.1-15.9,18.6-24.7c0.5-0.9,1.1-1.8,1.7-2.6c3-3.9,8.2-5.4,12.9-3.6
		c4.4,1.7,7.4,6.1,6.8,10.9c-0.2,1.8-0.9,3.7-1.9,5.2c-3.2,5-6.7,9.8-10.1,14.8c-11.7,17-26.4,31.2-42.6,43.8
		c-8.7,6.8-18.2,12.5-27.4,18.7c-0.7,0.5-1.4,0.9-2.3,1.4c0.2,0.7,0.4,1.3,0.6,1.9c1.6,4,2.5,8.1,2.4,12.4c-0.1,4,0,8,0,12
		c-0.1,15.7-10.9,28.9-26.2,32.3c-1,0.2-1.9,0.6-2.8,1c-96.8,0-193.7,0-290.5,0c-1-0.3-2.1-0.7-3.1-1c-15.2-3.4-25.9-16.4-26.1-32
		c-0.1-4.3,0-8.7,0-13c0-3.8,0.8-7.4,2.2-11c0.3-0.9,0.7-1.7,1.1-2.7c-0.7-0.5-1.3-0.9-1.9-1.3c-15.8-9.7-30.6-20.7-44-33.5
		C45.9,435.6,29,413,17.2,386.8C8.2,367,2.5,346.4,0.9,324.7c-0.1-1.7-0.6-3.3-0.9-5C0,316.6,0,313.6,0,310.5z M283.6,526.5
		c40.5,0,81,0,121.5,0c6.5,0,13-0.1,19.4,0c5.2,0.1,10.5-3.6,10.6-10.4c0.1-3.6,0-7.2,0-10.7c0-0.8-0.1-1.7-0.3-2.5
		c-0.9-4.4-4.7-7.6-9.2-7.8c-1,0-2,0-3.1,0c-92.6,0-185.2,0-277.7,0c-0.9,0-1.9,0-2.8,0c-5.2,0.3-9.3,4.4-9.5,9.6
		c-0.1,4.1-0.1,8.2,0,12.3c0.2,5.2,4.3,9.3,9.5,9.6c1.1,0.1,2.2,0,3.3,0C191.4,526.5,237.5,526.5,283.6,526.5z"/>
	<path d="M600,216.4c-0.2,0.7-0.4,1.5-0.5,2.2c-1.1,12.7-6.6,22.9-16.9,30.4c-2.8,2-5.7,3.7-8.6,5.5c-0.8,0.5-1.6,0.9-2.7,1.5
		c0,2.8,0.1,5.7,0,8.6c-0.2,4.6-1,9.1-2.6,13.5c-2.8,7.9-8.4,13.5-15.3,17.9c-0.5,0.3-1.3,0.5-1.9,0.5c-8.9,0-17.7,0-26.6,0
		c-0.3,0-0.7-0.1-1.1-0.2c0.3-4.1,2.1-7.2,5.7-9.1c1-0.5,2-0.9,3-1.4c13.2-5.9,20.7-19.4,18.7-33.7c-0.7-4.9,1.6-9.2,6-11.3
		c0.8-0.4,1.6-0.7,2.3-1c20.7-9.1,25.7-35.2,9.8-51.2c-4.2-4.2-4.5-10-1.7-14.6c10.7-17.2,2-39.8-17.7-46.2
		c-15.2-4.9-31.1,1.2-39.1,15.1c-2.6,4.5-7.2,6.6-12.4,5.4c-7.1-1.7-14-1.6-20.8,1c-12.7,4.8-21.2,17.1-20.9,30.4
		c0,1.4,0.3,2.7,0.4,4.1c0.5,5.7-1.8,9.5-7.1,11.7c-8.4,3.5-14.6,9.2-18.2,17.7c-2.2,5.2-2.9,10.7-2.1,16.3
		c0.8,5.5-1.6,9.9-6.8,12.1c-5,2.1-9.3,4.9-12.9,9c-10.9,12.5-10.4,30.5,1.1,42.5c1,1,1.9,2.1,3.1,3.5c-13.3,0-25.9,0-38.9,0
		c0.3-1.1,0.6-2.1,0.9-3.1c4.4-17.5,0.8-33.3-10.4-47.3c-9.3-11.7-21.6-18.8-35.7-23.1c-1.5-0.4-2.9-0.8-4.4-1.3
		c-0.1,0-0.1-0.1-0.3-0.3c0.1-1,0.2-2,0.3-3.1c0.9-7.8-0.9-14.9-5.1-21.4c-4.6-7.1-9.9-13.5-17-18.1c-10.9-7.2-22.9-10.4-35.9-9
		c-20.3,2.2-35,12.6-44.1,30.9c-0.3,0.5-0.6,1-1,1.8c-4.8-5.9-10-11.1-16.8-14.9c0.5-0.9,0.9-1.7,1.4-2.5
		c11.6-18.7,28.1-30.8,49.7-35c33.5-6.6,64,7.5,80.8,33.8c3.4,5.3,6,10.9,7.8,16.9c0.5,1.6,1.3,2.3,2.7,3
		c15.8,7.7,29.4,18.2,38.8,33.4c0.8,1.4,1.7,2.8,2.5,4.2c0,0.1,0.2,0.1,0.3,0.1c0.2-0.1,0.4-0.2,0.5-0.4c4.7-5.8,10.7-10,17.1-13.5
		c1.6-0.9,2.1-1.8,2.1-3.6c-0.2-6.1,0.3-12.1,2.1-17.9c3-9.7,9.1-16.6,18.9-19.9c1.9-0.6,4-0.9,6-1.4c0.2-2.6,0.3-5.1,0.5-7.6
		c0.3-4.6,0.6-9.2,1.1-13.7c0.5-4.2,2.2-8,4.4-11.6c7-11.2,17.2-18.2,29.8-21.7c6.9-1.9,13.9-2.4,21-1.9c1.7,0.1,2.6-0.4,3.6-1.7
		c8.1-10.2,18.3-17.2,31.1-20.2c4.2-1,8.6-1.5,12.9-1.3c0.8,0,1.5,0.2,2.3,0.4c2.8,0.7,5.6,1.4,8.4,2.1c2,0.5,3.9,1.1,5.9,1.6
		c2.2,0.6,4.4,1.3,6.6,2c1.4,0.5,2.7,1,3.9,1.8c14.5,9,22.5,22.1,24.2,39.1c0.9,9-0.7,17.6-4.1,26c-0.2,0.5-0.4,0.9-0.6,1.5
		c0.4,0.6,0.8,1.2,1.3,1.8c5.1,7.1,8.7,14.8,10.2,23.5c0.4,2,0.5,4,0.8,6C600,212.6,600,214.5,600,216.4z"/>
	<path d="M333,50.1c2.6,0.5,5.1,1,7.7,1.5c18.6,3.5,32.3,13.5,40.2,30.9c0.7,1.5,1.4,2.2,3.1,2.5c15.4,2.8,28.2,9.8,37.2,22.9
		c5,7.4,7.8,15.5,7.4,24.5c-0.3,5-1.3,9.9-2.7,14.8c-0.2,0.7-0.4,1.5-0.6,2.3c2,2.1,3.9,4.3,6,6.3c2.4,2.4,3.7,4.9,3.1,8.5
		c-0.8,5.5-1,11.2-1.4,16.4c-4,1.5-7.8,3-11.7,4.5c-0.1-0.3-0.2-0.8-0.3-1.4c-0.6-8.9-4.7-16-11.5-21.7c-0.5-0.4-1.1-0.8-1.6-1.3
		c-4.2-3.3-5.5-7.8-3.5-12.7c1.7-4.2,2.7-8.4,2.7-12.9c0-14.8-10.4-27.8-24.9-30.9c-2.6-0.6-5.4-0.9-8.1-0.9
		c-5.4,0-9.6-4.1-10.8-8.5c-3.7-13.6-12.8-21.5-26.6-23.9c-14.6-2.6-31.3,5.8-36.3,22.3c-1.8,5.9-1.7,11.7-0.2,17.6
		c1.6,6.4,0,10.2-5.5,13.6c-7.3,4.4-12.1,10.6-14.5,18.7c-0.1,0.3-0.2,0.7-0.3,1c0,0.1-0.1,0.1-0.2,0.4c-7.2,0.2-14.5,0.4-21.9,0.6
		c0.5-4.3,1.9-8.4,3.6-12.2c3.7-8.3,9.3-15.3,16.4-20.9c1.4-1.1,1.9-2.2,1.7-4.1c-2.8-24.4,11.2-49,36.2-56.4
		c1.5-0.5,3.2-0.6,4.7-0.9c0.7-0.1,1.5-0.3,2.2-0.5C326.2,50.1,329.6,50.1,333,50.1z"/>
	<path d="M89.9,227.4c-6.9,0-13.6,0-20.5,0c-0.2-2.7,0-5.4,0.5-7.9c2.9-17.6,12.9-29.9,28.6-37.8c7.5-3.8,15.5-5.6,23.9-5.6
		c7.1-0.1,13.9,1.7,20.1,4.9c4.1,2.2,8,4.8,11.9,7.4c1.3,0.8,2.2,1.1,3.7,0.5c8.3-3.2,17-4.4,25.8-3.6c19.1,1.6,35.3,13.2,41.4,31.2
		c0.9,2.6,1.6,5.2,2.5,8c1.9,0.5,3.9,1.1,5.9,1.7c6.6,2,12.9,4.5,18.2,8.9c1,0.9,2,1.8,2.8,2.6c-5.2,5.2-10.2,10.2-15.3,15.2
		c-1-0.9-2.3-2.1-3.6-3.2c-4.7-3.8-10-6.2-16-6.8c-5.5-0.6-9.9-3.7-11-10.5c-2.3-14.2-10.8-23-24.6-26.6c-8-2.1-15.9-0.8-23.3,3
		c-1.7,0.9-3.6,1.6-5.5,1.8c-3.5,0.5-6.5-0.7-9-3.3c-5.3-5.4-11.7-8.7-19.2-9.8c-17.2-2.4-33.9,9.1-36.8,26.4
		C90.3,225.1,90.1,226.1,89.9,227.4z"/>
	<path d="M356.4,296.5c-9.8,0-19.5,0-29.7,0c1.8-1.8,3.3-3.3,4.8-4.8c0.7-0.7,1.3-1.3,2-2c4.2-4.4,4.2-10.3-0.1-14.6
		c-4.8-4.9-9.7-9.8-14.6-14.7c-5.5-5.5-11-11-16.5-16.4c-3.1-3.1-6.9-4-11-2.5c-1.4,0.5-2.7,1.5-3.8,2.5
		c-10.9,10.9-21.9,21.8-32.7,32.7c-4.5,4.5-4.5,10.5,0,15c1.4,1.5,3,2.8,4.5,4.3c-2,0.7-22.5,0.9-28.6,0.4
		c-1.9-4.4-2.6-9.1-2.3-13.9c0.5-8.9,4.1-16.4,10.4-22.6c10.8-10.7,21.5-21.4,32.2-32.2c5-5,10.9-8.4,18-9.5
		c10.1-1.7,19.3,0.6,27.2,7.1c1,0.8,1.9,1.7,2.8,2.6c10.1,10.1,20.2,20.3,30.4,30.4c7.4,7.3,10.8,16.2,10.2,26.5
		C359.4,288.8,358.2,293.3,356.4,296.5z"/>
	<path d="M54.9,296.5c-7.9,0-15.4,0-23.1,0c0-1,0-1.8,0-2.6c0-9.6,0-19.3,0-28.9c0-17.5,12.2-31.4,29.5-33.7
		c1.1-0.1,2.2-0.1,3.3-0.1c15.2,0,30.3,0,45.5,0c17.4,0,32.1,14.2,32.6,31.5c0.3,10.8,0.1,21.7,0.1,32.5c0,0.4-0.1,0.8-0.1,1.3
		c-7.6,0-15.1,0-22.9,0c0-0.9-0.1-1.8-0.1-2.7c0-9.5-0.2-18.9,0.1-28.4c0.2-6-4.1-11.4-11.4-11.3c-14.2,0.1-28.3,0.1-42.5,0
		c-3.5,0-6.5,1.1-8.8,3.9c-1.8,2.2-2.3,4.7-2.3,7.4c0,9.4,0,18.8,0,28.1C54.9,294.5,54.9,295.5,54.9,296.5z"/>
	<path d="M470.4,296.6c-8.4,0-16.5,0-25.1,0c0.5-1,0.9-1.8,1.4-2.5c15.9-27,31.9-54,47.8-81c11.7-19.7,23.3-39.4,35-59.2
		c0.4-0.7,0.9-1.5,1.3-2.2c3.4-5.2,10.1-6.7,15.3-3.5c5.3,3.2,6.3,10,3.5,14.8c-9.7,16.2-19.2,32.4-28.8,48.6
		c-16.2,27.4-32.4,54.8-48.6,82.3C471.5,294.8,471,295.6,470.4,296.6z"/>
	<path d="M373.5,214.9c-1.8-1.4-3.6-2.8-5.4-4.2c-5.2-3.9-10.7-7.3-16.5-10.1c-1.4-0.7-2.1-1.7-2.7-3.1c-1.7-4.2-3.6-8.3-5.4-12.4
		c-0.4-1-1-2-1.3-3c-7.1-25.7-14.1-51.4-21.1-77.1c-0.9-3.3-0.6-6.4,1.3-9.3c2.7-3.9,6.6-5.3,11.2-4.5c4.3,0.7,7.2,3.4,8.5,7.6
		c1.6,5.3,2.9,10.7,4.4,16c9,32.9,18.1,65.8,27.1,98.7c0.1,0.4,0.2,0.8,0.3,1.2C373.8,214.7,373.7,214.8,373.5,214.9z"/>
	<path d="M111.3,227.4c0.4-7.2,9.7-12.8,17.5-7.1c0.5,0.4,1,0.9,1.5,1.4c25,24.4,50,48.8,75,73.2c0.5,0.5,0.9,0.9,1.6,1.7
		c-1,0-1.7,0.1-2.3,0.1c-8.8,0-17.6,0-26.3,0c-1.5,0-2.5-0.4-3.6-1.5c-8.8-8.7-17.7-17.3-26.5-25.9c-1.1-1-1.5-2.1-1.5-3.6
		c0.2-5.1-0.1-10.1-2.1-14.8c-5.4-12.6-14.5-20.7-28.3-23.2C114.7,227.4,113.1,227.5,111.3,227.4z"/>
	<path d="M289.4,214.1c-8.5,1.1-15.3,4.6-21.1,10.6c-1.9-3.1-3.9-5.9-5.3-8.9c-2.3-5-0.3-11,4.4-14.1c4.8-3.1,10.9-2.5,14.7,1.6
		C285,206.4,286.8,210.2,289.4,214.1z"/>
</g>
</svg>
