<?xml version="1.0" encoding="utf-8"?>
<!-- Generator: Adobe Illustrator 22.1.0, SVG Export Plug-In . SVG Version: 6.00 Build 0)  -->
<svg version="1.1" id="Layer_1" xmlns="http://www.w3.org/2000/svg" xmlns:xlink="http://www.w3.org/1999/xlink" x="0px" y="0px"
	 viewBox="0 0 600 600" style="enable-background:new 0 0 600 600;" xml:space="preserve">
<g>
	<path d="M135.1,126.6c1.1-4,1.9-8.2,3.4-12.1c3.6-10,9.8-18.2,17.8-24.1c2.5,2.2,4.8,4.4,7.3,6.3c2.4,1.8,5.1,3.1,7.8,4.8
		c-0.6,0.4-1.2,0.9-1.9,1.4c-10.7,7.2-16.4,17.3-16.7,30.2c-0.4,21.7-0.8,43.4-0.8,65c-0.1,93.9-0.1,187.8,0,281.8
		c0,12.3,0.4,24.5,1.3,36.8c0.9,13.5,12.1,26.4,25.2,30c1.2,0.3,2.6,0.4,3.9,0.4c78.4,0,156.9,0.1,235.3-0.1c9.9,0,17-6.3,22.7-13.8
		c4.6-6,6.7-13,6.8-20.6c0.3-18.3,0.8-36.7,0.8-55c0.1-95.7,0.1-191.3,0-287c0-13.5-0.4-26.9-1.1-40.4c-0.6-11.5-6.4-20.4-15.8-27
		c-0.5-0.3-1-0.8-1.9-1.5c6.9-1.2,11.8-4.9,16.1-9.9c6,4.7,10.8,10.4,13.7,17.1c2.5,5.7,4,11.8,5.9,17.7c0,130.7,0,261.5,0,392.2
		c-0.6,2.3-1.1,4.6-1.7,6.8c-5.5,19.6-19.2,31.9-36.7,40.7c-1.2,0.6-2.7,0.7-4.1,0.7c-80.5,0-161,0-241.5,0c-2.8,0-5.8-0.8-8.5-1.7
		c-7.5-2.4-13.1-7.7-18.9-12.7c-8.5-7.2-14-16.3-16.9-27.1c-0.6-2.3-1.1-4.6-1.7-6.8C135.1,388.1,135.1,257.4,135.1,126.6z"/>
	<path d="M429.2,600c-85.1,0-170.1,0-255.2,0c-18.4-5.5-18.6-22.5-15.5-37.4c6.1,2.8,12.3,5.7,19.1,8.9c0,2.2,0,5.2,0,8.2
		c83,0,165.5,0,248.4,0c0-3.3,0-6.3,0-8.5c6.6-3.8,12.6-7.3,18.7-10.8c0.3,0.9,0.8,1.8,0.8,2.8c0.3,5.4,0.4,10.8,0.6,16.2
		c0.1,4.5-1.4,8.4-3.9,12.1C439,596,434.3,598.2,429.2,600z"/>
	<path d="M342.2,41.6c0-5.5,0-10.7,0-15.8c0-14.5,10.7-25.1,25.2-25.1c4.1,0,8.3-0.1,12.3,0.7c11.1,2.3,18.8,11.9,19,23.2
		c0.1,5.5,0,11,0,17.1c1.6,0,2.9,0,4.3,0c7.4,0,14.7,0,22.1,0c12,0.1,21.4,9.3,21.6,21.3c0.1,6,0,12.1-0.5,18.1
		c-0.7,8.7-11.1,17.4-20.6,17.6c-2.5,0.1-5,0-7.5,0c-78.9,0-157.8-0.1-236.6,0.1c-10.1,0-17.1-4.5-22.4-12.4c-1.1-1.7-1.8-4-1.9-6.1
		c-0.2-6.7-0.4-13.4,0-20.1c0.7-9.8,9.8-18,19.9-18.5c1.9-0.1,3.9,0,5.8,0c51.7,0,103.4,0,155.2,0C339.4,41.6,340.6,41.6,342.2,41.6
		z M425.2,77.5c0-5,0-9.8,0-14.5c-82.5,0-164.8,0-247.1,0c0,5,0,9.7,0,14.5C260.6,77.5,342.9,77.5,425.2,77.5z M378,41.5
		c0-3.5-0.1-6.8,0-10c0.3-11.2-0.4-10.1-10.7-10.1c-0.2,0-0.5-0.1-0.6,0c-1.2,1.2-3.4,2.3-3.5,3.5c-0.4,5.4-0.2,10.9-0.2,16.5
		C368.1,41.5,372.8,41.5,378,41.5z"/>
	<path d="M400.5,305.9c-1.1,41.8-13.4,73.9-40.5,99.7c-7.8,7.4-16.5,13.6-26,18.7c-4.4,2.4-8.8,1.7-13.3,0.8
		c-43.5-8.9-73.9-34.2-92.9-73.9c-6.8-14.2-9.5-29.5-12.2-44.8c-3.3-19.1-6.6-38.3-10-57.4c-1.2-6.8,1-9.9,8.1-11.2
		c15.4-2.9,30-8.1,43.4-16.3c10.1-6.2,19.1-13.8,25.9-23.7c3.1-4.5,7.9-5.3,12.4-2.1c12.7,8.7,26.8,13.2,42,14.9
		c12.7,1.4,25.2,0.9,37.8-1.2c5.8-1,9.2,1.4,10.2,7.2c3.5,19.5,7.1,39.1,10.3,58.7C397.9,286.8,399.5,298.7,400.5,305.9z
		 M222.8,252.3c0,0.9-0.1,1.4,0,1.9c3,17.1,6.1,34.2,9,51.3c2.4,13.9,5.2,27.6,11.5,40.3c16.8,34.3,43.4,56.2,81.2,63.5
		c1.4,0.3,3.2-0.1,4.5-0.8c39.9-22.7,60.7-68.5,53.8-115.6c-2.3-15.8-5.4-31.5-8.1-47.2c-1.1-6.4-2.3-12.9-3.5-19.4
		c-27.7,3.2-54.2,0.3-78.9-13.4C273.8,234.2,250,246,222.8,252.3z"/>
</g>
</svg>
