<?xml version="1.0" encoding="utf-8"?>
<!-- Generator: Adobe Illustrator 22.1.0, SVG Export Plug-In . SVG Version: 6.00 Build 0)  -->
<svg version="1.1" id="Layer_1" xmlns="http://www.w3.org/2000/svg" xmlns:xlink="http://www.w3.org/1999/xlink" x="0px" y="0px"
	 viewBox="0 0 600 600" style="enable-background:new 0 0 600 600;" xml:space="preserve">
<g>
	<path d="M190,70.9c0.2,0.3,0.5,0.6,0.7,0.9c3.3,5.2,7.6,9.3,13.6,11c2.2,0.6,4.7,1,7,1c42.8,0.1,85.7,0,128.5,0c0.5,0,0.9,0,1.5,0
		c-10.8,60.9-21.6,121.7-32.4,182.6c-16.9-2.1-32.2,1.4-45.1,12.8c-12.8,11.3-19.2,25.5-19,42.8c-12.9,0-25.7,0-38.7,0
		c0,0.5,0,0.8,0,1.2c0,77.1,0,154.2,0,231.4c0,3.7,2.2,6,5.9,6c14.9,0,29.8,0,44.7,0c0.3,0,0.6,0,1.1,0
		c10.9-61.6,21.8-123.2,32.8-184.9c17.3,2.3,32.9-1.3,46.1-13.1c13.1-11.7,19.2-26.5,18.4-44.1c12.9,0,25.6,0,38.5,0
		c0-0.5,0-1,0-1.4c0-76.3,0-152.7,0-229c0-1.6-0.2-3.1-1.3-4.5c5.8-0.9,10.3-3.7,14.1-8.1c1.5,2.2,2.4,4.6,2.9,7.1
		c0.2,0.7,0.3,1.4,0.4,2.1c0,157.6,0,315.3,0,472.9c-0.1,0.1-0.1,0.2-0.2,0.3c-0.4,4.7-2.8,8.6-5.4,12.3c-1.3,1.9-3,3.4-5.1,4.2
		c-3.4,1.4-7,2.5-10.8,2.5c-59,0-118,0-177,0c-9.6,0-18-6.4-20.6-15.6c-0.3-1.2-0.6-2.4-0.9-3.6C190,395.4,190,233.1,190,70.9z
		 M392.9,333.7c-0.3-0.1-0.4-0.1-0.5-0.1c-7.4,0-14.8,0-22.1,0c-0.7,0-0.8,0.3-0.9,0.9c-1.4,6-2.6,12.1-5.5,17.7
		c-1.2,2.2-2.3,4.4-3.6,6.5c-2.2,3.6-4.8,6.9-7.7,9.9c-2.7,2.7-5.3,5.4-8.3,7.8c-3,2.4-6.3,4.5-9.6,6.5c-2.4,1.4-5,2.5-7.5,3.6
		c-1.4,0.6-2.9,1.1-4.4,1.4c-4.1,1-8.3,2.1-12.4,2.9c-2.3,0.5-4.7,0.5-7.1,0.8c-10,56.3-20,112.6-30,169c0.6,0,1.1,0,1.6,0
		c37.5,0,75.1,0,112.6,0c0.4,0,0.8,0,1.2,0c2.4-0.1,3.6-1.1,4.1-3.4c0.4-1.6,1.1-3.1,1.1-4.7c0-38.7,0.1-77.5-0.1-116.2
		c-0.1-31.8-0.5-63.6-0.7-95.4C392.9,338.6,392.9,336.2,392.9,333.7z M207,306.9c0.1,0,0.2,0.1,0.4,0.1c0.1,0,0.1,0,0.2,0
		c7.6,0,15.3,0,22.9,0c0.6,0,0.7-0.3,0.9-0.8c1.1-4.1,2.2-8.1,3.5-12.2c0.6-1.9,1.4-3.7,2.4-5.4c1.3-2.3,2.8-4.6,4.2-6.8
		c2.3-3.7,5.1-6.9,8.2-10c2.6-2.6,5.4-5.1,8.4-7.3c3.1-2.4,6.4-4.6,9.9-6.4c3.9-2.1,8.2-3.5,12.5-4.6c5-1.2,10-2.4,15.1-2.6
		c0.8,0,1.1-0.3,1.2-1.1c1.4-7.9,2.8-15.8,4.2-23.7c1.6-9.2,3.3-18.4,4.9-27.6c1.8-9.9,3.5-19.8,5.3-29.7c1.8-9.9,3.5-19.9,5.3-29.8
		c1.7-9.6,3.4-19.2,5.1-28.8c0.7-3.7,1.3-7.5,2-11.3c-13.1,0-26.1,0-39.2,0c-13,0-26,0-39,0c-13,0-26,0.1-39.3,0
		C206.3,168.1,206.7,237.5,207,306.9z"/>
	<path d="M410,61.2c-0.3,1.2-0.5,2.4-0.9,3.6c-2.6,9.2-11.1,15.6-20.6,15.6c-59,0-118,0-177,0c-10.7,0-19.8-8-21.3-18.6
		c0-0.2-0.1-0.4-0.2-0.6c0-1.9,0-3.7,0-5.6c0.2-0.8,0.3-1.7,0.5-2.5c2.4-10,11-16.7,21.2-16.7c35.6,0,71.1,0,106.7,0
		c0.4,0,0.9,0,1.4,0c0-3.9,0-7.6,0-11.3c0-9.7,6.4-18.1,15.7-20.7c1.2-0.3,2.4-0.6,3.5-0.8c4.2,0,8.5,0,12.7,0
		c0.7,0.1,1.4,0.3,2.1,0.4c8.7,1.7,15.9,9.3,16.9,18.2c0.3,3,0.2,6.1,0.2,9.2c0,1.6,0,3.3,0,5c0.5,0,0.9,0,1.3,0
		c5.4,0,10.7,0,16.1,0c9.7,0,18.2,6.5,20.8,15.9c0.3,1.1,0.5,2.2,0.8,3.3C410,57.4,410,59.3,410,61.2z M300,64.2c21.3,0,42.7,0,64,0
		c8,0,16.1,0,24.1,0c2.5,0,4.6-1.5,5.4-3.8c0.8-2.6,0-5.4-2-6.9c-1.2-0.8-2.5-1-3.9-1c-58.4,0-116.8,0-175.2,0c-0.3,0-0.6,0-0.9,0
		c-1.8,0.1-3.3,0.8-4.3,2.3c-1.3,2-1.4,4.2-0.4,6.4c1,2.1,2.9,3,5.2,3C241.4,64.2,270.7,64.2,300,64.2z M354.9,36.3
		c0-3.7,0-7.3,0-11c0-3.3-2.3-5.6-5.7-5.6c-2.5,0-5,0-7.4,0c-3.4,0-5.7,2.3-5.7,5.7c0,3.3,0,6.7,0,10c0,0.3,0,0.6,0.1,0.9
		C342.4,36.3,348.6,36.3,354.9,36.3z"/>
	<path d="M385.1,596.5c-56.8,0-113.6,0-170.4,0c-0.2-0.1-0.4-0.2-0.6-0.2c-7.7-1.2-13.3-5.4-16.7-12.4c-1.6-3.4-2.2-6.9-1.9-10.7
		c0.2,0.1,0.3,0.2,0.3,0.2c4.7,4.9,10.5,7,17.2,6.9c12-0.1,24,0,36,0c46.3,0,92.5,0,138.8,0c6.2,0,11.5-2.1,16-6.4
		c0.2-0.2,0.3-0.3,0.6-0.5c0.8,10-5.8,19.4-15.4,22.2C387.6,596,386.4,596.2,385.1,596.5z"/>
	<path d="M349.9,321.2c0,27.5-22.3,49.8-49.8,49.8c-27.5,0-49.8-22.3-49.8-49.8c0-27.5,22.4-49.8,49.9-49.7
		C327.6,271.4,349.9,293.7,349.9,321.2z M346.6,321.2c0-25.6-20.8-46.5-46.5-46.5c-25.6-0.1-46.6,20.8-46.6,46.5
		c0,25.6,20.8,46.5,46.5,46.5C325.7,367.8,346.6,346.8,346.6,321.2z"/>
	<path d="M277.2,342.4c-1.5,3.4-3,6.7-4.4,10c-0.1,0.3-0.1,0.7,0,1c0.2,0.9,0.5,1.7,0.6,2.7c-1.3-1.4-2.6-2.7-3.8-4.1
		c-0.1-0.2,0-0.7,0.1-1c1.6-3.6,3.1-7.1,4.7-10.6c0.3-0.6,0.3-1-0.2-1.6c-1.3-1.6-2.5-3.3-3.8-5c-1.6,4-3.3,8.1-5.1,12.4
		c-0.7-1.3-1.4-2.5-1.9-3.7c-0.1-0.3,0.1-0.8,0.2-1.1c1-2.4,2-4.8,3.1-7.5c-2.2,0.5-4.1,0.9-6.2,1.3c-0.3-1.1-0.6-2.1-0.9-3.3
		c3.2-0.7,6.3-1.4,9.2-2c-0.3-2.2-0.7-4.2-0.9-6.3c-0.1-1.2,0.5-2,1.5-2.1c1-0.1,1.7,0.6,1.8,1.8c0.3,5,2.4,9.2,5.6,13
		c3.1,3.7,6.7,6.9,10.4,10.1c2.6,2.2,4.3,4.7,4.5,8.1c0.1,1.1,0.5,2.2,0.7,3.3c0.2,0,0.3,0.1,0.4,0.1c2.8,0,5.6,0,8.6,0
		c-0.2-0.4-0.4-0.6-0.5-0.9c-0.7-1-1.4-2-2.2-2.9c-3-3.7-5.6-7.7-7.1-12.3c-0.8-2.4-2.2-4.6-4.2-6.3c-0.9-0.7-0.7-1.7-0.1-2.5
		c2-2.9,3.5-6,4.3-9.4c1.4-5.9,1.7-11.7-0.2-17.6c-0.3-1,0.2-2,1.1-2.2c0.9-0.3,1.8,0.2,2.1,1.3c1,3.5,1.6,7.2,1.4,10.9
		c-0.1,2.4-0.5,4.8-0.7,7.3c1.4,0.1,2.9,0.2,4.5,0.3c2,0.1,2.2,0.3,2.8,2.1c0.4,1.3,0.8,2.5,1.1,3.8c0.4,1.4,1.2,2.4,2.7,2.7
		c1.5,0.4,2.8-0.1,3.7-1.3c1.8-2.2,3.6-4.3,5.3-6.5c2-2.5,3.3-5.3,4-8.5c-1-0.1-1.8-0.2-2.7-0.3c-1.3-0.2-1.8-0.7-1.8-1.9
		c0-2.1,0-4.2,0-6.3c0-1.4,0.7-2,2.1-1.9c0.7,0.1,1.4,0.2,2.1,0.2c0-3.1-2.3-5.8-5.6-6.5c-3.7-0.9-7.2-2.2-10.2-4.5
		c-6.1-4.6-12.1-9.5-18.4-14.4c1.2-0.5,2.3-1,3.5-1.4c0.2-0.1,0.5,0.2,0.7,0.4c4.6,3.6,9.2,7.2,13.7,10.8c3.4,2.7,7.2,4.7,11.5,5.7
		c4.1,1,6.7,3.5,7.9,7.5c0,0.1,0.1,0.3,0.1,0.4c0.7,2.5,0.7,2.5,3.4,2.7c1.1,0.1,2.3,0.2,3.4,0.4c0.5,0.1,1.2,0.4,1.5,0.9
		c2.8,3.9,5.6,7.8,8.4,11.6c0.6,0.8,0.7,1.6,0.1,2.4c-0.7,0.8-1.5,0.7-2.3,0.3c-3.2-1.6-6.3-3.1-9.5-4.7c-1.4-0.7-2.8-1.1-4.4-1.1
		c-0.1,0.5-0.3,1-0.4,1.5c-0.9,3.2-2.4,6.1-4.4,8.7c-1.8,2.2-3.6,4.4-5.4,6.6c-1.8,2.2-4.1,3-6.9,2.4c-2.7-0.5-4.4-2.3-5.3-4.9
		c-0.3-1-0.6-2-0.9-3c-0.1-0.6-0.5-0.8-1-0.8c-1.3-0.1-2.6-0.2-3.9-0.2c-0.2,0-0.6,0.3-0.7,0.5c-1,2.2-2,4.5-3.1,6.9
		c2.8,3.1,4.2,7.3,5.8,11.4c0.2,0.5,0.5,0.9,0.8,1.3c2.8,3.8,5.6,7.6,8.4,11.4c0.5,0.7,0.9,1.4,0.5,2.3c-0.5,0.9-1.3,1-2.1,1
		c-4.2,0-8.4,0-12.6,0c-1.5,0-2-0.4-2.3-1.9c-0.5-2.3-1-4.6-1.5-6.9c-0.1-0.5-0.3-1-0.6-1.3c-3.1-2.9-6.2-5.8-9.3-8.7
		C277.6,342.6,277.5,342.6,277.2,342.4z M332.1,316.4c0.1-0.1,0.1-0.2,0.2-0.3c-1.2-1.7-2.3-3.3-3.6-4.9c-0.3-0.4-0.8-0.6-1.3-0.7
		c-1.5-0.3-3.1-0.4-4.6-0.6c-1.5-0.2-3-0.3-4.4-0.5c0,1.2,0,2.2,0,3.3C323.2,312.9,328,313.3,332.1,316.4z"/>
</g>
</svg>
