<?xml version="1.0" encoding="utf-8"?>
<!-- Generator: Adobe Illustrator 22.1.0, SVG Export Plug-In . SVG Version: 6.00 Build 0)  -->
<svg version="1.1" id="Layer_1" xmlns="http://www.w3.org/2000/svg" xmlns:xlink="http://www.w3.org/1999/xlink" x="0px" y="0px"
	 viewBox="0 0 600 600" style="enable-background:new 0 0 600 600;" xml:space="preserve">
<g>
	<path d="M539.2,294.7c-0.6,5-1.1,9.9-1.7,14.9c-3.5,28.4-11.8,55.4-25.4,80.7c-30.9,57.3-77,97.1-138.6,118.2
		c-11.4,3.9-23.3,6-35,8.9c-0.7,0.2-1.5,0.4-2.4,0.7c0,5.7-0.1,11.3,0.1,16.9c0,0.9,1.1,1.9,2,2.5c18.6,12.4,37.2,24.9,55.8,37.2
		c3.6,2.4,6.4,5.1,7.3,9.5c1.5,7.4-4,14.9-11.7,15.3c-0.6,0-1.2,0-1.8,0c-58.5,0-116.9,0-175.4,0c-7.3,0-12.1-3.7-13.5-10.6
		c-1-5.3,0.9-9.7,5.4-12.8c11.2-7.6,22.5-15.1,33.7-22.6c8.6-5.7,17.2-11.4,25.7-17.1c0.7-0.5,1.4-1.4,1.4-2.2
		c0.1-5.3,0.1-10.6,0.1-15.6c-10.4-2.5-20.8-4.5-30.8-7.5c-52.9-15.9-95.4-46.6-128-91c-22.1-30.1-36.2-63.7-42.4-100.5
		c-1.2-7.3-1.7-14.6-2.6-21.9c-0.1-1-0.4-1.9-0.6-2.9c0-8.3,0-16.5,0-24.8c0.6-1.4,1-2.9,1.7-4.3c2.6-4.8,6.9-6.9,12.2-6.9
		c25.9,0,51.8,0,77.7,0c115,0,229.9,0,344.9,0c8.3,0,16.5,0.1,24.8-0.1c8.5-0.3,14.7,2.5,17.2,11.3
		C539.2,278.2,539.2,286.4,539.2,294.7z M87.1,298.2c1.6,0,2.9,0,4.2,0c82.3,0,164.6,0,246.9,0c8,0,12.6,4.8,12.6,13
		c0,8.1-4.7,13-12.7,12.9c-10.7,0-21.4-0.2-32.2-0.2c-70.6,0-141.1,0-211.7,0c-1,0-2,0.1-3.2,0.2c0.3,1.5,0.5,2.7,0.8,3.8
		c18.3,70.8,61.1,121,127.8,150.6c20.1,8.9,41.1,15,63.5,14.6c5.8-0.1,10.9,5.2,10.9,11.1c0.1,11.4,0.1,22.8,0,34.3
		c0,1.2-0.2,2.6-0.7,3.7c-2.6,5.6-6,10.4-11.5,13.7c-8.5,5.2-16.9,10.7-25.3,16.1c-0.5,0.3-0.9,0.8-1.5,1.4c30.2,0,59.9,0,90,0
		c-0.4-0.5-0.5-0.8-0.7-0.9c-7.5-4.7-14.8-9.5-22.4-13.9c-9.4-5.4-15.1-12.8-14.8-24.2c0.3-9.2,0.4-18.5,0-27.8
		c-0.4-8.5,5.9-14.4,13.6-13.7c2.7,0.3,5.5,0.3,8.3-0.1c28.2-4,54.6-13.4,79-28.3c41-25,71.1-59.6,89.8-104
		c5-11.8,8.8-23.9,11.4-36.8c-1.5,0-2.8,0-4,0c-38.5,0.1-77,0.1-115.4,0.4c-8.9,0.1-15.3-6.2-13.1-17c1.2-5.8,5.9-9.1,12.8-9.1
		c40,0,79.9,0,119.9,0c1.1,0,2.3,0,3.8,0c0-4.7,0-9.1,0-13.4c-142.1,0-284.2,0-426.5,0C86.7,289.4,86.9,293.7,87.1,298.2z"/>
	<path d="M280.5,0c5.1,0.8,10.3,1.4,15.3,2.4c41.6,8.9,72.2,32.4,92,70c0.3,0.5,0.4,1.1,0.5,1.4c-8.2-0.2-16.4-1.2-24.5-0.4
		c-7.3,0.8-11.2-1.9-15.7-7.3c-16.5-20.1-37.9-32.2-63.8-35.6c-52.8-7-100.5,26-112.9,77.8c-0.8,3.4-1.1,7-1.9,10.4
		c-0.2,0.9-0.9,2-1.6,2.4c-9.1,5-18.3,9.8-27.5,14.7c-0.2,0.1-0.5,0.1-1.6,0.4c0.6-8.4,0.7-16.6,1.8-24.6
		c4.3-28.8,16.8-53.6,37.6-74.1c21.4-21.2,47.3-33.3,77.2-37.1c1.6-0.2,3.3-0.5,4.9-0.7C267.1,0,273.8,0,280.5,0z"/>
	<path d="M526.5,255.7c-10,0-19.8,0-29.6,0c11.8-81.5-49.9-148.6-125.7-150c-79.2-1.5-143.1,68.5-130.7,150c-9.8,0-19.6,0-29.4,0
		c-7.1-44.6,7.9-107.5,62.7-148.3c53-39.4,124.2-42,180-6.6C511.4,137.3,534.3,201.2,526.5,255.7z"/>
	<path d="M72.4,255.7c7.4-88.2,91.9-158.1,186.9-140.8c-0.6,0.7-1.1,1.2-1.5,1.8c-6.8,7.7-13.7,15.4-20.4,23.2c-1.2,1.4-2.3,2-4.2,2
		c-62.2-0.7-114.8,40.5-128.9,101.1c-0.8,3.6-1.5,7.3-1.9,11c-0.2,1.5-0.7,2-2.2,2c-8.8,0-17.7,0-26.5-0.1
		C73.1,255.9,72.7,255.7,72.4,255.7z"/>
</g>
</svg>
