<?xml version="1.0" encoding="utf-8"?>
<!-- Generator: Adobe Illustrator 23.0.2, SVG Export Plug-In . SVG Version: 6.00 Build 0)  -->
<svg version="1.1" id="Layer_1" xmlns="http://www.w3.org/2000/svg" xmlns:xlink="http://www.w3.org/1999/xlink" x="0px" y="0px"
	 viewBox="0 0 600 600" style="enable-background:new 0 0 600 600;" xml:space="preserve">
<path d="M150.7,392c-11.5,1-22.7,1.9-33.9,2.9c-17.2,1.5-34.3,3-51.5,4.5c-8.1,0.7-16.2,1.8-24.4,2c-15.5,0.4-28.8-9.9-32.5-24.2
	c-2.3-8.9-1.1-17.2,2.7-25.2c24.6-52.4,49-104.6,73.4-157c12.2-26.2,24.3-52.2,36.6-78.3c15.5-32.9,31.3-65.9,46.9-98.8
	c2.8-5.8,6.6-10.4,12.8-12.6c9.8-3.3,19.5-0.5,25.5,8.1c6.3,9,12.1,18.4,18.2,27.5c8.1,12.3,16.1,24.5,24.2,36.8
	c9.7,14.8,19.4,29.5,29.3,44.2c3.3,5,7,9.7,8.6,15.7c0.2,0.7,0.7,1.3,1.1,2c11.1,15.8,22.2,31.7,33.3,47.5c0.4,0.6,0.9,1.2,1.2,1.5
	c6.2-6.1,12.4-12,18.5-18.1c3.4-3.4,6.7-7,10.1-10.4c13.8-14,27.5-27.8,41.2-41.8c14.7-14.8,29.2-29.8,43.8-44.6
	c9.1-9.3,18.2-18.6,27.3-27.8c11-11.2,31.4-6.4,35.6,8.8c4.5,16.1,8.4,32.6,12.5,48.8c1.8,7.1,3.7,14.2,5.4,21.2
	c5.2,20.8,10.5,41.8,15.7,62.6c3,11.5,6.5,22.9,8.6,34.6c3.9,21.8,10.5,43,16.1,64.3c11.1,42.1,22.4,84.2,33.9,126.3
	c2,7.3,2.8,14.5,0.4,21.8c-3.6,11.1-10.9,18.1-21.9,21.6c-7.2,2.3-14.1,1.4-21.1-0.5c-32.4-8.8-64.7-17.4-97.2-26.2
	c-1.8-0.5-3-0.2-4.4,0.8c-46.2,32.5-92.4,64.8-138.7,97.2c-30.1,21-60.2,42.3-90.4,63.2c-8.7,6-18.3,7.1-28.4,3.8
	c-12.1-3.9-19.8-12.2-22-24.7c-1.4-7.6-1.9-15.3-2.6-23.1c-1.1-10.9-2-21.9-3-32.8c-0.9-10.1-1.8-20.3-2.7-30.4
	c-1-10.9-2-21.9-3-32.8c-0.9-10.3-1.8-20.8-2.7-31.2c-0.7-8.4-1.4-16.7-2.2-25.1C151.2,393.4,150.9,392.8,150.7,392z M419.1,420.9
	c-1.4-0.5-2.1-0.8-2.8-1c-7.1-1.9-14.2-3.7-21.2-5.7c-14-3.8-27.9-7.6-41.8-11.5c-4.9-1.4-8.4-6.2-8.1-11.1c0.3-5.4,4-9.9,9.4-10.6
	c2.4-0.3,5-0.1,7.4,0.6c51.3,13.7,102.7,27.4,154,41.2c13.2,3.5,26.4,7.1,39.5,10.6c6.2,1.7,11.2-0.4,13.1-5.9
	c0.8-2.4,0.8-5.3,0.2-7.8c-3.2-12.8-6.7-25.6-10.1-38.4c-10.6-39.7-21.3-79.4-32-119.1c-0.5-1.9-1.3-2.4-3.2-2.4
	c-6.9,0.3-13.4-1.4-17.3-7.5c-2.7-4-4.2-8.9-5.9-13.4c-1.7-4.5-2.7-9.2-4.1-13.9c-0.5-1.7-1.5-3-3.5-3c-2,0.1-3.3,1.2-4,2.9
	c-0.5,1.1-0.8,2.2-1.1,3.3c-3.5,13.4-7,26.7-10.5,40c-2.7,10.1-12.3,15.6-22.5,13c-11.3-3-17-12.4-14.1-23.6
	c1.2-4.6,2.5-9.1,3.5-13.8c0.6-2.5-0.6-4.5-2.7-5.2c-2.1-0.7-4,0.4-5.1,2.8c-0.4,0.9-0.7,1.9-0.9,2.9c-2,7.2-3.9,14.3-5.8,21.4
	c-5.1,19.1-23.1,29.7-41.9,26.3c-19.5-3.6-32.8-19.8-29.7-43.3c0.6-4.1-0.6-7-3.7-8.7c-3.5-2-7.1-1.5-10,1.5c-1.1,1.1-2,2.3-3,3.4
	c-6.4,7.3-14.3,10.1-23.8,8.4c-6.5-1.2-12.2-3.9-17.2-9.7c-0.7,1.1-1.2,2.2-2,3c-9.9,10-20,20-29.9,29.9
	c-16.8,16.8-33.6,33.5-50.4,50.5c-1.6,1.7-2.8,4.2-3,6.6c-0.6,5.2,3,9,9.1,10.7c30.4,8.2,60.8,16.3,91.1,24.5c2.3,0.6,4.5,1.7,6.5,3
	c4.2,2.8,5.8,8.1,4.1,12.8c-1.6,4.7-6.2,7.9-11.2,7.5c-2.3-0.2-4.5-0.9-6.8-1.5c-31.2-8.4-62.4-16.5-93.5-25.2
	c-11.1-3.1-18.2-10.9-21.2-22.1c-0.5-1.9-1-3.8-1.5-6.1c-1.2,1-2.1,1.8-3,2.4c-4.6,3.5-9.6,6.3-15.5,6.8c-2,0.2-2.4,0.9-2.2,2.6
	c0.4,3.4,0.7,7,1,10.4c0.8,8.6,1.5,17.1,2.2,25.7c0.9,10.5,1.9,21,2.8,31.7c0.9,10.4,1.8,20.9,2.7,31.4c1.1,12.5,2.3,24.9,3.3,37.4
	c0.9,10.5,1.8,21,2.7,31.7c1.1,13,2.3,25.9,3.4,38.8c0.2,2.3,0.5,4.6,0.6,7c0.5,6.8,8.6,12.8,15.9,7.6c10.5-7.5,21.1-14.8,31.8-22.2
	c55.5-38.6,111-77.5,166.5-116.3C408.5,428.3,413.5,424.8,419.1,420.9z M458.6,261.7c0.3,0.2,0.6,0.3,0.9,0.4c0.4-0.7,0.9-1.3,1.1-2
	c0.8-2.8,1.5-5.6,2.2-8.5c2.5-10,4.9-20.1,7.6-30c4.2-15.6,20.3-22.4,33.9-14.5c5.1,3,8.1,7.8,9.8,13.4c1.9,6.2,3.7,12.4,5.6,18.6
	c0.5,1.5,1.1,3,3.1,2.6c1.8-0.4,3-1.4,3-3.4c0-0.7,0-1.4-0.2-2c-1.1-4.1-2.1-8.2-3.1-12.3c-3-12-6.1-24-9-36
	c-5.5-22-11.1-44-16.6-66c-4.8-19.4-9.6-38.7-14.6-58c-0.6-2.3-0.8-5.5-3.4-5.8c-1.7-0.2-4,1.8-5.5,3.2
	c-7.3,7.3-14.5,14.8-21.6,22.1c-14.7,14.9-29.3,29.8-44,44.7c-11.5,11.8-23.1,23.6-34.6,35.3c-13.7,14-27.5,27.8-41.2,41.8
	c-5.5,5.7-11,11.3-16.5,17c-1.8,1.9-2.8,3.9-2,6.6c1.1,3.3,3,6,6.7,6.7c3.6,0.7,6.1-1.1,8.1-3.8c3-4,6.6-7.1,11.1-8.9
	c9.8-4,19.2-3,27.5,3.6c7.6,5.9,10.3,14,9.3,23.5c-0.3,3-0.5,5.9-0.2,8.8c0.9,8.6,8,15.2,17.1,15.7c8.9,0.5,16.7-5.9,18.5-12.8
	c2.1-8.4,4.4-16.7,6.8-25c3.4-12,15.1-18.7,27.1-15.5c11.8,3,19.5,13.1,16.3,27.1C460.6,252.9,459.6,257.3,458.6,261.7z
	 M133.1,146.6c-0.5,1-1,1.8-1.4,2.6c-17.3,37.1-34.6,74.1-51.9,111.1c-16,34.5-32.2,69-48.3,103.5c-3.2,7,1.4,14.6,9,14.4
	c6.6-0.3,13.1-1,19.7-1.5c14.4-1.3,28.7-2.7,43-3.9c14.2-1.3,28.4-2.4,42.6-3.6c3-0.3,3.2-0.6,3-3.5c-0.9-9.1-1.7-18.3-2.4-27.3
	c-0.3-3.5-0.3-7.1-0.6-10.6c-0.6-5.8-1.4-11.6-2.1-17.4c-1.2-10.8-2.3-21.6-3.3-32.6c-0.8-7.6-1.4-15-2.2-22.6
	c-1-9.5-1.9-19.1-2.9-28.6c-0.8-8-1.6-16-2.4-24.1c-0.5-5.1-1-10.2,0.8-15.3c3.1-9,15.3-18,28.6-12.5c6.8,2.8,13.2,6.3,19.9,9.4
	c0.6,0.3,1.2,0.5,1.8,0.7c-2.5-4-4.1-8.1-4.5-12.6c-0.8-8.6-1.3-17.1-2-25.7c-0.3-3.2-0.7-6.5-1-9.6c-2.1,2.7-3.7,5.4-6,7.5
	c-4.9,4.5-11.2,5.4-17.7,5.7C146,150.2,139.4,149.5,133.1,146.6z M266.3,245.5c-1.1-0.6-1.9-1-2.7-1.4
	c-29.1-14.2-58.2-28.3-87.3-42.5c-6.4-3.1-12.7-6.2-19.1-9.2c-4.4-2.1-6.3-0.9-6,3.8c0.3,4.7,0.7,9.4,1.2,14.2
	c1.1,10.8,2.3,21.6,3.4,32.5c0.8,7.3,1.4,14.6,2.1,21.8c1.3,13.3,2.6,26.6,3.9,39.7c0.6,6,1.1,11.9,2,17.8c0.7,4.2,5,6.5,9.6,5.5
	c4-0.8,6.6-4.7,5.8-8.9c-1.1-5.1-1.5-10.1-0.1-15.2c5-17.9,26.2-25.8,40.5-14.9c1.6,1.2,2.4,1.1,3.6-0.3
	c13.7-13.8,27.4-27.4,41.2-41.2C264.9,246.9,265.5,246.3,266.3,245.5z M200.8,154.1c0.3-8.3,1.7-15.5,8-20.8
	c10.9-9.1,27.8-5.3,34.7,7.8c1.2,2.2,2.1,4.5,3.1,6.8c1.8,3.7,5.4,5.3,9.3,4c2.3-0.8,4.5-1.7,6.7-2.8c6.3-3,7-6.1,3-11.8
	c-7-10.3-14.1-20.7-20.9-31.1C237,94.6,229.3,82.7,221.6,71c-8.2-12.5-16.3-25.1-24.5-37.5c-2-3-3.8-6.3-6-9.2
	c-2-2.7-3.9-2.4-5.8,0.4c-0.3,0.5-0.6,1-0.9,1.6c-7.8,16.4-15.6,33-23.4,49.6c-1.6,3.3-2.8,6.8-4.4,10c-6,11.1-12,22.1-18.2,33
	c-3.1,5.5,0.2,11.3,5.9,12c3.7,0.4,7.5,0.3,11.1,0.1c3.1-0.2,5.6-2,6.7-4.9c2.4-6.4,4.3-12.9,6.6-19.3c0.5-1.5,1.1-3.1,2.2-4
	c4.4-3.7,10.3-3.7,15-0.3c3.4,2.6,5.7,6,6.5,10c0.8,3.5,1,7.3,1.4,10.8c1,10.2,1.9,20.5,2.7,30.6c0.4,5,0.7,9.9,1.1,14.9
	c0.1,0.8,1,2,1.7,2.2c1.4,0.4,2.1-0.7,2.1-2.1c0.1-2,0.3-4,0.1-6C201.6,159.9,201.2,156.7,200.8,154.1z M276.1,164
	c-6.4,2.4-12.2,5-18.3,6.8c-12.5,3.5-21.1-0.7-26.8-12.4c-1-2-1.8-3.9-2.7-5.9c-0.6-1.3-1.1-2.8-2.1-3.6c-1.1-0.9-2.9-1.7-4.1-1.5
	c-0.9,0.2-2,1.9-2.3,3.1c-0.5,1.5-0.3,3.1-0.3,4.7c0.1,6,0.7,12,0.1,17.9c-0.9,8.9-7.3,15-15.9,16.4c-2.4,0.4-4.8,0.5-8.1,0.8
	c1.6,0.9,2.5,1.4,3.4,1.8c26.5,12.9,53,25.8,79.5,38.6c1.5,0.8,2.3,0.5,3.4-0.7c5.3-5.1,10.8-9.9,16-15.2c2.7-2.8,4.9-6,7.5-9.2
	C295.6,191.7,285.6,177.6,276.1,164z M197.5,314.6c3.6-3.7,7.1-7.4,10.5-11c-3-1.8-6.2-1.2-9,1.4C196.5,307.2,196,310.8,197.5,314.6
	z"/>
</svg>
