<svg id="Layer_1" data-name="Layer 1" xmlns="http://www.w3.org/2000/svg" viewBox="0 0 600 600"><title>01-nachos</title><path d="M150.69,392c-11.5,1-22.7,1.9-33.9,2.9l-51.5,4.5c-8.1.7-16.2,1.8-24.4,2a32.58,32.58,0,0,1-32.5-24.2c-2.3-8.9-1.1-17.2,2.7-25.2,24.6-52.4,49-104.6,73.4-157,12.2-26.2,24.3-52.2,36.6-78.3,15.5-32.9,31.3-65.9,46.9-98.8,2.8-5.8,6.6-10.4,12.8-12.6,9.8-3.3,19.5-.5,25.5,8.1,6.3,9,12.1,18.4,18.2,27.5,8.1,12.3,16.1,24.5,24.2,36.8,9.7,14.8,19.4,29.5,29.3,44.2,3.3,5,7,9.7,8.6,15.7a9.93,9.93,0,0,0,1.1,2c11.1,15.8,22.2,31.7,33.3,47.5a11.12,11.12,0,0,0,1.2,1.5c6.2-6.1,12.4-12,18.5-18.1,3.4-3.4,6.7-7,10.1-10.4,13.8-14,27.5-27.8,41.2-41.8,14.7-14.8,29.2-29.8,43.8-44.6,9.1-9.3,18.2-18.6,27.3-27.8,11-11.2,31.4-6.4,35.6,8.8,4.5,16.1,8.4,32.6,12.5,48.8,1.8,7.1,3.7,14.2,5.4,21.2,5.2,20.8,10.5,41.8,15.7,62.6,3,11.5,6.5,22.9,8.6,34.6,3.9,21.8,10.5,43,16.1,64.3q16.65,63.15,33.9,126.3c2,7.3,2.8,14.5.4,21.8-3.6,11.1-10.9,18.1-21.9,21.6-7.2,2.3-14.1,1.4-21.1-.5-32.4-8.8-64.7-17.4-97.2-26.2a4.6,4.6,0,0,0-4.4.8q-69.3,48.75-138.7,97.2c-30.1,21-60.2,42.3-90.4,63.2-8.7,6-18.3,7.1-28.4,3.8-12.1-3.9-19.8-12.2-22-24.7-1.4-7.6-1.9-15.3-2.6-23.1-1.1-10.9-2-21.9-3-32.8-.9-10.1-1.8-20.3-2.7-30.4-1-10.9-2-21.9-3-32.8-.9-10.3-1.8-20.8-2.7-31.2-.7-8.4-1.4-16.7-2.2-25.1A4,4,0,0,0,150.69,392Zm268.4,28.9c-1.4-.5-2.1-.8-2.8-1-7.1-1.9-14.2-3.7-21.2-5.7-14-3.8-27.9-7.6-41.8-11.5a11.22,11.22,0,0,1-8.1-11.1c.3-5.4,4-9.9,9.4-10.6a18.62,18.62,0,0,1,7.4.6q77,20.55,154,41.2c13.2,3.5,26.4,7.1,39.5,10.6,6.2,1.7,11.2-.4,13.1-5.9a14.74,14.74,0,0,0,.2-7.8c-3.2-12.8-6.7-25.6-10.1-38.4q-15.9-59.55-32-119.1c-.5-1.9-1.3-2.4-3.2-2.4-6.9.3-13.4-1.4-17.3-7.5-2.7-4-4.2-8.9-5.9-13.4s-2.7-9.2-4.1-13.9c-.5-1.7-1.5-3-3.5-3a4.34,4.34,0,0,0-4,2.9,21.29,21.29,0,0,0-1.1,3.3c-3.5,13.4-7,26.7-10.5,40-2.7,10.1-12.3,15.6-22.5,13-11.3-3-17-12.4-14.1-23.6,1.2-4.6,2.5-9.1,3.5-13.8a4.15,4.15,0,0,0-2.7-5.2c-2.1-.7-4,.4-5.1,2.8a14,14,0,0,0-.9,2.9c-2,7.2-3.9,14.3-5.8,21.4-5.1,19.1-23.1,29.7-41.9,26.3-19.5-3.6-32.8-19.8-29.7-43.3.6-4.1-.6-7-3.7-8.7a7.71,7.71,0,0,0-10,1.5c-1.1,1.1-2,2.3-3,3.4-6.4,7.3-14.3,10.1-23.8,8.4a28.26,28.26,0,0,1-17.2-9.7,17.38,17.38,0,0,1-2,3c-9.9,10-20,20-29.9,29.9-16.8,16.8-33.6,33.5-50.4,50.5a11.49,11.49,0,0,0-3,6.6c-.6,5.2,3,9,9.1,10.7,30.4,8.2,60.8,16.3,91.1,24.5a22.58,22.58,0,0,1,6.5,3,10.88,10.88,0,0,1,4.1,12.8,11,11,0,0,1-11.2,7.5,41.45,41.45,0,0,1-6.8-1.5c-31.2-8.4-62.4-16.5-93.5-25.2-11.1-3.1-18.2-10.9-21.2-22.1-.5-1.9-1-3.8-1.5-6.1-1.2,1-2.1,1.8-3,2.4-4.6,3.5-9.6,6.3-15.5,6.8-2,.2-2.4.9-2.2,2.6.4,3.4.7,7,1,10.4.8,8.6,1.5,17.1,2.2,25.7.9,10.5,1.9,21,2.8,31.7.9,10.4,1.8,20.9,2.7,31.4,1.1,12.5,2.3,24.9,3.3,37.4.9,10.5,1.8,21,2.7,31.7,1.1,13,2.3,25.9,3.4,38.8.2,2.3.5,4.6.6,7,.5,6.8,8.6,12.8,15.9,7.6,10.5-7.5,21.1-14.8,31.8-22.2q83.25-57.9,166.5-116.3C408.49,428.31,413.49,424.81,419.09,420.91Zm39.5-159.2a3.55,3.55,0,0,0,.9.4,9.93,9.93,0,0,0,1.1-2c.8-2.8,1.5-5.6,2.2-8.5,2.5-10,4.9-20.1,7.6-30,4.2-15.6,20.3-22.4,33.9-14.5,5.1,3,8.1,7.8,9.8,13.4,1.9,6.2,3.7,12.4,5.6,18.6.5,1.5,1.1,3,3.1,2.6,1.8-.4,3-1.4,3-3.4a6.48,6.48,0,0,0-.2-2c-1.1-4.1-2.1-8.2-3.1-12.3-3-12-6.1-24-9-36-5.5-22-11.1-44-16.6-66-4.8-19.4-9.6-38.7-14.6-58-.6-2.3-.8-5.5-3.4-5.8-1.7-.2-4,1.8-5.5,3.2-7.3,7.3-14.5,14.8-21.6,22.1-14.7,14.9-29.3,29.8-44,44.7-11.5,11.8-23.1,23.6-34.6,35.3-13.7,14-27.5,27.8-41.2,41.8-5.5,5.7-11,11.3-16.5,17-1.8,1.9-2.8,3.9-2,6.6,1.1,3.3,3,6,6.7,6.7s6.1-1.1,8.1-3.8a25.91,25.91,0,0,1,11.1-8.9c9.8-4,19.2-3,27.5,3.6,7.6,5.9,10.3,14,9.3,23.5a43.33,43.33,0,0,0-.2,8.8c.9,8.6,8,15.2,17.1,15.7,8.9.5,16.7-5.9,18.5-12.8,2.1-8.4,4.4-16.7,6.8-25a21.88,21.88,0,0,1,27.1-15.5c11.8,3,19.5,13.1,16.3,27.1C460.59,252.91,459.59,257.31,458.59,261.71Zm-325.5-115.1c-.5,1-1,1.8-1.4,2.6q-25.95,55.65-51.9,111.1c-16,34.5-32.2,69-48.3,103.5-3.2,7,1.4,14.6,9,14.4,6.6-.3,13.1-1,19.7-1.5,14.4-1.3,28.7-2.7,43-3.9s28.4-2.4,42.6-3.6c3-.3,3.2-.6,3-3.5-.9-9.1-1.7-18.3-2.4-27.3-.3-3.5-.3-7.1-.6-10.6-.6-5.8-1.4-11.6-2.1-17.4-1.2-10.8-2.3-21.6-3.3-32.6-.8-7.6-1.4-15-2.2-22.6-1-9.5-1.9-19.1-2.9-28.6-.8-8-1.6-16-2.4-24.1-.5-5.1-1-10.2.8-15.3,3.1-9,15.3-18,28.6-12.5,6.8,2.8,13.2,6.3,19.9,9.4a13.36,13.36,0,0,0,1.8.7,28.21,28.21,0,0,1-4.5-12.6c-.8-8.6-1.3-17.1-2-25.7-.3-3.2-.7-6.5-1-9.6-2.1,2.7-3.7,5.4-6,7.5-4.9,4.5-11.2,5.4-17.7,5.7C146,150.21,139.39,149.51,133.09,146.61Zm133.2,98.9c-1.1-.6-1.9-1-2.7-1.4q-43.65-21.3-87.3-42.5c-6.4-3.1-12.7-6.2-19.1-9.2-4.4-2.1-6.3-.9-6,3.8s.7,9.4,1.2,14.2c1.1,10.8,2.3,21.6,3.4,32.5.8,7.3,1.4,14.6,2.1,21.8,1.3,13.3,2.6,26.6,3.9,39.7.6,6,1.1,11.9,2,17.8.7,4.2,5,6.5,9.6,5.5a7.5,7.5,0,0,0,5.8-8.9c-1.1-5.1-1.5-10.1-.1-15.2,5-17.9,26.2-25.8,40.5-14.9,1.6,1.2,2.4,1.1,3.6-.3,13.7-13.8,27.4-27.4,41.2-41.2A12.25,12.25,0,0,0,266.29,245.51Zm-65.5-91.4c.3-8.3,1.7-15.5,8-20.8,10.9-9.1,27.8-5.3,34.7,7.8,1.2,2.2,2.1,4.5,3.1,6.8a7.32,7.32,0,0,0,9.3,4,55.79,55.79,0,0,0,6.7-2.8c6.3-3,7-6.1,3-11.8-7-10.3-14.1-20.7-20.9-31.1-7.7-11.6-15.4-23.5-23.1-35.2-8.2-12.5-16.3-25.1-24.5-37.5-2-3-3.8-6.3-6-9.2-2-2.7-3.9-2.4-5.8.4-.3.5-.6,1-.9,1.6-7.8,16.4-15.6,33-23.4,49.6-1.6,3.3-2.8,6.8-4.4,10-6,11.1-12,22.1-18.2,33-3.1,5.5.2,11.3,5.9,12a68.67,68.67,0,0,0,11.1.1,7.47,7.47,0,0,0,6.7-4.9c2.4-6.4,4.3-12.9,6.6-19.3a8.67,8.67,0,0,1,2.2-4,11.89,11.89,0,0,1,15-.3,16.66,16.66,0,0,1,6.5,10,99.73,99.73,0,0,1,1.4,10.8c1,10.2,1.9,20.5,2.7,30.6.4,5,.7,9.9,1.1,14.9a3.22,3.22,0,0,0,1.7,2.2c1.4.4,2.1-.7,2.1-2.1a40.07,40.07,0,0,0,.1-6A49.05,49.05,0,0,0,200.79,154.11Zm75.3,9.9c-6.4,2.4-12.2,5-18.3,6.8-12.5,3.5-21.1-.7-26.8-12.4-1-2-1.8-3.9-2.7-5.9-.6-1.3-1.1-2.8-2.1-3.6a6.14,6.14,0,0,0-4.1-1.5c-.9.2-2,1.9-2.3,3.1a14.72,14.72,0,0,0-.3,4.7c.1,6,.7,12,.1,17.9-.9,8.9-7.3,15-15.9,16.4-2.4.4-4.8.5-8.1.8,1.6.9,2.5,1.4,3.4,1.8q39.75,19.35,79.5,38.6c1.5.8,2.3.5,3.4-.7,5.3-5.1,10.8-9.9,16-15.2,2.7-2.8,4.9-6,7.5-9.2C295.59,191.71,285.59,177.61,276.09,164Zm-78.6,150.6c3.6-3.7,7.1-7.4,10.5-11-3-1.8-6.2-1.2-9,1.4C196.49,307.21,196,310.81,197.49,314.61Z"/></svg>