<svg id="Layer_1" data-name="Layer 1" xmlns="http://www.w3.org/2000/svg" viewBox="0 0 600 600"><title>02-browndrink</title><path d="M303,589.83c-9.25,0-18.5-.15-27.5-.46l-6.22-.2c-10.23-.31-20.81-.63-31.12-1.3-13.76-.9-29.77-2-45.5-3.79-21.54-2.42-37.94-4.73-53.17-7.48-9.57-1.67-19.08-4.72-28.28-7.67l-1.77-.57c-3.6-1.14-7-3.62-10-5.81s-4.9-5.54-5.28-10q-.9-11.19-1.76-22.44T90.6,507.71q-1.2-14.31-2.45-28.59T85.7,450.4c-.6-7.27-1.18-14.51-1.76-21.76S82.8,414.23,82.2,407q-1-12.5-2.15-25T77.9,356.9q-.59-7.06-1.14-14.1c-.78-9.69-1.58-19.71-2.46-29.61-.6-7.24-1.23-14.47-1.85-21.7S71.2,277.05,70.6,269.8q-.59-7.1-1.15-14.18C68.68,246,67.87,236,67,226.09c-.6-7.24-1.23-14.47-1.85-21.7S63.9,190,63.3,182.7l-3-35.9c-.93-11.54-2-23.32-2.95-34.71l-.25-2.9L54.7,80c-.39-4.84-.84-9.76-1.27-14.53-.46-5-.92-10.16-1.33-15.26a14.24,14.24,0,0,1,5.28-12.9c5.76-4.68,13-7.82,22.74-9.89,13.17-2.79,28.7-5.9,44-7.77,19.53-2.45,39.07-4.06,57.41-5.49,15.39-1.16,29.69-1.91,43.7-2.29,17-.61,34-.95,49.08-1.24,7.58-.15,14.8-.3,21.51-.46,8.6.14,16.63.22,24.39.3,13.3.13,25.86.25,38.19.7,27.21,1,48,2,67.43,3.39,25.24,1.72,52.26,4,78.95,9.47,7.07,1.43,14.15,3.58,21,5.66,2.68.81,5.35,1.62,8,2.4a23,23,0,0,1,5,2.55l.88.54c6.34,3.78,8.89,9.17,8.05,17-.87,8.5-1.58,17.11-2.25,25.44-.35,4.24-.69,8.47-1.06,12.7q-.75,9.17-1.55,18.36c-.52,6.12-1.05,12.25-1.55,18.35-.78,9.81-1.59,19.94-2.5,30.09q-.9,11-1.85,22c-.62,7.33-1.25,14.65-1.85,22l-.18,2.19c-.73,9.06-1.48,18.43-2.32,27.6q-.72,9-1.49,18c-.54,6.51-1.09,13-1.61,19.6l-3,36.49q-.75,9.22-1.55,18.49c-.52,6.18-1,12.36-1.55,18.51l-.16,1.95c-.73,9.14-1.5,18.59-2.34,27.84q-.85,9.79-1.67,19.59-.75,9-1.53,18l-3,36.21c-.5,6.2-1,12.43-1.55,18.65s-1,12.45-1.55,18.66l-.18,2.19c-.73,9.06-1.49,18.43-2.32,27.59q-.85,9.79-1.67,19.59-.75,9-1.53,18a22.75,22.75,0,0,0-.21,2.68c.08,4.07-1.62,7.37-5.21,10.11-6,4.72-13.27,7.8-22.88,9.73-15,3.14-30.54,6.38-46,8.37-19.42,2.5-39.84,4.55-60.69,6.09C347.15,589,324.88,589.83,303,589.83ZM113.6,502.47a2,2,0,0,0-1.35.52,2,2,0,0,0-.64,1.64q.51,6.08,1,12c.87,10.28,1.69,20,2.48,30a2,2,0,0,0,1.15,1.66l1,.49a15.72,15.72,0,0,0,3.37,1.35c2.07.52,4.18,1.07,6.28,1.62,6.89,1.79,14,3.65,21.23,4.9A613.81,613.81,0,0,0,221,565.16c18.87,1.16,43.71,2.56,68.37,3.11,3.7.08,7.6.12,11.6.12h0c13.91,0,27.65-.5,40.52-1,17-.79,37-1.88,57.22-3.9,20.37-2.06,40.42-5,59.21-7.92a132.64,132.64,0,0,0,16.38-4c2.21-.63,4.48-1.29,6.72-1.88,3.72-1,4.6-3.58,4.69-5.54.9-12.13,1.88-24.25,2.9-36.63a10.46,10.46,0,0,0,0-1.95c0-.32-.06-.66-.06-1a2,2,0,0,0-2-2l-.33,0a1123.47,1123.47,0,0,1-185.82,15.64,1123.22,1123.22,0,0,1-186.41-15.74ZM80.36,73.58c-.34,0-.7,0-1.09,0s-.75,0-1.17,0a2,2,0,0,0-2,2c0,.48,0,.91,0,1.31a19.42,19.42,0,0,0,0,2.29c.3,3.77.63,7.58,1,11.4s.65,7.57,1,11.35l3,36.41,2.4,29.5q.82,9.52,1.6,19c.53,6.36,1,12.71,1.6,19.07L89,235.23q.87,9.71,1.77,19.39c.65,7.06,1.31,14.13,1.93,21.22.46,5.07.79,10.22,1.11,15.21.24,3.76.49,7.64.79,11.47.5,6.16,1,12.34,1.55,18.52s1,12.34,1.55,18.49c.38,4.78.79,9.57,1.2,14.37q.66,7.83,1.3,15.72c.5,6.06,1,12.14,1.55,18.22s1,12.14,1.55,18.19c.8,10,1.6,20,2.4,30.09.37,4.61.78,9.22,1.2,13.83.69,7.67,1.4,15.61,1.9,23.44.19,2.83,1,6.17,5.88,6.95s9.79,1.79,14.59,2.7c9.79,1.85,19.92,3.76,30,5.11,17.43,2.26,36.43,4.22,58.1,6,16.35,1.3,33,1.91,49.19,2.51,13,.47,25.82.7,38,.7,18.39,0,36.41-.54,53.57-1.61,26-1.65,49.25-3.61,71-6,12.07-1.26,24.19-3.33,35.91-5.33,4.14-.7,8.26-1.41,12.39-2.08,2.8-.47,5.48-1.19,8.07-1.89,1.43-.39,2.9-.79,4.38-1.14a2,2,0,0,0,1.53-1.78q7.52-90.91,15.05-181.62,9.12-110.06,18.25-220.28a2,2,0,0,0-.57-1.56,2,2,0,0,0-1.43-.6h-.12c-.58,0-1.08,0-1.52,0a12.07,12.07,0,0,0-2.29.19c-3.31.63-6.72,1.34-10,2-7.59,1.58-15.44,3.21-23.16,4-18.6,2-39,3.63-62.51,5.09-19.22,1.19-38.52,1.53-53.2,1.7-21,.17-48.77.38-76.95.38-10.27,0-20.31,0-29.81-.08-26.31-.11-49.87-.57-72-1.4-19.46-.7-39.27-2.22-58.42-3.7-19.75-1.48-35.91-4-50.84-8A6.46,6.46,0,0,0,80.36,73.58ZM298.7,31.27c-30.5,0-62.06.81-93.8,2.4-14.17.73-25,1.44-35.17,2.3C156,37.2,141,38.75,122.48,40.88c-7.39.87-14.77,2.2-21.92,3.49L97.05,45a7.06,7.06,0,0,0-2.7,1.26c-.31.2-.59.39-.84.52a2,2,0,0,0-1.05,2.27,2.57,2.57,0,0,1,.06.35c0,.24.08.48.14.75a2,2,0,0,0,1.46,1.46l1.48.4a23.44,23.44,0,0,0,3.66.84c5.11.67,10.23,1.37,15.34,2.07,13.73,1.88,27.93,3.82,42,5.14,20.63,1.93,42.3,3.38,64.4,4.3,21.47,1,40.74,1.52,58.88,1.52h4.61C319,65.66,352.64,65,384.57,64c20.63-.76,42.15-2.23,65.83-4.51,12.22-1.14,24.58-2.91,36.53-4.62,5-.71,9.92-1.42,14.88-2.08a16.44,16.44,0,0,0,3.48-.76c.46-.14.92-.27,1.4-.39a2,2,0,0,0,1.45-1.46,8.22,8.22,0,0,0,.15-.84,2.23,2.23,0,0,1,0-.36,2,2,0,0,0-1.22-2.35c-.38-.15-.8-.36-1.25-.58a10.42,10.42,0,0,0-3.06-1.13c-4.34-.64-8.66-1.31-13-2-11.23-1.74-22.83-3.54-34.34-4.63-20.71-2-43.6-3.64-70-5.11-20.26-1.1-40.81-1.41-60.69-1.7C316.2,31.34,307.41,31.27,298.7,31.27Z"/><path d="M298.34,479c-4.32,0-8.55,0-12.6-.12-21.76-.51-43.27-1.75-64-3.69-18.73-1.74-37.63-4.5-55.91-7.17l-8.39-1.22c-15-2.14-30.53-18-32.6-33.29-.91-6.79-1.49-13.74-2-20.46-.24-2.88-.48-5.76-.74-8.66C121,392.89,120,381.2,119,369.89c-1-11.11-2-22.6-3.11-33.92q-.81-8.84-1.59-17.63t-1.61-17.66l-.29-3.19c-1.08-11.78-2.19-24-3.2-36l-.08-.85c-.37-4.21-.75-8.57-.05-12.53,1.71-9.8,9.24-13,15.25-14,9.27-1.58,18.83-2.68,28.06-3.74l7.26-.85c5.45-.59,11.07-1,16.5-1.43l2.79-.21-3.27,3c-7.18,6.51-14.62,13.24-22.14,19.58-.84.69-2.74.85-4.41,1-.77.07-1.55.13-2.31.25l-4.49.74c-3.07.49-6.24,1-9.34,1.68a13.24,13.24,0,0,0-3.9,2c-.64.41-1.3.83-2,1.26a2,2,0,0,0-1,1.52,2,2,0,0,0,.65,1.71c.59.53,1.1,1.05,1.6,1.56a9.73,9.73,0,0,0,3.46,2.63,65.19,65.19,0,0,0,12.37,2.91c17.18,1.58,36.62,3.38,55.37,4.6,16.9,1.15,33.35,1.92,48.88,2.31,22.61.59,45.57.9,68.25.9,17.46,0,35.15-.41,52.6-1.21,20.51-.91,41.23-2.36,60.55-3.8,10.06-.78,20.22-2,30-3.11l.85-.1a31.31,31.31,0,0,0,8.54-2.54,10.14,10.14,0,0,0,3.25-2.38c.21-.2.41-.4.6-.57a2,2,0,0,0,.64-1.87,6.81,6.81,0,0,0-6.27-5.8c-4.44-.83-9.07-1.51-13.55-2.16l-4.35-.64a7,7,0,0,0-.92-.11c-5.94-7.46-11.88-14.94-18.14-22.85,2.62.14,4.9.27,7.25.52,12.58,1.44,25.06,3,36.77,4.4,9.93,1.24,16.85,6.66,18.07,14.14.72,4.55.42,9.46.14,14.21-.06,1-.11,1.91-.16,2.86-.27,4.73-.72,9.6-1.16,14.31-.22,2.35-.44,4.69-.64,7-.45,5.18-.87,10.37-1.3,15.56s-.85,10.42-1.3,15.63q-.75,8.7-1.55,17.4c-.52,5.8-1.05,11.6-1.55,17.4s-1,11.5-1.55,17.24-1,11.51-1.55,17.26l-3,33.9c-.1,1.05-.19,2.11-.27,3.16-.64,7.54-1.24,14.66-5,21.12-7.81,13.54-18.26,21-31.94,22.92-6.08.81-12.28,1.7-18.26,2.56-10.93,1.58-22.24,3.2-33.38,4.43-15.79,1.73-31.49,2.9-46.66,3.49C330,478.42,314.13,479,298.34,479ZM435.22,297.58c-.56.46-1.11.95-1.63,1.47-15,14-30.56,28.56-45.86,43-5.5,5.09-11.17,8.34-17.32,9.92a15.3,15.3,0,0,0-2.58,1c-.43.21-.89.43-1.43.66a2,2,0,0,0-.76,3.09l.87,1.09c.69.86,1.18,1.49,1.8,2.18.83.95,1.7,1.89,2.56,2.83,1.38,1.49,2.81,3,4.08,4.6,13,16.41,10.95,38.28-4.92,53.19l-.19.18c-12.23,11.44-24.87,23.28-37.4,34.91a25.13,25.13,0,0,0-1.76,2l-.22.28a2,2,0,0,0,1.54,3.27l1.6,0,1.18,0c.45,0,.88,0,1.3-.05l10.65-.64c10.51-.61,21.38-1.24,32-2.36,10.78-1.16,21.7-2.6,32.25-4,7.76-1,15.79-2.09,23.67-3,10.15-1.24,16.83-4.75,21.68-11.41,4.13-5.54,4.7-11.83,5.25-17.92l.12-1.37q.76-8.71,1.56-17.4c.52-5.81,1.05-11.61,1.55-17.41,1-11.09,2-22.2,3-33.4.55-5.94,1.07-11.87,1.6-17.8s1.05-11.84,1.6-17.79c.33-3.92.69-7.84,1-11.78.39-4.32.79-8.66,1.15-13a5.6,5.6,0,0,0-.41-2.53c-.08-.25-.17-.52-.25-.81a2,2,0,0,0-1.92-1.47h-.28l-1.92.27c-1.4.2-2.72.39-4,.53-2.77.24-5.57.5-8.37.76-8.25.75-16.78,1.53-25.16,2.13l-14.48,1c-16.14,1.17-32.83,2.39-49.27,3.16-16.85.76-33.5,1-53.32,1.1l-12.38,0c-15.47,0-29.42-.17-42.65-.53-20.82-.6-41.83-1.51-62.44-2.7-10-.62-20.26-1.61-30.13-2.55q-6.58-.65-13.21-1.25c-6.12-.56-12-1.29-18.3-2.06l-1-.13a10.82,10.82,0,0,0-1.09-.07,3.84,3.84,0,0,0-3,1.14,4.62,4.62,0,0,0-1,3.67,2,2,0,0,0,1.75,1.83l2.7.34c5.46.68,11.08,1.39,16.58,2-2.28,6.57-1,12.52,3.91,17.72q8.34,8.91,16.63,17.85c9,9.71,18.37,19.75,27.67,29.55a17.27,17.27,0,0,0,12.65,5.62,18.31,18.31,0,0,0,12.25-4.91c14-13,30.59-28.34,47.14-44.14,2.65-2.54,4.05-6.14,5.28-9.32a13.58,13.58,0,0,0,.54-5.12v-.1h49.74c3.61,3.86,7.28,7.75,11,11.67,3.46,3.67,6.95,7.37,10.43,11.09a17.64,17.64,0,0,0,25.7,1.12l12.32-11.42c2.69-2.49,5.37-5,8-7.5,2.82-2.65,5.61-5.27,8.36-7.82C412.79,299.33,424,298.46,435.22,297.58ZM134.1,324.77a2.08,2.08,0,0,0-.73.13,2,2,0,0,0-1.27,1.87c0,.71,0,1.33,0,1.9,0,1,0,1.93,0,2.85.6,6.73,1.23,13.45,1.85,20.18s1.25,13.45,1.85,20.14c1.67,18.35,3.39,37.31,5,56.2,1,10.48,10.18,20.34,20.48,22,1.58.24,3.13.52,4.68.79,2.27.4,4.62.82,7,1.12l9.36,1.21c12.28,1.59,25,3.23,37.48,4.59,10.65,1.21,21.54,1.92,32.08,2.61,1,.07,2.15.1,3.47.1,1.12,0,2.26,0,3.42,0s2.4,0,3.64,0a2,2,0,0,0,1.52-3.31q-.36-.42-.63-.78a11.23,11.23,0,0,0-.87-1c-6.34-6.78-12.7-13.62-19.06-20.45s-12.78-13.73-19.2-20.6A36.06,36.06,0,0,1,215,395.43c-.13-.87-.3-1.75-.46-2.63s-.37-2-.53-3a2,2,0,0,0-1.74-1.69l-1.3-.16c-1.14-.14-2.22-.27-3.29-.35A36.66,36.66,0,0,1,183,376.08c-7.93-8.29-15.84-16.82-23.49-25.07q-4.65-5-9.29-10l-.12-.12c-4.66-5-9.32-9.92-14.48-15.47A2,2,0,0,0,134.1,324.77ZM300.55,326a17.89,17.89,0,0,0-12.21,5.1c-15.94,14.84-31.93,29.82-47.51,44.51-7.32,7-7.68,17-.9,24.31,14.55,15.73,29.59,32,44.52,47.82a17.5,17.5,0,0,0,12.74,5.58,18,18,0,0,0,12.17-4.88q11.86-11,23.71-22.11t23.7-22.1a18.32,18.32,0,0,0,5.63-12.72,16.92,16.92,0,0,0-4.51-12.08c-14.56-15.65-29.6-31.81-44.54-47.54A17.62,17.62,0,0,0,300.55,326Z"/><path d="M247.77,267.67q-3.17-3.39-6.26-6.73c-5.15-5.54-10-10.77-15.07-16A17.27,17.27,0,0,0,214,239.55a17.76,17.76,0,0,0-11.75,4.62c-1.84,1.64-3.66,3.35-5.43,5-.86.81-1.72,1.62-2.6,2.43-2.38,2.17-4.77,4.39-7.18,6.61q-3,2.79-6.05,5.58l-28.28-2.6,5.47-5c5-4.62,10.26-9.39,15.44-14,1.52-1.38,3-2.78,4.51-4.18,4.06-3.79,8.26-7.72,12.67-11.12A36.56,36.56,0,0,1,213.21,219a46.77,46.77,0,0,1,18.12,4,13.77,13.77,0,0,1,3,2.24c11.93,11.83,24.13,24,35.93,35.83.61.61,1.27,1.2,2,1.89l.54.48a2,2,0,0,0,1.33.52h.18a2,2,0,0,0,1.4-.77c.18-.22.36-.43.54-.62a4.87,4.87,0,0,0,1.47-2.65c1-7.71,6.32-13.38,11-18.39,13.63-14.6,28.71-29.3,48.88-47.69a38.16,38.16,0,0,1,25.84-9.69,38.77,38.77,0,0,1,28.26,11.79c2.57,2.73,5.15,5.43,7.74,8.14,7.11,7.45,14.47,15.16,21.3,23.09,8.14,9.37,15.83,19.58,22.62,28.6a15.06,15.06,0,0,1,2,5c.08.26.15.52.23.78l-11.44,1.06-9.79.91c-4.47-6.75-10-12.39-15.34-17.86-2.47-2.52-5-5.13-7.39-7.78-6.09-6.77-12.45-13.47-18.6-20q-3.12-3.28-6.23-6.59C373,207.15,368.4,205,363.58,205a18.56,18.56,0,0,0-12.53,5.33q-11.74,10.92-23.47,21.87T304.24,253.9a18,18,0,0,0-6,13.77Z"/></svg>