<?xml version="1.0" encoding="utf-8"?>
<!-- Generator: Adobe Illustrator 23.0.2, SVG Export Plug-In . SVG Version: 6.00 Build 0)  -->
<svg version="1.1" id="Layer_1" xmlns="http://www.w3.org/2000/svg" xmlns:xlink="http://www.w3.org/1999/xlink" x="0px" y="0px"
	 viewBox="0 0 600 600" style="enable-background:new 0 0 600 600;" xml:space="preserve">
<g>
	<path d="M295.8,8.2c23.9,0.4,43.3,0.3,62.7,1c22.5,0.8,45,1.8,67.5,3.4c26.5,1.8,53.1,4.2,79.2,9.5c9.9,2,19.5,5.3,29.2,8.1
		c2.3,0.7,4.4,2.1,6.4,3.3c7.2,4.3,9.9,10.6,9,18.9c-1.3,12.7-2.2,25.4-3.3,38.1c-1,12.2-2.1,24.5-3.1,36.7c-0.8,10-1.6,20-2.5,30.1
		c-1.2,14.7-2.5,29.3-3.7,44c-0.8,9.9-1.6,19.9-2.5,29.8c-1,12.5-2.1,25-3.1,37.6c-1,12.2-2,24.3-3,36.5c-1,12.3-2.1,24.7-3.1,37
		c-0.8,9.9-1.6,19.9-2.5,29.8c-1.1,12.5-2.1,25-3.2,37.6c-1,12.1-2,24.1-3,36.2c-1,12.4-2.1,24.9-3.1,37.3
		c-0.8,9.9-1.6,19.9-2.5,29.8c-1.1,12.5-2.1,25-3.2,37.6c-0.1,0.8-0.2,1.7-0.2,2.5c0.1,5-2.2,8.8-6,11.7c-7,5.5-15.2,8.4-23.7,10.1
		c-15.3,3.2-30.6,6.4-46.1,8.4c-20.2,2.6-40.5,4.6-60.8,6.1c-31.9,2.3-63.8,3.2-95.8,2.1c-12.5-0.4-25-0.7-37.4-1.5
		c-15.2-1-30.5-2.1-45.6-3.8c-17.8-2-35.6-4.3-53.3-7.5c-10.3-1.8-20.3-5.1-30.3-8.3c-3.8-1.2-7.3-3.7-10.6-6.1
		c-3.9-2.7-5.7-6.8-6.1-11.5c-1.2-14.9-2.3-29.9-3.5-44.8c-1.6-19.1-3.3-38.2-4.9-57.3c-1.2-14.5-2.3-28.9-3.5-43.4
		c-1.4-16.7-2.9-33.4-4.3-50.1c-1.2-14.6-2.3-29.1-3.6-43.7c-1.2-14.5-2.5-28.9-3.7-43.4c-1.2-14.6-2.3-29.1-3.6-43.7
		c-1.2-14.5-2.5-28.9-3.7-43.4c-1-12-2-23.9-3-35.9c-1-12.5-2.1-25-3.2-37.6c-0.8-9.7-1.6-19.5-2.4-29.2c-0.8-9.9-1.8-19.8-2.6-29.8
		c-0.5-5.8,1.4-10.8,6-14.6c6.9-5.6,15.1-8.5,23.6-10.3c14.6-3.1,29.4-6,44.2-7.8c19.1-2.4,38.3-4,57.5-5.5
		c14.6-1.1,29.2-1.9,43.8-2.3C250.6,9,275.5,8.7,295.8,8.2z M489.4,477.4c11.1-134.1,22.2-267.7,33.3-401.9c-1.6,0.1-2.6,0-3.5,0.2
		c-11.1,2.1-22.2,4.9-33.4,6.1c-20.8,2.2-41.7,3.8-62.6,5.1c-17.8,1.1-35.6,1.5-53.3,1.7c-35.6,0.3-71.2,0.5-106.8,0.3
		c-24-0.1-48.1-0.5-72.1-1.4c-19.5-0.7-39-2.2-58.5-3.7c-17.3-1.3-34.4-3.6-51.2-8.1c-0.9-0.2-1.9,0-3.2,0c0,1.4-0.1,2.4,0,3.4
		c0.6,7.6,1.3,15.2,1.9,22.8c1,12.1,2,24.3,3,36.4c0.8,9.8,1.6,19.7,2.4,29.5c1.1,12.7,2.1,25.4,3.2,38.1c0.8,9.7,1.6,19.5,2.4,29.2
		c1.2,13.5,2.5,27,3.7,40.6c0.8,8.9,1.2,17.8,1.9,26.7c1,12.3,2.1,24.7,3.1,37c0.8,10,1.7,20,2.5,30.1c1,12.1,2.1,24.3,3.1,36.4
		c0.8,10,1.6,20,2.4,30.1c1,12.4,2.3,24.8,3.1,37.3c0.2,3,1.1,4.6,4.2,5.1c14.8,2.6,29.6,5.8,44.5,7.8c19.3,2.5,38.6,4.4,58,6
		c16.3,1.3,32.7,1.9,49.1,2.5c30.5,1.1,60.9,1,91.4-0.9c23.7-1.5,47.3-3.4,70.9-6c16.2-1.7,32.2-4.8,48.2-7.4
		C481.3,479.7,485.2,478.4,489.4,477.4z M117.1,546.5c1.5,0.7,2.7,1.4,4,1.7c9.1,2.3,18.1,4.9,27.4,6.5c24,4.3,48.2,7.1,72.6,8.5
		c22.8,1.4,45.6,2.6,68.3,3.1c17.3,0.4,34.7-0.2,52-0.9c19.1-0.9,38.1-2,57.1-3.9c19.8-2,39.5-4.9,59.1-7.9
		c7.8-1.2,15.3-3.8,22.9-5.8c1.8-0.5,3.1-1.5,3.2-3.7c0.9-12.2,1.9-24.5,2.9-36.7c0.1-0.9-0.1-1.8-0.1-2.8
		c-124.3,20.9-248.4,20.9-372.9-0.1C114.8,518.8,116,532.6,117.1,546.5z M506.2,49.7c0.1-0.4,0.1-0.8,0.2-1.2
		c-1.3-0.5-2.6-1.4-3.9-1.6c-15.7-2.3-31.4-5.1-47.2-6.6c-23.2-2.2-46.6-3.8-69.9-5.1c-20.2-1.1-40.4-1.4-60.6-1.7
		c-40-0.6-79.9,0.2-119.8,2.2c-11.7,0.6-23.4,1.3-35.1,2.3c-15.7,1.4-31.5,3.1-47.2,4.9c-8.5,1-16.9,2.6-25.3,4.1
		c-1.1,0.2-2,1.1-3,1.6c0.1,0.4,0.1,0.7,0.2,1.1c1.6,0.4,3.3,1,4.9,1.2c19.1,2.5,38.1,5.4,57.3,7.2c21.4,2,42.9,3.4,64.3,4.3
		c21.1,1,42.3,1.6,63.4,1.5c33.3-0.2,66.7-0.8,100-1.9c21.9-0.8,43.9-2.4,65.7-4.5c17.2-1.6,34.3-4.4,51.4-6.7
		C503.1,50.7,504.6,50.1,506.2,49.7z"/>
	<path d="M184.4,225.7c-9.8,8.8-19.5,17.8-29.6,26.3c-1.8,1.5-5.1,1.3-7.7,1.7c-4.6,0.8-9.2,1.4-13.7,2.4c-1.6,0.4-3.1,1.7-5.4,3
		c1.9,1.7,3,3.3,4.4,3.8c3.9,1.2,7.9,2.4,11.9,2.8c18.4,1.7,36.9,3.4,55.3,4.6c16.2,1.1,32.5,1.9,48.8,2.3
		c22.7,0.6,45.5,0.9,68.2,0.9c17.5,0,35-0.4,52.5-1.2c20.2-0.9,40.3-2.3,60.5-3.8c10.3-0.8,20.5-2,30.8-3.2c2.7-0.3,5.4-1.3,8-2.4
		c1.3-0.5,2.4-1.8,3.3-2.6c-0.6-3.1-2.6-3.9-4.6-4.2c-5.9-1.1-11.9-1.9-17.9-2.8c-0.5-0.1-0.9-0.1-1.6-0.1c-7-8.8-14-17.6-21.5-27.1
		c4.5,0.3,8.1,0.4,11.8,0.8c12.3,1.4,24.6,2.9,36.8,4.4c10.4,1.3,18.4,7.2,19.8,15.8c0.9,5.7,0.3,11.7,0,17.5
		c-0.4,7.1-1.2,14.3-1.8,21.4c-0.9,10.4-1.7,20.8-2.6,31.2c-1,11.6-2.1,23.2-3.1,34.8c-1,11.5-2.1,23-3.1,34.5
		c-1,11.3-2,22.6-3,33.9c-0.8,8.6-1,17.3-5.5,25.1c-7.5,13-18.1,21.8-33.4,23.9c-17.2,2.3-34.4,5.1-51.7,7
		c-15.5,1.7-31.2,2.9-46.8,3.5c-19.3,0.8-38.6,1.4-57.8,1c-21.4-0.5-42.8-1.7-64.1-3.7c-21.6-2-43-5.3-64.4-8.4
		c-16.1-2.3-32.1-18.8-34.3-35c-1.3-9.7-1.9-19.4-2.8-29.2c-1.1-11.5-2.1-23-3.1-34.5c-1-11.3-2-22.6-3.1-33.9
		c-1.1-11.8-2.1-23.5-3.2-35.3c-1.2-13.1-2.4-26.1-3.5-39.2c-0.4-4.6-0.9-9.4-0.1-13.9c1.6-9.2,8.2-14.2,16.9-15.6
		c11.7-2,23.6-3.2,35.4-4.6c8.3-0.9,16.7-1.4,25-2.1C184.2,225.3,184.3,225.5,184.4,225.7z M367.2,355.5c1.2,1.5,1.8,2.3,2.6,3.2
		c2.2,2.5,4.6,4.9,6.7,7.5c13.6,17.2,11.4,40.4-5.1,55.9c-12.5,11.7-25,23.4-37.6,35.1c-0.5,0.5-0.9,1-1.8,2.1c1.7,0,2.8,0.1,3.9,0
		c14.2-0.9,28.5-1.5,42.6-3c18.7-2,37.3-4.8,55.9-7c8.2-1,15.2-3.6,20.3-10.6c4.1-5.5,4.4-11.9,5-18.3c1-11.6,2.1-23.2,3.1-34.8
		c1-11.1,2-22.2,3-33.4c1.1-11.9,2.1-23.7,3.2-35.6c0.7-8.2,1.5-16.5,2.2-24.8c0.1-0.7-0.3-1.5-0.6-2.6c-2.2,0.3-4.1,0.6-6,0.8
		c-11.2,1-22.4,2.1-33.6,2.9c-21.3,1.5-42.5,3.2-63.8,4.2c-17.8,0.8-35.6,1-53.4,1.1c-18.4,0.1-36.7,0-55.1-0.5
		c-20.8-0.6-41.7-1.5-62.5-2.7c-14.5-0.9-28.9-2.5-43.4-3.8c-6.5-0.6-12.9-1.4-19.4-2.2c-1.7-0.2-3,0-2.8,2.6
		c7.2,0.9,14.3,1.8,21.3,2.6c0.1,0.4,0.2,0.5,0.2,0.6c-0.1,0.3-0.1,0.5-0.2,0.8c-2.5,6.2-1.5,11.8,3.1,16.7
		c14.8,15.8,29.4,31.7,44.3,47.4c6.1,6.5,15.5,6.6,22.1,0.6c15.8-14.6,31.6-29.3,47.1-44.1c2.3-2.2,3.6-5.5,4.8-8.6
		c0.7-1.9,0.3-4.2,0.4-6.5c17.3,0,34.7,0,52.6,0c7.2,7.7,14.6,15.5,22,23.4c6.5,6.9,15.8,7.4,22.9,1c4.1-3.8,8.2-7.6,12.3-11.4
		c5.7-5.3,11.4-10.7,16.9-15.8c13.2-1,26-2,38.8-3c0.3,0.4,0.5,0.8,0.8,1.2c-1.7,1.3-3.5,2.5-5,4c-15.3,14.3-30.6,28.6-45.9,43
		c-5.3,4.9-11.2,8.6-18.2,10.4C369.8,354.2,368.8,354.8,367.2,355.5z M360.4,391.5c0.1-4.1-1.3-7.7-4-10.7
		c-14.8-15.9-29.6-31.8-44.5-47.5c-6.4-6.8-15.4-7-22.2-0.7c-15.9,14.8-31.7,29.6-47.5,44.5c-6.4,6.1-6.9,14.9-0.8,21.5
		c14.8,16,29.6,32,44.5,47.8c6.1,6.4,15.6,6.6,22.1,0.6c15.8-14.7,31.6-29.5,47.4-44.2C358.5,399.7,360.3,395.9,360.4,391.5z
		 M134.1,326.8c0,2-0.1,3.3,0,4.6c1.2,13.4,2.5,26.9,3.7,40.3c1.7,18.7,3.4,37.4,5,56.2c0.9,9.5,9.5,18.7,18.8,20.2
		c3.9,0.6,7.7,1.4,11.6,1.9c15.6,2,31.2,4.1,46.8,5.8c10.6,1.2,21.3,1.9,32,2.6c3.3,0.2,6.7,0,10.4,0c-0.6-0.7-1-1.3-1.4-1.7
		c-12.8-13.7-25.5-27.4-38.3-41.1c-5.2-5.6-8.4-12.2-9.7-19.8c-0.3-1.9-0.7-3.7-1-5.7c-1.7-0.2-3.1-0.4-4.5-0.5
		c-10.2-0.7-18.9-4.7-26-12.1c-11.1-11.6-21.9-23.4-32.8-35.1C144,337.4,139.3,332.4,134.1,326.8z"/>
	<path d="M448.3,263.3c-9,0.8-17.1,1.6-24.9,2.3c-6.5-10.2-15.5-17.8-23.2-26.4c-8.1-9-16.5-17.7-24.8-26.5
		c-6.8-7.3-15.7-7.6-23-0.9c-15.6,14.5-31.2,29.1-46.8,43.6c-4.1,3.9-5.9,8.7-5.2,14.3c-18,0-35.9,0-53.5,0
		c-7.5-8-14.6-15.8-21.9-23.3c-6-6.2-15-6.4-21.4-0.7c-2.7,2.4-5.3,4.9-8,7.4c-4.6,4.2-9.2,8.5-13.9,12.8c-10.9-1-21.7-2-32.6-3
		c-0.1-0.3-0.2-0.5-0.3-0.8c7.8-7.1,15.6-14.3,23.5-21.4c5.7-5.2,11.2-10.7,17.3-15.4c13.2-10,27.6-10.4,42.5-4.1
		c1.3,0.6,2.5,1.6,3.6,2.6c12,11.9,24,23.9,36,35.9c0.7,0.7,1.5,1.4,2.5,2.3c0.7-0.9,1.5-1.5,1.6-2.3c1.1-8.1,6.2-13.8,11.5-19.5
		c15.6-16.7,32.1-32.4,49-47.8c15.9-14.5,42.2-13.4,56.9,2.2c9.8,10.4,19.8,20.5,29.1,31.3c8,9.2,15.4,19,22.7,28.7
		C446.7,256.8,447.1,259.9,448.3,263.3z"/>
</g>
</svg>
