<svg id="Layer_1" data-name="Layer 1" xmlns="http://www.w3.org/2000/svg" viewBox="0 0 600 600"><title>04-tea</title><path d="M270.05,214.89h149.3c7.5,0,12.6,4.7,12.6,11.8s-5,12-12.4,12c-15.7.1-31.3.4-47,.4l-230.1-.3c-8.5,0-10.5,2-10.5,10.4,0,23.7-.2,47.4.1,71,.9,73.5,52.5,139.5,123.9,157.2,65.4,16.2,122.6.7,169.8-47.8,25.3-26,40-57.9,42.9-94,2.2-26.7,1.2-53.6,1.5-80.4.1-9.2,0-18.3,0-27.5,0-7.8,5-13.2,12.2-13.1,6.8,0,11.7,5.6,11.7,13.1V316c0,92.5-66,172.3-157.3,188.3-64.8,11.4-121.9-5.5-170.1-50.6-7.5-7-13.6-15.5-20.8-22.9a13.81,13.81,0,0,0-8.6-4.2c-15.1-.4-30.2-.1-45.3-.2-41.3-.4-78.8-34.3-83.4-75.4-5.2-46,23.5-87,67.8-96.5,7.3-1.6,15-1.5,22.6-1.9,6-.3,8.7-2.8,8.7-8.8V227a11.79,11.79,0,0,1,12-12C170.05,214.89,220.05,214.89,270.05,214.89ZM108,303.39v-18.5c0-5.8-2.8-8.7-8.6-8.6a129.71,129.71,0,0,0-13.9.9c-26.1,3.7-49.9,23.9-53.1,56.3-2.4,24.2,9,50.3,35.7,62.9,15.9,7.5,33,6.4,49.8,5.7,5.4-.2,7.9-5.1,5.6-10.3C111.05,363.59,106.75,334,108,303.39Z"/><path d="M300.25,585.29c-44.5.2-88.8-2.9-132.7-10.4-16-2.8-32-6-48-9.1-6.9-1.4-11.2-7.4-10-13.6,1.3-6.5,8-10.6,14.8-9.4,27.2,4.8,54.2,10.2,81.5,14a547.84,547.84,0,0,0,61.4,4.6c26.7.7,53.5,1,80.2-.6,27.3-1.7,54.4-5.4,81.5-9.1,15.8-2.1,31.3-5.9,47-8.9,6.9-1.3,13.5,2.8,14.9,9.3s-3,12.4-10.3,13.7c-27.6,4.9-55,10.6-82.7,14.2-24.2,3.1-48.8,3.8-73.2,5.3C316.65,585.69,308.45,585.29,300.25,585.29Z"/><path d="M340.05,252.09h24v29.3c0,7.7,2,9.7,9.6,9.7h14.5c8.5,0,13.4,4.8,13.4,13.2V377c0,8.3-4.9,13.2-13.2,13.2h-72.5c-8.2,0-13.3-5-13.3-13.2v-72.7c0-8.3,4.9-13.2,13.2-13.2H332c5.4,0,8.1-2.7,8.1-8.2Zm-13.4,88.4c0,6-.1,12,0,18,.1,4.8,2.6,7.5,7.4,7.5,11.8.1,23.7.1,35.5,0,5.1,0,7.9-2.8,7.9-7.9.1-11.7.1-23.3,0-35,0-4.4-2.1-7.7-6.7-7.8-12.7-.2-25.3-.3-38,0-4.2.1-6.1,3.3-6.2,7.4C326.65,328.69,326.65,334.59,326.65,340.49Z"/><path d="M325.75,74.69c0,13.6-5.9,25-12.9,36.2-4.1,6.6-8.4,13.3-10.9,20.6-4.3,12.2,1.4,22.5,8.7,32a11.82,11.82,0,0,1-2.2,16.7c-5.3,4.1-12.9,3.4-16.8-2.3-4.3-6.3-8.7-12.7-11.5-19.7-7.8-19.4-2.3-37.2,8.2-54,1.7-2.7,3.3-5.4,5.2-7.9,9.2-11.9,10.1-24.7,4-38-3.7-8.2-8-16.1-12.3-23.9-3.9-7-2.9-14.1,3.1-17.8,6.3-3.9,13.1-1.9,17.4,5.2,8.4,13.9,16.7,27.9,19.2,44.3C325.35,68.89,325.55,71.79,325.75,74.69Z"/><path d="M370.45,137.89c-.3-12,5.5-24.1,12.9-35.7,5.1-7.9,12.2-15.3,11.6-25.4a72.9,72.9,0,0,0-4.9-21.6c-2.9-7.5-7.4-14.5-11.4-21.6-3.7-6.5-2.4-13.6,3.4-17.1,6.1-3.8,13.2-2,17.1,4.7,4.6,8,9.2,16,13.2,24.3,10.9,22.6,9,44.2-5.4,64.9a91.17,91.17,0,0,0-10.9,19.8c-4.6,12.1.2,22.6,7.7,32.2,3.5,4.4,4.3,9.1,1.6,14.2-3.8,6.9-13.8,8.5-18.9,2.5C376.85,167.79,370.25,155.39,370.45,137.89Z"/><path d="M232.05,74.69c.3,14-6.3,25.4-13.2,36.9-4.6,7.7-9.1,15.8-11.3,24.3-2.7,10.3,3.1,19.1,9.2,27.2,5.2,6.9,2.5,16.3-5.6,19-5.8,1.9-10.4-.3-14-4.9-18.2-23.5-18.8-46.5-2.7-72.9,5-8.2,10.2-16.8,12.6-25.9,1.6-5.8-.7-13.4-3.1-19.5-3.4-8.7-8.2-16.9-12.7-25.1-3.7-6.7-2.5-13.7,3.3-17.3,6-3.8,13-1.8,17.1,4.8,8.2,13.4,16.1,26.9,19.1,42.5A101.2,101.2,0,0,1,232.05,74.69Z"/></svg>