<?xml version="1.0" encoding="utf-8"?>
<!-- Generator: Adobe Illustrator 23.0.2, SVG Export Plug-In . SVG Version: 6.00 Build 0)  -->
<svg version="1.1" id="Layer_1" xmlns="http://www.w3.org/2000/svg" xmlns:xlink="http://www.w3.org/1999/xlink" x="0px" y="0px"
	 viewBox="0 0 600 600" style="enable-background:new 0 0 600 600;" xml:space="preserve">
<g>
	<path d="M318.8,214.9c49.8,0,99.5,0,149.3,0c7.5,0,12.6,4.7,12.6,11.8c0.1,7.1-5,12-12.4,12c-15.7,0.1-31.3,0.4-47,0.4
		c-76.7-0.1-153.4-0.2-230.1-0.3c-8.5,0-10.5,2-10.5,10.4c0,23.7-0.2,47.4,0.1,71c0.9,73.5,52.5,139.5,123.9,157.2
		c65.4,16.2,122.6,0.7,169.8-47.8c25.3-26,40-57.9,42.9-94c2.2-26.7,1.2-53.6,1.5-80.4c0.1-9.2,0-18.3,0-27.5
		c0-7.8,5-13.2,12.2-13.1c6.8,0,11.7,5.6,11.7,13.1c0,29.4,0,58.9,0,88.3c0,92.5-66,172.3-157.3,188.3
		c-64.8,11.4-121.9-5.5-170.1-50.6c-7.5-7-13.6-15.5-20.8-22.9c-2.1-2.2-5.6-4.1-8.6-4.2c-15.1-0.4-30.2-0.1-45.3-0.2
		c-41.3-0.4-78.8-34.3-83.4-75.4c-5.2-46,23.5-87,67.8-96.5c7.3-1.6,15-1.5,22.6-1.9c6-0.3,8.7-2.8,8.7-8.8c0-5.6,0-11.2,0-16.8
		c0-6.8,5.2-12,12-12C218.8,214.9,268.8,214.9,318.8,214.9z M156.7,303.4c0-6.2,0-12.3,0-18.5c0-5.8-2.8-8.7-8.6-8.6
		c-4.6,0.1-9.3,0.3-13.9,0.9c-26.1,3.7-49.9,23.9-53.1,56.3c-2.4,24.2,9,50.3,35.7,62.9c15.9,7.5,33,6.4,49.8,5.7
		c5.4-0.2,7.9-5.1,5.6-10.3C159.8,363.6,155.5,334,156.7,303.4z"/>
	<path d="M349,585.3c-44.5,0.2-88.8-2.9-132.7-10.4c-16-2.8-32-6-48-9.1c-6.9-1.4-11.2-7.4-10-13.6c1.3-6.5,8-10.6,14.8-9.4
		c27.2,4.8,54.2,10.2,81.5,14c20.3,2.8,40.9,4.1,61.4,4.6c26.7,0.7,53.5,1,80.2-0.6c27.3-1.7,54.4-5.4,81.5-9.1
		c15.8-2.1,31.3-5.9,47-8.9c6.9-1.3,13.5,2.8,14.9,9.3c1.3,6.5-3,12.4-10.3,13.7c-27.6,4.9-55,10.6-82.7,14.2
		c-24.2,3.1-48.8,3.8-73.2,5.3C365.4,585.7,357.2,585.3,349,585.3z"/>
	<path d="M388.8,252.1c8.2,0,16,0,24,0c0,9.8,0,19.5,0,29.3c0,7.7,2,9.7,9.6,9.7c4.8,0,9.7,0,14.5,0c8.5,0,13.4,4.8,13.4,13.2
		c0,24.2,0,48.5,0,72.7c0,8.3-4.9,13.2-13.2,13.2c-24.2,0-48.3,0-72.5,0c-8.2,0-13.3-5-13.3-13.2c0-24.2,0-48.5,0-72.7
		c0-8.3,4.9-13.2,13.2-13.2c5.4,0,10.8,0,16.2,0c5.4,0,8.1-2.7,8.1-8.2C388.8,272.7,388.8,262.5,388.8,252.1z M375.4,340.5
		c0,6-0.1,12,0,18c0.1,4.8,2.6,7.5,7.4,7.5c11.8,0.1,23.7,0.1,35.5,0c5.1,0,7.9-2.8,7.9-7.9c0.1-11.7,0.1-23.3,0-35
		c0-4.4-2.1-7.7-6.7-7.8c-12.7-0.2-25.3-0.3-38,0c-4.2,0.1-6.1,3.3-6.2,7.4C375.4,328.7,375.4,334.6,375.4,340.5z"/>
	<path d="M374.5,74.7c0,13.6-5.9,25-12.9,36.2c-4.1,6.6-8.4,13.3-10.9,20.6c-4.3,12.2,1.4,22.5,8.7,32c4.1,5.4,3,12.7-2.2,16.7
		c-5.3,4.1-12.9,3.4-16.8-2.3c-4.3-6.3-8.7-12.7-11.5-19.7c-7.8-19.4-2.3-37.2,8.2-54c1.7-2.7,3.3-5.4,5.2-7.9
		c9.2-11.9,10.1-24.7,4-38c-3.7-8.2-8-16.1-12.3-23.9c-3.9-7-2.9-14.1,3.1-17.8c6.3-3.9,13.1-1.9,17.4,5.2
		c8.4,13.9,16.7,27.9,19.2,44.3C374.1,68.9,374.3,71.8,374.5,74.7z"/>
	<path d="M419.2,137.9c-0.3-12,5.5-24.1,12.9-35.7c5.1-7.9,12.2-15.3,11.6-25.4c-0.4-7.3-2.3-14.8-4.9-21.6
		c-2.9-7.5-7.4-14.5-11.4-21.6c-3.7-6.5-2.4-13.6,3.4-17.1c6.1-3.8,13.2-2,17.1,4.7c4.6,8,9.2,16,13.2,24.3
		c10.9,22.6,9,44.2-5.4,64.9c-4.3,6.2-8.3,12.8-10.9,19.8c-4.6,12.1,0.2,22.6,7.7,32.2c3.5,4.4,4.3,9.1,1.6,14.2
		c-3.8,6.9-13.8,8.5-18.9,2.5C425.6,167.8,419,155.4,419.2,137.9z"/>
	<path d="M280.8,74.7c0.3,14-6.3,25.4-13.2,36.9c-4.6,7.7-9.1,15.8-11.3,24.3c-2.7,10.3,3.1,19.1,9.2,27.2c5.2,6.9,2.5,16.3-5.6,19
		c-5.8,1.9-10.4-0.3-14-4.9c-18.2-23.5-18.8-46.5-2.7-72.9c5-8.2,10.2-16.8,12.6-25.9c1.6-5.8-0.7-13.4-3.1-19.5
		c-3.4-8.7-8.2-16.9-12.7-25.1c-3.7-6.7-2.5-13.7,3.3-17.3c6-3.8,13-1.8,17.1,4.8c8.2,13.4,16.1,26.9,19.1,42.5
		C280.3,67.4,280.4,71.1,280.8,74.7z"/>
</g>
</svg>
