<svg id="Layer_1" data-name="Layer 1" xmlns="http://www.w3.org/2000/svg" viewBox="0 0 600 600"><title>05-nicoisesalad</title><path d="M300,295.62q135.45,0,270.8-.1a11,11,0,0,1,11.5,11.6,321.79,321.79,0,0,1-2.3,35.3,351.14,351.14,0,0,1-8.8,47.7c-9.8,38.3-25.4,74-47.7,106.71-13.4,19.7-28.7,37.79-46.8,53.5a151.15,151.15,0,0,1-68.8,34.5,137.53,137.53,0,0,1-29.3,3.09c-52.3,0-104.5.1-156.8,0-28.5-.09-54.8-8-79-23.09-17-10.6-31.2-24.5-44.3-39.5a312.55,312.55,0,0,1-43.6-65.1,347.17,347.17,0,0,1-27.7-76.61,377.79,377.79,0,0,1-8.9-58c-.5-6.29-.5-12.5-.6-18.79a11.11,11.11,0,0,1,4.1-9.21,9.69,9.69,0,0,1,6.6-2.1H198.9Q249.45,295.67,300,295.62ZM39.6,316.83v2.5c.5,16.1,2.9,32,5.9,47.9.3,1.5.9,2.5,2.7,2.29a10.82,10.82,0,0,1,1.8,0H390.5c2.3,0,4.6-.1,6.9,0a10.73,10.73,0,0,1,10.3,8.6c1.5,7.11-3.7,13-11.4,13H55.5c-1.2,0-2.5.11-4,.21.3,1.29.6,2.29.8,3.2A315.43,315.43,0,0,0,89,476.63c13.1,20.6,28.3,39.49,46.5,55.7,24.6,21.9,53.3,33.9,86.5,34q77.85.13,155.8,0a118.67,118.67,0,0,0,20.7-1.71c21.3-3.5,40.5-12.29,57.6-25.4,12.7-9.8,23.6-21.4,33.8-33.7,27.4-33,46-70.6,57.8-111.7a14.55,14.55,0,0,0,.4-2.5c-1.4-.1-2.5-.2-3.7-.2H436a10.61,10.61,0,0,1-10.6-8.5,11.13,11.13,0,0,1,5.8-12.2c2.2-1.1,4.4-1.1,6.7-1.1,37.8,0,75.5,0,113.3.1,2.1,0,2.9-.8,3.2-2.7.6-3.9,1.6-7.8,2-11.8,1.4-11.1,2.8-22.2,3.8-33.3.5-5.5.9-4.9-4.7-4.9H43.1A33.15,33.15,0,0,1,39.6,316.83Z"/><path d="M317.6,77.52a8.26,8.26,0,0,1,.7-1.3c5.7-6.4,11.6-12.6,18.6-17.6Q364.8,39,398.4,44.52a76,76,0,0,1,24.4,8.4,4.25,4.25,0,0,0,4.6-.09c18-10.6,37.4-15,58.1-12.6,31.8,3.7,56.1,19.7,72.2,47.4,10.1,17.4,13.8,36.29,11.8,56.29a89.66,89.66,0,0,1-11.5,36.6c-1.2,2-1,3.3.3,5.2,11.2,16.2,15.7,34.2,14.1,53.7a80.27,80.27,0,0,1-16,41.7,4.65,4.65,0,0,1-4.2,2.11c-9.2-.11-18.3,0-27.5,0a10.06,10.06,0,0,1-1.6-.11c1.7-1.29,3.2-2.29,4.6-3.39,16-12.9,24.1-29.61,23.5-50.11a56.64,56.64,0,0,0-15-37.2c-4.5-4.89-4.6-11.1-.9-16.39,10.7-15.3,14.8-32.41,12.5-50.9a72.5,72.5,0,0,0-58.4-62.6c-20.6-3.9-39.6.2-56.7,12.4-5.1,3.7-9.4,3.8-14.6.3a59.94,59.94,0,0,0-91,31.6c-4.7,14.8-3.6,29.3,2.6,43.4,2.7,6.19,1.8,10.5-3.3,14.89a53.46,53.46,0,0,0-7,74c4.5,5.61,4.3,10.9-.4,16.2-3.5,4-7.1,8-10.7,12a9.61,9.61,0,0,0-1.4,2.1c-.2-.1-.5-.3-.7-.4l-.9-8.7H305v3.1c-.2,5.7-.4,11.5-.6,17.2-.1,1.9-.9,2.6-2.9,2.5-5.7-.1-11.4,0-17.1,0-.7,0-1.3-.1-2.2-.1,3.6-19.3-.8-36.3-14.5-50.4a52.19,52.19,0,0,0-36-16.2,53,53,0,0,0-31.7,8.4,53.78,53.78,0,0,0-21.2,25.4,54.87,54.87,0,0,0-2.7,32.8H128.4c7.4-2.8,12.6-7.2,15.9-13.8a26.14,26.14,0,0,0,1.5-20.5,27.18,27.18,0,0,0-27.6-18.6c-12.1.8-22.5,10.3-24.6,22.5-2.3,13,4.4,24.2,18.5,30.5h-4.4c-8.7,0-17.3-.1-26,0a3.76,3.76,0,0,1-3.8-2.2c-10.8-18.8-7.1-43.7,8.8-58.9a48.46,48.46,0,0,1,75.1,10.1c.4.7.9,1.3,1.3,1.9,2.7-4,5-8.1,7.9-11.7s6.4-6.8,9.7-10.2c-1.6-5.7-3.1-11.5-4.9-17.2-5-15.6-12-30.3-22.3-43.1a67,67,0,0,0-15-14.1c-12.1-8.2-24.7-8.2-36.8,0-8.3,5.7-14.8,13.2-20.3,21.5a150.91,150.91,0,0,0-22.4,59A206.1,206.1,0,0,0,56.6,243a61.8,61.8,0,0,0,11.8,38.2c.2.3.5.7.7,1,.1.1.1.3.2.7a12.75,12.75,0,0,1-1.9.1c-6.9,0-13.7-.1-20.6.1-2,0-2.8-.7-3.6-2.4A86.15,86.15,0,0,1,35.1,244a185.41,185.41,0,0,1,22.8-87.7c6.7-12.2,14.8-23.4,25.8-32.1,4.3-3.4,9.2-6,13.8-9a10.44,10.44,0,0,0,2-1.5,78.07,78.07,0,0,1,39-26.8c2.6-.8,3.5-2.2,4.2-4.6,7.5-26.6,23.3-46.5,47.7-59.6a90.62,90.62,0,0,1,32.9-10.1,94.16,94.16,0,0,1,57.6,11.8c17.7,10.1,30.7,24.6,39.3,43.1,1,2.1,1.2,3.7-.6,5.4a25.67,25.67,0,0,0-2.8,3.7A10.08,10.08,0,0,0,317.6,77.52Zm-88.8,84.9c.1-1.3.3-2.19.3-3.1-.4-12.1-.7-24.2-1.1-36.4-.2-6.3,4.3-11.4,10.4-11.6s10.8,4.1,11.2,10.4c.2,3.7.3,7.51.4,11.2l.6,27a11.33,11.33,0,0,0,.4,2.31,15.42,15.42,0,0,0,1.9-1,88.74,88.74,0,0,1,28.2-11.9,20.42,20.42,0,0,1,5.5-.4c5.6.5,9.9,6.2,9.1,11.8-.8,5.1-3.8,8.2-8.8,9.4a70.82,70.82,0,0,0-18.3,6.8c-6.7,3.7-12.5,8.5-15.8,15.7a38.93,38.93,0,0,0-1.6,4.1,76.58,76.58,0,0,0-21.8-2.6,2.79,2.79,0,0,1-2.7-1.9,29.65,29.65,0,0,0-9-10.9,56,56,0,0,0-17.5-9c-3.4-1.1-6.9-2-10.6-3,3.6,10.6,7.1,20.8,10.7,31.2.6-.2,1.4-.4,2.1-.6,2.7-.8,5.3-1.9,8-2.5a65.11,65.11,0,0,1,7.7-1.3c1.7-.2,3.5.3,5.2.2a76.58,76.58,0,0,1,28.2,2.2c13.4,3.89,24.5,11.3,34,21.5.6.6,1.3,1.2,2.3,2.2a8,8,0,0,0,0-1.61,65.18,65.18,0,0,1-.9-24.5,74.52,74.52,0,0,1,19.2-41,3.53,3.53,0,0,0,.9-4.1,82.29,82.29,0,0,1-.5-50.3,9.22,9.22,0,0,0,0-3.7c-.2-1.4-.6-2.8-.9-4.2a73,73,0,0,0-143.9,3.5,10.71,10.71,0,0,1-9,9.4,59.09,59.09,0,0,0-15.4,5,23.56,23.56,0,0,0-2.4,1.4c.8.4,1.2.7,1.7.9a64.07,64.07,0,0,1,21.5,12.7c9.5,8.3,16.9,18.2,23.3,29.1.6,1.1,1.3,2.1,2.1,3.4a13.24,13.24,0,0,0,.8-1.4c2-6.1,7.2-8.7,13.8-7.2a89.41,89.41,0,0,1,27.2,11.11A10.9,10.9,0,0,1,228.8,162.42Z"/><path d="M431.6,170.12c1-1,1.7-1.6,2.3-2.2,8.7-8.89,17.5-17.8,26.1-26.8,5.5-5.7,14.7-4.3,17.9,2.61a10.6,10.6,0,0,1-2.2,12.19c-2.8,3-5.7,5.9-8.5,8.81-6.3,6.5-12.7,13-19,19.5a20.16,20.16,0,0,0-1.8,2.1,7.13,7.13,0,0,0,2,.5,83.08,83.08,0,0,1,29.7,10.1c3.1,1.8,5.8,3.9,6.7,7.6,1.1,4.4.1,8.4-3.5,11.2-3.7,3-7.9,3.1-12.2,1-3.9-1.9-7.7-4.1-11.7-5.6-9.1-3.4-18.4-4.6-27.9-1.8-6.3,1.9-11.3,5.7-15.9,10.2-5.6,5.6-11.1,11.2-16.6,16.89-.3.31-.6.81-1.2,1.5,1.2.31,2.1.61,3.1.81a67.74,67.74,0,0,1,36,18.2c3.1,3,4.7,6.5,3.7,10.8a10.71,10.71,0,0,1-18,5.39,52.24,52.24,0,0,0-14-9.6c-10.9-5-22.1-5.29-33.4-1.4a10.42,10.42,0,0,0-3.5,2.4c-5.6,5.6-11.2,11.4-16.7,17.1a4.93,4.93,0,0,1-4,1.71c-9-.1-18,0-27.5,0,.9-1,1.4-1.71,2-2.3,8.9-9.1,17.6-18.4,26.7-27.2,4.2-4.1,6.3-8.9,7.5-14.3,3.4-15.7-1.3-29.1-11.6-40.9a16.09,16.09,0,0,1-3.5-5.5,10.22,10.22,0,0,1,4.3-12c4.1-2.7,9.3-2.6,12.9.9a61.43,61.43,0,0,1,8.2,9.4,66.39,66.39,0,0,1,11.5,28c.2,1,.4,1.9.7,3.4.9-.8,1.6-1.3,2.1-1.8,6.4-6.5,12.9-13,19.2-19.7,6.6-6.9,9.2-15.4,8.8-24.7a56.15,56.15,0,0,0-8.3-26.4c-2.5-4.3-2.9-8.5,0-12.7a10.7,10.7,0,0,1,17.7.3,68.15,68.15,0,0,1,9.1,20.4C429.7,161.82,430.5,165.73,431.6,170.12Z"/></svg>