<?xml version="1.0" encoding="utf-8"?>
<!-- Generator: Adobe Illustrator 23.0.2, SVG Export Plug-In . SVG Version: 6.00 Build 0)  -->
<svg version="1.1" id="Layer_1" xmlns="http://www.w3.org/2000/svg" xmlns:xlink="http://www.w3.org/1999/xlink" x="0px" y="0px"
	 viewBox="0 0 600 600" style="enable-background:new 0 0 600 600;" xml:space="preserve">
<g>
	<path d="M300,295.5c90.3,0,180.5,0.1,270.8-0.1c7,0,11.6,5.1,11.5,11.6c-0.1,11.8-0.9,23.5-2.3,35.3c-1.8,16.1-4.8,32-8.8,47.7
		c-9.8,38.3-25.4,74-47.7,106.7c-13.4,19.7-28.7,37.8-46.8,53.5c-20,17.4-42.9,29-68.8,34.5c-9.6,2.1-19.4,3.1-29.3,3.1
		c-52.3,0-104.5,0.1-156.8,0c-28.5-0.1-54.8-8-79-23.1c-17-10.6-31.2-24.5-44.3-39.5c-17.3-19.9-31.8-41.6-43.6-65.1
		c-12.3-24.4-21.4-50-27.7-76.6c-4.5-19.1-7.4-38.4-8.9-58c-0.5-6.3-0.5-12.5-0.6-18.8c-0.1-3.6,1.2-6.8,4.1-9.2
		c1.9-1.6,4.1-2.1,6.6-2.1c56.8,0,113.7,0,170.5,0C232.6,295.5,266.3,295.5,300,295.5z M39.6,316.7c0,1.2,0,1.9,0,2.5
		c0.5,16.1,2.9,32,5.9,47.9c0.3,1.5,0.9,2.5,2.7,2.3c0.6-0.1,1.2,0,1.8,0c113.5,0,227,0,340.5,0c2.3,0,4.6-0.1,6.9,0
		c5.2,0.2,9.3,3.7,10.3,8.6c1.5,7.1-3.7,13-11.4,13c-28.8,0-57.7,0-86.5,0c-84.8,0-169.5,0-254.3,0c-1.2,0-2.5,0.1-4,0.2
		c0.3,1.3,0.6,2.3,0.8,3.2c8.4,29.1,20.5,56.6,36.7,82.1c13.1,20.6,28.3,39.5,46.5,55.7c24.6,21.9,53.3,33.9,86.5,34
		c51.9,0.1,103.8,0.1,155.8,0c6.9,0,13.9-0.5,20.7-1.7c21.3-3.5,40.5-12.3,57.6-25.4c12.7-9.8,23.6-21.4,33.8-33.7
		c27.4-33,46-70.6,57.8-111.7c0.2-0.7,0.3-1.5,0.4-2.5c-1.4-0.1-2.5-0.2-3.7-0.2c-36.1,0-72.3,0-108.4,0c-5.2,0-9.4-3.3-10.6-8.5
		c-1.1-4.8,1.3-9.8,5.8-12.2c2.2-1.1,4.4-1.1,6.7-1.1c37.8,0,75.5,0,113.3,0.1c2.1,0,2.9-0.8,3.2-2.7c0.6-3.9,1.6-7.8,2-11.8
		c1.4-11.1,2.8-22.2,3.8-33.3c0.5-5.5,0.9-4.9-4.7-4.9c-147.8,0-295.6,0-443.4,0c-23,0-46,0-69,0C42.1,316.7,41,316.7,39.6,316.7z"
		/>
	<path d="M317.6,77.4c0.2-0.4,0.4-0.9,0.7-1.3c5.7-6.4,11.6-12.6,18.6-17.6c18.6-13.1,39.1-17.8,61.5-14.1
		c8.6,1.4,16.7,4.2,24.4,8.4c1.7,0.9,3,0.8,4.6-0.1c18-10.6,37.4-15,58.1-12.6c31.8,3.7,56.1,19.7,72.2,47.4
		c10.1,17.4,13.8,36.3,11.8,56.3c-1.2,13-5,25.2-11.5,36.6c-1.2,2-1,3.3,0.3,5.2c11.2,16.2,15.7,34.2,14.1,53.7
		c-1.3,15.4-6.8,29.3-16,41.7c-1.1,1.5-2.3,2.1-4.2,2.1c-9.2-0.1-18.3,0-27.5,0c-0.4,0-0.8,0-1.6-0.1c1.7-1.3,3.2-2.3,4.6-3.4
		c16-12.9,24.1-29.6,23.5-50.1c-0.4-14.1-5.5-26.7-15-37.2c-4.5-4.9-4.6-11.1-0.9-16.4c10.7-15.3,14.8-32.4,12.5-50.9
		c-3.8-31.3-27.3-56.7-58.4-62.6c-20.6-3.9-39.6,0.2-56.7,12.4c-5.1,3.7-9.4,3.8-14.6,0.3c-33.5-22.6-78.8-6.9-91,31.6
		c-4.7,14.8-3.6,29.3,2.6,43.4c2.7,6.2,1.8,10.5-3.3,14.9c-21.9,18.9-25,51.3-7,74c4.5,5.6,4.3,10.9-0.4,16.2c-3.5,4-7.1,8-10.7,12
		c-0.6,0.6-1,1.4-1.4,2.1c-0.2-0.1-0.5-0.3-0.7-0.4c-0.3-2.9-0.6-5.8-0.9-8.7c-0.1,0-0.2,0-0.3,0c0,1,0,2.1,0,3.1
		c-0.2,5.7-0.4,11.5-0.6,17.2c-0.1,1.9-0.9,2.6-2.9,2.5c-5.7-0.1-11.4,0-17.1,0c-0.7,0-1.3-0.1-2.2-0.1c3.6-19.3-0.8-36.3-14.5-50.4
		c-9.8-10.1-21.9-15.5-36-16.2c-11.5-0.6-22,2.3-31.7,8.4c-9.7,6.2-16.8,14.7-21.2,25.4c-4.3,10.6-5.1,21.5-2.7,32.8
		c-15.9,0-31.4,0-47.7,0c7.4-2.8,12.6-7.2,15.9-13.8c3.3-6.6,3.8-13.5,1.5-20.5c-3.8-11.7-15.2-19.4-27.6-18.6
		c-12.1,0.8-22.5,10.3-24.6,22.5c-2.3,13,4.4,24.2,18.5,30.5c-1.9,0-3.2,0-4.4,0c-8.7,0-17.3-0.1-26,0c-1.9,0-2.9-0.6-3.8-2.2
		c-10.8-18.8-7.1-43.7,8.8-58.9c22.6-21.5,59.1-16.6,75.1,10.1c0.4,0.7,0.9,1.3,1.3,1.9c2.7-4,5-8.1,7.9-11.7
		c2.9-3.6,6.4-6.8,9.7-10.2c-1.6-5.7-3.1-11.5-4.9-17.2c-5-15.6-12-30.3-22.3-43.1c-4.3-5.4-9.2-10.2-15-14.1
		c-12.1-8.2-24.7-8.2-36.8,0c-8.3,5.7-14.8,13.2-20.3,21.5c-11.7,18-19,37.8-22.4,59c-1.3,8.2-2.1,16.5-2.4,24.8
		c-0.4,14,3.7,26.7,11.8,38.2c0.2,0.3,0.5,0.7,0.7,1c0.1,0.1,0.1,0.3,0.2,0.7c-0.7,0.1-1.3,0.1-1.9,0.1c-6.9,0-13.7-0.1-20.6,0.1
		c-2,0-2.8-0.7-3.6-2.4c-5.3-11.7-8.2-23.8-8.1-36.7c0.3-31.1,8-60.4,22.8-87.7c6.7-12.2,14.8-23.4,25.8-32.1c4.3-3.4,9.2-6,13.8-9
		c0.7-0.5,1.5-0.9,2-1.5c10.2-13,23.3-21.9,39-26.8c2.6-0.8,3.5-2.2,4.2-4.6c7.5-26.6,23.3-46.5,47.7-59.6
		c10.3-5.5,21.3-8.8,32.9-10.1c20.4-2.2,39.7,1.7,57.6,11.8c17.7,10.1,30.7,24.6,39.3,43.1c1,2.1,1.2,3.7-0.6,5.4
		c-1.1,1-1.9,2.5-2.8,3.7C317.2,77,317.4,77.2,317.6,77.4z M228.8,162.3c0.1-1.3,0.3-2.2,0.3-3.1c-0.4-12.1-0.7-24.2-1.1-36.4
		c-0.2-6.3,4.3-11.4,10.4-11.6c6.1-0.2,10.8,4.1,11.2,10.4c0.2,3.7,0.3,7.5,0.4,11.2c0.2,9,0.4,18,0.6,27c0,0.7,0.2,1.4,0.4,2.3
		c0.9-0.4,1.4-0.7,1.9-1c8.7-5.7,18.2-9.5,28.2-11.9c1.8-0.4,3.7-0.5,5.5-0.4c5.6,0.5,9.9,6.2,9.1,11.8c-0.8,5.1-3.8,8.2-8.8,9.4
		c-6.4,1.5-12.5,3.6-18.3,6.8c-6.7,3.7-12.5,8.5-15.8,15.7c-0.6,1.3-1.1,2.6-1.6,4.1c-7.2-1.9-14.4-2.8-21.8-2.6
		c-1.4,0-2.1-0.7-2.7-1.9c-2-4.4-5.2-7.9-9-10.9c-5.3-4.1-11.2-7-17.5-9c-3.4-1.1-6.9-2-10.6-3c3.6,10.6,7.1,20.8,10.7,31.2
		c0.6-0.2,1.4-0.4,2.1-0.6c2.7-0.8,5.3-1.9,8-2.5c2.5-0.6,5.1-1,7.7-1.3c1.7-0.2,3.5,0.3,5.2,0.2c9.5-0.9,19-0.4,28.2,2.2
		c13.4,3.9,24.5,11.3,34,21.5c0.6,0.6,1.3,1.2,2.3,2.2c0-0.9,0.1-1.3,0-1.6c-1.9-8.1-2.1-16.3-0.9-24.5c2.2-15.6,8.5-29.4,19.2-41
		c1.2-1.3,1.5-2.4,0.9-4.1c-5.5-16.7-5.5-33.5-0.5-50.3c0.3-1.1,0.2-2.5,0-3.7c-0.2-1.4-0.6-2.8-0.9-4.2
		c-7.9-39.6-46.2-65.3-85.7-57.5c-30.2,6-53.7,30.6-58.2,61c-0.7,5-4,8.4-9,9.4c-5.4,1-10.5,2.6-15.4,5c-0.7,0.3-1.4,0.8-2.4,1.4
		c0.8,0.4,1.2,0.7,1.7,0.9c8.1,2.7,15.1,7.2,21.5,12.7c9.5,8.3,16.9,18.2,23.3,29.1c0.6,1.1,1.3,2.1,2.1,3.4
		c0.4-0.7,0.7-1.1,0.8-1.4c2-6.1,7.2-8.7,13.8-7.2c9.6,2.3,18.8,5.8,27.2,11.1C226.5,160.8,227.4,161.5,228.8,162.3z"/>
	<path d="M431.6,170c1-1,1.7-1.6,2.3-2.2c8.7-8.9,17.5-17.8,26.1-26.8c5.5-5.7,14.7-4.3,17.9,2.6c1.9,4.2,1.2,8.6-2.2,12.2
		c-2.8,3-5.7,5.9-8.5,8.8c-6.3,6.5-12.7,13-19,19.5c-0.6,0.6-1.1,1.2-1.8,2.1c0.9,0.3,1.5,0.5,2,0.5c10.5,1.5,20.4,4.8,29.7,10.1
		c3.1,1.8,5.8,3.9,6.7,7.6c1.1,4.4,0.1,8.4-3.5,11.2c-3.7,3-7.9,3.1-12.2,1c-3.9-1.9-7.7-4.1-11.7-5.6c-9.1-3.4-18.4-4.6-27.9-1.8
		c-6.3,1.9-11.3,5.7-15.9,10.2c-5.6,5.6-11.1,11.2-16.6,16.9c-0.3,0.3-0.6,0.8-1.2,1.5c1.2,0.3,2.1,0.6,3.1,0.8
		c13.8,2.5,25.9,8.4,36,18.2c3.1,3,4.7,6.5,3.7,10.8c-1.9,8.3-11.7,11.3-18,5.4c-4.2-3.9-8.7-7.2-14-9.6c-10.9-5-22.1-5.3-33.4-1.4
		c-1.3,0.5-2.5,1.4-3.5,2.4c-5.6,5.6-11.2,11.4-16.7,17.1c-1.1,1.2-2.3,1.7-4,1.7c-9-0.1-18,0-27.5,0c0.9-1,1.4-1.7,2-2.3
		c8.9-9.1,17.6-18.4,26.7-27.2c4.2-4.1,6.3-8.9,7.5-14.3c3.4-15.7-1.3-29.1-11.6-40.9c-1.4-1.6-2.9-3.5-3.5-5.5
		c-1.6-4.6,0.3-9.4,4.3-12c4.1-2.7,9.3-2.6,12.9,0.9c3,2.8,5.8,6,8.2,9.4c6,8.4,9.8,17.8,11.5,28c0.2,1,0.4,1.9,0.7,3.4
		c0.9-0.8,1.6-1.3,2.1-1.8c6.4-6.5,12.9-13,19.2-19.7c6.6-6.9,9.2-15.4,8.8-24.7c-0.4-9.5-3.5-18.3-8.3-26.4
		c-2.5-4.3-2.9-8.5,0-12.7c4.3-6.2,13.4-6,17.7,0.3c4.2,6.2,7.1,13.1,9.1,20.4C429.7,161.7,430.5,165.6,431.6,170z"/>
</g>
</svg>
