<svg id="Layer_1" data-name="Layer 1" xmlns="http://www.w3.org/2000/svg" viewBox="0 0 600 600"><title>06-espresso</title><path d="M477.26,155.81c1.5,0,3,0,4.5.1,5.1.5,8.6,3.2,10.2,7.9a17.86,17.86,0,0,1,.6,6.1q0,80.25-.1,160.5v47.1a131.46,131.46,0,0,1-7.8,45.2c-18.3,50.4-65.8,84.8-119.4,85.7-34.8.6-69.6.2-104.4.1a125.79,125.79,0,0,1-37.5-6.1,130,130,0,0,1-90.5-117.8c-.6-12.9-.3-25.9-.4-38.9,0-7.5-1.2-8.7-8.8-9h-2c-13.9,0-27.8.1-41.7-.1A87.46,87.46,0,0,1,63,335a65.25,65.25,0,0,1-29.6-15.3c-19.6-17.6-27.7-39.6-23.7-65.5,3.1-19.8,13.9-35.2,30.4-46.4a64.36,64.36,0,0,1,38.5-11.7c13.4.3,26.9.2,40.4,0,4.7-.1,9.5-.8,12-5.5a20.82,20.82,0,0,0,2.2-8.2c.3-5,.1-10.1.1-15.1,0-4.5,2.1-8,6-9.8a19.59,19.59,0,0,1,8.3-1.7q82.65-.15,165.2-.1Q395.11,155.71,477.26,155.81Zm-308.6,21.6a19.77,19.77,0,0,0-8.3,1.9c-4.5,2.1-5.8,6.5-5.8,11-.1,25-.1,49.9,0,74.9.1,18.3.3,36.5.4,54.8.1,20.8-.4,41.6.3,62.3,1.6,43.6,29.1,81.3,70,96.9a108,108,0,0,0,38.6,6.9c32.5.1,65,.6,97.5-.1,46.7-1.1,80.1-23.3,99.9-65.6a93.83,93.83,0,0,0,8.6-39.4c.2-19.1.2-38.2.1-57.3q-.3-66.45-.5-132.9c0-5-1.1-9.4-5.9-11.7a18.79,18.79,0,0,0-8.1-1.8q-71.7-.15-143.4-.1Q240.51,177.21,168.66,177.41Zm-35.5,54.1a19.42,19.42,0,0,0-1.8-7.9c-2.1-4.6-6.5-6-11.1-6-14.3-.1-28.5-.5-42.7.1-20.6.9-35.6,11.1-43.4,30.3-8,19.9-3.3,40,11.1,53.9,9.2,8.9,20.5,13,33,13.4,13.6.4,27.3.2,40.9,0,4.7,0,9.5-.9,11.9-5.6a20.5,20.5,0,0,0,2.1-8.5c.2-11.7.1-23.3.1-35S133.36,243,133.16,231.51Z"/><path d="M319.46,587.61c-6.9,0-13.7.2-20.6,0-11.9-.3-23.9-.6-35.7-1.6-16.8-1.4-33.6-3.3-50.3-5.3-10.8-1.2-21.6-2.7-32.3-4.7-13-2.4-25.9-5.4-38.8-8.1-4.6-1-6.9-4.6-5.9-9.2.5-2.2,1-4.5,1.6-6.7,1.3-5,4.9-7.3,9.9-6.3,15.8,3,31.6,6.3,47.4,9.1,11.2,2,22.4,3.7,33.6,5,13.8,1.6,27.8,2.8,41.7,3.7s27.6,1.4,41.4,1.5c14.5.1,28.9-.4,43.4-.7,4.8-.1,9.6-.3,14.4-.7,8.4-.7,16.9-1.4,25.4-2.2q9.75-.9,19.5-2.1c7.7-1,15.4-2.2,23.1-3.3,6.9-1.1,13.8-2,20.6-3.3,11.5-2.3,22.9-4.8,34.4-7.2a7.72,7.72,0,0,1,8.9,5.4c.7,2.5,1.3,5.1,1.9,7.7a7.3,7.3,0,0,1-5.8,9.3c-2.9.7-5.8,1.3-8.7,1.9-10.3,2.1-20.5,4.7-30.8,6.3-18,2.8-36,5.2-54,7.4-12.7,1.6-25.5,2.8-38.3,3.5-15.3.8-30.6.8-45.9,1.2A1.76,1.76,0,0,0,319.46,587.61Z"/><path d="M209.46,19.21c2.2-5.3,7.7-8.3,12.8-7.2a12.29,12.29,0,0,1,9.6,11.5c.5,10.7,5.5,18.5,14.8,23.6,6.5,3.6,13.8,4.9,21.2,5a59,59,0,0,1,27,6.4c14.6,7.5,24.9,18.7,28.9,34.9,1.1,4.4,1.5,9.1-.9,13.5-2.7,5.1-7,7.6-12,6.7a11.85,11.85,0,0,1-9.4-11c-.8-11.8-6.4-20.4-17.2-25.2-6.6-2.9-13.8-3.9-21-4.1a55.73,55.73,0,0,1-10.8-1.1c-12.8-3-23.9-9.2-32.5-19.3-6.8-8-11.1-17-11.6-27.7C208.66,23.11,208.66,20.91,209.46,19.21Z"/></svg>