<?xml version="1.0" encoding="utf-8"?>
<!-- Generator: Adobe Illustrator 23.0.2, SVG Export Plug-In . SVG Version: 6.00 Build 0)  -->
<svg version="1.1" id="Layer_1" xmlns="http://www.w3.org/2000/svg" xmlns:xlink="http://www.w3.org/1999/xlink" x="0px" y="0px"
	 viewBox="0 0 600 600" style="enable-background:new 0 0 600 600;" xml:space="preserve">
<g>
	<path d="M285.5,155.8c55.1,0,110.1,0,165.2,0.1c2.8,0,5.8,0.5,8.3,1.7c3.9,1.8,6,5.3,6,9.8c0,5-0.2,10.1,0.1,15.1
		c0.2,2.8,0.9,5.8,2.2,8.2c2.5,4.7,7.3,5.4,12,5.5c13.5,0.2,27,0.3,40.4,0c14.2-0.3,26.9,3.8,38.5,11.7
		c16.5,11.2,27.3,26.6,30.4,46.4c4,25.9-4.1,47.9-23.7,65.5c-8.6,7.7-18.5,12.8-29.6,15.3c-5.5,1.2-11.3,1.5-17,1.6
		c-13.9,0.2-27.8,0.1-41.7,0.1c-0.7,0-1.3,0-2,0c-7.6,0.3-8.8,1.5-8.8,9c-0.1,13,0.2,26-0.4,38.9c-1.3,28.4-11,53.7-28.9,75.8
		c-16.3,20.1-36.9,34.1-61.6,42c-12.2,3.9-24.7,6-37.5,6.1c-34.8,0.1-69.6,0.5-104.4-0.1c-53.6-0.9-101.1-35.3-119.4-85.7
		c-5.3-14.6-7.8-29.7-7.8-45.2c0-15.7,0-31.4,0-47.1c0-53.5-0.1-107-0.1-160.5c0-2-0.1-4.2,0.6-6.1c1.6-4.7,5.1-7.4,10.2-7.9
		c1.5-0.1,3-0.1,4.5-0.1C175.7,155.8,230.6,155.8,285.5,155.8z M286.2,177.3c-47.8,0-95.6,0-143.4,0.1c-2.7,0-5.7,0.6-8.1,1.8
		c-4.8,2.3-5.9,6.7-5.9,11.7c-0.1,44.3-0.3,88.6-0.5,132.9c-0.1,19.1-0.1,38.2,0.1,57.3c0.1,13.7,2.8,27,8.6,39.4
		c19.8,42.3,53.2,64.5,99.9,65.6c32.5,0.7,65,0.2,97.5,0.1c13.3,0,26.2-2.2,38.6-6.9c40.9-15.6,68.4-53.3,70-96.9
		c0.7-20.7,0.2-41.5,0.3-62.3c0.1-18.3,0.3-36.5,0.4-54.8c0.1-25,0.1-49.9,0-74.9c0-4.5-1.3-8.9-5.8-11c-2.5-1.2-5.5-1.9-8.3-1.9
		C381.7,177.3,333.9,177.3,286.2,177.3z M465,266.3c0,11.7-0.1,23.3,0.1,35c0.1,2.9,0.8,6,2.1,8.5c2.4,4.7,7.2,5.6,11.9,5.6
		c13.6,0.2,27.3,0.4,40.9,0c12.5-0.4,23.8-4.5,33-13.4c14.4-13.9,19.1-34,11.1-53.9c-7.8-19.2-22.8-29.4-43.4-30.3
		c-14.2-0.6-28.4-0.2-42.7-0.1c-4.6,0-9,1.4-11.1,6c-1.1,2.4-1.8,5.2-1.8,7.9C464.9,243.1,465,254.7,465,266.3z"/>
	<path d="M278.7,588.3c-15.3-0.4-30.6-0.4-45.9-1.2c-12.8-0.7-25.6-1.9-38.3-3.5c-18-2.2-36-4.6-54-7.4c-10.3-1.6-20.5-4.2-30.8-6.3
		c-2.9-0.6-5.8-1.2-8.7-1.9c-4.5-1-6.9-4.8-5.8-9.3c0.6-2.6,1.2-5.2,1.9-7.7c1.1-3.8,5-6.2,8.9-5.4c11.5,2.4,22.9,4.9,34.4,7.2
		c6.8,1.3,13.7,2.2,20.6,3.3c7.7,1.1,15.4,2.3,23.1,3.3c6.5,0.8,13,1.5,19.5,2.1c8.5,0.8,17,1.5,25.4,2.2c4.8,0.4,9.6,0.6,14.4,0.7
		c14.5,0.3,28.9,0.8,43.4,0.7c13.8-0.1,27.6-0.6,41.4-1.5c13.9-0.9,27.9-2.1,41.7-3.7c11.2-1.3,22.4-3,33.6-5
		c15.8-2.8,31.6-6.1,47.4-9.1c5-1,8.6,1.3,9.9,6.3c0.6,2.2,1.1,4.5,1.6,6.7c1,4.6-1.3,8.2-5.9,9.2c-12.9,2.7-25.8,5.7-38.8,8.1
		c-10.7,2-21.5,3.5-32.3,4.7c-16.7,2-33.5,3.9-50.3,5.3c-11.8,1-23.8,1.3-35.7,1.6c-6.9,0.2-13.7,0-20.6,0
		C278.7,588,278.7,588.2,278.7,588.3z"/>
	<path d="M389.9,25.3c-0.5,10.7-4.8,19.7-11.6,27.7c-8.6,10.1-19.7,16.3-32.5,19.3c-3.5,0.8-7.2,1-10.8,1.1
		c-7.2,0.2-14.4,1.2-21,4.1c-10.8,4.8-16.4,13.4-17.2,25.2c-0.4,5.5-4.2,10-9.4,11c-5,0.9-9.3-1.6-12-6.7c-2.4-4.4-2-9.1-0.9-13.5
		c4-16.2,14.3-27.4,28.9-34.9c8.5-4.4,17.5-6.3,27-6.4c7.4-0.1,14.7-1.4,21.2-5c9.3-5.1,14.3-12.9,14.8-23.6
		c0.3-5.6,4.3-10.5,9.6-11.5c5.1-1.1,10.6,1.9,12.8,7.2C389.6,21,389.6,23.2,389.9,25.3z"/>
</g>
</svg>
