<?xml version="1.0" encoding="utf-8"?>
<!-- Generator: Adobe Illustrator 23.0.2, SVG Export Plug-In . SVG Version: 6.00 Build 0)  -->
<svg version="1.1" id="Layer_1" xmlns="http://www.w3.org/2000/svg" xmlns:xlink="http://www.w3.org/1999/xlink" x="0px" y="0px"
	 viewBox="0 0 600 600" style="enable-background:new 0 0 600 600;" xml:space="preserve">
<g>
	<path d="M471.1,554.8c-1.5,0-2.5,0-3.5,0c-83.2,0-166.4,0-249.6,0c-6.6,0-12.6-4.6-14-10.6c-1.6-6.6,1.1-13.4,7-16.4
		c2.3-1.2,5-1.9,7.5-1.9c17.6,0,35.2,0.3,52.8,0.3c54-0.1,107.9-0.3,161.9-0.4c1,0,2,0,3.1,0c4.6-0.1,6.2-1.7,6.3-6.3
		c0-0.4,0-0.8,0-1.2c0-17.2,0-34.4,0-51.6c0-5.8-1.4-7.2-7.2-7.2c-81.3,0-162.5,0-243.8,0c-4,0-4,0-4-3.9c0-7,0.1-14.1-0.1-21.1
		c-0.1-3,0.7-4,3.9-4c29.9,0.1,59.9,0.1,89.8,0.1c61.9,0,123.8,0,185.7,0c4,0,4,0,4,3.9c0,38.8,0,77.6,0,116.4
		C471.1,551.8,471.1,553,471.1,554.8z"/>
	<path d="M171.8,430.4c0,1.7,0,2.9,0,4.1c0,20.1-0.1,40.1-0.1,60.2c0,18.8,0,37.7,0.2,56.5c0,3-0.9,3.7-3.8,3.7
		c-33.5-0.1-67,0.3-100.5-0.2c-32.2-0.5-56.3-24.2-60.6-51.9C2,469.9,21.5,440,53.4,432c4-1,8.2-1.5,12.3-1.6c34-0.1,68-0.1,102-0.1
		C168.9,430.4,170.1,430.4,171.8,430.4z M99.9,525.6c12.1,0,24.2,0,36.3,0c5.1,0,6.6-1.5,6.6-6.5c0-17.8,0-35.6,0-53.4
		c0-5.1-1.4-6.4-6.6-6.4c-24.1,0-48.2,0-72.4,0c-1.3,0-2.7,0-3.9,0.3c-17.6,3.5-29,19.4-26.9,37.2c2,16.3,16.2,28.9,32.6,28.9
		C77.1,525.6,88.5,525.6,99.9,525.6z"/>
	<path d="M515.4,378.6c0.4-21.3,8.6-38.1,21.8-52.8c5.5-6.2,11.1-12.2,16.6-18.4c14.8-17,15.5-48.2,0.2-65.5
		c-6.6-7.5-13.2-15-19.8-22.5c-25.5-29.3-25.3-75.5,0.2-105.3c5.1-6,10.4-11.7,15.7-17.5c9.9-10.7,15.1-23.2,15-37.9
		c-0.1-7.4,6.2-13.4,13.7-13.6c7.8-0.3,14.4,5.1,14.8,12.7c0.8,16.2-3.2,31.4-12.2,44.8c-5.2,7.7-11.7,14.6-17.7,21.7
		c-3.1,3.7-6.5,7-9.5,10.7c-8.8,10.7-10.9,23.3-9.9,36.7c1,12.8,7.2,22.8,15.6,32c6.4,7,12.8,14,18.5,21.5
		c11.5,15,15.9,32.2,15.4,50.9c-0.6,21.8-9.5,39.8-24,55.6c-4.3,4.6-8.6,9.2-12.8,14c-8.7,10-13,21.7-13,34.9
		c0,6.4-3.9,11.7-9.8,13.7c-5.7,1.9-12,0-15.9-4.9C515.3,386,515.1,381.8,515.4,378.6z"/>
	<path d="M428,378.6c0.4-19,7.3-35.5,19.5-49.8c5.9-6.9,12.3-13.3,18.1-20.2c13.5-16.1,15-34.3,8.9-53.7
		c-2.2-6.9-7.1-12.3-11.7-17.7c-7.3-8.6-15.1-16.8-21.7-26c-11.6-16.2-14.7-34.9-12.4-54.4c0.8-7.1,2.9-14.1,5.1-20.9
		c2.4-7.4,10.8-10.8,18-8.2c7.6,2.8,11.5,10.7,8.7,18.3c-4.4,11.8-4.8,23.8-1.5,35.9c2.7,9.9,9.4,17.2,16,24.5
		c7.8,8.6,15.8,17,21.6,27.2c8.4,14.9,11,30.8,9.6,47.7c-1.6,18.8-9.6,34.6-21.9,48.6c-6.3,7.2-12.9,14.2-18.7,21.7
		c-6.7,8.6-8.6,18.9-8.9,29.6c-0.2,7.3-5.5,13.1-12.5,13.9c-7.1,0.9-13.9-3.8-15.7-10.8C428.1,382.5,428.2,380.5,428,378.6z"/>
	<path d="M487.7,526.2c7.9,0,15.5,0,23.1,0c7.1,0,8.2-1.1,8.2-8.4c0-16.9,0-33.8,0-50.7c0-1,0-2-0.1-3.1c-0.4-3.4-1.9-4.8-5.4-4.9
		c-7.6-0.1-15.3-0.1-22.9,0c-2.6,0.1-3.3-0.8-3.2-3.3c0.1-8.3,0.1-16.7,0.1-25.4c1.2-0.1,2.3-0.2,3.4-0.2c9.8,0,19.5,0,29.3,0
		c15.8,0,27.4,11.6,27.4,27.3c0,23.4,0,46.8,0,70.2c0,15.4-11.4,26.7-26.8,26.8c-10,0.1-20,0-29.9,0c-1,0-2-0.1-3.2-0.2
		C487.7,545.2,487.7,535.9,487.7,526.2z"/>
</g>
</svg>
