<svg id="Layer_1" data-name="Layer 1" xmlns="http://www.w3.org/2000/svg" viewBox="0 0 600 600"><title>07-cigarette</title><path d="M214.47,552.78c-5.66,0-10.85-3.9-12.05-9.06-1.42-5.84,1-11.66,6-14.16a14.78,14.78,0,0,1,6.59-1.68c8.79,0,17.74.07,26.39.15s17.6.15,26.41.15q40.51-.07,81-.2t80.95-.2h3.09c5.71-.13,8.18-2.6,8.3-8.26V466.68c0-6.88-2.32-9.2-9.2-9.2H188.07c-.74,0-1.5,0-2,0,0-.45,0-1.17,0-1.86,0-1.75,0-3.5,0-5.25,0-5.22,0-10.63-.11-15.91-.05-1.42.16-1.69.17-1.7s.28-.24,1.73-.24c29.9.1,60.35.1,89.8.1h185.7c.74,0,1.5,0,2,0,0,.45,0,1.17,0,1.87v116.4a2.1,2.1,0,0,0,.05.43,8.49,8.49,0,0,1,.14,1.47Z"/><path d="M111.87,552.93c-16.05,0-29-.08-40.77-.25-29.54-.46-54.21-21.58-58.65-50.21-4.86-32,14-60.81,44.91-68.55a54.38,54.38,0,0,1,11.86-1.54c33.93-.1,68.47-.1,101.87-.1.71.05,1.4.08,2.18.09v2.11q0,15.07-.05,30.09t-.05,30.11c0,18.54,0,37.71.2,56.52a3.18,3.18,0,0,1-.19,1.51h0a4.22,4.22,0,0,1-1.61.17q-6,0-12,0-11.92,0-23.84,0Zm-44.6-95.65a18.26,18.26,0,0,0-4.38.36,35.33,35.33,0,0,0,6.18,70c11.51-.1,23.1-.1,34.3-.1h36.3c6.19,0,8.6-2.39,8.6-8.5v-53.4c0-6.2-2.25-8.4-8.6-8.4Z"/><path d="M526.21,393a12.59,12.59,0,0,1-9.87-4.87l-.07-.08c-2-2.26-2.78-5.3-2.41-9.29a.76.76,0,0,0,0-.15c.37-19.36,7.13-35.73,21.29-51.5,2.75-3.1,5.57-6.19,8.29-9.19s5.56-6.11,8.32-9.22c15.7-18,15.8-50.51.2-68.15l-19.8-22.49c-24.77-28.47-24.68-73.58.22-102.68,4.26-5,8.74-9.91,13.08-14.64l2.58-2.81c10.4-11.24,15.62-24.46,15.52-39.27-.08-6.22,5.19-11.41,11.76-11.58h.56c6.62,0,11.86,4.65,12.18,10.81a70.22,70.22,0,0,1-11.86,43.58,170.7,170.7,0,0,1-12.94,16.15c-1.55,1.79-3.1,3.58-4.63,5.38s-2.93,3.33-4.39,4.92c-1.71,1.86-3.49,3.78-5.13,5.81-8.13,9.88-11.52,22.35-10.34,38.11.92,11.76,5.89,22,16.11,33.2,6.27,6.84,12.74,13.93,18.39,21.36,10.61,13.84,15.52,30.08,15,49.63-.55,19.93-8.22,37.69-23.47,54.3-4.23,4.53-8.61,9.22-12.83,14a53.68,53.68,0,0,0-13.5,36.22,12.29,12.29,0,0,1-8.44,11.8A12.08,12.08,0,0,1,526.21,393Z"/><path d="M438.93,393.19a12.61,12.61,0,0,1-12-9.41,18.9,18.9,0,0,1-.3-3.13c0-.7-.06-1.43-.14-2.15.41-17.81,6.8-34.1,19-48.43,2.78-3.25,5.73-6.45,8.59-9.55,3.17-3.44,6.45-7,9.52-10.66,13.1-15.61,16.13-33.79,9.28-55.58-2.17-6.81-6.72-12.13-11.12-17.27l-1-1.13c-2.12-2.51-4.33-5-6.46-7.45-5.17-5.89-10.51-12-15.13-18.42-10.42-14.55-14.47-32.38-12-53,.8-7.1,3-14.31,5-20.52a11.51,11.51,0,0,1,11.14-7.68,12.44,12.44,0,0,1,4.28.75,12.64,12.64,0,0,1,7.13,6.33,12,12,0,0,1,.38,9.4,59.4,59.4,0,0,0-1.56,37.11c2.79,10.21,9.58,17.72,16.14,25l2.43,2.67c6.91,7.59,14.06,15.43,19.22,24.52,7.75,13.73,10.81,29,9.35,46.54-1.46,17.19-8.47,32.71-21.41,47.45q-2.62,3-5.28,5.94c-4.55,5.1-9.27,10.38-13.5,15.85-6.06,7.79-8.94,17.28-9.32,30.77a12.16,12.16,0,0,1-10.72,12A11.4,11.4,0,0,1,438.93,393.19Z"/><path d="M507.28,552.52l-10,0-9.92,0c-.38,0-.78,0-1.2-.05V528.18h21.1c8.2,0,10.2-2,10.2-10.4v-50.7c0-1,0-2.09-.11-3.28-.52-4.48-2.85-6.59-7.33-6.72-3.82-.05-7.68-.08-11.51-.08s-7.68,0-11.47.08h-.35a2.91,2.91,0,0,1-.76-.07,3.73,3.73,0,0,1-.07-1.15c.09-7.78.1-15.51.1-23.63.48,0,.95-.05,1.4-.05h29.3c14.72,0,25.4,10.64,25.4,25.3v70.2c0,14.27-10.43,24.7-24.81,24.8Q512.26,552.53,507.28,552.52Z"/></svg>