<?xml version="1.0" encoding="utf-8"?>
<!-- Generator: Adobe Illustrator 23.0.2, SVG Export Plug-In . SVG Version: 6.00 Build 0)  -->
<svg version="1.1" id="Layer_1" xmlns="http://www.w3.org/2000/svg" xmlns:xlink="http://www.w3.org/1999/xlink" x="0px" y="0px"
	 viewBox="0 0 600 600" style="enable-background:new 0 0 600 600;" xml:space="preserve">
<g>
	<path d="M435.6,212.3c-0.7,7.6-1.3,14.8-2,21.9c-1,10.2-1.9,20.4-2.9,30.7c-1.1,12-2.3,24-3.4,36c-0.9,9.9-1.8,19.8-2.7,29.6
		c-1.1,12-2.3,24-3.4,36c-0.9,9.9-1.8,19.8-2.7,29.6c-1.1,12-2.3,24-3.4,36c-0.9,9.9-1.8,19.8-2.7,29.6c-1.1,12-2.3,24-3.4,36
		c-0.9,9.8-1.8,19.6-2.7,29.4c-1.1,12.2-2.3,24.4-3.5,36.5c-0.6,6-1.2,12.1-1.7,18.1c-0.5,6-5.1,10.5-11.2,10.5
		c-60,0-120.1,0-180.1,0c-6.4,0-10.9-4.6-11.4-11.1c-1.5-17.8-3-35.6-4.6-53.4c-0.9-11-1.8-22-2.7-33c-1.1-13-2.3-26.1-3.4-39.1
		c-0.9-10.7-1.8-21.5-2.7-32.2c-0.9-11.2-1.9-22.3-2.8-33.5c-0.9-10.8-1.9-21.6-2.8-32.5c-1.1-13.2-2.2-26.4-3.3-39.6
		c-0.9-10.8-1.9-21.6-2.8-32.5c-1-11.5-2-23-2.9-34.5c-0.2-2.5-0.4-5,0-7.4c0.9-5.4,6-9,12-8.6c5.3,0.3,9.8,4.4,10.2,9.7
		c1.4,16.2,2.8,32.4,4.2,48.6c1.7,19.3,3.4,38.7,5,58c1.1,12.7,2.1,25.4,3.1,38.1c0.9,11.2,2,22.3,2.9,33.5
		c0.9,10.8,1.8,21.6,2.7,32.5c1.1,12.7,2.2,25.4,3.3,38.1c0.6,7.5,1.2,15,1.8,22.5c1,11.3,1.9,22.7,2.9,34
		c0.5,5.8,1.1,11.6,1.5,17.4c0.1,2,1.2,2.7,3,2.7c0.7,0,1.4,0,2.1,0c49.8,0,99.7,0,149.5,0c4.8,0,4.8,0,5.3-4.7
		c1.7-17.4,3.4-34.7,5-52.1c1.6-17.3,3.1-34.6,4.7-51.9c1.5-16.4,3.1-32.9,4.6-49.3c1.5-16.4,3.1-32.9,4.6-49.3c2-21,4.1-42,6-63.1
		c1.7-18,3.1-35.9,4.8-53.9c0.9-10.3,2.1-20.6,3.1-30.9c0.2-1.7,0.8-2.5,2.7-2.5C422,212.3,428.6,212.3,435.6,212.3z"/>
	<path d="M298.6,208.9c-46.5,0-93,0-139.5,0c-7.8,0-12.3-4.4-12.3-12.2c0-14.2,0.2-28.4-0.1-42.7c-0.2-7.6,5.3-12.7,12.9-12.7
		c45.4,0.1,90.8,0.1,136.2,0.1c10.8,0,21.6,0,32.4,0c2.3,0,3.3-0.7,3.9-3c9.1-32.5,18.4-64.9,27.5-97.4c1.4-5.1,4.3-8.2,9.3-9.9
		c23-7.6,45.9-15.3,68.9-22.9c6.5-2.1,12.9,0.8,14.9,6.7c2.2,6.3-1,12.6-7.7,14.8c-20.6,6.9-41.3,13.9-62,20.7
		c-1.9,0.6-3,1.6-3.5,3.6c-7.9,28-15.8,55.9-23.7,83.9c-0.9,3-0.4,3.5,2.9,3.5c26.2,0,52.4,0,78.6,0c3.5,0,6.8,0.6,9.5,3.1
		c2.4,2.2,3.6,4.9,3.5,8.2c0,15,0,30,0,45c0,6.6-4.8,11.2-11.5,11.2C392.1,208.9,345.3,208.9,298.6,208.9z M298.4,186.2
		c9.6,0,19.2,0,28.8,0c32.3,0,64.6,0,96.9,0c3.5,0,3.8-0.3,3.8-3.8c0-4.4,0-8.7,0-13.1c0-5.1,0-5.1-4.9-5.1c-82.9,0-165.8,0-248.7,0
		c-0.6,0-1.2,0-1.8,0c-2.3-0.2-3.2,1-3.2,3.2c0.1,4.8,0,9.6,0,14.4c0,4.2,0.2,4.4,4.3,4.4C215.2,186.2,256.8,186.2,298.4,186.2z"/>
	<path d="M407.2,239.7c-0.4,4.8-0.7,9-1.1,13.2c-0.4,3.9-0.8,7.8-1.1,11.7c-0.1,1.8-0.9,2.9-2.5,3.8c-29.7,16.5-59.4,33-89,49.5
		c-34.6,19.3-69.2,38.5-103.8,57.8c-0.7,0.4-1.5,0.8-2.7,1.4c-0.2-2.6-0.5-4.8-0.7-7.1c-0.4-5.2-0.8-10.4-1.3-15.6
		c-0.2-1.6,0.4-2.5,1.8-3.3c21.5-11.9,42.9-23.9,64.4-35.8c40.1-22.3,80.1-44.6,120.1-66.9C396.3,245.7,401.5,242.8,407.2,239.7z"/>
	<path d="M216.6,492.5c-0.2-2.6-0.5-4.7-0.6-6.8c-0.4-5.2-0.8-10.4-1.3-15.6c-0.2-1.8,0.4-2.8,2-3.7c24.6-13.7,49.2-27.4,73.8-41.1
		c26.5-14.7,52.9-29.5,79.4-44.2c2.1-1.2,4.6-2.1,6.9-2.3c5.4-0.5,9.9,2.7,11.4,7.6c1.6,5.2-0.3,10.5-5.1,13.3
		c-9.8,5.6-19.7,11-29.6,16.5c-37.6,21-75.2,41.9-112.8,62.9C232.8,483.5,225,487.8,216.6,492.5z"/>
</g>
</svg>
