<svg id="Layer_1" data-name="Layer 1" xmlns="http://www.w3.org/2000/svg" viewBox="0 0 600 600"><title>08-bigsoda</title><path d="M435.56,212.44c-.7,7.6-1.3,14.8-2,21.9-1,10.2-1.9,20.4-2.9,30.7-1.1,12-2.3,24-3.4,36-.9,9.9-1.8,19.8-2.7,29.6-1.1,12-2.3,24-3.4,36-.9,9.9-1.8,19.8-2.7,29.6-1.1,12-2.3,24-3.4,36-.9,9.9-1.8,19.8-2.7,29.6-1.1,12-2.3,24-3.4,36l-2.7,29.4c-1.1,12.2-2.3,24.4-3.5,36.5-.6,6-1.2,12.1-1.7,18.1a11.11,11.11,0,0,1-11.2,10.5H209.76c-6.4,0-10.9-4.6-11.4-11.1-1.5-17.8-3-35.6-4.6-53.4l-2.7-33c-1.1-13-2.3-26.1-3.4-39.1-.9-10.7-1.8-21.5-2.7-32.2-.9-11.2-1.9-22.3-2.8-33.5-.9-10.8-1.9-21.6-2.8-32.5l-3.3-39.6c-.9-10.8-1.9-21.6-2.8-32.5-1-11.5-2-23-2.9-34.5a30.53,30.53,0,0,1,0-7.4c.9-5.4,6-9,12-8.6a10.75,10.75,0,0,1,10.2,9.7l4.2,48.6c1.7,19.3,3.4,38.7,5,58,1.1,12.7,2.1,25.4,3.1,38.1.9,11.2,2,22.3,2.9,33.5.9,10.8,1.8,21.6,2.7,32.5l3.3,38.1,1.8,22.5c1,11.3,1.9,22.7,2.9,34,.5,5.8,1.1,11.6,1.5,17.4.1,2,1.2,2.7,3,2.7h151.6c4.8,0,4.8,0,5.3-4.7,1.7-17.4,3.4-34.7,5-52.1s3.1-34.6,4.7-51.9c1.5-16.4,3.1-32.9,4.6-49.3s3.1-32.9,4.6-49.3c2-21,4.1-42,6-63.1,1.7-18,3.1-35.9,4.8-53.9.9-10.3,2.1-20.6,3.1-30.9.2-1.7.8-2.5,2.7-2.5C422,212.44,428.56,212.44,435.56,212.44Z"/><path d="M298.56,209H159.06c-7.8,0-12.3-4.4-12.3-12.2,0-14.2.2-28.4-.1-42.7-.2-7.6,5.3-12.7,12.9-12.7q68.1.15,136.2.1h32.4c2.3,0,3.3-.7,3.9-3,9.1-32.5,18.4-64.9,27.5-97.4a13.35,13.35,0,0,1,9.3-9.9c23-7.6,45.9-15.3,68.9-22.9,6.5-2.1,12.9.8,14.9,6.7,2.2,6.3-1,12.6-7.7,14.8-20.6,6.9-41.3,13.9-62,20.7a4.62,4.62,0,0,0-3.5,3.6c-7.9,28-15.8,55.9-23.7,83.9-.9,3-.4,3.5,2.9,3.5h78.6c3.5,0,6.8.6,9.5,3.1a10.21,10.21,0,0,1,3.5,8.2v45c0,6.6-4.8,11.2-11.5,11.2Zm-.2-22.7h125.7c3.5,0,3.8-.3,3.8-3.8v-13.1c0-5.1,0-5.1-4.9-5.1H172.46c-2.3-.2-3.2,1-3.2,3.2.1,4.8,0,9.6,0,14.4,0,4.2.2,4.4,4.3,4.4Z"/><path d="M407.16,239.84c-.4,4.8-.7,9-1.1,13.2-.4,3.9-.8,7.8-1.1,11.7a4.27,4.27,0,0,1-2.5,3.8q-44.55,24.75-89,49.5-51.9,28.95-103.8,57.8c-.7.4-1.5.8-2.7,1.4-.2-2.6-.5-4.8-.7-7.1-.4-5.2-.8-10.4-1.3-15.6a3,3,0,0,1,1.8-3.3c21.5-11.9,42.9-23.9,64.4-35.8q60.15-33.45,120.1-66.9C396.26,245.84,401.46,242.94,407.16,239.84Z"/><path d="M216.56,492.64c-.2-2.6-.5-4.7-.6-6.8-.4-5.2-.8-10.4-1.3-15.6a3.31,3.31,0,0,1,2-3.7l73.8-41.1q39.75-22.05,79.4-44.2a17.61,17.61,0,0,1,6.9-2.3,10.65,10.65,0,0,1,11.4,7.6,11.18,11.18,0,0,1-5.1,13.3c-9.8,5.6-19.7,11-29.6,16.5q-56.4,31.5-112.8,62.9C232.76,483.64,225,487.94,216.56,492.64Z"/></svg>