<svg id="Layer_1" data-name="Layer 1" xmlns="http://www.w3.org/2000/svg" viewBox="0 0 600 600"><title>09-cottoncandy</title><path d="M293.32,12.19c22.1.1,42.6,5.8,60.9,18.4A87.42,87.42,0,0,1,375.42,51a5,5,0,0,0,4.5,2.2c24.8.5,46.9,8.3,65.7,24.6,16,13.9,26.5,31.3,30,52.4,4.2,25.4-1.6,48.6-17.4,69.1-2.7,3.5-3.2,2.9,0,6.9a121.25,121.25,0,0,1,24.3,53,125,125,0,0,1,2.1,34.5c-2.2,28.4-12.3,53.6-31.7,74.8-14.1,15.3-31.2,25.8-51.6,30.7a92.2,92.2,0,0,1-22.2,2.5,6,6,0,0,0-4.2,1.6,92.46,92.46,0,0,1-24.5,16,49.18,49.18,0,0,1-6,2.3,3.22,3.22,0,0,0-2.3,2.7l-4.5,23.7c-3.3,17.3-6.7,34.5-10.1,51.8l-9.6,49.8c-1.9,9.9-3.9,19.7-5.8,29.6a12.35,12.35,0,0,1-3.6,6.5c-2.8,2.9-13.6,2.8-16.3-.1a13.28,13.28,0,0,1-3.6-6.8c-1.8-9.2-3.6-18.4-5.4-27.7-3.4-17.3-6.7-34.5-10.1-51.8-3.8-19.8-7.6-39.5-11.4-59.3-1.1-5.9-2.4-11.8-3.5-17.8a3.15,3.15,0,0,0-2.1-2.6,93.78,93.78,0,0,1-27.5-18.1c-2.7-2.6-5.2-5.4-7.6-8.2a4.17,4.17,0,0,0-3.8-1.7,86.48,86.48,0,0,1-29.9-3.6c-17.3-5.3-31.7-15-43.7-28.5-14-15.7-22.5-34-26.5-54.5a119,119,0,0,1-1.6-33.7c2-22.5,9.6-42.8,23.4-60.8,1.2-1.5,2.5-3,3.7-4.5,1.6-1.8,1.6-2.1.1-4a82.58,82.58,0,0,1-15.1-30.2c-7.5-29-2-55.4,16.6-78.8,15.4-19.3,35.8-30.5,60-34.8a3.78,3.78,0,0,0,3-2c14.4-22.2,35.2-35.2,60.5-41.5A138,138,0,0,1,293.32,12.19Zm-.8,20.5c-2.1.1-5,.3-7.9.5a82.73,82.73,0,0,0-30.4,8.5c-13.8,6.8-24.8,16.7-32,30.5a10.79,10.79,0,0,1-8.5,5.9c-3.6.5-7.3,1-10.8,1.8-19.7,4.8-35.8,15.2-46.9,32.4-9.6,14.9-13.1,31.2-9.8,48.8a66.82,66.82,0,0,0,19.1,35.8,11.14,11.14,0,0,1-.4,16.4,86.29,86.29,0,0,0-11.1,12.3c-13.9,19.2-19.5,40.8-17.9,64.4a95.17,95.17,0,0,0,8.9,34.7c8.2,17.3,20.2,30.9,37.5,39.6,12.4,6.2,25.5,8.7,39.3,6.7,5.3-.8,9.3.8,12.2,5.3a63.68,63.68,0,0,0,18.1,18.1c14.9,10,31.5,14.3,49.3,14.8a87.11,87.11,0,0,0,21.6-2.2c15.6-3.4,29.7-9.9,41.1-21.5,3.5-3.5,7.2-5.1,12-4.4,6.2.8,12.2,0,18.2-1.2,20.2-4.1,36.4-14.8,48.8-31.1,18.7-24.5,24.8-52.3,20-82.4-3.5-21.5-12.8-40.2-28.5-55.6-4.8-4.7-4.6-10.9.1-15.6a67.61,67.61,0,0,0,5.8-6.2c16.6-20.8,20.9-43.8,11-68.6-7.9-19.8-22.8-32.8-42.4-40.7a79.92,79.92,0,0,0-35.6-5.3c-5.1.4-8.6-1.6-11.1-5.9a62.7,62.7,0,0,0-15.8-17.8C330.72,38.19,312.92,33,292.52,32.69Zm32.3,394.4c-8.4,1.3-16.5,2.4-24.5,1.9s-16.2-1.4-24.4-2.1q12.15,62.4,24.1,124.7h.7C308.72,510.29,316.72,469,324.82,427.09Z"/><path d="M434.52,283.29c-.2,15.6-4,29.7-13.3,41.9-7.8,10.1-17.9,17.2-29.5,22.3a79.34,79.34,0,0,1-9.6,3.7,10.22,10.22,0,0,1-13.1-10.3,10.36,10.36,0,0,1,7.1-9.4,89.79,89.79,0,0,0,15.4-7.2c11.7-7.3,19.3-17.4,21.6-31.2a64.29,64.29,0,0,0-1.3-26.2c-.9-3.7-2.2-7.4-3.4-11.1a10.35,10.35,0,0,1,5.1-12.7c5.4-2.6,11.6-.5,13.9,5a88.2,88.2,0,0,1,4.2,12.9A96.89,96.89,0,0,1,434.52,283.29Z"/><path d="M228,256.89a47.08,47.08,0,0,1,2.3-15.7c1.5-4.6,5.6-7.2,10.6-6.9a9.88,9.88,0,0,1,9.1,7.9,11.88,11.88,0,0,1-.2,5.3c-4.8,16.4,2.5,30.3,16.2,37.9a104.1,104.1,0,0,0,12.3,5.4c3.1,1.2,5.6,2.9,6.8,6,1.4,3.8,1.1,7.4-1.5,10.5s-6.1,4.7-10.2,3.5c-15.5-4.6-28.8-12.3-37.7-26.3A48.58,48.58,0,0,1,228,256.89Z"/><path d="M386.12,168.19a51.4,51.4,0,0,1-1.9,14.4c-1.7,5.9-7,9.1-12.5,7.7-5.7-1.4-8.8-6.8-7.5-12.6a56.44,56.44,0,0,0,1.5-9.9c.3-10.3-4.2-18.4-12.1-24.8a55.22,55.22,0,0,0-17.2-8.9,16.59,16.59,0,0,1-3.8-1.8,10.38,10.38,0,0,1-3.4-12.4c1.8-4.3,6.8-7.3,11.1-6,19,5.6,34.6,15.4,42.4,34.7A49.07,49.07,0,0,1,386.12,168.19Z"/><path d="M173.42,155c0-14.2,3.7-26.5,12.8-36.9a53.17,53.17,0,0,1,27.3-16.6c6.5-1.7,11.6,2,13,7.2,1.5,6-1.9,11.2-8.1,12.8a30.82,30.82,0,0,0-24.1,28.1,54.88,54.88,0,0,0,1.2,17.6c1.2,5.8-1.1,10.5-6,12.6a10.15,10.15,0,0,1-13.8-6.5A69.54,69.54,0,0,1,173.42,155Z"/></svg>