<?xml version="1.0" encoding="utf-8"?>
<!-- Generator: Adobe Illustrator 23.0.2, SVG Export Plug-In . SVG Version: 6.00 Build 0)  -->
<svg version="1.1" id="Layer_1" xmlns="http://www.w3.org/2000/svg" xmlns:xlink="http://www.w3.org/1999/xlink" x="0px" y="0px"
	 viewBox="0 0 600 600" style="enable-background:new 0 0 600 600;" xml:space="preserve">
<g>
	<path d="M293.3,12.1c22.1,0.1,42.6,5.8,60.9,18.4c8.2,5.6,15.3,12.4,21.2,20.4c1.2,1.6,2.5,2.2,4.5,2.2
		c24.8,0.5,46.9,8.3,65.7,24.6c16,13.9,26.5,31.3,30,52.4c4.2,25.4-1.6,48.6-17.4,69.1c-2.7,3.5-3.2,2.9,0,6.9
		c12.5,15.6,20.4,33.4,24.3,53c2.3,11.4,3,23,2.1,34.5c-2.2,28.4-12.3,53.6-31.7,74.8c-14.1,15.3-31.2,25.8-51.6,30.7
		c-7.3,1.7-14.7,2.6-22.2,2.5c-1.7,0-2.9,0.5-4.2,1.6c-7.3,6.7-15.5,11.9-24.5,16c-2,0.9-4,1.7-6,2.3c-1.4,0.5-2,1.3-2.3,2.7
		c-1.5,7.9-3,15.8-4.5,23.7c-3.3,17.3-6.7,34.5-10.1,51.8c-3.2,16.6-6.4,33.2-9.6,49.8c-1.9,9.9-3.9,19.7-5.8,29.6
		c-0.5,2.6-1.8,4.7-3.6,6.5c-2.8,2.9-13.6,2.8-16.3-0.1c-1.9-2-3.1-4.2-3.6-6.8c-1.8-9.2-3.6-18.4-5.4-27.7
		c-3.4-17.3-6.7-34.5-10.1-51.8c-3.8-19.8-7.6-39.5-11.4-59.3c-1.1-5.9-2.4-11.8-3.5-17.8c-0.2-1.4-0.9-2-2.1-2.6
		c-10.2-4.5-19.5-10.4-27.5-18.1c-2.7-2.6-5.2-5.4-7.6-8.2c-1.1-1.3-2.2-1.8-3.8-1.7c-10.2,0.5-20.1-0.6-29.9-3.6
		c-17.3-5.3-31.7-15-43.7-28.5c-14-15.7-22.5-34-26.5-54.5c-2.2-11.1-2.6-22.4-1.6-33.7c2-22.5,9.6-42.8,23.4-60.8
		c1.2-1.5,2.5-3,3.7-4.5c1.6-1.8,1.6-2.1,0.1-4c-7-9.1-12.3-19.1-15.1-30.2c-7.5-29-2-55.4,16.6-78.8c15.4-19.3,35.8-30.5,60-34.8
		c1.4-0.2,2.3-0.8,3-2c14.4-22.2,35.2-35.2,60.5-41.5C276.2,13,284.7,12.1,293.3,12.1z M292.5,32.6c-2.1,0.1-5,0.3-7.9,0.5
		c-10.7,0.9-20.8,3.7-30.4,8.5c-13.8,6.8-24.8,16.7-32,30.5c-1.8,3.5-4.7,5.3-8.5,5.9c-3.6,0.5-7.3,1-10.8,1.8
		c-19.7,4.8-35.8,15.2-46.9,32.4c-9.6,14.9-13.1,31.2-9.8,48.8c2.6,13.9,9.1,25.9,19.1,35.8c4.7,4.6,4.5,12-0.4,16.4
		c-4.1,3.7-7.8,7.9-11.1,12.3c-13.9,19.2-19.5,40.8-17.9,64.4c0.8,12.1,3.7,23.7,8.9,34.7c8.2,17.3,20.2,30.9,37.5,39.6
		c12.4,6.2,25.5,8.7,39.3,6.7c5.3-0.8,9.3,0.8,12.2,5.3c4.7,7.3,10.9,13.2,18.1,18.1c14.9,10,31.5,14.3,49.3,14.8
		c7.3,0.2,14.5-0.6,21.6-2.2c15.6-3.4,29.7-9.9,41.1-21.5c3.5-3.5,7.2-5.1,12-4.4c6.2,0.8,12.2,0,18.2-1.2
		c20.2-4.1,36.4-14.8,48.8-31.1c18.7-24.5,24.8-52.3,20-82.4c-3.5-21.5-12.8-40.2-28.5-55.6c-4.8-4.7-4.6-10.9,0.1-15.6
		c2-2,4.1-4,5.8-6.2c16.6-20.8,20.9-43.8,11-68.6c-7.9-19.8-22.8-32.8-42.4-40.7c-11.4-4.5-23.3-6.2-35.6-5.3
		c-5.1,0.4-8.6-1.6-11.1-5.9c-4.1-7-9.5-12.9-15.8-17.8C330.7,38.1,312.9,32.9,292.5,32.6z M324.8,427c-8.4,1.3-16.5,2.4-24.5,1.9
		c-8.1-0.5-16.2-1.4-24.4-2.1c8.1,41.6,16.1,83.1,24.1,124.7c0.2,0,0.4,0,0.7,0C308.7,510.2,316.7,468.9,324.8,427z"/>
	<path d="M434.5,283.2c-0.2,15.6-4,29.7-13.3,41.9c-7.8,10.1-17.9,17.2-29.5,22.3c-3.1,1.4-6.3,2.7-9.6,3.7
		c-6.8,2-13.4-3.3-13.1-10.3c0.2-4.3,2.8-7.8,7.1-9.4c5.3-2,10.5-4.2,15.4-7.2c11.7-7.3,19.3-17.4,21.6-31.2
		c1.5-8.8,0.8-17.6-1.3-26.2c-0.9-3.7-2.2-7.4-3.4-11.1c-1.7-5.1,0.5-10.4,5.1-12.7c5.4-2.6,11.6-0.5,13.9,5
		c1.8,4.2,3.1,8.6,4.2,12.9C433.5,268.2,434.5,277,434.5,283.2z"/>
	<path d="M228,256.8c-0.1-5.2,0.6-10.6,2.3-15.7c1.5-4.6,5.6-7.2,10.6-6.9c4.3,0.2,8.3,3.5,9.1,7.9c0.3,1.7,0.3,3.6-0.2,5.3
		c-4.8,16.4,2.5,30.3,16.2,37.9c3.9,2.2,8.1,3.7,12.3,5.4c3.1,1.2,5.6,2.9,6.8,6c1.4,3.8,1.1,7.4-1.5,10.5
		c-2.7,3.2-6.1,4.7-10.2,3.5c-15.5-4.6-28.8-12.3-37.7-26.3C231,277.3,227.8,267.7,228,256.8z"/>
	<path d="M386.1,168.1c0.1,4.7-0.6,9.6-1.9,14.4c-1.7,5.9-7,9.1-12.5,7.7c-5.7-1.4-8.8-6.8-7.5-12.6c0.7-3.3,1.4-6.6,1.5-9.9
		c0.3-10.3-4.2-18.4-12.1-24.8c-5.1-4.1-11-6.8-17.2-8.9c-1.3-0.5-2.7-1-3.8-1.8c-3.8-2.6-5.3-8.1-3.4-12.4c1.8-4.3,6.8-7.3,11.1-6
		c19,5.6,34.6,15.4,42.4,34.7C385.2,154.6,386.2,161.1,386.1,168.1z"/>
	<path d="M173.4,154.9c0-14.2,3.7-26.5,12.8-36.9c7.4-8.4,16.5-13.8,27.3-16.6c6.5-1.7,11.6,2,13,7.2c1.5,6-1.9,11.2-8.1,12.8
		c-6.6,1.7-12.3,4.9-16.8,10.1c-4.4,5.2-6.6,11.3-7.3,18c-0.7,5.9,0,11.8,1.2,17.6c1.2,5.8-1.1,10.5-6,12.6
		c-5.6,2.4-12.2-0.6-13.8-6.5C174,167,173.4,160.7,173.4,154.9z"/>
</g>
</svg>
