<svg id="Layer_1" data-name="Layer 1" xmlns="http://www.w3.org/2000/svg" viewBox="0 0 600 600"><title>10-sorbet</title><path d="M311.82,553.81c-15.71-.09-32.38-.61-51-1.59a346,346,0,0,1-47.46-6.39c-44.52-8.73-82.52-23-116.17-43.67C85.71,495.08,77,484.6,70.63,470.11c-4.95-11-7.12-22.77-8.73-33.84C60.73,428.2,59.44,420,58.2,412q-.86-5.47-1.7-10.94l-5.4-34.5c-.72-4.73-1.48-9.45-2.23-14.18-1.11-6.95-2.25-14.14-3.27-21.21a29.14,29.14,0,0,1-.3-8.59c.58-3.87,4.05-6.79,8.62-7.27a5.53,5.53,0,0,1,.71,0,9.8,9.8,0,0,1,8.56,5.54,36.07,36.07,0,0,1,2.34,7.59c3.08,19.19,6.13,38.78,9.09,57.73l1.2,7.74,1.5,9.87c2,12.9,4,26.23,6.2,39.34,2.16,12.93,6.84,23.74,14.31,33.06,4.79,6,11.33,9.77,17.66,13.38l1.32.76a307,307,0,0,0,85.69,32.61c15.28,3.34,30.75,6,46,8a337.54,337.54,0,0,0,45.26,3h0c4.17,0,8.41-.08,12.61-.23l6.51-.24c10.6-.38,21.57-.78,32.25-1.86,45.82-4.54,85.77-15.33,122.14-33,8.76-4.22,17.13-9.05,24.87-13.64,11.54-6.88,17.08-18.31,20.62-27.5,3.15-8.2,4.42-17,5.65-25.4.2-1.37.4-2.74.61-4.11,1.4-8.66,2.73-17.47,4-26,.66-4.33,1.31-8.66,2-13q1.61-10.34,3.16-20.65,1.82-11.86,3.64-23.65c1.2-7.57,2.5-15.28,3.76-22.74q1.13-6.66,2.24-13.35l2.7-17.11a7.62,7.62,0,0,0,0-1.54c0-.34,0-.73,0-1.22a1,1,0,0,0-.42-.81,1,1,0,0,0-.58-.19,1.19,1.19,0,0,0-.32.05l-1.68.58c-.42.15-.81.29-1.22.42a312,312,0,0,1-59.47,17.47c-20.94,4-39.89,7.17-57.94,9.59a685.38,685.38,0,0,1-72.8,6c-21.45.57-39.46.95-57.67.95q-5.21,0-10.39-.05c-16-.18-32.94-1-51.83-2.39-19.47-1.52-38.78-3.85-57.46-6.1a506.63,506.63,0,0,1-61-11.38c-15-3.73-29.17-8.68-46.1-14.77-12.34-4.43-23.75-11.47-37-22.82-10-8.45-15.63-18.89-16.75-31A39.22,39.22,0,0,1,14.05,209a68.32,68.32,0,0,1,10.06-12.52,16.87,16.87,0,0,1,12.09-4.92A25.51,25.51,0,0,1,44.29,193a44.32,44.32,0,0,1,8.88,4.09c17.53,11.21,38.17,19.5,63.11,25.34,15.76,3.65,32.43,7,49.56,10,10.14,1.73,20.58,2.87,30.68,4l6.68.74c11.75,1.3,21.26,2.19,29.94,2.8,10.68.76,20.41,1.21,29.75,1.4l7.42.12c12.17.19,24.76.39,37.11.39,5.26,0,10.11,0,14.81-.11,21.28-.41,42.17-1.56,61.74-2.7,6.73-.39,13.56-1.38,20.16-2.34,2-.3,4-.59,6-.87l10.1-1.45c10.16-1.44,20.66-2.94,30.93-4.75,27.07-4.87,48.45-10.57,67.29-18,7.52-3,17.28-7.2,26.13-13.62a38,38,0,0,1,15.87-6.72,19.56,19.56,0,0,1,3.27-.29,15.57,15.57,0,0,1,10,3.48c9.88,8.19,15.72,17.55,17.84,28.61,2.26,12-.54,23.31-8.32,33.71a70.86,70.86,0,0,1-17.16,16,6.92,6.92,0,0,0-3.13,5l-6,39.3c-.5,3.1-1,6.26-1.4,9.31s-.9,6.19-1.4,9.28q-.9,5.48-1.83,10.94c-1.2,7.14-2.44,14.51-3.57,21.77-1.05,6.59-2.06,13.29-3,19.76-1.35,8.94-2.75,18.18-4.26,27.23-.7,4.22-1.29,8.52-1.87,12.67-1.49,10.69-3,21.74-6.39,32.19-6.31,19.6-15.64,32.71-29.38,41.25a315.5,315.5,0,0,1-27.91,15.36c-23.75,11.68-49.62,20.49-79.07,26.92a397.77,397.77,0,0,1-57.26,8.48c-1.94.14-3.87.3-5.81.46-6.76.56-13.74,1.14-20.61,1.14ZM39.1,211a1.9,1.9,0,0,0-1.4.48c-4.26,4.09-9.23,9.86-9.69,18.05-.45,6.94,2.23,13,8.69,19.55,5.44,5.54,12.23,10.27,21.36,14.9,14.07,7.12,30.31,12.92,51.1,18.27a526.54,526.54,0,0,0,77.65,13.93c19.74,2.13,36.32,3.76,53,4.8,14.16.92,28.53,1.35,41.2,1.72,5.31.16,10.38.31,15.12.48,5.44-.12,10.39-.21,15.06-.29,10-.18,18.61-.33,27.33-.81h.3c17.76-.89,36.12-1.8,54-3.49,17.7-1.65,35.18-4.22,51.56-6.71a409.15,409.15,0,0,0,72.17-17.24c11.29-3.91,24.45-9,36.54-17.22,5.35-3.62,11.36-8.24,15.4-15,3.13-5.18,4.15-9.86,3.22-14.71-1.24-7-5.49-12.16-9.06-15.9a2.5,2.5,0,0,0-1.87-.95,3.73,3.73,0,0,0-2.11.91c-1,.72-1.9,1.42-2.83,2.13-2.39,1.81-4.86,3.68-7.43,5.25-14.32,8.87-29.66,14.18-42.77,18.2a439.62,439.62,0,0,1-70.05,15.26c-18.9,2.55-38.44,5.18-58.13,6.6s-40.62,2.43-66.05,2.89c-3.42.06-7,.09-10.68.09-13,0-25.88-.35-41.27-.89-12.25-.41-28.35-1.08-44.24-2.59-16.14-1.57-33.21-3.67-55.35-6.8a399.4,399.4,0,0,1-52.87-11C86.54,235.21,61,228.06,40.84,211.54A3,3,0,0,0,39.1,211Z"/><path d="M243.57,230.92c-5.86-.6-11.86-1.11-17.66-1.6-1-.06-1.4-.33-1.4-1.71a179.32,179.32,0,0,1,2.68-38,175.91,175.91,0,0,1,24.57-62.84,138.72,138.72,0,0,1,12.9-18.08c20.84-23.56,44.13-40,71.21-50.42a177.32,177.32,0,0,1,49-11.14c7.16-.64,12.63-.93,17.75-.93,3.13,0,6,.11,8.89.33a167.22,167.22,0,0,1,49.31,11c39.42,15.55,69.9,42.22,90.6,79.26a173.72,173.72,0,0,1,17.07,44.83V182h-.18c-.33,0-.65,0-1,0a3.73,3.73,0,0,1-.74-.06,24.3,24.3,0,0,0-6.32-.88,20.91,20.91,0,0,0-11.83,3.73c-.5-1.82-1-3.59-1.51-5.35A155.16,155.16,0,0,0,428,69.13a147.12,147.12,0,0,0-28.76-2.77c-4,0-8.16.15-12.31.46a154.37,154.37,0,0,0-135.78,108.9,143,143,0,0,0-6.55,41.09c0,1.08,0,2.15,0,3.23,0,3.18,0,6.47.11,9.72,0,.79-.1,1-.13,1a1.2,1.2,0,0,1-.73.14Z"/><path d="M53.2,187.7c-.72-.35-1.42-.69-2.11-1.06-3.94-1.93-8.64-3.88-14-3.88q-.8,0-1.59.06l-.47,0a1.52,1.52,0,0,1-1-.23c-.1-.12-.25-.49-.08-1.66a126.22,126.22,0,0,1,8-32.36c14.35-35.17,38.86-59.85,72.84-73.35a128.16,128.16,0,0,1,47.67-9c4.1,0,8.29.18,12.47.54,17.83,1.59,33.34,6,47.42,13.39a133.4,133.4,0,0,1,33.76,25l.12.15c.72.79.74.82.28,1.47-2.83,3.82-5.66,7.75-8.39,11.56-1,1.42-2,2.83-3.05,4.25-24.41-24.58-51.31-37-80-37a114.76,114.76,0,0,0-37.49,6.67C84.76,107.12,59.7,139.22,53.2,187.7Z"/><path d="M468.77,126.1a6.77,6.77,0,0,1-1-.08,14.89,14.89,0,0,1-5.43-2.26,117.08,117.08,0,0,0-38-16.32c-.78-.17-1.56-.32-2.33-.47a41.39,41.39,0,0,1-4.5-1,8.36,8.36,0,0,1-5.89-8.15,7.64,7.64,0,0,1,8-7.81,10,10,0,0,1,2,.2c4.09.81,9.48,2,14.82,3.48a127.85,127.85,0,0,1,36.5,17.46,8.13,8.13,0,0,1,3,9.83A7.92,7.92,0,0,1,468.77,126.1Z"/><path d="M224.25,146.14a9.53,9.53,0,0,1-6.37-2.57,141.16,141.16,0,0,0-13.4-11.08c-7.72-5.46-16.78-9.14-27.68-11.26a8.16,8.16,0,0,1-6.4-8.6,8,8,0,0,1,8.28-7.42h.23a1,1,0,0,0,.7-.28,1,1,0,0,0,.19-.26c1.67.51,3.35,1,5,1.49,4.36,1.27,8.87,2.58,13.1,4.28a89.14,89.14,0,0,1,31.35,21.17c2.86,2.85,3.6,5.94,2.28,9.45A7.7,7.7,0,0,1,224.25,146.14Z"/><path d="M502.51,160.71a8.88,8.88,0,0,1-6.92-3.62c-3.78-5-7.73-10-11.7-15-3-3.83-2.8-8.81.5-11.84a8.15,8.15,0,0,1,5.42-2.1,8,8,0,0,1,6.23,3c4.76,5.59,9.29,11.63,13.17,16.86a7.54,7.54,0,0,1,.33,8.8A7.86,7.86,0,0,1,502.51,160.71Z"/><path d="M132.39,125.71a8.4,8.4,0,0,1-8.4-7.08,8.06,8.06,0,0,1,5.15-8.57c4.16-1.39,9.67-3.17,15.31-4.58a7.77,7.77,0,0,1,1.8-.21,8,8,0,0,1,7.51,5.45c1.41,4.24-.39,8.61-4.09,10s-7.5,2.48-11.23,3.52c-1.61.44-3.22.89-4.81,1.36a2,2,0,0,1-.67.11A3.77,3.77,0,0,0,132.39,125.71Z"/></svg>