<?xml version="1.0" encoding="utf-8"?>
<!-- Generator: Adobe Illustrator 23.0.2, SVG Export Plug-In . SVG Version: 6.00 Build 0)  -->
<svg version="1.1" id="Layer_1" xmlns="http://www.w3.org/2000/svg" xmlns:xlink="http://www.w3.org/1999/xlink" x="0px" y="0px"
	 viewBox="0 0 600 600" style="enable-background:new 0 0 600 600;" xml:space="preserve">
<g>
	<path d="M539.5,288.5c-1.2,0.4-2,0.7-2.9,1c-19.3,7.9-39.2,13.6-59.6,17.5c-19.2,3.7-38.6,7-58,9.6c-24.2,3.3-48.5,5.3-72.9,6
		c-22.7,0.6-45.4,1.1-68.1,0.9c-17.3-0.2-34.7-1.1-51.9-2.4c-19.2-1.5-38.4-3.8-57.5-6.1c-20.6-2.5-41-6.4-61.1-11.4
		c-15.7-3.9-30.9-9.3-46.2-14.8c-14.2-5.1-26.1-13.4-37.3-23c-9.7-8.2-15.9-18.7-17.1-31.7c-0.9-9.3,1.3-18,6.3-25.9
		c2.9-4.6,6.3-8.9,10.2-12.7c6-5.8,13.5-6.3,21.2-3.7c3.1,1.1,6.3,2.4,9.1,4.2c19.4,12.4,40.6,20,62.8,25.2
		c16.4,3.8,32.9,7.1,49.5,10c12.3,2.1,24.8,3.3,37.3,4.7c9.9,1.1,19.9,2.1,29.9,2.8c9.9,0.7,19.8,1.2,29.7,1.4
		c19.8,0.3,39.6,0.7,59.3,0.4c20.6-0.4,41.1-1.5,61.7-2.7c8.7-0.5,17.4-2,26.1-3.2c13.7-2,27.4-3.8,41-6.2
		c22.8-4.1,45.4-9.4,67.1-17.9c9.1-3.6,17.9-7.7,25.9-13.5c4.9-3.5,10.3-5.9,16.3-6.9c5.2-0.9,10,0.2,14,3.4
		c9.3,7.7,15.9,17.2,18.2,29.2c2.4,12.7-0.8,24.2-8.5,34.5c-4.8,6.4-10.8,11.7-17.4,16.2c-1.6,1.1-2.4,2.4-2.7,4.3
		c-2,13.1-4,26.2-6,39.3c-1,6.2-1.8,12.4-2.8,18.6c-1.8,10.9-3.7,21.8-5.4,32.7c-2.5,15.7-4.7,31.4-7.3,47
		c-2.5,15.1-3.6,30.4-8.3,45c-5.5,17.1-14.2,32.1-29.8,41.8c-9,5.6-18.4,10.7-28,15.4c-25.2,12.4-51.8,21-79.3,27
		c-18.9,4.2-38,7.1-57.4,8.5c-9.2,0.7-18.5,1.7-27.8,1.6c-17-0.1-34-0.7-51-1.6c-16-0.9-31.9-3.3-47.6-6.4
		c-41.3-8.1-80.5-21.7-116.5-43.8c-12.7-7.8-21.1-19.1-27-32.5c-4.9-10.9-7.1-22.4-8.8-34.1c-1.7-11.7-3.6-23.5-5.4-35.2
		c-1.8-11.5-3.6-23-5.4-34.5c-1.8-11.8-3.8-23.6-5.5-35.4c-0.4-2.9-0.8-6-0.3-8.9c0.7-4.6,4.8-7.6,9.5-8.1c4-0.4,8.6,2.2,10.3,6.1
		c1.1,2.5,1.9,5.2,2.4,7.8c3.5,21.8,6.9,43.7,10.3,65.5c2.5,16.4,4.9,32.8,7.7,49.2c2,12,6.4,23,14.1,32.6c5,6.3,11.9,10,18.7,13.9
		c26.8,15.2,55.4,25.9,85.4,32.5c15.1,3.3,30.5,6,45.9,8c19.1,2.6,38.4,3.5,57.7,2.8c12.9-0.5,25.9-0.8,38.7-2.1
		c42.4-4.2,83.3-14.2,121.8-32.9c8.5-4.1,16.7-8.8,24.8-13.6c10.4-6.2,16-16.1,20.2-27c3.6-9.4,4.7-19.4,6.2-29.3c2.1-13,4-26,6-39
		c2.3-14.8,4.5-29.6,6.8-44.3c1.9-12,4-24,6-36.1c0.9-5.7,1.8-11.4,2.7-17.1C539.6,290.5,539.5,289.8,539.5,288.5z M296.2,302
		c16.8-0.4,29.5-0.4,42.3-1.1c18.1-0.9,36.3-1.8,54.3-3.5c17.2-1.6,34.4-4.1,51.5-6.7c24.5-3.7,48.6-9.2,72-17.2
		c12.7-4.4,25.1-9.5,36.3-17.1c5.9-4,11.4-8.5,15.1-14.7c2.6-4.3,4.1-8.8,3.1-14c-1.1-6.2-4.6-11-8.8-15.4c-1-1.1-1.7-0.6-2.7,0.1
		c-3.4,2.5-6.7,5.2-10.3,7.4c-13.4,8.3-28,13.7-43,18.3c-23,7.1-46.4,12-70.2,15.3c-19.3,2.6-38.7,5.2-58.2,6.6
		c-22,1.7-44,2.5-66.1,2.9c-17.3,0.3-34.7-0.2-52-0.8c-14.8-0.5-29.6-1.2-44.3-2.6c-18.5-1.8-37-4.2-55.4-6.8
		c-17.9-2.5-35.6-6.1-53-11c-23.6-6.6-47.1-13.6-66.6-29.6c-0.4-0.3-1.5-0.4-1.8-0.1c-5,4.8-9,10.2-9.4,17.4
		c-0.5,7.7,3.3,13.6,8.4,18.8c6.1,6.2,13.4,10.8,21.1,14.7c16.2,8.2,33.4,13.7,50.9,18.2c25.5,6.6,51.3,11.2,77.5,13.9
		c17.6,1.9,35.3,3.7,53,4.8C259.9,301.1,280,301.4,296.2,302z"/>
	<path d="M569.5,182.7c-1.1,0-2.2,0.2-3.1,0c-6.3-1.7-12.1-0.9-17.5,2.8c-0.3,0.2-0.6,0.2-1.1,0.4c-0.6-2.2-1.2-4.3-1.8-6.4
		c-8.9-31.5-26.1-57.6-51.5-78.3c-19.6-16-41.9-26.3-66.7-31.3c-13.5-2.7-27.1-3.3-40.8-2.3c-31.8,2.5-60.1,13.8-84.8,33.8
		c-24.2,19.7-40.9,44.6-50.1,74.4c-4.1,13.3-6.4,26.9-6.5,40.8c0,4.3-0.1,8.6,0.1,12.9c0.1,1.7-0.5,2.3-2.2,2.2
		c-5.9-0.6-11.8-1.1-17.7-1.6c-1.8-0.1-2.3-1.1-2.3-2.7c-0.4-12.8,0.4-25.5,2.7-38.2c4.1-22.7,12.4-43.7,24.7-63.2
		c4-6.4,8.1-12.6,13-18.2c19.9-22.5,43.4-39.9,71.6-50.7c15.9-6.1,32.3-9.8,49.3-11.2c8.9-0.8,17.8-1.3,26.8-0.6
		c17.1,1.3,33.6,4.8,49.6,11.1c39.8,15.7,70.2,42.3,91.1,79.7c7.9,14.2,13.5,29.4,17.2,45.2C569.5,181.8,569.5,182.1,569.5,182.7z"
		/>
	<path d="M245.1,123.8C212,90.1,173,77.4,128,93c-44.8,15.5-68.1,49.2-74,96c-1.2-0.6-2.3-1.1-3.4-1.7c-4.7-2.3-9.6-4.1-15-3.7
		c-2.5,0.2-2.9-0.9-2.6-3c1.3-11.2,3.9-22.1,8.1-32.6c14.2-34.8,38.4-60,73.4-73.9c19.3-7.7,39.7-10.3,60.6-8.5
		c16.8,1.5,32.8,5.6,47.8,13.5c12.7,6.6,24,15,34,25.2c0.8,0.9,1.5,1.5,0.5,2.9c-4,5.4-7.9,10.9-11.8,16.3
		C245.4,123.7,245.2,123.7,245.1,123.8z"/>
	<path d="M410.6,97.6c0-5.9,5-9.8,11.2-8.6c5,1,10,2.1,14.9,3.5c13.2,3.9,25.5,9.8,36.8,17.6c3.7,2.5,4.9,6.9,3.4,11
		c-1.4,3.7-5.3,6.3-9.3,5.7c-2-0.3-4-1.3-5.8-2.4c-11.6-7.6-24.2-13.1-37.7-16.2c-2.3-0.5-4.6-0.8-6.9-1.5
		C413.3,105.6,410.6,101.9,410.6,97.6z"/>
	<path d="M179.1,103.2c6.4,2,13,3.6,19.2,6.1c12.1,4.7,22.6,12.1,31.7,21.4c3,3,4,6.5,2.5,10.5c-2.4,6.3-10.1,7.6-15.3,2.9
		c-4.3-3.9-8.6-7.7-13.3-11c-8.2-5.8-17.5-9.2-27.3-11.1c-4.5-0.9-7.7-5.4-7.2-9.7c0.6-5.1,4.4-8.4,9.5-8.3
		C178.9,103.7,179,103.5,179.1,103.2z"/>
	<path d="M502.5,161.5c-3.2-0.1-5.7-1.5-7.7-4c-3.8-5-7.7-10-11.7-15c-3.3-4.2-3.1-9.8,0.6-13.2c3.8-3.4,9.6-3.2,13.1,1
		c4.6,5.4,8.9,11.1,13.2,16.9c2.3,3.1,2.3,6.6,0.4,9.9C508.7,160,505.9,161.4,502.5,161.5z"/>
	<path d="M132.5,126.5c-4.9,0-8.6-3.2-9.5-7.9c-0.7-3.8,1.8-8.3,5.8-9.7c5.1-1.7,10.2-3.3,15.4-4.6c4.5-1.1,9.1,1.6,10.5,5.9
		c1.5,4.5-0.3,9.6-4.7,11.2c-5.2,2-10.7,3.3-16.1,4.9C133.4,126.5,132.8,126.4,132.5,126.5z"/>
</g>
</svg>
