<?xml version="1.0" encoding="utf-8"?>
<!-- Generator: Adobe Illustrator 23.0.2, SVG Export Plug-In . SVG Version: 6.00 Build 0)  -->
<svg version="1.1" id="Layer_1" xmlns="http://www.w3.org/2000/svg" xmlns:xlink="http://www.w3.org/1999/xlink" x="0px" y="0px"
	 viewBox="0 0 600 600" style="enable-background:new 0 0 600 600;" xml:space="preserve">
<g>
	<path d="M377.3,77.5c-1.4,6.9-1.8,13.5-0.8,20.5c-1,0-1.9,0-2.8,0c-6.3-0.3-12.6-0.6-18.9-1c-29.2-1.5-58.5-1-87.7-0.8
		c-9.6,0.1-19.3,0.5-28.9,1c-7.2,0.3-14.4,0.9-21.6,1.4c-7.5,0.6-15.1,1.2-22.6,2c-7.8,0.8-15.7,1.7-23.5,2.9
		c-11.8,1.8-23.6,3.6-35.4,5.7c-7.7,1.4-15.3,3.1-22.8,5c-6.4,1.6-12.7,3.8-19,5.8c-3.2,1.1-6.3,2.6-9,4.7c-3.3,2.5-3.3,3.7,0.1,6.1
		c4.2,3,8.8,5,13.6,6.8c9.3,3.5,19,6,28.7,8c6,1.3,12,2.5,18.1,3.6c6,1.1,12.1,2,18.2,2.9c5.3,0.8,10.7,1.6,16,2.3
		c5.1,0.6,10.2,1.1,15.3,1.6c6.3,0.6,12.6,1.2,18.8,1.7c2.7,0.2,5.5,0.5,8.2,0.7c3.8,0.2,7.6,0.4,11.4,0.6
		c9.5,0.5,18.9,0.9,28.4,1.4c0.2,0,0.5,0,0.7,0c18.7,0.2,37.4,0.4,56.1,0.5c7.7,0,15.5-0.2,23.2-0.5c7.2-0.3,14.4-0.9,21.6-1.2
		c3.1-0.2,7.5-0.4,8.1-0.9c9.1-13.3,18-26.3,27-39.5c-0.4-0.7-0.7-1.4-1.2-2c-3.7-4.9-6.2-10.4-7.9-16.3c-2.1-7.2-2.3-14.5-0.1-21.6
		c2-6.5,5.1-12.6,9.9-17.7c4.5-4.8,9.5-8.8,15.6-11.4c3.8-1.6,7.7-2.6,11.8-3c6-0.7,11.9-0.2,17.8,1.4c2.3,0.6,2.6,0.4,4.1-1.7
		c7.8-11.3,15.7-22.5,23.5-33.7c1.3-1.9,2.9-3.5,5.2-4.4c2.9-1.1,5.7-0.9,8.2,0.5c3.2,1.8,5.5,4.4,5.5,8.5c0,2.7-0.5,5-2.1,7.3
		c-7.8,11.3-15.5,22.6-23.2,34c-0.2,0.3-0.5,0.6-0.8,1c-0.5-0.1-0.9-0.2-1.7-0.5c1.1,1.4,1.9,2.4,2.8,3.5c4.6,5.6,7.8,11.9,8.9,19.2
		c0.6,3.8,1.3,7.7,1.4,11.6c0,5.6-1.4,11-4.2,15.7c-5.8,10-13.5,18.1-24.7,22.1c-3.9,1.4-8,2.3-12.2,2.3c-5.7,0.1-11.3-0.1-16.8-1.8
		c-0.8-0.2-1.6-0.2-2.4-0.3c-6,8.3-11.8,16.7-17.6,25.6c2.2-0.1,3.9-0.2,5.6-0.4c6.2-0.7,12.3-1.5,18.5-2.3
		c6.9-0.9,13.8-1.7,20.7-2.7c6.4-1,12.8-2.1,19.1-3.4c6.4-1.3,12.9-2.5,19.2-4.1c8-2,15.9-4.2,23.7-6.6c4-1.2,7.7-3,11.1-5.5
		c0.3-0.2,0.5-0.4,0.8-0.6c2.7-2.2,2.8-3.9-0.1-6c-2.4-1.7-5-3.3-7.7-4.5c-7.6-3.2-15.5-5.4-23.5-7.3c-0.7-0.2-1.4-0.4-2.3-0.7
		c2.8-6.2,4.1-12.7,4.9-19.6c0.7,0,1.4,0,1.9,0.1c11.2,3,22.1,6.5,32.4,11.9c5.1,2.7,9.7,6.1,13.4,10.6c1.8,2.2,3.1,4.6,3.6,7.5
		c0.4,2.1,1,4.2,0.7,6.4c-0.7,4.1-1.7,8.1-4.6,11.3c-4.2,4.7-8.2,9.6-12.5,14.3c-8.6,9.6-17.3,19.1-26,28.6
		c-12.8,14.1-25.7,28.1-38.5,42.1c-8.7,9.5-17.4,19-26,28.5c-8.7,9.5-17.4,19-26,28.5c-8.7,9.5-17.4,19-26,28.5
		c-8.6,9.5-17.2,18.9-25.9,28.4c-6.9,7.6-13.8,15.1-20.7,22.6c-1,1-1.5,2.1-1.4,3.6c0,0.5,0,1,0,1.5c0,44.1,0,88.3,0,132.4
		c0,7,0.2,14,0.3,20.9c0,2.2,0.5,2.6,2.6,2.8c7.3,0.9,14.7,1.5,22,2.7c12.6,2,24.9,4.8,36.7,9.9c5.3,2.3,10.1,5.3,13.9,9.9
		c1.9,2.3,3,4.9,2.8,8c-0.2,2.4-0.1,4.8,0,7.2c0.2,2.4-0.7,4.4-2,6.2c-2.7,3.8-6.2,6.7-10.2,9c-8.5,4.8-17.6,7.8-27.1,9.8
		c-7.6,1.6-15.3,2.8-23.1,3.9c-4.6,0.7-9.2,1-13.9,1.1c-10.8,0.4-21.6,0.9-32.4,0.8c-8.3,0-16.6-0.7-24.9-1.2
		c-5.9-0.4-11.8-0.9-17.6-1.6c-6.7-0.8-13.5-1.9-20.2-3.1c-8.5-1.6-16.8-3.8-24.9-6.9c-4.7-1.8-9.2-3.9-13.1-7.1
		c-1.7-1.3-3.3-2.9-4.6-4.5c-1.8-2.3-3.1-4.9-2.7-8c0.2-1.8,0.1-3.7,0-5.5c-0.2-3.6,1.3-6.4,3.6-9c2.7-3,6-5.3,9.5-7.2
		c6.4-3.5,13.3-5.6,20.3-7.5c9.5-2.5,19.1-4.2,28.8-5.7c4.4-0.7,8.9-0.9,13.4-1.3c1.7-0.2,3.5-0.4,5.2-0.5c1.1-0.1,1.7-0.6,1.7-1.7
		c0-0.7,0-1.3,0-2c0-50.8,0-101.6,0-152.3c0-2.1-0.6-3.7-2.1-5.3c-11.2-11.6-22.3-23.3-33.4-35c-9.2-9.7-18.4-19.4-27.6-29.1
		c-12.5-13.2-25.1-26.4-37.6-39.6c-9.4-9.9-18.8-19.8-28.1-29.6c-9.2-9.7-18.4-19.4-27.6-29.1c-8.9-9.3-17.8-18.7-26.6-28
		c-8.2-8.8-16.4-17.6-24.6-26.5c-1.5-1.6-2.9-3.4-4.2-5.2c-2.9-4.1-4-9-3.9-13.9c0.1-2.9,1.2-5.8,2.8-8.4c2.8-4.4,6.8-7.5,11.1-10.2
		c7-4.3,14.4-7.4,22.2-10c11-3.7,22.4-6.2,33.7-8.6c8.1-1.7,16.3-3.2,24.5-4.5c7-1.1,14-1.8,21-2.7c4.7-0.6,9.4-1.2,14.1-1.7
		c4.9-0.5,9.8-0.9,14.6-1.3c4.9-0.4,9.8-0.8,14.6-1.2c3.3-0.3,6.6-0.5,9.9-0.7c3.7-0.2,7.5-0.4,11.2-0.5c14-0.6,28.1-1.1,42.1-1
		c17.5,0.1,35.1,0,52.6,0.2c8.7,0.1,17.4,0.5,26.1,0.9c5,0.2,9.9,0.6,14.9,1C376.3,77.3,376.6,77.3,377.3,77.5z M117.1,165
		c-0.1,0.1-0.2,0.3-0.3,0.4c0.3,0.5,0.6,1.1,1,1.5c1.5,1.7,3.1,3.4,4.7,5.1c6,6.3,12,12.7,18,19c12.7,13.4,25.4,26.8,38.1,40.1
		c8.6,9.1,17.2,18.2,25.9,27.3c9.8,10.3,19.6,20.6,29.4,30.9c5.7,6,11.3,11.9,17,17.9c11,11.7,22,23.4,33,35
		c2.5,2.6,4.5,5.5,6.2,8.7c4.7,8.9,6.9,18.5,6.9,28.5c0,51.4,0,102.9,0.1,154.3c0,2.6-0.9,4.5-2.6,6.2c-2.2,2.3-4.9,3.3-8,3.5
		c-5.9,0.4-11.8,0.6-17.6,1.1c-6.1,0.6-12.2,1.3-18.3,2.3c-5.8,1-11.6,2.2-17.3,3.7c-5.4,1.4-10.6,3.2-15.9,4.8
		c-1,0.3-2.1,0.6-2.7,2c0.7,0.4,1.3,0.9,2.1,1.2c2.6,1,5.3,2,8,2.8c12.7,3.6,25.6,6.2,38.8,7.6c9,0.9,18,1.7,27.1,1.9
		c16.1,0.4,32.2,0.5,48.3-0.8c11.2-0.9,22.3-2.5,33.1-5.6c5.1-1.5,10-3.5,15-5.3c1-0.4,2.2-0.8,2.7-2.3c-0.9-0.5-1.6-1.1-2.5-1.4
		c-4.1-1.4-8.2-2.8-12.3-3.9c-8.4-2.3-16.9-4.2-25.5-5.4c-4.2-0.6-8.4-1.2-12.6-1.5c-5.2-0.5-10.4-0.7-15.6-1.2
		c-4.9-0.5-9.7-4-9.7-10.5c0.2-51,0.1-102.1,0.1-153.1c0-6.6,0.7-13.1,2.6-19.4c1.8-6.3,4.6-12.1,9-17c5.3-5.9,10.6-11.9,15.9-17.8
		c13.8-15.2,27.6-30.3,41.5-45.5c8.2-9,16.4-18.1,24.7-27.1c10.6-11.6,21.2-23.2,31.8-34.8c11-12,22-24,32.9-36.1
		c4.8-5.2,9.5-10.4,14.3-15.7c0.5-0.5,0.8-1.1,1.2-1.7c-0.1-0.2-0.2-0.3-0.3-0.5c-0.9,0.1-1.7,0.2-2.6,0.3
		c-4.1,0.9-8.2,1.9-12.4,2.7c-6.6,1.3-13.2,2.5-19.8,3.6c-6.5,1.1-13.1,2-19.7,2.9c-4.6,0.6-9.2,1.1-13.8,1.6
		c-4.2,0.5-8.4,0.8-12.6,1.2c-6,0.6-12,1.3-18.1,1.8c-5.3,0.4-10.6,0.8-15.9,1c-12,0.6-24.1,1.3-36.1,1.5
		c-18.8,0.3-37.6,0.1-56.4,0.1c-10.1,0-20.1-0.4-30.2-0.6c-0.4,0-0.8,0-1.2-0.1c-6.7-0.4-13.4-0.9-20.1-1.3
		c-3.9-0.2-7.8-0.4-11.7-0.7c-2.6-0.2-5.1-0.3-7.7-0.6c-5.7-0.6-11.4-1.2-17.1-1.8c-6.5-0.7-13-1.3-19.5-2.1
		c-6.4-0.8-12.8-1.8-19.2-2.9c-9-1.5-17.9-3.3-26.9-4.9C121.5,166,119.3,165.5,117.1,165z M453.6,92.2c2.3-9.2-6-21.5-15.7-24.1
		c-14.5-3.9-25.5,5.1-28.4,15.7c-3.9,14.3,5.1,24.6,15,27.9c9.9,3.3,21.2-1.2,24.9-8.9c-0.9,0.6-1.5,1-2.2,1.4
		c-8,5.4-18.4,0.4-20.3-8c-1.4-6.5,2.4-13.9,9.8-15.9c6.5-1.7,14.6,2.7,15.8,9.3C452.7,90.4,453.1,91.1,453.6,92.2z"/>
	<path d="M161.4,198c2.5-1.7,5.2-2.8,7.9-3.7c11.9-3.8,23.6-3,34.9,2.4c5.5,2.7,10.1,6.7,14.4,11c2.9,2.8,5.6,5.7,8.5,8.4
		c8,7.6,20.8,7.7,28.9,0c2.5-2.3,4.9-4.8,7.3-7.2c4.3-4.3,8.7-8.4,14.1-11.4c5.1-2.8,10.5-4.4,16.3-5.2c5.3-0.7,10.6-0.3,15.8,0.8
		c7,1.5,13.2,4.6,18.5,9.2c3.5,3,6.6,6.3,9.9,9.4c1.9,1.8,3.8,3.8,5.8,5.4c8.1,6.5,20.2,6.3,28.2-1.6c3.6-3.5,7-7.1,10.6-10.5
		c4-3.9,8.5-7.1,13.7-9.4c7.3-3.1,14.9-4.4,22.9-3.5c6.2,0.7,12,2.4,17.5,5.4c0.8,0.4,1.6,0.9,2.3,1.4c0.2,0.1,0.3,0.4,0.6,0.7
		c-1.1,1.3-2.2,2.6-3.4,3.9c-3.7,4.1-7.5,8.2-11.2,12.4c-1.1,1.2-2,1.6-3.8,1.1c-6.7-1.9-13.2-1.4-18.9,3c-2.5,1.9-4.7,4.2-7,6.4
		c-4.2,4.1-8.2,8.4-13.1,11.8c-6.3,4.3-13.2,6.5-20.6,7.3c-8,0.9-15.7-0.5-23.1-3.7c-4.2-1.8-8-4.4-11.4-7.5
		c-2.9-2.6-5.6-5.4-8.4-8.1c-2.2-2.1-4.3-4.2-6.6-6.1c-7.4-6.1-19.8-5.7-27.2,1.5c-3,2.9-6,6-9,8.9c-3.7,3.7-7.7,7-12.3,9.6
		c-5.3,3-11,4.6-17,5.2c-8,0.9-15.7-0.3-23.1-3.5c-5.3-2.3-9.9-5.7-14.1-9.7c-3.4-3.2-6.6-6.6-9.9-9.8c-3.2-3-6.8-5.5-11.2-6.1
		c-2.6-0.3-5.3-0.2-7.9-0.1c-0.8,0-1.4,0.1-2-0.5c-5.4-5.7-10.8-11.3-16.1-17C161.7,198.7,161.6,198.4,161.4,198z"/>
</g>
</svg>
