<svg id="Layer_1" data-name="Layer 1" xmlns="http://www.w3.org/2000/svg" viewBox="0 0 600 600"><title>11-martini</title><path d="M304.4,591.36h-2.83c-6.43,0-13-.43-19.3-.85l-5.55-.35c-6.64-.45-12.38-1-17.54-1.6-5.9-.7-12.3-1.68-20.14-3.09a141.85,141.85,0,0,1-24.72-6.85,45.11,45.11,0,0,1-12.82-6.94,26.93,26.93,0,0,1-4.46-4.35c-2-2.56-2.79-4.86-2.49-7.25a33.68,33.68,0,0,0,0-5.68c-.16-2.92.87-5.48,3.35-8.28a33.9,33.9,0,0,1,9.23-7c6.57-3.6,13.81-5.72,20.08-7.42a283.3,283.3,0,0,1,28.7-5.68c3.12-.49,6.37-.74,9.51-1,1.27-.1,2.55-.19,3.82-.31,1.61-.19,3.44-.39,5.17-.49a2.58,2.58,0,0,0,2.64-2.7V367.25a8.19,8.19,0,0,0-2.37-6c-11.26-11.66-22.52-23.53-33.4-35l-27.6-29.1q-9.41-9.93-18.85-19.85t-18.75-19.75L148,228l-27.6-29.1c-8.75-9.14-17.58-18.46-26.6-28-8-8.62-16.34-17.54-24.59-26.49a52,52,0,0,1-4.13-5.11A22.07,22.07,0,0,1,61.36,126a16.67,16.67,0,0,1,2.65-7.9c2.92-4.59,7.3-7.69,10.78-9.88a103.47,103.47,0,0,1,22-9.89c10.71-3.61,21.55-6,33.59-8.58,7.94-1.66,16.17-3.17,24.45-4.49,4.65-.73,9.38-1.29,14-1.84q3.5-.4,7-.85c4.6-.59,9.37-1.2,14.08-1.7,4.52-.46,9.09-.84,13.51-1.21l1.07-.09,14.6-1.2c3.27-.29,6.6-.5,9.82-.69,3.88-.21,7.62-.41,11.22-.5,12.28-.53,25.42-1,38.44-1l3.63,0c7,0,14,0,21,0,10.35,0,21.06,0,31.55.15,8.67.1,17.49.5,26,.89,4.84.2,9.45.57,14.33,1l.58,0h.41a59.48,59.48,0,0,0-.77,18.7h-1.66c-6.13-.3-12.52-.6-18.83-1-13.88-.71-29.14-1-48.05-1-9.45,0-19,.08-28.32.16l-11.4.09c-8.3.08-17.49.4-28.95,1-5.4.22-10.9.62-16.22,1l-5.4.39-.83.07c-7.16.57-14.56,1.16-21.8,1.93-6.5.67-15.05,1.6-23.55,2.91-11.64,1.77-23.63,3.6-35.42,5.7-7.33,1.33-14.81,3-22.87,5-4.9,1.22-9.79,2.81-14.53,4.35L93,119a32.21,32.21,0,0,0-9.31,4.87c-1.72,1.3-2.87,2.47-2.85,3.9s1.21,2.55,3,3.8a58.93,58.93,0,0,0,13.82,6.92,191.74,191.74,0,0,0,28.85,8.05c6.23,1.35,12.16,2.53,18.12,3.6s12.23,2,18.24,2.91c5.15.77,10.67,1.59,16,2.3,5.13.6,10.32,1.11,15.33,1.6,6.21.59,12.61,1.2,18.82,1.7,1.35.1,2.72.23,4.09.35s2.76.25,4.12.35l11.42.6q7.13.38,14.2.71c4.73.22,9.45.44,14.2.69h.75c18.41.19,37.41.4,56.1.5,7,0,14.6-.17,23.24-.5,3.61-.16,7.28-.38,10.83-.61s7.19-.45,10.77-.59l1.29-.08c5.06-.31,6.75-.5,7.41-1a1,1,0,0,0,.19-.21l4-5.85c7.72-11.28,15.32-22.39,23-33.65a1,1,0,0,0,0-1.06c-.11-.19-.21-.38-.31-.57a9.3,9.3,0,0,0-1-1.57,48.19,48.19,0,0,1-7.71-15.94,36,36,0,0,1-.1-21,43.08,43.08,0,0,1,9.67-17.31c5-5.29,9.81-8.84,15.26-11.16A39,39,0,0,1,426,47.74a45.59,45.59,0,0,1,5.2-.3,46.79,46.79,0,0,1,12.24,1.67,7.8,7.8,0,0,0,1.92.33c1.53,0,2.29-1.06,3.26-2.41,4.92-7.13,9.94-14.31,14.8-21.26q4.37-6.22,8.7-12.45a10.2,10.2,0,0,1,4.75-4,9.33,9.33,0,0,1,3.3-.64,8.1,8.1,0,0,1,4,1.08c3.41,1.91,5,4.34,5,7.63a10.94,10.94,0,0,1-1.92,6.73c-7.36,10.66-14.95,21.79-23.21,34a3.71,3.71,0,0,1-.33.41l0,0c-.25-.07-.55-.16-1-.32a1,1,0,0,0-.35-.06,1,1,0,0,0-.78,1.61c1.1,1.41,1.9,2.41,2.81,3.52A37.89,37.89,0,0,1,473.07,82l.23,1.42a75.25,75.25,0,0,1,1.16,10,29.56,29.56,0,0,1-4.06,15.16c-6.41,11.07-14.32,18.16-24.17,21.67a34.86,34.86,0,0,1-11.87,2.25l-2.25,0a48.19,48.19,0,0,1-14.25-1.78,9.83,9.83,0,0,0-1.82-.26c-.25,0-.5,0-.75-.08h-.13a1,1,0,0,0-.81.41c-6.27,8.68-12,17.07-17.63,25.64a1,1,0,0,0,.84,1.55h.05c2.23-.11,4-.21,5.67-.41,5.59-.63,11.22-1.36,16.67-2.06l1.84-.24,6.89-.88c4.53-.57,9.22-1.16,13.83-1.82,7.39-1.16,13.47-2.24,19.15-3.41l4.14-.83c5-1,10.14-2,15.11-3.28,8-2,16-4.22,23.75-6.62a37.29,37.29,0,0,0,11.4-5.65l.43-.32a2.19,2.19,0,0,1,.33-.25c1.13-.92,2.54-2.27,2.49-4,0-1.27-.85-2.44-2.56-3.68a46.41,46.41,0,0,0-7.88-4.61,152.86,152.86,0,0,0-23.68-7.36l-1.17-.34a65.37,65.37,0,0,0,4.43-18,4.54,4.54,0,0,1,.82.08c9.69,2.6,21.14,6,32.13,11.8a41.89,41.89,0,0,1,13.09,10.35,14.8,14.8,0,0,1,3.39,7c.07.39.15.77.23,1.15a14.7,14.7,0,0,1,.46,4.94c-.75,4.4-1.78,7.93-4.35,10.77-1.86,2.08-3.71,4.23-5.5,6.31-2.26,2.64-4.6,5.37-7,8-8.57,9.56-17.37,19.17-25.88,28.46l-.12.14c-8.41,9.26-17,18.62-25.29,27.68q-6.62,7.22-13.22,14.42c-8.56,9.36-17.4,19-26,28.51-8.56,9.35-17.4,19-26,28.5-8.56,9.35-17.4,19-26,28.5S362,329.87,353.33,339.37c-7,7.69-14,15.27-20.7,22.6a5.31,5.31,0,0,0-1.67,4.34V500.15c0,4.72.09,9.5.18,14.12.05,2.27.09,4.54.12,6.79,0,2.64.82,3.53,3.51,3.78,2.44.3,4.92.57,7.4.84,4.78.52,9.72,1.06,14.53,1.85,15,2.38,26.24,5.42,36.47,9.83,5.93,2.58,10.23,5.64,13.52,9.62a10.09,10.09,0,0,1,2.57,7.3,59.43,59.43,0,0,0,0,7.31,8.06,8.06,0,0,1-1.81,5.57,30.25,30.25,0,0,1-9.89,8.72,92.46,92.46,0,0,1-26.8,9.69c-8.12,1.71-16.2,2.92-23,3.89a105,105,0,0,1-13.78,1.09l-4.65.17C321.13,591,312.69,591.36,304.4,591.36ZM117.06,164a1,1,0,0,0-.71.29,3.93,3.93,0,0,0-.27.35,1.08,1.08,0,0,0-.17,1.27l.18.31a6.29,6.29,0,0,0,1,1.38c1.49,1.7,3.11,3.42,4.68,5.08q4.49,4.73,9,9.48c3,3.18,6,6.37,9,9.53,12.45,13.14,25.33,26.73,38.1,40.1,8.41,8.9,17.12,18.11,25.9,27.3l29.4,30.9,17.12,18c10.78,11.46,21.92,23.31,32.88,34.86a37.46,37.46,0,0,1,6,8.49,59.36,59.36,0,0,1,6.78,28c0,50.59,0,102.9.1,154.3a7.27,7.27,0,0,1-2.3,5.49,10.5,10.5,0,0,1-7.36,3.21c-2.34.16-4.67.28-7,.41-3.49.19-7.11.39-10.62.69-7.42.73-13.08,1.44-18.38,2.31-6.36,1.1-12.05,2.31-17.39,3.72-3.63.94-7.21,2.07-10.68,3.17-1.75.55-3.5,1.11-5.26,1.64a4.48,4.48,0,0,0-3.33,2.56,1,1,0,0,0,.43,1.26l.63.4a8.07,8.07,0,0,0,1.61.87c2.54,1,5.28,2,8.07,2.83a233.82,233.82,0,0,0,39,7.63c10.06,1,18.53,1.72,27.18,1.91,7.31.18,13.29.26,18.81.26,11,0,20.68-.35,29.59-1.07a167.58,167.58,0,0,0,33.3-5.63c3.65-1.08,7.24-2.42,10.7-3.71,1.45-.55,2.9-1.09,4.36-1.61l.2-.08a4.59,4.59,0,0,0,3.11-2.85,1,1,0,0,0-.46-1.19c-.3-.16-.57-.34-.83-.51a8,8,0,0,0-1.84-1c-4.05-1.38-8.23-2.81-12.36-3.92a202.1,202.1,0,0,0-25.62-5.42c-4.14-.6-8.43-1.21-12.67-1.51-2.59-.25-5.24-.43-7.8-.6s-5.19-.35-7.77-.6c-4.38-.45-8.8-3.56-8.8-9.5.15-38.22.13-77.13.11-114.75q0-19.19,0-38.35a65.59,65.59,0,0,1,2.56-19.12A41.09,41.09,0,0,1,324,344q4-4.42,7.95-8.89l8-8.91c13.71-15.1,27.45-30.13,41.49-45.49l8-8.74c5.47-6,11.13-12.26,16.75-18.36l31.8-34.8c10.82-11.8,22-24,32.91-36.1,4.41-4.79,8.65-9.47,13.15-14.44L485.1,167a7.48,7.48,0,0,0,1-1.35l.29-.47a1,1,0,0,0,.07-1,2.46,2.46,0,0,0-.22-.36l-.08-.14a1,1,0,0,0-.9-.55h-.11l-2.6.3-.1,0-3.83.86c-2.78.63-5.66,1.29-8.54,1.83-6.58,1.3-13.23,2.51-19.78,3.6s-13.2,2-19.67,2.9c-4.59.59-9.26,1.1-13.78,1.59-2.79.33-5.63.58-8.37.82l-4.21.38c-1.94.19-3.88.4-5.82.6-4,.43-8.15.86-12.27,1.2-5.2.39-10.57.8-15.86,1l-5.84.29c-9.93.51-20.19,1-30.23,1.21-7.06.11-14.73.16-24.14.16q-8.06,0-16.12,0t-16.13,0c-6.7,0-13.48-.18-20-.36-3.38-.09-6.75-.18-10.14-.24a4.09,4.09,0,0,1-1-.07.63.63,0,0,0-.19,0c-3.35-.2-6.71-.43-10.07-.65s-6.68-.45-10-.65c-3.83-.2-7.78-.4-11.68-.7l-2.53-.18c-1.75-.11-3.41-.22-5.13-.42L190,174.75l-6.52-.68c-4.25-.43-8.65-.88-13-1.42-5.72-.71-12-1.66-19.15-2.89-5.33-.89-10.72-1.9-15.93-2.88-3.65-.68-7.3-1.37-11-2h-.9a26.55,26.55,0,0,1-6.26-.89A.78.78,0,0,0,117.06,164Zm314-97.83c-12.25,0-20.29,9-22.58,17.36-3.92,14.38,4.9,25.53,15.65,29.12a22.6,22.6,0,0,0,7.16,1.14c8.17,0,16-4.34,18.95-10.56A1,1,0,0,0,450,102a1,1,0,0,0-1.21-.08c-.89.59-1.47,1-2.14,1.37a12.05,12.05,0,0,1-6.74,2.11,12.55,12.55,0,0,1-12.09-9.46,12.73,12.73,0,0,1,9.08-14.72,10.56,10.56,0,0,1,2.67-.33c5.67,0,11,4,11.89,8.85a10.4,10.4,0,0,0,.8,2c.12.24.24.5.37.79a1,1,0,0,0,.91.59h.09a1,1,0,0,0,.88-.75c2.38-9.52-6-22.53-16.41-25.31A27,27,0,0,0,431.08,66.12Z"/><path d="M356.7,244.71a45.06,45.06,0,0,1-17.94-3.88,39.9,39.9,0,0,1-11.12-7.32c-1.92-1.72-3.79-3.57-5.59-5.35l-2.79-2.73-1.3-1.25c-1.71-1.65-3.49-3.36-5.36-4.9a20.67,20.67,0,0,0-13.18-4.5,22.1,22.1,0,0,0-15.35,6.05c-1.51,1.45-3,3-4.51,4.46s-3,3-4.49,4.44a56.8,56.8,0,0,1-12.1,9.45,41.28,41.28,0,0,1-16.61,5.07,44.92,44.92,0,0,1-5,.29,44.07,44.07,0,0,1-17.57-3.71A47.33,47.33,0,0,1,210,231.32c-1.93-1.82-3.83-3.74-5.67-5.59-1.41-1.42-2.8-2.83-4.22-4.2-2.56-2.4-6.56-5.66-11.76-6.37a33.78,33.78,0,0,0-4.09-.21c-1.37,0-2.76.05-4,.1h-.52c-.45,0-.57-.05-.73-.21-1.75-1.85-3.52-3.71-5.29-5.56-3.5-3.67-7.11-7.46-10.62-11.23a33,33,0,0,1,6.52-2.85,47,47,0,0,1,14.31-2.31,45.79,45.79,0,0,1,19.84,4.66c5.75,2.82,10.37,7,14.13,10.8,1.25,1.21,2.45,2.43,3.65,3.64,1.57,1.59,3.2,3.23,4.87,4.79a22.08,22.08,0,0,0,30.27,0c1.88-1.73,3.73-3.6,5.52-5.41l1.8-1.81c3.83-3.83,8.39-8.18,13.88-11.23a45.5,45.5,0,0,1,15.95-5.08,39.35,39.35,0,0,1,5.25-.34,50,50,0,0,1,10.2,1.12,40.08,40.08,0,0,1,18.06,9c2.2,1.89,4.29,3.94,6.3,5.92,1.18,1.16,2.36,2.32,3.57,3.46.54.51,1.08,1,1.62,1.57,1.37,1.33,2.77,2.71,4.24,3.88a22.17,22.17,0,0,0,29.52-1.67c1.55-1.5,3.06-3,4.56-4.54,2-2,4-4,6-6a43.67,43.67,0,0,1,31-12.9A43.75,43.75,0,0,1,419,193a45.76,45.76,0,0,1,17.13,5.28,17.32,17.32,0,0,1,2.06,1.24c-.91,1.07-1.83,2.15-2.81,3.21L431.48,207c-2.42,2.67-4.93,5.42-7.37,8.19-.74.81-1.18,1-1.71,1a4,4,0,0,1-1.07-.18A26.93,26.93,0,0,0,414,214.9a20,20,0,0,0-12.46,4.25,60.44,60.44,0,0,0-5.56,5l-1.52,1.46-2.29,2.27a81,81,0,0,1-10.69,9.43,42.92,42.92,0,0,1-20.14,7.13A40.26,40.26,0,0,1,356.7,244.71Z"/></svg>