<?xml version="1.0" encoding="utf-8"?>
<!-- Generator: Adobe Illustrator 23.0.2, SVG Export Plug-In . SVG Version: 6.00 Build 0)  -->
<svg version="1.1" id="Layer_1" xmlns="http://www.w3.org/2000/svg" xmlns:xlink="http://www.w3.org/1999/xlink" x="0px" y="0px"
	 viewBox="0 0 600 600" style="enable-background:new 0 0 600 600;" xml:space="preserve">
<g>
	<path d="M124.6,490.3c-0.9-0.6-1.8-1.2-2.7-1.8c-19.7-12.1-37.6-26.4-53.4-43.4c-21.6-23.1-37.8-49.6-47.5-79.8
		c-3.1-9.6-5.5-19.3-6.7-29.3c-0.5-4-0.7-8.1-1.4-12.1c-0.7-3.6-0.8-7.2-0.8-10.8c0-3.7,1.7-6.5,5-8.2c3.1-1.6,6.5-2.4,9.9-2.7
		c1.6-0.1,3.2-0.1,4.8-0.1c128.9,0,257.7,0,386.6,0c43.6,0,87.3,0,130.9,0c6.2,0,12.5,0,18.7,0c1.9,0,3.7,0.1,5.4,1
		c3.9,2,6.1,5.2,6,9.6c-0.1,5-0.5,10-0.8,15c-0.5,8.3-1.9,16.5-3.8,24.5c-1.5,6-3.3,12-5,17.9c-1,3.5-3.3,5.9-6.9,6.8
		c-5.2,1.3-10.2-0.4-13-5c-1.4-2.3-1.4-4.8-0.8-7.4c1.2-4.6,2.6-9.2,3.6-13.8c0.9-4.4,1.6-8.9,2.1-13.4c0.5-4,0.7-8.1,1-12.2
		c0.1-0.7-0.1-1.4-0.1-2.1c-2-0.5-516.7-0.6-519.6-0.1c-0.1,0.6-0.2,1.4-0.3,2.1c-0.3,3.6,0.5,7.1,1.1,10.5
		c2.3,13.1,6,25.8,10.8,38.2c3.1,8.1,7.4,15.5,11.8,22.9c6.1,10.3,12.9,20,20.7,29.1c8.6,10,18.2,19,28.5,27.2
		c7.5,6,15.5,11.4,23.5,16.7c2.8,1.9,5.8,2.8,9.1,2.4c1.3-0.1,2.6-0.1,3.9-0.1c102.5,0,204.9,0,307.4,0c2.3,0,4.4-0.5,6.3-1.7
		c11.8-7.4,23.1-15.3,33.6-24.4c8.3-7.1,15.8-14.9,22.7-23.3c5.9-7,11.3-14.4,16.1-22.2c1.9-3.1,4.6-5,8.1-5.5
		c8.3-1,13.7,6.6,11.7,12.7c-0.4,1.4-1,2.8-1.8,4c-5.8,8.8-11.7,17.6-18.4,25.7c-6.8,8.3-14.4,15.8-22.4,22.9
		c-9.9,8.7-20.6,16.3-31.7,23.4c-3.2,2.1-6.4,4.2-9.7,6.4c0.3,0.9,0.5,1.8,0.8,2.6c1.6,4.2,2.3,8.6,2.2,13.1c0,3.2,0.1,6.5,0,9.7
		c-0.1,6.2-1.4,12-4.6,17.4c-4.7,7.8-11.5,12.8-20.2,15.4c-3.6,1.1-7.2,1.4-10.9,1.3c-93,0-186,0-279,0c-5.8,0-11.1-1.4-16.1-4
		c-9.7-4.9-15.4-12.9-17.6-23.5c-0.4-2-0.5-4.1-0.5-6.2c-0.1-3.5,0-6.9,0-10.4c-0.1-4.8,0.7-9.3,2.5-13.7c0.2-0.4,0.3-0.9,0.5-1.3
		C124.5,490.9,124.5,490.7,124.6,490.3z M295.9,495.1c-46.3,0-92.5,0-138.8,0c-1.2,0-2.3,0-3.5,0c-5.1,0.3-9.3,4.6-9.4,9.6
		c-0.1,4.2-0.1,8.3,0,12.5c0.1,4.7,3.6,8.8,8.2,9.5c1.5,0.2,3.1,0.3,4.6,0.3c87.5,0,175,0,262.6,0c5.6,0,11.2,0.1,16.9,0
		c6.1,0,10.8-4.3,11-10.1c0.1-3.9,0.1-7.9,0-11.8c-0.2-5-3.4-8.8-8.2-9.9c-1.3-0.3-2.8-0.2-4.1-0.2
		C388.8,495.1,342.3,495.1,295.9,495.1z"/>
	<path d="M426.1,296.4c-12.9,0-25.4,0-37.9,0c0.6-3,1.2-5.9,1.7-8.9c1.7-9.7,0.5-19.2-3.5-28.2c-6.4-14.5-17.2-24.7-31.3-31.6
		c-4.7-2.3-9.6-4-14.6-5.5c-0.7-0.2-1.5-0.4-2.3-0.7c0-0.9-0.1-1.7,0-2.6c1.2-7.2-0.3-14-3.9-20.2c-5.7-9.8-13.1-18-23.4-23.3
		c-6.3-3.3-13-5.4-20.1-6.1c-9.8-0.9-19.1,0.7-28.1,4.5c-10.7,4.5-18.7,12.2-24.6,22.2c-1.1,1.8-2.1,3.7-3.3,5.8
		c-4.8-5.8-10-10.8-16.4-14.6c0.4-0.8,0.7-1.4,1-2c6.7-10.8,15.1-19.8,26-26.3c7.9-4.7,16.4-7.7,25.4-9.2c5.4-0.9,10.8-1.5,16.3-1.3
		c16.1,0.4,30.9,5.1,43.8,14.9c12.6,9.5,21.6,21.5,26.5,36.6c0.6,2,1.8,3.3,3.7,4.2c7.8,3.8,15,8.4,21.7,14
		c6.8,5.8,12.6,12.4,17.1,20.1c0.7,1.1,1.3,2.2,2.1,3.5c0.6-0.6,1.1-0.9,1.5-1.4c4.2-4.8,9.2-8.6,14.7-11.7c0.6-0.3,1.2-0.7,1.8-1
		c1.5-0.8,2.2-2.1,2.2-3.8c0-2.1-0.1-4.2,0.1-6.2c0.5-7.3,2-14.3,6.1-20.5c3.9-5.8,9.1-10.2,15.1-13.6c6.8-3.8,14-6.2,21.8-6.9
		c2.1-0.2,3.6-1,4.6-3c2.6-5.2,6-9.9,10.1-14c8-8,17.6-13.1,28.8-14.8c8.8-1.4,17.5-0.5,25.7,3.1c5.1,2.2,9.7,5.3,13.8,9.1
		c3.9,3.7,7.7,7.5,10.9,11.9c5.1,7.1,8.2,14.9,9.2,23.5c0.6,4.9,0.5,9.8-0.3,14.7c-0.3,2.1,0.3,3.6,1.8,4.9
		c3.8,3.6,7.1,7.5,9.9,11.9c4.7,7.4,7.4,15.4,8.1,24.2c0.5,7-0.3,13.6-2.9,20.1c-1.9,4.8-5,8.8-8.5,12.5c-2.1,2.2-4.3,4.1-6.5,6.2
		c-0.4,0.4-0.7,0.8-1.1,1.2c0.4,2.4,0.8,4.7,1.3,7.2c-6.5,0-12.9,0-19.4,0c-0.1-0.1-0.3-0.3-0.3-0.5c-0.7-2.5-1.4-5-2.1-7.5
		c-1.2-4.8,0.1-8.5,4.1-11.5c2.7-2,5.2-4,7.3-6.6c3.9-4.8,6.3-10.3,7-16.5c1.3-12.6-3.6-22.4-13.5-30c-0.5-0.4-1-0.7-1.5-1.1
		c-4-2.8-5.8-6.9-4.6-12.8c0.7-3.1,1.5-6.3,1.8-9.5c0.5-4.6-0.3-9.1-2.3-13.3c-4.7-10.2-12.2-17.2-23.3-19.9
		c-16-3.9-31.8,4.4-37.7,19.8c-0.4,0.9-0.7,1.9-1,2.8c-1.8,4.6-5.2,6.9-10.1,7c-1.2,0-2.3,0-3.5,0c-7.3,0-13.6,2.6-19.3,7
		c-6.8,5.2-9.4,12.5-10,20.7c-0.2,2.4,0.3,4.9,0.3,7.4c0.1,3.6-0.9,6.7-3.9,8.9c-1.4,1-2.9,1.7-4.5,2.4c-8.7,4.1-15,10.5-17.8,19.8
		c-3.5,11.3-1.1,21.5,6.6,30.5C423.6,293.6,424.8,294.9,426.1,296.4z"/>
	<path d="M437.4,149.7c1.3,1.3,2.7,2.8,4.1,4.3c0.5,0.5,1,1,1.5,1.5c2.8,2.5,3.8,5.6,3.3,9.3c-0.4,3.1-0.7,6.2-1,9.2
		c-4,2.8-7.9,5.5-11.9,8.2c-0.1-0.7-0.3-1.5-0.4-2.3c-1.5-7.6-5.6-13.6-11.5-18.4c-0.7-0.5-1.3-1.1-2-1.6c-3.5-3.2-4.3-7.1-2.8-11.5
		c0.8-2.3,1.7-4.6,2.1-7c2.1-10.3-0.5-19.4-7.2-27.2c-5.6-6.5-12.9-10-21.5-10.8c-1.7-0.1-3.4-0.2-5.1-0.4c-3.7-0.4-6.4-2.5-8.2-5.6
		c-0.7-1.2-1.1-2.5-1.5-3.8c-2.3-7.3-6.2-13.4-12.7-17.6c-6.6-4.2-13.9-6.3-21.7-5.6c-14.4,1.3-26.4,11.2-29.4,26
		c-1,4.8-0.5,9.6,0.6,14.4c0.4,1.9,0.7,3.8,0.6,5.7c-0.2,2.7-1.7,4.9-4,6.5c-1.4,1-3,1.9-4.4,3c-5.6,4-9.5,9.4-11.7,15.9
		c-0.2,0.7-0.5,1.5-0.8,2.4c-1.3,0.1-2.7,0.3-4,0.3c-4.2,0.1-8.5,0.1-12.7,0.2c-1.5,0-3.1,0.2-4.7,0.3c0.2-3.7,1.4-7.1,2.7-10.4
		c3.5-8.4,8.7-15.5,15.7-21.3c0.4-0.3,0.7-0.6,1.1-0.9c1.6-1.1,2.1-2.7,2-4.6c-0.2-3.1-0.3-6.3-0.1-9.4c0.8-14.1,6.3-26,16.6-35.6
		c6-5.6,13.1-9.3,21.1-11.4c4.9-1.3,10-1.7,14.9-1c11.9,1.6,23.4,4.4,33.1,12.2c6.1,4.9,10.9,10.9,14.3,17.9
		c2.4,4.9,2.1,4.3,7.1,5.4c11.7,2.6,22,7.8,30,16.9c5.9,6.6,10.1,14.2,11.2,23.1c0.4,3.5,0.3,7.1-0.1,10.6
		C439.5,140.6,438.4,145,437.4,149.7z"/>
	<path d="M101.5,227.1c-6.7,0-13.2,0-19.8,0c-0.1-0.7-0.3-1.3-0.3-1.8c0.6-10.7,3.8-20.5,10.6-28.9c7.8-9.6,18-15.7,30-18.7
		c3.9-1,7.9-1.4,11.9-1.4c8-0.1,15.5,1.9,22.4,6c3.1,1.8,6.2,3.8,9.2,5.8c1.9,1.3,3.7,1.5,5.8,0.7c6.4-2.4,13-3.4,19.9-3.4
		c7.3,0,14.4,1.3,21,4.3c12.1,5.4,20.5,14.4,24.9,26.9c0.5,1.3,0.9,2.6,1.3,3.9c0.4,1.3,0.8,2.6,1.3,4.1c1.6,0.5,3.3,1,5,1.5
		c4.7,1.3,9.4,3,13.7,5.4c3,1.7,5.7,3.7,7.9,6.1c-5,5-9.8,10-14.8,15c-0.5-0.4-1.1-0.9-1.7-1.4c-4.5-3.9-9.5-6.8-15.4-8
		c-1.3-0.3-2.6-0.4-3.9-0.7c-5-0.9-8.2-4.1-9.3-9c-0.6-2.8-1.2-5.6-2.1-8.2c-3.1-8.6-9.2-14.4-17.6-17.8c-3.9-1.6-8-2.7-12.3-2.8
		c-5.4-0.1-10.5,1.2-15.3,3.5c-1.2,0.6-2.4,1.1-3.6,1.6c-4.6,1.7-8.6,0.9-12-2.7c-2.6-2.7-5.6-4.9-8.9-6.5
		c-18.6-9.2-40.9,0.9-46.3,19.9C102.5,222.6,102.1,224.8,101.5,227.1z"/>
	<path d="M368.4,296.4c-9.6,0-19.1,0-29,0c1.8-1.8,3.5-3.5,5-5.1c0.9-0.9,1.7-1.8,2.4-2.8c2.8-3.9,2.7-8.6-0.3-12.4
		c-1.2-1.5-2.6-2.8-3.9-4.2c-9.1-9.1-18.2-18.2-27.3-27.3c-0.7-0.7-1.3-1.3-2.1-1.8c-3.9-3.1-8.5-2.8-12.2-0.2
		c-0.9,0.6-1.7,1.4-2.4,2.1c-10.4,10.4-20.8,20.8-31.2,31.2c-0.7,0.7-1.4,1.5-2,2.3c-2.9,3.9-3,8.3-0.1,12.2c1,1.4,2.4,2.6,3.6,3.9
		c0.5,0.5,1.1,1,1.9,1.8c-2.1,0.2-3.8,0.4-5.5,0.4c-6.5,0.1-13.1,0-19.6,0c-0.9,0-1.8,0-2.7,0c-1.6-2.9-2.2-5.9-2.4-8.8
		c-0.8-10.1,2.1-19.1,9.2-26.4c11.3-11.5,22.6-22.8,34.1-34.1c6.4-6.3,14.3-9.2,23.4-9.2c8.9,0,16.5,3.3,22.8,9.5
		c10.5,10.4,20.9,20.8,31.4,31.3c4.7,4.7,8,10.3,9.3,16.9c1.3,6.4,0.9,12.7-1.6,18.8C369,295.2,368.7,295.8,368.4,296.4z"/>
	<path d="M154.4,296.4c-7.4,0-14.7,0-22.2,0c0-0.8-0.1-1.6-0.1-2.4c0-9.3,0-18.6,0-27.9c0-2.5-0.5-4.9-1.9-7
		c-2.2-3.3-5.5-4.9-9.4-4.9c-6.9-0.1-13.9,0-20.8,0c-7.4,0-14.8,0-22.2,0c-2.9,0-5.5,0.8-7.6,2.7c-2.3,2.1-3.5,4.6-3.5,7.7
		c0,9.7,0,19.4,0,29.1c0,0.8,0,1.7,0,2.5c-1.7,0.5-19.3,0.6-22.7,0.2c0-0.6-0.1-1.2-0.1-1.7c0-10-0.1-20,0-30
		c0.2-17,11.9-29.7,27-32.5c1.4-0.3,2.9-0.5,4.3-0.5c15.7,0,31.4,0,47.1,0c13.8-0.1,26.9,9.7,30.8,23.2c0.8,2.7,1.3,5.4,1.3,8.2
		c0,10.5,0,20.9,0,31.4C154.5,294.9,154.4,295.6,154.4,296.4z"/>
	<path d="M385.7,214.6c-1.4-1-2.6-2-3.9-3c-5.3-4.2-11-7.8-17.1-10.8c-1.8-0.9-2.9-2.1-3.6-3.9c-1.8-4.4-3.9-8.7-5.7-13.1
		c-1.2-3-2-6.1-2.8-9.2c-6.2-22.4-12.3-44.8-18.4-67.2c-0.5-2-1-4-1.1-6.1c-0.3-4.7,4.5-10.2,9.9-10.1c6.2,0,9.8,2.6,11.5,8.8
		c3.3,12.1,6.6,24.1,9.9,36.2c4.6,16.9,9.3,33.9,14,50.8c2.5,9,5,18,7.4,27.1C385.7,214.1,385.7,214.2,385.7,214.6z"/>
	<path d="M482.5,296.4c-8.3,0-16.3,0-24.6,0c0.7-1.3,1.3-2.4,1.9-3.5c12.6-21.3,25.1-42.5,37.7-63.8c0.6-1,1.1-2.2,1.3-3.4
		c1.1-5.4,5.9-9.4,11.3-9.4c5.5,0,10.1,4,11.3,9.4c0.7,3.1,0,5.9-1.7,8.6c-3.4,5.6-6.9,11.1-10.3,16.7
		c-8.6,14.4-17.1,28.9-25.6,43.3C483.4,295,482.9,295.7,482.5,296.4z"/>
	<path d="M218.4,296.4c-1,0.1-1.7,0.1-2.3,0.1c-8.4,0-16.8,0-25.2,0c-1.9,0-3.4-0.6-4.7-1.9c-8-7.9-16-15.7-24.1-23.6
		c-3.9-3.8-3.2-3.2-3.2-7.6c0-12.8-5.8-22.6-15.9-29.9c-5.4-4-11.6-5.9-18.3-6.3c-0.3,0-0.6-0.1-0.9-0.2c-0.3-2.2,0.8-3.8,2-5.2
		c4-4.6,11-4.9,15.7-0.7c1.9,1.7,3.6,3.6,5.4,5.3c15.7,15.4,31.5,30.8,47.2,46.1c7.4,7.3,14.9,14.5,22.3,21.7
		C217.1,294.9,217.6,295.6,218.4,296.4z"/>
	<path d="M301.3,213.9c-8.3,1.4-15.1,4.6-20.7,10.5c-2-3-4-5.9-5.4-9.2c-2.6-6.3,1.6-13.6,8.4-15c4.6-0.9,8.4,0.3,11.2,4.1
		C297,207.2,298.9,210.4,301.3,213.9z"/>
</g>
</svg>
