<svg id="Layer_1" data-name="Layer 1" xmlns="http://www.w3.org/2000/svg" viewBox="0 0 600 600"><title>12-mysterysalad</title><path d="M435.63,548.63l-1.27,0h-279a33.12,33.12,0,0,1-15.64-3.89c-9.15-4.62-14.9-12.3-17.08-22.81a30.33,30.33,0,0,1-.48-6c-.07-2.34,0-4.66,0-6.9,0-1.16,0-2.32,0-3.5a32.49,32.49,0,0,1,2.43-13.32l.14-.34a1.22,1.22,0,0,0,.78-1l0-.1a1,1,0,0,0-.42-1.07l-2.69-1.8a253.77,253.77,0,0,1-53.23-43.25c-22-23.53-37.91-50.25-47.28-79.42a154.14,154.14,0,0,1-6.66-29.12c-.19-1.5-.33-3-.48-4.54-.24-2.5-.48-5.08-.92-7.61A54,54,0,0,1,13,313.31,7.7,7.7,0,0,1,17.49,306,25.62,25.62,0,0,1,27,303.41c1.54-.1,3.15-.1,4.71-.1h536.2a10.13,10.13,0,0,1,4.93.89c3.72,1.9,5.56,4.83,5.47,8.69s-.32,7.53-.56,11.2l-.24,3.76a142,142,0,0,1-3.77,24.33c-1.21,4.83-2.63,9.73-4,14.47l-1,3.39a8.17,8.17,0,0,1-6.18,6.1,12.93,12.93,0,0,1-3.1.4,10,10,0,0,1-8.81-5c-1.09-1.8-1.31-3.91-.67-6.65.39-1.51.81-3,1.23-4.56.83-3,1.69-6.16,2.37-9.26.89-4.37,1.6-8.91,2.11-13.5.38-3,.59-6.18.8-9.23.07-1,.13-2,.21-3a5.83,5.83,0,0,0,0-1.45,6,6,0,0,1-.06-.73,1,1,0,0,0-.76-1c-1.81-.45-294.89-.46-297.85-.46-51.65,0-220.31,0-222.16.35A1,1,0,0,0,35,323c-.06.41-.13.91-.2,1.41l-.1.71a34.9,34.9,0,0,0,.85,9.39c.09.48.17,1,.26,1.43A204.2,204.2,0,0,0,46.7,374.27c3.06,8,7.19,15.17,11.87,23.05a204,204,0,0,0,20.8,29.24A211.39,211.39,0,0,0,108,453.89c7.61,6.09,15.82,11.62,23.57,16.76a14.36,14.36,0,0,0,8.12,2.66,13.19,13.19,0,0,0,1.65-.11c1.22-.09,2.52-.09,3.78-.09h307.4a12.37,12.37,0,0,0,6.83-1.85,267.25,267.25,0,0,0,33.73-24.49,185.14,185.14,0,0,0,22.81-23.42A187.22,187.22,0,0,0,532.08,401a10.1,10.1,0,0,1,7.39-5,11.73,11.73,0,0,1,1.33-.08,9.63,9.63,0,0,1,7.91,4,8.43,8.43,0,0,1,1.37,7.5,13.82,13.82,0,0,1-1.68,3.76,292.79,292.79,0,0,1-18.34,25.61,200.37,200.37,0,0,1-22.29,22.79,255,255,0,0,1-31.58,23.31L476,483c-3.14,2.06-6.29,4.12-9.52,6.28a1,1,0,0,0-.4,1.15c.13.38.24.76.34,1.13s.3,1,.47,1.5A33.46,33.46,0,0,1,469,505.79c0,1.09,0,2.17,0,3.25,0,2.12.05,4.32,0,6.44a33.28,33.28,0,0,1-4.46,16.92,32.77,32.77,0,0,1-19.63,15A31.42,31.42,0,0,1,435.63,548.63ZM153.47,494.31a11.1,11.1,0,0,0-10.34,10.58c-.1,4.22-.1,8.32,0,12.55a10.86,10.86,0,0,0,9.05,10.46,37.27,37.27,0,0,0,4.75.31h262.6l5.59,0c1.87,0,3.75,0,5.64,0s3.78,0,5.69,0c6.6,0,11.76-4.76,12-11.06.1-3.95.1-7.93,0-11.86a11.33,11.33,0,0,0-9-10.85,11.64,11.64,0,0,0-2.69-.24h-1.63c-46.4.1-93.63.1-139.3.1H153.47Z"/><path d="M389.35,295.61l0-.08c.52-2.61,1-5.07,1.45-7.65a48.91,48.91,0,0,0-3.58-28.78c-6.17-14-16.87-24.79-31.77-32.09a95.34,95.34,0,0,0-14.75-5.56l-.49-.13-1.12-.33v-.2a11.73,11.73,0,0,1,0-1.57,30.55,30.55,0,0,0-4-20.81c-6.38-11-14.17-18.73-23.8-23.69a55.76,55.76,0,0,0-20.46-6.2c-1.81-.17-3.62-.25-5.4-.25a59.39,59.39,0,0,0-23.19,4.82c-10.35,4.35-18.79,12-25.07,22.61-.7,1.15-1.37,2.34-2.07,3.61l-.53.95A63.49,63.49,0,0,0,219.64,187l.58-1.17c7-11.31,15.42-19.81,25.62-25.89a71.87,71.87,0,0,1,25-9.07,83.87,83.87,0,0,1,14-1.33c.71,0,1.41,0,2.11,0,16.39.41,30.93,5.35,43.24,14.7,12.86,9.69,21.41,21.51,26.15,36.11a7.39,7.39,0,0,0,4.22,4.8,103.84,103.84,0,0,1,21.49,13.86A76.81,76.81,0,0,1,399,238.92c.39.62.74,1.21,1.11,1.83s.63,1.09,1,1.69a1,1,0,0,0,.73.46h.12a1,1,0,0,0,.71-.29,8.09,8.09,0,0,1,.65-.59,6.38,6.38,0,0,0,.92-.89,54,54,0,0,1,14.41-11.46c.28-.13.59-.32.91-.5s.56-.33.85-.47a5,5,0,0,0,2.75-4.7c0-.53,0-1.06,0-1.59a39.2,39.2,0,0,1,.11-4.51c.57-8.43,2.46-14.79,5.93-20a42.57,42.57,0,0,1,14.76-13.28,52.77,52.77,0,0,1,21.4-6.77,6.16,6.16,0,0,0,5.4-3.55,52.8,52.8,0,0,1,9.92-13.74A49.88,49.88,0,0,1,508.88,146a48.89,48.89,0,0,1,7.65-.62A43.26,43.26,0,0,1,534,149a48,48,0,0,1,13.52,8.91,86,86,0,0,1,10.77,11.76,48.75,48.75,0,0,1,9,23,51.25,51.25,0,0,1-.3,14.42,6,6,0,0,0,2.14,5.82,61.68,61.68,0,0,1,9.71,11.68,50.67,50.67,0,0,1,7.94,23.74A43.31,43.31,0,0,1,584,268c-1.6,4.06-4.16,7.81-8.3,12.18-1.36,1.43-2.75,2.71-4.21,4.07-.75.69-1.5,1.38-2.25,2.1-.23.23-.42.45-.61.67s-.32.36-.51.54a1,1,0,0,0-.28.88c.31,1.85.66,3.85,1.07,6H551.33l-2-7.27c-1.09-4.37.1-7.69,3.74-10.43a39.61,39.61,0,0,0,7.48-6.77,32.31,32.31,0,0,0,7.21-17c1.29-12.45-3.38-22.84-13.88-30.9-.25-.2-.52-.39-.79-.58s-.46-.32-.7-.51c-3.93-2.76-5.3-6.61-4.24-11.82l.28-1.22a66.35,66.35,0,0,0,1.54-8.39,25.37,25.37,0,0,0-2.4-13.82c-5-10.92-13.09-17.8-24-20.44a34.64,34.64,0,0,0-8.13-1,32.82,32.82,0,0,0-30.74,21.4,24.12,24.12,0,0,0-.84,2.3l-.18.55c-1.62,4.14-4.63,6.22-9.17,6.31H471c-7.11,0-13.63,2.36-19.91,7.21s-9.68,11.81-10.39,21.42a27.06,27.06,0,0,0,.13,4.41c.08,1,.17,2.05.17,3.06.1,3.71-1,6.27-3.49,8.09a23.3,23.3,0,0,1-4.31,2.3c-9.45,4.45-15.62,11.32-18.36,20.42-3.54,11.45-1.26,22,6.8,31.44l.35.39c.59.63,1.18,1.28,1.79,2Z"/><path d="M434,180.72c-.05-.24-.09-.49-.12-.73a32.18,32.18,0,0,0-11.86-19.05c-.38-.28-.68-.54-1-.79a11.55,11.55,0,0,0-1-.81c-3.09-2.85-3.9-6.26-2.48-10.41l.37-1.06a36.46,36.46,0,0,0,1.77-6.09c2.11-10.38-.38-19.82-7.43-28a32.15,32.15,0,0,0-22.17-11.14c-1.72-.11-3.42-.21-5.07-.4a9.55,9.55,0,0,1-7.46-5.11,16.64,16.64,0,0,1-1.4-3.59c-2.58-8.18-6.87-14.11-13.12-18.15a35.56,35.56,0,0,0-19.29-5.89c-1,0-2,0-3,.14-15.38,1.38-27.27,11.9-30.29,26.79-.91,4.35-.71,9.07.61,14.82a21.76,21.76,0,0,1,.57,5.43,7.66,7.66,0,0,1-3.57,5.73c-.57.41-1.17.8-1.77,1.18-.89.58-1.82,1.18-2.68,1.86a32.53,32.53,0,0,0-12,16.36c-.14.49-.31,1-.49,1.49,0,.1-.06.19-.1.29l-.63.06c-.88.09-1.8.18-2.63.18q-3.18.08-6.36.1c-2.13,0-4.26.05-6.36.1h0c-1,0-2.08.09-3.12.18l-.46,0a35.34,35.34,0,0,1,2.54-8.95,53.71,53.71,0,0,1,15.41-20.9c.18-.13.37-.3.56-.46l.5-.41a5.78,5.78,0,0,0,2.4-5.45,71.59,71.59,0,0,1-.1-9.28A50.1,50.1,0,0,1,309,63.84a47.65,47.65,0,0,1,20.67-11.16,38.2,38.2,0,0,1,9.78-1.31,33.55,33.55,0,0,1,4.73.33c10.52,1.42,22.61,3.95,32.61,12a50.85,50.85,0,0,1,14,17.56c2.27,4.63,2.51,4.84,6.34,5.63l1.45.31c12.44,2.76,22.08,8.19,29.46,16.58,6.38,7.14,10,14.52,11,22.56a46.36,46.36,0,0,1-.1,10.37c-.37,3-1.09,6.18-1.84,9.59-.25,1.12-.5,2.26-.75,3.41a1,1,0,0,0,.27.92c1.28,1.28,2.69,2.79,4.06,4.25l1.54,1.55a9,9,0,0,1,3,8.46c-.37,2.85-.65,5.7-.93,8.45l0,.33C440.41,176.36,437.11,178.64,434,180.72Z"/><path d="M250.37,250.64a34.48,34.48,0,0,0-15.84-8.21c-.66-.15-1.34-.26-2-.36s-1.26-.19-1.87-.33a10.07,10.07,0,0,1-8.55-8.25,72.29,72.29,0,0,0-2.14-8.31c-3.09-8.58-9.2-14.77-18.16-18.4a35.65,35.65,0,0,0-12.66-2.87h-.6a34.94,34.94,0,0,0-15.15,3.6c-1.19.59-2.39,1.09-3.55,1.58a11.81,11.81,0,0,1-4,.78,9.19,9.19,0,0,1-6.87-3.24,32.35,32.35,0,0,0-9.19-6.72,33.84,33.84,0,0,0-15.11-3.54c-15.16,0-28.56,9.9-32.59,24.07-.34,1.19-.61,2.39-.9,3.65-.17.73-.33,1.47-.52,2.22H82.46a4.13,4.13,0,0,1-.13-.79c.63-11.15,4-20.42,10.38-28.27a53.8,53.8,0,0,1,29.46-18.36,46.56,46.56,0,0,1,11.66-1.37h.57a41.2,41.2,0,0,1,21.32,5.86c3.46,2,6.88,4.26,9.16,5.77a6.94,6.94,0,0,0,4,1.35,7.65,7.65,0,0,0,2.72-.54,54.57,54.57,0,0,1,19.54-3.34,49.51,49.51,0,0,1,20.59,4.21,43.81,43.81,0,0,1,24.37,26.32c.5,1.3.9,2.61,1.28,3.87s.81,2.62,1.31,4.12a1,1,0,0,0,.65.64c1.6.5,3.3,1,5,1.49a61.45,61.45,0,0,1,13.52,5.32,32.16,32.16,0,0,1,7,5.22q-3.39,3.4-6.71,6.81c-2.24,2.29-4.48,4.57-6.76,6.86Z"/><path d="M258.7,295.76l-6.55,0-6.52,0h-2.1a19.9,19.9,0,0,1-2-7.87c-.8-10.1,2.2-18.72,8.92-25.63,11.35-11.56,22.5-22.71,34.08-34.09,6-5.91,13.65-8.91,22.7-8.91a30.61,30.61,0,0,1,22.1,9.21c10.6,10.5,21.17,21.07,31.39,31.3a31.65,31.65,0,0,1,9,16.38,31,31,0,0,1-1.55,18.23l0,.11a7.9,7.9,0,0,1-.46,1.17h-26q1.77-1.77,3.32-3.42a20.37,20.37,0,0,0,2.49-2.91,10.94,10.94,0,0,0-.33-13.59,39.1,39.1,0,0,0-2.66-2.9c-.43-.45-.87-.9-1.3-1.36L315.94,244.1a13.29,13.29,0,0,0-2.23-1.91,10.81,10.81,0,0,0-6.7-2.42,11.58,11.58,0,0,0-6.65,2.22,17.29,17.29,0,0,0-2.54,2.21l-31.2,31.2a24.69,24.69,0,0,0-2.09,2.41,10.64,10.64,0,0,0-.1,13.4,22.55,22.55,0,0,0,2.45,2.73c.41.41.82.83,1.22,1.25.11.12.23.23.34.34-1.14.1-2.18.18-3.21.18C263.05,295.74,260.88,295.76,258.7,295.76Z"/><path d="M53.42,295.86c-3.76,0-6.87-.06-8.54-.17v-.09c0-.25,0-.48,0-.69,0-3.33,0-6.67,0-10,0-6.55-.05-13.33,0-20,.19-15.74,11-28.7,26.18-31.52a20.06,20.06,0,0,1,4.12-.49h47.31c13.4,0,25.87,9.45,29.63,22.48a27.63,27.63,0,0,1,1.26,7.92v31.4a1,1,0,0,0,0,.24,4.69,4.69,0,0,1,0,.66H133.09c0-.09,0-.17,0-.26,0-.38-.05-.76-.05-1.14v-27.9a13.17,13.17,0,0,0-2.07-7.55,11.75,11.75,0,0,0-10.23-5.35c-2.29,0-4.61,0-6.93,0l-7,0-6.91,0H77.73a11.92,11.92,0,0,0-8.27,3,10.91,10.91,0,0,0-3.83,8.44v30.74C63.87,295.71,59.33,295.86,53.42,295.86Z"/><path d="M383.63,212c-.43-.34-.85-.68-1.29-1a96,96,0,0,0-17.27-10.91,5.89,5.89,0,0,1-3.11-3.36c-.91-2.23-1.91-4.45-2.87-6.6s-1.94-4.33-2.83-6.52a73.21,73.21,0,0,1-2.76-9.06c-6.19-22.36-12.37-45.08-18.36-67l-.05-.18a30.13,30.13,0,0,1-1.06-5.89,8.57,8.57,0,0,1,2.52-6.1,8.81,8.81,0,0,1,6.24-3h.12c5.86,0,9,2.41,10.56,8.07q2.5,9.19,5,18.35,2.43,8.91,4.88,17.84c4,14.81,8.47,31,14,50.81,2.27,8.17,4.61,16.6,6.84,25Z"/><path d="M459.51,295.61l1.1-2q9.42-15.93,18.83-31.87t18.85-31.9a11.05,11.05,0,0,0,1.43-3.74,10.49,10.49,0,0,1,20.63,0,10,10,0,0,1-1.57,7.85c-1.71,2.81-3.43,5.59-5.16,8.37s-3.45,5.55-5.14,8.34c-6.27,10.5-12.58,21.2-18.68,31.56L482.87,294c-.2.35-.42.69-.63,1l-.38.59Z"/><path d="M190.83,295.71a5.21,5.21,0,0,1-4-1.61c-7.78-7.68-15.73-15.43-23.42-22.93l-.69-.67c-3-2.92-3-2.92-2.93-5.17,0-.48,0-1,0-1.72,0-12.55-5.49-22.88-16.31-30.71a34.54,34.54,0,0,0-18.83-6.49h0a6,6,0,0,1,1.81-3.75,9.68,9.68,0,0,1,7.31-3.31,10.42,10.42,0,0,1,7,2.71c1.07.95,2.09,2,3.08,3,.76.78,1.52,1.55,2.3,2.29,16.09,15.78,32.62,31.88,47.19,46.09,4.95,4.88,10,9.8,14.93,14.55q3.7,3.57,7.37,7.15c.19.19.37.38.54.58H190.83Z"/><path d="M280.68,223a48.89,48.89,0,0,1-4.63-8,9.68,9.68,0,0,1,.49-8.21,10.54,10.54,0,0,1,7.19-5.42,13.85,13.85,0,0,1,2.58-.26,9,9,0,0,1,7.62,4c1.35,1.79,2.59,3.68,3.9,5.7.55.85,1.12,1.72,1.71,2.6C291.8,215,285.74,218,280.68,223Z"/></svg>