<?xml version="1.0" encoding="utf-8"?>
<!-- Generator: Adobe Illustrator 23.0.2, SVG Export Plug-In . SVG Version: 6.00 Build 0)  -->
<svg version="1.1" id="Layer_1" xmlns="http://www.w3.org/2000/svg" xmlns:xlink="http://www.w3.org/1999/xlink" x="0px" y="0px"
	 viewBox="0 0 600 600" style="enable-background:new 0 0 600 600;" xml:space="preserve">
<path d="M287.6,429.9c0-49,0-98,0-147c0-0.7,0-1.4,0-2c-0.1-2-0.2-2.1-2.2-2.4c-4.6-0.7-9.4-1.2-13.9-2.3
	c-28-6.8-52.1-20.1-71.6-41.6c-11.5-12.8-20.3-27.2-26.2-43.3c-0.8-2.2-0.9-2.3-3.3-2.3c-1.7,0-3.3,0-5,0c-6,0-10.5-4.4-10.5-10.7
	c-0.1-21.8-0.1-43.5,0-65.3c0-6.2,4.2-10.6,10.3-10.8c1.8-0.1,3.6-0.1,5.5,0c1.6,0.1,2.4-0.5,3-2c8.4-22.8,22-41.9,40.8-57.3
	C229.3,30.6,246,22,264.5,16.9c11.9-3.3,24.1-5,36.4-4.8c30.4,0.5,57.9,9.9,82,28.6c16.8,13,29.8,29.2,38.9,48.5
	c1.7,3.6,3.2,7.2,4.5,10.9c0.6,1.6,1.4,2.1,3,2.1c2.6,0,5.2,0,7.7,0.4c3.6,0.6,6,2.8,7.2,6.2c0.6,1.7,0.9,3.7,0.9,5.5
	c0.1,21.2,0.1,42.3,0,63.5c0,6.9-4.7,11.6-11.2,11.2c-1.4-0.1-2.7,0-4.1,0c-2.7,0-2.7,0-3.6,2.5c-3.4,9.3-7.8,18.1-13.2,26.4
	c-12.8,19.5-29.5,34.7-50.1,45.6c-9.5,5.1-19.5,9-30.1,11.5c-0.4,0.1-1,0.2-1.3,0.5c-1.5,1.7-3.6,1.7-5.6,2
	c-3.9,0.6-7.8,1.1-11.7,1.5c-1.3,0.1-2.7,0-4.1-0.1c-1.5-0.1-1.9,0.1-1.9,1.7c0,0.7,0,1.4,0,2c0,98.1,0,196.1,0.1,294.2
	c0,7.7-4.2,11.5-11.2,11.2c-6-0.3-9.6-3.6-9.6-9.7C287.6,528.7,287.6,479.3,287.6,429.9z M175.4,122.4c-0.1,1.1-0.2,2-0.2,3
	c0,13.4,0,26.8,0,40.3c0,0.4,0,0.8,0,1.1c0.1,2,0.3,2.2,2.2,2.2c1.6,0,3.2,0,4.8,0c51,0,102.1,0,153.1,0c29,0,58.1,0,87.1,0
	c2.3,0,2.4-0.1,2.4-2.7c0-13.8,0-27.6,0-41.4c0-0.8-0.1-1.6-0.2-2.5C341.5,122.4,258.5,122.4,175.4,122.4z M194.9,189.4
	c12.8,33.9,54.9,73.8,114,69.3c25.6-1.9,48-11.7,67.2-28.6c12.8-11.2,22.6-24.8,29.2-40.5C403.4,188.9,197.4,188.7,194.9,189.4z
	 M194.9,101.9c0.8,0.1,1.5,0.2,2.2,0.2c6.2,0,12.4,0,18.7,0c1.6,0,2.4-0.5,3.2-1.9c5.5-9.7,12.5-18.1,21-25.2
	c17.2-14.2,36.9-21.3,59.2-21.7c4.7-0.1,10.2,3.4,10.3,9.9c0,6.3-5.2,10-10,10c-5,0-10,0.6-14.9,1.7c-16.6,3.7-30.3,12-41.2,25
	c-0.4,0.5-0.7,1.1-1.1,1.7c2.3,0.7,161,0.6,162.6,0c-12.5-33.2-53.2-71.8-110.4-69.3C245.9,34.4,207.7,68,194.9,101.9z"/>
</svg>
