<svg id="Layer_1" data-name="Layer 1" xmlns="http://www.w3.org/2000/svg" viewBox="0 0 600 600"><title>13-lollipop</title><path d="M287.6,429.85v-149c-.1-2-.2-2.1-2.2-2.4-4.6-.7-9.4-1.2-13.9-2.3-28-6.8-52.1-20.1-71.6-41.6a132.58,132.58,0,0,1-26.2-43.3c-.8-2.2-.9-2.3-3.3-2.3h-5c-6,0-10.5-4.4-10.5-10.7-.1-21.8-.1-43.5,0-65.3,0-6.2,4.2-10.6,10.3-10.8a50.44,50.44,0,0,1,5.5,0,2.65,2.65,0,0,0,3-2,135.37,135.37,0,0,1,90.8-83.3,128.23,128.23,0,0,1,36.4-4.8c30.4.5,57.9,9.9,82,28.6a131.38,131.38,0,0,1,38.9,48.5,113.72,113.72,0,0,1,4.5,10.9,2.72,2.72,0,0,0,3,2.1,49,49,0,0,1,7.7.4,8.85,8.85,0,0,1,7.2,6.2,17.13,17.13,0,0,1,.9,5.5c.1,21.2.1,42.3,0,63.5,0,6.9-4.7,11.6-11.2,11.2-1.4-.1-2.7,0-4.1,0-2.7,0-2.7,0-3.6,2.5a130.29,130.29,0,0,1-13.2,26.4,133.94,133.94,0,0,1-50.1,45.6A123.19,123.19,0,0,1,332.8,275a3,3,0,0,0-1.3.5c-1.5,1.7-3.6,1.7-5.6,2q-5.85.9-11.7,1.5a28.41,28.41,0,0,1-4.1-.1c-1.5-.1-1.9.1-1.9,1.7v2q0,147.15.1,294.2c0,7.7-4.2,11.5-11.2,11.2-6-.3-9.6-3.6-9.6-9.7Q287.65,503.85,287.6,429.85ZM175.4,122.35c-.1,1.1-.2,2-.2,3v41.4c.1,2,.3,2.2,2.2,2.2h245c2.3,0,2.4-.1,2.4-2.7v-41.4a22.86,22.86,0,0,0-.2-2.5Zm19.5,67c12.8,33.9,54.9,73.8,114,69.3,25.6-1.9,48-11.7,67.2-28.6a109.9,109.9,0,0,0,29.2-40.5C403.4,188.85,197.4,188.65,194.9,189.35Zm0-87.5a18,18,0,0,0,2.2.2h18.7a3.17,3.17,0,0,0,3.2-1.9A91.11,91.11,0,0,1,240,75c17.2-14.2,36.9-21.3,59.2-21.7a10,10,0,1,1,.3,19.9,68.1,68.1,0,0,0-14.9,1.7,73,73,0,0,0-41.2,25c-.4.5-.7,1.1-1.1,1.7,2.3.7,161,.6,162.6,0-12.5-33.2-53.2-71.8-110.4-69.3C245.9,34.35,207.7,68,194.9,101.85Z"/></svg>