<?xml version="1.0" encoding="utf-8"?>
<!-- Generator: Adobe Illustrator 23.0.2, SVG Export Plug-In . SVG Version: 6.00 Build 0)  -->
<svg version="1.1" id="Layer_1" xmlns="http://www.w3.org/2000/svg" xmlns:xlink="http://www.w3.org/1999/xlink" x="0px" y="0px"
	 viewBox="0 0 600 600" style="enable-background:new 0 0 600 600;" xml:space="preserve">
<g>
	<path d="M421.6,107c6.5-1,11.6-4,15.6-9c1,0.6,1.9,1.1,2.7,1.8c10.5,9.1,16.8,20.4,18.1,34.3c0.2,2.4,0.4,4.8,0.4,7.2
		c0,120.3,0,240.7,0,361c0,13-3.9,24.6-12.3,34.5c-2.3,2.7-5,4.9-7.6,7.3c-0.6,0.5-1.2,1-1.9,1.6c1.7,2.6,2.9,5.1,3.4,8
		c0.1,0.6,0.2,1.3,0.2,1.9c0,4.7,0.3,9.5-0.1,14.2c-0.5,7.2-4.3,12.6-10.7,16c-2.7,1.4-5.6,2.1-8.8,2.1c-79.4,0-158.7-0.1-238.1,0
		c-8.9,0-18.1-7.4-19.1-16.3c-0.7-6.2-0.8-12.4,0.1-18.6c0.2-1.3,0.8-2.6,1.3-3.9c0.8-1.9,0.9-1.9-0.8-3c-5.4-3.7-10-8.3-13.6-13.7
		c-4.7-7-7.6-14.8-8.4-23.2c-0.3-3.1-0.4-6.2-0.4-9.3c0-119.6,0-239.3,0-358.9c0-8.9,1.7-17.3,5.8-25.2c3.9-7.6,9.5-13.8,16.5-18.7
		c0.4-0.3,0.8-0.4,1.4-0.8c3.4,5.2,8.1,8.8,14.4,10.3c-2.4,1.4-4.6,2.5-6.6,3.9c-8,5.7-13,13.3-14.6,23.1c-0.3,1.9-0.5,3.8-0.5,5.7
		c0,9.5,0,19.1,0,28.6c0,1.2,0.2,2.4-0.6,3.5c-0.2,0.3-0.2,0.9-0.2,1.4c0,0.7,0,1.4,0,2.2c0,99.4,0,198.9,0,298.3
		c0,1.6,0.1,21.9,0.8,30.1c0,12,4.9,21.5,14.5,28.6c2.5,1.8,5.4,3.2,8.2,4.5c2.1,1,4.4,1.3,6.8,1.3c74.5,0,148.9-0.1,223.4,0
		c4.8,0,9-1.2,13-3.5c8.9-5.1,14.7-12.7,17.1-22.7c0.6-2.5,0.8-5.2,0.9-7.8c0.1-8,0.8-28.7,0.8-29.6c0-21.5,0-43.1,0-64.6
		c0-78.1,0-156.3,0-234.4c0-1.6,0.3-3.3-0.7-4.9c-0.3-0.5-0.1-1.4-0.1-2.1c0-9.6,0.1-19.2,0-28.8c-0.2-13.6-6.4-23.8-18.1-30.7
		c-0.5-0.3-1-0.5-1.5-0.8C422.2,107.6,422.1,107.4,421.6,107z M301.9,556.2c-38.5,0-77,0-115.5,0c-0.7,0-1.4,0-2.2,0
		c-1.9,0.1-2.4,0.5-2.4,2.5c-0.1,2.1,0,4.2,0,6.2c0,4.3,0,4.3,4.4,4.3c77,0,154,0,231.1,0c0.6,0,1.3,0,1.9,0c2-0.1,2.3-0.3,2.3-2.4
		c0-2.2,0-4.3,0-6.5c0-4.1,0-4.1-4.1-4.1C379,556.2,340.4,556.2,301.9,556.2z"/>
	<path d="M301.7,105.6c-38.9,0-77.8,0-116.7,0c-5.3,0-10.1-1.4-14.2-4.9c-5-4.2-8.5-9.3-8.1-16.3c0.2-4.3-0.1-8.6,0.1-13
		c0.2-7.3,3.4-13.1,9.6-17c3.2-2,6.7-2.9,10.5-3c1.1,0,2.2,0,3.4,0c50.4,0,100.7,0,151.1,0c3.9,0,3.6,0.3,3.6-3.7
		c0-3.9,0-7.8,0-11.8c0-11.2,6.5-19.9,17.1-23.1c1.3-0.4,2.7-0.7,4-0.7c4.5,0,9-0.2,13.4,0.4c9.1,1.1,17.1,9,18.6,18
		c0.4,2.5,0.5,5.1,0.5,7.6c0.1,3.6,0,7.2,0,10.8c0,2.4,0.1,2.4,2.4,2.5c7.4,0,14.9,0,22.3,0c4.2,0,8.1,0.9,11.7,3.1
		c5.7,3.6,9.1,8.9,9.4,15.6c0.3,6,0,12-0.2,18c-0.2,4.8-2.8,8.4-6.1,11.6c-4.1,3.8-9,5.8-14.5,5.9c-1.9,0-3.8,0-5.8,0
		C376.5,105.6,339.1,105.6,301.7,105.6z M301.6,70.9c-38.3,0-76.7,0-115,0c-0.7,0-1.4,0-2.2,0c-1.9,0.1-2.2,0.3-2.2,2.3
		c0,3.1,0,6.2,0,9.4c0,3.8,0,3.8,3.9,3.8c76.9,0,153.8,0,230.8,0c0.6,0,1.3,0,1.9,0c2-0.1,2.4-0.4,2.4-2.4c0-3,0-6.1,0-9.1
		c0-3.9,0-3.9-3.8-3.9C378.8,70.9,340.2,70.9,301.6,70.9z M375.5,42.7c0-2.2,0-4.3,0-6.5c0-0.2,0-0.3,0-0.5c-0.2-2.7-1.5-4.3-4-4.5
		c-2.5-0.2-5-0.2-7.4,0.1c-2.4,0.2-3.7,1.5-3.8,3.9c-0.2,4.9-0.1,9.7-0.1,14.6c0,1.1,0.6,1.6,1.7,1.6c4,0,8,0,12,0
		c1.2,0,1.8-0.5,1.7-1.7C375.5,47.4,375.5,45,375.5,42.7z"/>
	<path d="M395.9,309.8c0,19.7-4.2,38.4-12.6,56.2c-4.1,8.6-9.3,16.6-15.5,23.9c-9.4,11.4-20.5,20.8-33.5,28
		c-1.3,0.7-2.7,1.4-4.1,1.9c-2.1,0.7-4.2,0.8-6.4,0.4c-7.8-1.2-15.5-3.1-23-5.8c-11.2-4.1-21.6-9.7-31.1-16.9
		c-5-3.8-9.8-7.8-14.1-12.3c-12-12.7-21.4-27.1-27.6-43.5c-3.2-8.3-5.3-16.9-6.8-25.7c-1.5-8.7-3.2-17.4-4.7-26.2
		c-1.7-9.8-3.4-19.5-5-29.3c-0.7-4.1-1.5-8.2-2-12.3c-0.5-3.8,1.7-6.8,5.4-7.5c7.8-1.6,15.6-3.4,23.1-6.2
		c12.4-4.6,23.9-10.8,33.9-19.6c4.3-3.8,8.4-7.9,11.6-12.8c1.8-2.8,4.1-4.4,7.5-4.2c1.6,0.1,3,0.6,4.2,1.5
		c8.3,5.9,17.5,9.6,27.3,12.1c6.1,1.6,12.4,2.6,18.7,2.8c4.3,0.1,8.6,0.5,12.9,0.3c6.4-0.2,12.8-0.7,19.1-2c4-0.8,7.6,1.7,8.3,5.7
		c1.5,8.3,2.9,16.7,4.4,25c1.2,6.4,2.4,12.9,3.6,19.3c1.2,6.5,2.3,13.1,3.4,19.6c1,6.5,2,12.9,2.8,19.4
		C396.2,304.3,395.9,307,395.9,309.8z M225.1,253.5c1.1,6.2,2.1,12.1,3.1,18c1.3,7.7,2.7,15.4,4.1,23.1c1.3,7.6,2.6,15.1,4,22.7
		c2.3,11.7,6.4,22.7,12.2,33.2c6.5,11.9,14.9,22.3,25.2,31.2c10.6,9.2,22.7,15.8,36,20.1c4.5,1.4,9.1,2.4,13.7,3.5
		c1.3,0.3,2.6,0.3,3.9-0.4c11.7-6.5,21.6-15.1,30-25.5c9.9-12.2,16.6-26.1,20.6-41.4c1.7-6.6,2.6-13.3,3.1-20.1
		c0.7-8.8,0.2-17.6-1.1-26.3c-0.8-5.5-1.9-10.9-2.9-16.3c-1.1-6.5-2.3-13.1-3.4-19.6c-1.2-6.6-2.3-13.2-3.5-19.8
		c-0.5-2.6-1-5.1-1.5-7.7c-4.4,0.4-8.5,1-12.5,1.1c-12,0.5-23.8-0.4-35.5-3.2c-9.2-2.2-17.9-5.3-26.2-9.8c-2-1.1-2-1.1-3.5,0.6
		c-5.8,6.7-12.5,12.4-19.8,17.3c-11.5,7.7-24.1,13.3-37.4,16.9C230.9,252,228.1,252.7,225.1,253.5z"/>
</g>
</svg>
