<svg id="Layer_1" data-name="Layer 1" xmlns="http://www.w3.org/2000/svg" viewBox="0 0 600 600"><title>14-gingerale</title><path d="M426.27,115.91a25.2,25.2,0,0,0,16.2-8.66,19.46,19.46,0,0,1,2.81,1.73c10.9,8.76,17.44,19.63,18.79,33,.21,2.31.42,4.61.42,6.92V496.25a47.49,47.49,0,0,1-12.78,33.2,86.67,86.67,0,0,1-7.89,7l-2,1.54a19.39,19.39,0,0,1,3.53,7.7,11.4,11.4,0,0,1,.21,1.83c0,4.52.31,9.14-.11,13.66-.52,6.93-4.46,12.12-11.11,15.4a20.79,20.79,0,0,1-9.14,2q-123.68,0-247.25,0c-9.24,0-18.79-7.12-19.83-15.69a64.58,64.58,0,0,1,.1-17.89,18.89,18.89,0,0,1,1.35-3.76c.84-1.82.94-1.82-.83-2.88a51,51,0,0,1-14.12-13.18,45.73,45.73,0,0,1-8.72-22.33,86.28,86.28,0,0,1-.42-8.94V148.62a48.46,48.46,0,0,1,6-24.24,50.63,50.63,0,0,1,17.13-18c.42-.29.83-.39,1.45-.77a24.05,24.05,0,0,0,15,9.91c-2.5,1.34-4.78,2.4-6.86,3.75-8.3,5.48-13.5,12.8-15.16,22.22a32.9,32.9,0,0,0-.52,5.49v27.52c0,1.15.21,2.31-.62,3.36a2.65,2.65,0,0,0-.21,1.35V468.35c0,1.54.11,21.07.83,29,0,11.55,5.09,20.69,15.06,27.52a53.67,53.67,0,0,0,8.52,4.33,17.3,17.3,0,0,0,7.06,1.25q116,0,232,0a27.81,27.81,0,0,0,13.5-3.37c9.24-4.9,15.27-12.22,17.76-21.84a36.13,36.13,0,0,0,.93-7.5c.11-7.7.83-27.62.83-28.48V181.53c0-1.54.32-3.17-.72-4.71-.31-.48-.11-1.35-.11-2,0-9.24.11-18.48,0-27.71-.2-13.09-6.64-22.9-18.79-29.54-.52-.29-1-.48-1.56-.77C426.9,116.49,426.79,116.3,426.27,115.91ZM302,548.12H179.75c-2,.09-2.49.48-2.49,2.4s0,4,0,6c0,4.13,0,4.13,4.57,4.13H423.78c2.08-.09,2.39-.29,2.39-2.31v-6.25c0-3.94,0-3.94-4.26-3.94Z"/><path d="M425.23,580.12q-41.22,0-82.43,0c-54,0-109.85,0-164.81,0-10.27,0-20.23-8-21.33-17a66.11,66.11,0,0,1,.11-18.31,14.79,14.79,0,0,1,1.14-3.36l.31-.73.13-.28.19-.42-.54-.33a52.27,52.27,0,0,1-14.57-13.59,47.14,47.14,0,0,1-9-23A86,86,0,0,1,134,494V148.62a49.82,49.82,0,0,1,6.22-25,52.27,52.27,0,0,1,17.62-18.51,5.9,5.9,0,0,1,.84-.46,5,5,0,0,0,.65-.33l1.2-.74.81,1.15a22.35,22.35,0,0,0,14.05,9.31l3.94.87-3.55,1.92-2.3,1.21a50,50,0,0,0-4.45,2.48c-8.19,5.4-12.94,12.35-14.5,21.23A31.41,31.41,0,0,0,154,147v27.52c0,.17,0,.35,0,.53a5.45,5.45,0,0,1-.82,3.59,5.72,5.72,0,0,0,0,.59V468.35c0,.2.08,20.69.83,28.83v.13c0,11.05,4.71,19.64,14.41,26.28a51.61,51.61,0,0,0,8.26,4.19,15.74,15.74,0,0,0,6.47,1.13l77.34,0c50.68,0,103.07,0,154.64,0a26.55,26.55,0,0,0,12.8-3.19c8.92-4.74,14.64-11.77,17-20.89a35.46,35.46,0,0,0,.88-7.19c.08-5.34.45-16.58.67-23.3.09-2.62.16-4.88.16-5.12V181.53c0-.3,0-.61,0-.92a4.56,4.56,0,0,0-.5-3,3.63,3.63,0,0,1-.38-2.38c0-.17,0-.33,0-.48,0-3.09,0-6.17,0-9.25,0-6.05,0-12.3,0-18.45-.19-12.31-6.25-21.81-18-28.24-.24-.13-.47-.23-.7-.34s-.58-.27-.87-.43l-.49-.27-.19-.54h0a1.15,1.15,0,0,0-.21-.17l-2.93-2.18,3.61-.51a23.72,23.72,0,0,0,15.28-8.16l.79-.92,1.48.82a16.16,16.16,0,0,1,2.61,1.65c11.49,9.22,18,20.67,19.34,34,.21,2.34.43,4.71.43,7.07V496.25a49.14,49.14,0,0,1-13.17,34.21,59.92,59.92,0,0,1-6,5.45l-2,1.7-.93.72a19.18,19.18,0,0,1,3,7.11,12.12,12.12,0,0,1,.24,2.1c0,1.34,0,2.69.05,4.05a86,86,0,0,1-.16,9.75c-.55,7.27-4.68,13-11.94,16.6A22.13,22.13,0,0,1,425.23,580.12Zm-164.63-3,82.2,0q41.2,0,82.43,0a19.17,19.17,0,0,0,8.49-1.88c6.34-3.12,9.8-7.88,10.27-14.15a85,85,0,0,0,.15-9.44c0-1.38-.05-2.75-.05-4.11a9.51,9.51,0,0,0-.19-1.56,17.69,17.69,0,0,0-3.28-7.1l-.81-1.16,1.11-.88c.73-.58,1.36-1.07,2-1.55s1.32-1.12,2-1.69a57.83,57.83,0,0,0,5.69-5.17A46.22,46.22,0,0,0,463,496.25V148.91c0-2.23-.21-4.53-.41-6.76-1.26-12.53-7.4-23.29-18.24-32a12.2,12.2,0,0,0-1.55-1,26,26,0,0,1-12.71,7.54c12.25,7,18.56,17.19,18.77,30.38.07,6.18,0,12.44,0,18.5,0,3.08,0,6.16,0,9.24,0,.22,0,.47,0,.72a4.16,4.16,0,0,0,0,.59,7.43,7.43,0,0,1,.91,4.61c0,.27,0,.54,0,.81V469.22c0,.27-.05,1.89-.16,5.22-.22,6.7-.59,17.93-.67,23.28a37.7,37.7,0,0,1-1,7.86c-2.58,10-8.81,17.64-18.51,22.79a29.49,29.49,0,0,1-14.2,3.54c-51.57-.06-104,0-154.64,0l-77.34,0a18.56,18.56,0,0,1-7.67-1.38,54.86,54.86,0,0,1-8.74-4.45c-10.42-7.14-15.71-16.79-15.73-28.7-.75-8.3-.83-28.83-.83-29V179.22a3.67,3.67,0,0,1,.49-2.22,2.62,2.62,0,0,0,.36-1.87c0-.21,0-.42,0-.62V147a34.57,34.57,0,0,1,.54-5.74c1.7-9.6,7-17.41,15.82-23.22,1.18-.77,2.41-1.44,3.69-2.11a25.2,25.2,0,0,1-11.42-8.39.55.55,0,0,0-.14.09,49.28,49.28,0,0,0-16.68,17.48A46.88,46.88,0,0,0,137,148.62V494a85.7,85.7,0,0,0,.41,8.79,44.16,44.16,0,0,0,8.45,21.6,49.13,49.13,0,0,0,13.71,12.79c2.27,1.36,2.56,2.22,1.49,4.55l-.1.22-.31.73a12.23,12.23,0,0,0-.93,2.65,62.79,62.79,0,0,0-.09,17.47c.91,7.52,9.65,14.37,18.34,14.37C205.42,577.08,233.07,577.07,260.6,577.07Zm161.21-15h-240c-5.16,0-6.07-.41-6.07-5.63,0-.63,0-1.27,0-1.91,0-1.34-.05-2.73,0-4.14,0-3,1.56-3.71,3.92-3.82H421.91c5.11,0,5.76.61,5.76,5.44v6.25c0,3.09-1.23,3.69-3.82,3.81ZM178.87,559a16.87,16.87,0,0,0,3,.13H423.78c.37,0,.67,0,.86-.07a5.91,5.91,0,0,0,0-.74v-6.25a15.83,15.83,0,0,0-.09-2.34,18.25,18.25,0,0,0-2.67-.1H179.75a4.29,4.29,0,0,0-.93.11,3.39,3.39,0,0,0-.06.79c-.07,1.38,0,2.72,0,4,0,.66,0,1.31,0,2A14.48,14.48,0,0,0,178.87,559Z"/><path d="M301.7,105.62H185a21,21,0,0,1-14.2-4.9c-5-4.2-8.5-9.3-8.1-16.3.2-4.3-.1-8.6.1-13a19.72,19.72,0,0,1,9.6-17,20.33,20.33,0,0,1,10.5-3H337.4c3.9,0,3.6.3,3.6-3.7V35.92c0-11.2,6.5-19.9,17.1-23.1a14,14,0,0,1,4-.7,99.51,99.51,0,0,1,13.4.4c9.1,1.1,17.1,9,18.6,18a48.52,48.52,0,0,1,.5,7.6c.1,3.6,0,7.2,0,10.8,0,2.4.1,2.4,2.4,2.5h22.3a21.84,21.84,0,0,1,11.7,3.1c5.7,3.6,9.1,8.9,9.4,15.6.3,6,0,12-.2,18-.2,4.8-2.8,8.4-6.1,11.6a21.4,21.4,0,0,1-14.5,5.9H301.7Zm-.1-34.7H184.4c-1.9.1-2.2.3-2.2,2.3v9.4c0,3.8,0,3.8,3.9,3.8H418.8c2-.1,2.4-.4,2.4-2.4v-9.1c0-3.9,0-3.9-3.8-3.9Q359.5,70.87,301.6,70.92Zm73.9-28.2v-7c-.2-2.7-1.5-4.3-4-4.5a36.51,36.51,0,0,0-7.4.1,3.7,3.7,0,0,0-3.8,3.9c-.2,4.9-.1,9.7-.1,14.6,0,1.1.6,1.6,1.7,1.6h12c1.2,0,1.8-.5,1.7-1.7C375.5,47.42,375.5,45,375.5,42.72Z"/><path d="M413.8,107.12H185a22.35,22.35,0,0,1-15.17-5.26c-6.18-5.19-9-10.93-8.63-17.53.1-2.09.08-4.16.05-6.35s-.05-4.39.05-6.63a21.3,21.3,0,0,1,10.3-18.2,21.62,21.62,0,0,1,11.26-3.23H339.49c0-.35,0-.87,0-1.39V35.92c0-11.76,7-21.16,18.17-24.54a15.14,15.14,0,0,1,4.43-.76l2.69,0A76.81,76.81,0,0,1,375.7,11c9.69,1.17,18.25,9.44,19.88,19.24a50,50,0,0,1,.52,7.85c.07,2.38,0,4.84,0,7.21,0,1.2,0,2.39,0,3.59,0,.23,0,.64,0,.95l.93.05H419.3a23.18,23.18,0,0,1,12.48,3.32c6.31,4,9.8,9.79,10.12,16.81.26,5.2.07,10.46-.11,15.56l-.09,2.56c-.24,5.79-3.63,9.79-6.56,12.62a22.81,22.81,0,0,1-15.51,6.33ZM182.9,52.92a18.69,18.69,0,0,0-9.71,2.77,18.22,18.22,0,0,0-8.89,15.77c-.1,2.18-.07,4.37-.05,6.48s.05,4.35-.05,6.55c-.33,5.68,2.08,10.47,7.56,15.08A19.53,19.53,0,0,0,185,104.12H419.6a19.94,19.94,0,0,0,13.48-5.5c3.73-3.62,5.47-6.88,5.62-10.57l.09-2.55c.18-5,.37-10.23.11-15.31-.27-6-3.28-11-8.7-14.41a20.38,20.38,0,0,0-10.9-2.86H397c-3.22-.14-3.9-.85-3.9-4,0-1.21,0-2.41,0-3.62,0-2.34.05-4.77,0-7.14a46.53,46.53,0,0,0-.48-7.41c-1.4-8.38-9-15.74-17.3-16.75a74.09,74.09,0,0,0-10.5-.4l-2.72,0a12.44,12.44,0,0,0-3.56.63c-10.05,3-16,11.13-16,21.67V48.5c0,1.77,0,2.83-.79,3.63s-1.83.8-3.56.79H182.9Zm234,35H186.1c-4.74,0-5.4-.65-5.4-5.3v-9.4c0-2.74.88-3.66,3.62-3.8H301.6c37.95,0,77.2,0,115.8.1,4.66,0,5.3.65,5.3,5.4V84c0,3.11-1.34,3.77-3.83,3.89ZM183.78,84.83a15.82,15.82,0,0,0,2.32.09H418.8a6.92,6.92,0,0,0,.86-.09,6,6,0,0,0,0-.81v-9.1a17.87,17.87,0,0,0-.08-2.33,18.66,18.66,0,0,0-2.22-.07c-38.6-.1-77.85-.1-115.8-.1H184.4a6.19,6.19,0,0,0-.67,0,6.22,6.22,0,0,0,0,.75v9.4A16.18,16.18,0,0,0,183.78,84.83ZM373.9,52.92h-12a2.93,2.93,0,0,1-3.2-3.1c0-1.23,0-2.45,0-3.67,0-3.59,0-7.29.11-11A5.2,5.2,0,0,1,364,29.82a38.43,38.43,0,0,1,7.64-.1c3.16.25,5.12,2.4,5.38,5.88v7.12c0,2.29,0,4.66.1,6.93a3,3,0,0,1-.71,2.33A3.23,3.23,0,0,1,373.9,52.92Zm-12.2-3,.2,0h12.21a.2.2,0,0,0,0-.07c-.1-2.39-.1-4.8-.1-7.12V35.77c-.2-2.52-1.44-3-2.62-3.06a36,36,0,0,0-7.09.09c-1.72.15-2.42.86-2.49,2.48-.15,3.63-.13,7.3-.11,10.85,0,1.23,0,2.45,0,3.69Zm-.11,0Zm12.69,0Z"/><path d="M395.9,309.82A130,130,0,0,1,383.3,366a110,110,0,0,1-15.5,23.9,115.91,115.91,0,0,1-33.5,28,30.5,30.5,0,0,1-4.1,1.9,12.62,12.62,0,0,1-6.4.4,123,123,0,0,1-23-5.8,123.54,123.54,0,0,1-45.2-29.2,129.88,129.88,0,0,1-27.6-43.5,133.33,133.33,0,0,1-6.8-25.7c-1.5-8.7-3.2-17.4-4.7-26.2-1.7-9.8-3.4-19.5-5-29.3-.7-4.1-1.5-8.2-2-12.3a6.43,6.43,0,0,1,5.4-7.5,154.41,154.41,0,0,0,23.1-6.2c12.4-4.6,23.9-10.8,33.9-19.6a64.31,64.31,0,0,0,11.6-12.8c1.8-2.8,4.1-4.4,7.5-4.2a7.63,7.63,0,0,1,4.2,1.5c8.3,5.9,17.5,9.6,27.3,12.1a84.54,84.54,0,0,0,18.7,2.8c4.3.1,8.6.5,12.9.3a111.52,111.52,0,0,0,19.1-2,6.89,6.89,0,0,1,8.3,5.7c1.5,8.3,2.9,16.7,4.4,25,1.2,6.4,2.4,12.9,3.6,19.3s2.3,13.1,3.4,19.6,2,12.9,2.8,19.4C396.2,304.32,395.9,307,395.9,309.82Zm-170.8-56.3c1.1,6.2,2.1,12.1,3.1,18,1.3,7.7,2.7,15.4,4.1,23.1s2.6,15.1,4,22.7a113.43,113.43,0,0,0,12.2,33.2,111.66,111.66,0,0,0,25.2,31.2,102.34,102.34,0,0,0,36,20.1c4.5,1.4,9.1,2.4,13.7,3.5a5.33,5.33,0,0,0,3.9-.4,102.11,102.11,0,0,0,30-25.5A108.22,108.22,0,0,0,377.9,338a113.57,113.57,0,0,0,3.1-20.1,115.72,115.72,0,0,0-1.1-26.3c-.8-5.5-1.9-10.9-2.9-16.3-1.1-6.5-2.3-13.1-3.4-19.6s-2.3-13.2-3.5-19.8c-.5-2.6-1-5.1-1.5-7.7-4.4.4-8.5,1-12.5,1.1a128.43,128.43,0,0,1-35.5-3.2,106.08,106.08,0,0,1-26.2-9.8c-2-1.1-2-1.1-3.5.6a98.82,98.82,0,0,1-19.8,17.3,126.24,126.24,0,0,1-37.4,16.9C230.9,252,228.1,252.72,225.1,253.52Z"/><path d="M326.3,422a15.7,15.7,0,0,1-2.77-.26,124.56,124.56,0,0,1-23.24-5.86,120.89,120.89,0,0,1-31.5-17.12,117.62,117.62,0,0,1-14.27-12.46,131.78,131.78,0,0,1-27.92-44,135.22,135.22,0,0,1-6.88-26c-.71-4.15-1.49-8.38-2.24-12.47-.82-4.49-1.67-9.13-2.46-13.73l-.65-3.74c-1.45-8.37-3-17-4.35-25.57-.17-1-.35-2-.53-3.05-.54-3-1.1-6.19-1.48-9.31a7.94,7.94,0,0,1,6.61-9.16,153.32,153.32,0,0,0,22.86-6.13c13.35-5,24.28-11.27,33.43-19.32a63.83,63.83,0,0,0,11.33-12.49c2.25-3.5,5.14-5.11,8.85-4.88a9.12,9.12,0,0,1,5,1.8c7.4,5.25,16.16,9.14,26.77,11.84a83.1,83.1,0,0,0,18.38,2.76c1.43,0,2.88.1,4.32.16,2.79.13,5.66.27,8.46.14a110,110,0,0,0,18.87-2A8.39,8.39,0,0,1,383,218.06c.75,4.15,1.47,8.33,2.2,12.51s1.45,8.34,2.2,12.48c.58,3.12,1.17,6.27,1.75,9.43s1.23,6.59,1.84,9.86c1,5.66,2,11.45,3,17.05l.64,3.89c.92,5.93,1.86,12.06,2.61,18.15a28.74,28.74,0,0,1,.25,6.14c0,.75,0,1.49,0,2.25a132.31,132.31,0,0,1-12.74,56.84,112,112,0,0,1-15.72,24.23A118,118,0,0,1,335,419.23a33.27,33.27,0,0,1-4.32,2A13.9,13.9,0,0,1,326.3,422ZM290.44,199.4c-2.35,0-4.12,1.1-5.68,3.53A66.2,66.2,0,0,1,272.89,216c-9.43,8.3-20.67,14.8-34.37,19.88a156,156,0,0,1-23.32,6.27A4.93,4.93,0,0,0,211,248c.37,3,.92,6.16,1.45,9.17l.54,3.07c1.4,8.56,2.9,17.2,4.35,25.55l.65,3.75c.78,4.59,1.63,9.22,2.45,13.7.75,4.1,1.53,8.34,2.25,12.5a131.81,131.81,0,0,0,6.72,25.42,129.22,129.22,0,0,0,27.29,43,115.21,115.21,0,0,0,13.92,12.13A117.85,117.85,0,0,0,301.32,413,121.79,121.79,0,0,0,324,418.73a11.12,11.12,0,0,0,5.7-.34,29.71,29.71,0,0,0,3.86-1.79A115,115,0,0,0,366.64,389,108.87,108.87,0,0,0,382,365.37a129.24,129.24,0,0,0,12.45-55.55c0-.79,0-1.56.05-2.33a27.19,27.19,0,0,0-.22-5.6c-.76-6.14-1.66-12-2.61-18.15l-.63-3.85c-.95-5.59-1.92-11.37-3-17-.62-3.27-1.23-6.57-1.84-9.86s-1.18-6.31-1.76-9.44c-.76-4.16-1.48-8.33-2.21-12.51s-1.45-8.35-2.2-12.5a5.57,5.57,0,0,0-2.3-3.69,5.49,5.49,0,0,0-4.23-.8,112.55,112.55,0,0,1-19.34,2c-2.91.13-5.86,0-8.72-.14-1.42-.06-2.84-.13-4.26-.16A86.5,86.5,0,0,1,322.12,213c-11-2.8-20.05-6.83-27.79-12.33a6.2,6.2,0,0,0-3.42-1.23ZM324.94,407a8.43,8.43,0,0,1-1.88-.22l-2.65-.63c-3.67-.86-7.47-1.75-11.16-2.9a104.19,104.19,0,0,1-36.53-20.4,117.31,117.31,0,0,1-37.89-65.24c-1.44-7.82-2.78-15.55-4-22.74-1.37-7.56-2.8-15.4-4.1-23.1-1-5.84-2-11.82-3.1-18l-.24-1.36,3-.8c2.37-.63,4.6-1.22,6.83-1.93a125.11,125.11,0,0,0,37-16.72,98.19,98.19,0,0,0,19.5-17c2-2.24,2.73-2.37,5.35-.93A104.53,104.53,0,0,0,321,224.66,126.34,126.34,0,0,0,356,227.82c2.67-.07,5.38-.36,8.24-.67,1.37-.15,2.76-.3,4.18-.43l1.36-.12.25,1.33c.25,1.31.5,2.59.76,3.87s.49,2.54.74,3.83c.61,3.34,1.19,6.66,1.77,10s1.14,6.56,1.74,9.84,1.12,6.5,1.69,9.75,1.16,6.59,1.71,9.87c.23,1.26.48,2.54.72,3.83.77,4.07,1.57,8.28,2.18,12.5a121,121,0,0,1-2,47,110.11,110.11,0,0,1-20.89,42A104.16,104.16,0,0,1,328,406.23,6.41,6.41,0,0,1,324.94,407ZM226.82,254.61q1.5,8.56,2.85,16.6c1.31,7.75,2.73,15.57,4.11,23.14,1.23,7.19,2.56,14.91,4,22.69a114.34,114.34,0,0,0,36.91,63.54,101.19,101.19,0,0,0,35.48,19.81c3.57,1.11,7.32,2,10.94,2.84l2.65.63a3.86,3.86,0,0,0,2.84-.26,101.24,101.24,0,0,0,29.54-25.13,107.2,107.2,0,0,0,20.32-40.83,111.29,111.29,0,0,0,3.05-19.83,113.18,113.18,0,0,0-1.08-26c-.61-4.17-1.4-8.34-2.17-12.38-.24-1.29-.49-2.58-.72-3.87-.56-3.29-1.14-6.58-1.72-9.87s-1.14-6.52-1.69-9.75-1.17-6.56-1.74-9.85-1.15-6.62-1.76-9.94c-.24-1.27-.49-2.54-.74-3.81-.16-.84-.33-1.68-.49-2.53l-2.79.29c-2.92.32-5.69.62-8.46.69a129.45,129.45,0,0,1-35.89-3.24,107.6,107.6,0,0,1-26.56-10c-.35-.18-.72-.39-1-.5l-.71.78a100.49,100.49,0,0,1-20.08,17.55,127.93,127.93,0,0,1-37.85,17.1c-2.24.72-4.51,1.32-6.91,2Z"/></svg>