<svg id="Layer_1" data-name="Layer 1" xmlns="http://www.w3.org/2000/svg" viewBox="0 0 600 600"><title>15-shrimp</title><path d="M208.14,339.06a67.64,67.64,0,0,1-3.4,19.2c-.4,1.3-.6,2.4.6,3.6,11.9,11.9,20.6,25.9,27.1,41.4a4.33,4.33,0,0,0,3.2,2.8,176.38,176.38,0,0,1,40.1,13.9,4.9,4.9,0,0,0,4.7,0,108.18,108.18,0,0,1,42.2-9.5c7.5-.2,15,.5,22.5.8a3.51,3.51,0,0,0,3.6-1.6,172.74,172.74,0,0,1,37.2-37.7c11.7-8.7,24.4-11,38.5-8.9,16.9,2.5,32,9.5,46.7,17.7,12.3,6.9,23.6,15,33,25.6a127.36,127.36,0,0,1,12.1,16.3c6.2,10,7.8,20.8,4.2,32.2-2.2,7-4.3,14-6.8,20.9a10.56,10.56,0,0,1-11.5,7.2,10.36,10.36,0,0,1-9.4-9.4,15.82,15.82,0,0,1,1.2-6.4c1.4-4.1,3.2-8.1,4.8-12.2a17.25,17.25,0,0,1,1-2.4c3.4-5.8,2.8-11.6.2-17.4-3.6-8.2-9.3-14.8-15.9-20.8a134.09,134.09,0,0,0-48.9-28.9c-7.9-2.6-15.9-4.3-24.3-3.1A31.12,31.12,0,0,0,403,385c-2.2.9-4.2,2.2-6.4,3.2-5,2.4-8.9,6.1-12.5,10.2-6,6.8-12,13.5-18.1,20.1a7.22,7.22,0,0,0-2,5.6,121.9,121.9,0,0,0,22.7,64.8,146.55,146.55,0,0,0,48.4,42.9,3.76,3.76,0,0,0,4.4-.1,120.1,120.1,0,0,0,32.8-29.1c3.8-4.9,10.1-6,15.1-2.5a10.79,10.79,0,0,1,2.4,15.1c-6.9,9.9-15.8,17.8-25.4,24.9-4.8,3.6-9.9,6.7-14.9,10a19.48,19.48,0,0,1-13.1,2.9,3.58,3.58,0,0,0-3.5,1.4,122.71,122.71,0,0,1-51.6,31.9,128.43,128.43,0,0,1-54.4,5.2c-10.5-1.2-20.8-3-30.8-6.7a10.44,10.44,0,0,1-2.4-1.1c-3.3-2.9-7.1-3-11.3-2.9a175.52,175.52,0,0,1-64.3-9.4,131.74,131.74,0,0,1-53.1-33.7,172.23,172.23,0,0,1-11.6-14c-2.6-3.4-3.5-7.5-3.9-11.7-.1-1.8-1-2.6-2.3-3.5-14.9-9.3-27.9-20.5-38.1-34.8-12.3-17.2-18.6-36.4-17.7-57.7.2-3.3.6-6.7.8-10a4.75,4.75,0,0,0-.6-2.4c-7.6-12.3-11.5-25.9-13.2-40.1-3.1-25.9,3.3-49.9,14.7-72.8,4.4-8.8,11.9-14,21.3-16.3,8.9-2.2,17.8-.7,26.5,1.1,16.6,3.4,31.7,10.5,46.2,19.1,5.2,3.1,9.3,7.4,14,11a3.36,3.36,0,0,1,1,1.6C206.24,316.56,208.14,326.26,208.14,339.06ZM415.34,543c-5-3.9-9.6-7.2-13.9-10.8a157.17,157.17,0,0,1-39.9-48.5,145.86,145.86,0,0,1-15.6-50.7c-.2-2-1.1-2.6-2.8-2.6-7.8-.2-15.6-.7-23.4-.4a79.27,79.27,0,0,0-26.7,6.1,3.57,3.57,0,0,0-2,2c-1.1,5.8-2.3,11.6-2.9,17.4-1.1,10.6-2,21.3-2.5,31.9a167.29,167.29,0,0,0,2.2,34.6c2.3,13.7,6.4,26.8,13.3,39a10.38,10.38,0,0,0,6.8,5.5,140.58,140.58,0,0,0,28,5c26.4,1.8,50.3-4.9,71.3-21.3C409.94,548.06,412.54,545.46,415.34,543Zm-139.2,17.4a8.36,8.36,0,0,0-.3-1.3c-9-22-12-45-11.8-68.6a280.52,280.52,0,0,1,4.9-48.3c.3-1.5.3-2.6-1.5-3.5a183.77,183.77,0,0,0-35.1-12.6,4.43,4.43,0,0,0-3,.6,113.61,113.61,0,0,0-9.2,7.7c-21.8,20.1-36.8,44.7-47.8,72-1.2,3.1-.9,5.4,1.1,7.9a107.71,107.71,0,0,0,36.6,30.4,140.54,140.54,0,0,0,48.2,14.3C264,559.66,269.94,559.86,276.14,560.36ZM155.54,489l1.7-3.4c13.3-27.9,30.6-52.7,54.7-72.4a1.84,1.84,0,0,0,.6-2.6,113.73,113.73,0,0,0-22.2-35,4.56,4.56,0,0,0-2.9-1.3c-13.7-.3-27.1,1.4-39.9,6.4-12.5,4.8-23.2,12.2-31.4,22.8a13.24,13.24,0,0,0-2.8,5.7,71.33,71.33,0,0,0,2.1,29.4c5,16.9,15,30.3,28.3,41.5C147.64,483.16,151.54,486,155.54,489Zm-49.6-104.6c1.1-1,1.7-1.5,2.3-2,3.4-2.8,6.7-5.7,10.2-8.3,18.7-13.2,39.8-18.7,62.3-19.8,2.4-.1,3.5-.9,4.2-3.2,3.1-10.8,2.7-21.6-.3-32.3a4.35,4.35,0,0,0-1.6-2.2c-17.3-12.8-36.4-21.1-57.8-23.8a13.15,13.15,0,0,0-13.1,7c-1.2,2.4-2.4,4.9-3.5,7.4-8.9,20.5-11.9,41.7-6.8,63.8C102.94,375.46,104.54,379.66,105.94,384.36Z"/><path d="M246.24,101.06c6.8-1.6,13.2-3.4,19.7-4.4q41.25-6.9,77.4,14.2c6,3.5,7.3,8,4.9,14.4-8.2,21.5-18.9,41.5-33.6,59.3-23.3,28.3-52.5,47.2-88.8,54.5-2.4.5-3.1,1.4-3.1,3.9.3,17.9-4.9,34.2-14,49.5a9.15,9.15,0,0,0-.9,1.7c-1,2.7-3.5,3.1-5.7,1-3.2-3.2-6.4-6.4-9.6-9.5-1.3-1.2-1.2-2.5-.5-3.9,1.5-3.2,3.2-6.3,4.6-9.5,4.8-10.9,7-22.2,5.6-34a14.12,14.12,0,0,0-1.6-5.4c-8.5-14.5-21.2-22.1-38-23.1a17,17,0,0,1-2.2-.1c-4.7-.2-8.4.3-11.9,4.9a100.69,100.69,0,0,0-12.4,20.6,50.29,50.29,0,0,0-4.2,23.6c.2,3.5-.2,3.6-3.7,4a94,94,0,0,0-12.9,2.2c-4,1-5.4.4-5.6-3.8a73.27,73.27,0,0,1,2.7-23.7,98.27,98.27,0,0,1,24.3-42,3.6,3.6,0,0,0,.5-2.7c-2.4-10.7-5.3-21.4-7.2-32.2-4.9-28.8-4.7-57.4,5.9-85.2,11.9-31.1,33-53.6,63.9-66.6a15.56,15.56,0,0,1,6-1.1,8.82,8.82,0,0,1,7.8,4.3c14.6,23.1,25.3,47.7,30.2,74.7.7,4,1.1,8.1,1.6,12.1A6.33,6.33,0,0,1,246.24,101.06ZM172.44,190a22.23,22.23,0,0,0,2.8.8c17,3.6,30.6,12.4,40.6,26.6,1.6,2.3,3.3,2.5,5.6,2.1,27.2-5,49.8-18.3,69-37.7,14.5-14.6,25.3-31.8,33.9-50.4,1-2.1,1.8-4.2,2.8-6.4-.9-.5-1.6-.9-2.3-1.2a92.56,92.56,0,0,0-50-7.6c-20,2.3-37.7,10.3-53.9,22.1-15,10.9-27.6,24.2-38.9,38.8C178.84,181.06,175.84,185.36,172.44,190Zm-17.2-14.2c.9-1,1.4-1.6,1.9-2.2,3.5-4.5,6.9-9,10.5-13.4,16.3-19.6,34.7-36.8,57.2-49.3a3,3,0,0,0,1.4-2.6c-.2-4.5-.4-8.9-1-13.4-3.1-22.5-11.1-43.3-22.2-63-1-1.7-1.9-1.9-3.3-.9-6,4.3-12.6,8-18,13-22.1,20.2-31.9,46-33.2,75.4a177.86,177.86,0,0,0,3.4,41.2C152.84,165.46,154,170.36,155.24,175.76Z"/></svg>