<?xml version="1.0" encoding="utf-8"?>
<!-- Generator: Adobe Illustrator 23.0.2, SVG Export Plug-In . SVG Version: 6.00 Build 0)  -->
<svg version="1.1" id="Layer_1" xmlns="http://www.w3.org/2000/svg" xmlns:xlink="http://www.w3.org/1999/xlink" x="0px" y="0px"
	 viewBox="0 0 600 600" style="enable-background:new 0 0 600 600;" xml:space="preserve">
<g>
	<path d="M208.1,339c0,4.8-1.1,12.1-3.4,19.2c-0.4,1.3-0.6,2.4,0.6,3.6c11.9,11.9,20.6,25.9,27.1,41.4c0.7,1.5,1.5,2.4,3.2,2.8
		c14,2.9,27.3,7.8,40.1,13.9c1.7,0.8,3,0.8,4.7,0c13.4-6.1,27.6-9.1,42.2-9.5c7.5-0.2,15,0.5,22.5,0.8c1.6,0.1,2.6-0.2,3.6-1.6
		c10.5-14.5,22.8-27,37.2-37.7c11.7-8.7,24.4-11,38.5-8.9c16.9,2.5,32,9.5,46.7,17.7c12.3,6.9,23.6,15,33,25.6
		c4.5,5.1,8.5,10.6,12.1,16.3c6.2,10,7.8,20.8,4.2,32.2c-2.2,7-4.3,14-6.8,20.9c-1.8,5.1-6.4,7.8-11.5,7.2c-4.9-0.5-8.8-4.1-9.4-9.4
		c-0.2-2.1,0.5-4.4,1.2-6.4c1.4-4.1,3.2-8.1,4.8-12.2c0.3-0.8,0.6-1.7,1-2.4c3.4-5.8,2.8-11.6,0.2-17.4c-3.6-8.2-9.3-14.8-15.9-20.8
		c-14.3-13-30.5-22.9-48.9-28.9c-7.9-2.6-15.9-4.3-24.3-3.1c-2.7,0.4-5.3,1.5-7.8,2.6c-2.2,0.9-4.2,2.2-6.4,3.2
		c-5,2.4-8.9,6.1-12.5,10.2c-6,6.8-12,13.5-18.1,20.1c-1.5,1.7-2.1,3.3-2,5.6c1.4,23.8,8.9,45.4,22.7,64.8
		c12.9,18,29.1,32.1,48.4,42.9c1.6,0.9,2.8,0.9,4.4-0.1c12.7-7.8,23.7-17.3,32.8-29.1c3.8-4.9,10.1-6,15.1-2.5
		c4.8,3.4,5.9,10,2.4,15.1c-6.9,9.9-15.8,17.8-25.4,24.9c-4.8,3.6-9.9,6.7-14.9,10c-4,2.5-8.4,3.5-13.1,2.9
		c-1.6-0.2-2.5,0.3-3.5,1.4c-14.5,14.9-31.7,25.6-51.6,31.9c-17.7,5.7-35.9,7.3-54.4,5.2c-10.5-1.2-20.8-3-30.8-6.7
		c-0.8-0.3-1.7-0.6-2.4-1.1c-3.3-2.9-7.1-3-11.3-2.9c-22,0.8-43.5-2.2-64.3-9.4c-20.3-7-38.2-18.1-53.1-33.7
		c-4.2-4.4-7.9-9.2-11.6-14c-2.6-3.4-3.5-7.5-3.9-11.7c-0.1-1.8-1-2.6-2.3-3.5c-14.9-9.3-27.9-20.5-38.1-34.8
		c-12.3-17.2-18.6-36.4-17.7-57.7c0.2-3.3,0.6-6.7,0.8-10c0-0.8-0.2-1.8-0.6-2.4c-7.6-12.3-11.5-25.9-13.2-40.1
		c-3.1-25.9,3.3-49.9,14.7-72.8c4.4-8.8,11.9-14,21.3-16.3c8.9-2.2,17.8-0.7,26.5,1.1c16.6,3.4,31.7,10.5,46.2,19.1
		c5.2,3.1,9.3,7.4,14,11c0.5,0.4,0.8,1,1,1.6C206.2,316.5,208.1,326.2,208.1,339z M415.3,542.9c-5-3.9-9.6-7.2-13.9-10.8
		c-16.5-13.5-29.9-29.6-39.9-48.5c-8.4-15.9-13.4-32.9-15.6-50.7c-0.2-2-1.1-2.6-2.8-2.6c-7.8-0.2-15.6-0.7-23.4-0.4
		c-9.2,0.4-18.2,2.6-26.7,6.1c-0.8,0.3-1.8,1.2-2,2c-1.1,5.8-2.3,11.6-2.9,17.4c-1.1,10.6-2,21.3-2.5,31.9
		c-0.6,11.6,0.4,23.1,2.2,34.6c2.3,13.7,6.4,26.8,13.3,39c1.6,2.9,3.7,4.7,6.8,5.5c9.2,2.6,18.5,4.3,28,5
		c26.4,1.8,50.3-4.9,71.3-21.3C409.9,548,412.5,545.4,415.3,542.9z M276.1,560.3c-0.2-0.9-0.2-1.1-0.3-1.3c-9-22-12-45-11.8-68.6
		c0.2-16.2,1.9-32.3,4.9-48.3c0.3-1.5,0.3-2.6-1.5-3.5c-11.3-5.4-23-9.6-35.1-12.6c-0.9-0.2-2.3,0.1-3,0.6c-3.2,2.4-6.3,5-9.2,7.7
		c-21.8,20.1-36.8,44.7-47.8,72c-1.2,3.1-0.9,5.4,1.1,7.9c9.9,12.9,22.1,22.9,36.6,30.4c15.2,7.8,31.3,12.3,48.2,14.3
		C264,559.6,269.9,559.8,276.1,560.3z M155.5,488.9c0.7-1.4,1.2-2.4,1.7-3.4c13.3-27.9,30.6-52.7,54.7-72.4c1-0.8,1.1-1.5,0.6-2.6
		c-5.3-13-12.6-24.7-22.2-35c-0.7-0.7-1.9-1.3-2.9-1.3c-13.7-0.3-27.1,1.4-39.9,6.4c-12.5,4.8-23.2,12.2-31.4,22.8
		c-1.3,1.7-2.5,3.7-2.8,5.7c-1.3,9.9-0.7,19.7,2.1,29.4c5,16.9,15,30.3,28.3,41.5C147.6,483.1,151.5,485.9,155.5,488.9z
		 M105.9,384.3c1.1-1,1.7-1.5,2.3-2c3.4-2.8,6.7-5.7,10.2-8.3c18.7-13.2,39.8-18.7,62.3-19.8c2.4-0.1,3.5-0.9,4.2-3.2
		c3.1-10.8,2.7-21.6-0.3-32.3c-0.2-0.8-0.9-1.7-1.6-2.2c-17.3-12.8-36.4-21.1-57.8-23.8c-5.3-0.7-10.7,2.3-13.1,7
		c-1.2,2.4-2.4,4.9-3.5,7.4c-8.9,20.5-11.9,41.7-6.8,63.8C102.9,375.4,104.5,379.6,105.9,384.3z"/>
	<path d="M246.2,101c6.8-1.6,13.2-3.4,19.7-4.4c27.5-4.6,53.3,0.1,77.4,14.2c6,3.5,7.3,8,4.9,14.4c-8.2,21.5-18.9,41.5-33.6,59.3
		c-23.3,28.3-52.5,47.2-88.8,54.5c-2.4,0.5-3.1,1.4-3.1,3.9c0.3,17.9-4.9,34.2-14,49.5c-0.3,0.5-0.7,1.1-0.9,1.7
		c-1,2.7-3.5,3.1-5.7,1c-3.2-3.2-6.4-6.4-9.6-9.5c-1.3-1.2-1.2-2.5-0.5-3.9c1.5-3.2,3.2-6.3,4.6-9.5c4.8-10.9,7-22.2,5.6-34
		c-0.2-1.9-0.7-3.8-1.6-5.4c-8.5-14.5-21.2-22.1-38-23.1c-0.7,0-1.4,0-2.2-0.1c-4.7-0.2-8.4,0.3-11.9,4.9
		c-4.9,6.5-9.2,13.2-12.4,20.6c-3.3,7.5-4.7,15.4-4.2,23.6c0.2,3.5-0.2,3.6-3.7,4c-4.3,0.5-8.7,1.1-12.9,2.2c-4,1-5.4,0.4-5.6-3.8
		c-0.4-8,0.5-15.9,2.7-23.7c4.5-16.1,12.8-30,24.3-42c0.5-0.6,0.7-1.9,0.5-2.7c-2.4-10.7-5.3-21.4-7.2-32.2
		c-4.9-28.8-4.7-57.4,5.9-85.2c11.9-31.1,33-53.6,63.9-66.6c1.9-0.8,4-1.1,6-1.1c3.3,0,5.9,1.4,7.8,4.3
		c14.6,23.1,25.3,47.7,30.2,74.7c0.7,4,1.1,8.1,1.6,12.1C245.9,99.6,246.1,100.3,246.2,101z M172.4,189.9c1.3,0.4,2.1,0.7,2.8,0.8
		c17,3.6,30.6,12.4,40.6,26.6c1.6,2.3,3.3,2.5,5.6,2.1c27.2-5,49.8-18.3,69-37.7c14.5-14.6,25.3-31.8,33.9-50.4
		c1-2.1,1.8-4.2,2.8-6.4c-0.9-0.5-1.6-0.9-2.3-1.2c-16-7.2-32.7-9.7-50-7.6c-20,2.3-37.7,10.3-53.9,22.1
		c-15,10.9-27.6,24.2-38.9,38.8C178.8,181,175.8,185.3,172.4,189.9z M155.2,175.7c0.9-1,1.4-1.6,1.9-2.2c3.5-4.5,6.9-9,10.5-13.4
		c16.3-19.6,34.7-36.8,57.2-49.3c0.8-0.4,1.5-1.7,1.4-2.6c-0.2-4.5-0.4-8.9-1-13.4c-3.1-22.5-11.1-43.3-22.2-63
		c-1-1.7-1.9-1.9-3.3-0.9c-6,4.3-12.6,8-18,13c-22.1,20.2-31.9,46-33.2,75.4c-0.6,13.9,0.8,27.6,3.4,41.2
		C152.8,165.4,154,170.3,155.2,175.7z"/>
</g>
</svg>
