<?xml version="1.0" encoding="utf-8"?>
<!-- Generator: Adobe Illustrator 23.0.2, SVG Export Plug-In . SVG Version: 6.00 Build 0)  -->
<svg version="1.1" id="Layer_1" xmlns="http://www.w3.org/2000/svg" xmlns:xlink="http://www.w3.org/1999/xlink" x="0px" y="0px"
	 viewBox="0 0 600 600" style="enable-background:new 0 0 600 600;" xml:space="preserve">
<g>
	<path d="M316.5,234.8c-5.6-0.4-11-1.2-16.3-1.2c-11.5,0-22.8,2.1-33.3,6.9c-27.7,12.5-44.9,33.6-51.1,63.4c-1.8,8.5-2,17-1,25.6
		c0.3,2.3,0.1,4.7,0.1,7c0,66.7,0,133.5,0,200.2c0,0.8,0,1.7,0,2.5c0.1,2.5,0.7,3.2,3.3,3.2c12.7,0,25.3,0,38,0
		c1.6,0,2.2-0.4,2.5-2.1c3.5-20.1,7.1-40.2,10.7-60.3c3.5-20,7-39.9,10.5-59.9c0.7-3.8,1.4-7.7,2.2-11.5c0.3-1.4,1-2.7,1.5-3.9
		c4.4,0.4,8.4,0.9,12.5,1.2c13.2,0.9,26-1.3,38-6.7c27.7-12.4,44.9-33.6,51.1-63.4c2-9.6,2.1-19.2,0.5-28.9c-0.2-1-0.1-2-0.1-2.9
		c0-67.4,0-134.8,0-202.2c0-1.3-0.3-2.7-0.7-3.9c-0.7-2.2,0.1-4.1,2.3-4.5c4.2-0.9,7.6-3,10.6-6c2.2-2.3,4.2-2,5.9,0.8
		c1.8,2.9,2.5,6.2,2.9,9.6c0.1,0.7,0,1.4,0,2c0,146.6,0,293.3,0,439.9c0,7.1-2.8,13-7.3,18.2c-2.1,2.5-5.1,3.7-8.2,4.4
		c-3.2,0.7-6.5,1.4-9.8,1.4c-54.1,0.1-108.3,0.1-162.4,0c-5.5,0-10.7-1-15.4-4.3c-6.6-4.8-9.9-11.4-9.9-19.3
		c0.1-151.2,0.2-302.5,0.3-453.7c0-1.9-0.2-3.9,2.2-4.7c2.4-0.7,3.3,1.1,4.4,2.6c2.9,4.3,6.5,7.6,11.7,8.6c2.6,0.5,5.4,0.6,8.1,0.6
		c31.6,0,63.1,0,94.7,0c7.5,0,15.1,0,22.6,0c3.9,0,5,1.3,4.3,5.2c-3.5,19.9-7.1,39.7-10.7,59.6c-3.1,17.4-6.1,34.9-9.2,52.3
		c-0.9,5.1-1.7,10.2-2.8,15.3C318.5,229,317.4,231.9,316.5,234.8z M385.5,382c-0.2-0.1-0.3-0.2-0.5-0.3c-21.6,28-50.1,42.3-85.4,43
		c-7,39.3-13.9,78.4-20.9,117.7c1.4,0,2.3,0,3.3,0c33.1,0,66.3,0,99.4,0c0.5,0,0.9,0,1.4,0c1.3,0.1,2.2-0.3,2.4-1.7
		c0.2-1.7,0.7-3.4,0.7-5.1c0-35.8-0.2-71.7-0.2-107.5c0-12.6-0.1-25.1-0.1-37.7C385.4,387.5,385.5,384.7,385.5,382z M215.5,257.8
		c0.2,0.1,0.3,0.2,0.5,0.3c10-13.4,22.3-24,37.2-31.5c14.9-7.6,30.9-11.1,47.8-11.3c6-33.8,12-67.5,18-101.4c-34.9,0-69.4,0-104.2,0
		C215,161.9,215.2,209.9,215.5,257.8z"/>
	<path d="M300.4,388.4c-37.9-0.4-68.2-30.2-68.5-68.1c-0.2-37.8,29.5-68.4,67.6-68.8c38.6-0.4,69,30.1,69.3,67.9
		C369.1,357.4,339,388,300.4,388.4z M289.3,270.8c0,0.3-0.1,0.5-0.1,0.8c0.5,0.4,0.9,0.9,1.4,1.3c2.9,2.3,5.9,4.6,8.8,7
		c4.4,3.6,9.3,6.2,14.9,7.6c4.4,1.1,7.2,3.9,8.5,8.3c0.1,0.3,0.2,0.6,0.3,0.9c0.8,2.6,1.2,2.9,4,3.1c1,0.1,2.1,0.1,3.1,0.4
		c1.1,0.4,2.3,0.9,2.9,1.7c3,3.9,5.9,8,8.8,12c0.7,1,1.4,2,0.6,3.1c-1,1.2-2.2,0.5-3.3,0c-3.2-1.6-6.4-3.2-9.7-4.8
		c-1.2-0.6-2.5-1-3.8-1.4c-1.3-0.3-2.1,0.1-2.4,1.5c-0.9,3.6-2.5,6.9-4.8,9.9c-2.1,2.7-4.5,5.3-6.5,8.1c-3.1,4.2-11.3,3.8-13.5-2.2
		c-0.3-0.9-0.7-1.8-0.9-2.8c-0.3-1.8-1.4-2.5-3.1-2.6c-0.8,0-1.6-0.3-2.2-0.1c-0.8,0.3-1.9,0.7-2.3,1.4c-1.1,2-2,4.2-2.9,6.4
		c-0.2,0.6,0,1.4,0.3,2c1.5,3.1,3.1,6.1,4.7,9.2c1.2,2.3,2.3,4.7,3.8,6.8c2.5,3.7,5.3,7.1,7.8,10.8c0.5,0.7,1,2,0.7,2.6
		c-0.3,0.6-1.6,1-2.4,1.1c-4.6,0.1-9.2,0.1-13.8,0c-2.3,0-2.6-0.3-3.1-2.5c-0.5-2.3-0.9-4.6-1.5-6.8c-0.3-1-0.7-2-1.4-2.7
		c-3.1-3-6.2-5.9-9.4-8.8c-1.5-1.3-2-1.2-2.8,0.6c-1.3,2.9-2.6,5.9-3.9,8.9c-1.1,2.5-0.6,4.5,1.4,6.2c12.2,10.3,26.3,14.3,42,11.4
		c25.5-4.8,42.6-28.2,40.6-52.9c-1.1-13.4-6.6-24.6-16.5-33.5c-9.4-8.5-20.5-12.6-33.1-12.8C296.9,269.7,293.1,270.4,289.3,270.8z
		 M251.3,329.1c2.9-0.6,5.5-1.4,8.1-1.7c1.8-0.2,2.1-1.1,1.8-2.6c-0.3-1.7-0.6-3.4-0.8-5.1c-0.1-1.1,0.1-2.2,1.5-2.3
		c1.3-0.2,1.7,0.7,1.8,1.8c0.2,1.3,0.4,2.5,0.6,3.8c1.2,5.3,4.1,9.7,7.8,13.5c3.4,3.4,7,6.7,10.5,9.9c2.3,2.1,4.1,4.6,4.7,7.8
		c0.2,1.3,0.4,2.7,0.7,4c0.1,0.5,0.8,1.3,1.3,1.3c3.1,0.1,6.2,0.1,10,0.1c-1.2-1.7-1.9-2.9-2.9-4.1c-3.8-4.6-6.9-9.6-8.9-15.3
		c-0.7-2.1-2.1-4-3.5-5.7c-2-2.4-2.1-2.3-0.5-4.9c4.7-7.7,6.3-16,5.2-24.9c-0.2-1.8-0.6-3.5-1.1-5.3c-0.3-1.2,0-2.2,1.2-2.5
		c1.2-0.3,1.7,0.7,2.1,1.6c0.1,0.2,0.1,0.4,0.2,0.6c1.2,4.9,1.9,9.7,1.1,14.7c-0.3,1.8-0.3,3.5-0.5,5.6c1.8,0.1,3.5,0.3,5.1,0.3
		c1.9,0,3,0.8,3.4,2.6c0.3,1.2,0.7,2.5,1.1,3.7c0.6,1.9,1.5,3.4,3.7,3.8c2.1,0.4,3.4-0.5,4.6-2.1c1.8-2.2,3.6-4.4,5.4-6.7
		c2.1-2.6,3.7-5.5,4.6-8.7c0.1-0.5,0.2-1.1,0.3-1.7c-1.1-0.2-2-0.5-2.8-0.5c-1.5-0.1-2.2-0.8-2.1-2.3c0.1-2.3,0-4.5,0-6.8
		c0-1.6,0.7-2.2,2.2-2.1c0.8,0.1,1.6,0,2.4,0c-0.1-4.1-2.3-6.8-6.5-7.8c-5.1-1.2-9.6-3.3-13.7-6.6c-4.4-3.6-9-7-13.5-10.6
		c-1.1-0.9-2.2-1.2-3.5-0.5c-2.1,1-4.3,1.8-6.3,3c-14.6,8.4-23,21-25.5,37.6C249.9,318.7,250,323.8,251.3,329.1z M263.1,330.9
		c-2,4.9-3.8,9.2-5.6,13.6c-0.1,0.3-0.2,0.8,0,1.1c1.4,2.2,2.9,4.3,4.6,6.7c2.1-4.7,3.9-8.8,5.7-12.9c0.3-0.7,0.3-1.7,0-2.3
		C266.4,335.1,264.8,333.2,263.1,330.9z M334.6,310.8c0.1-0.1,0.3-0.2,0.4-0.2c-1.5-2-2.9-3.9-4.5-5.8c-0.3-0.4-0.9-0.6-1.4-0.7
		c-3.4-0.5-6.8-0.9-10.5-1.3c0,1.5,0,2.8,0,4.1c2.9,0.4,5.6,0.5,8.2,1.1C329.5,308.6,332,309.8,334.6,310.8z M254.7,340.5
		c0.2,0,0.4,0,0.6,0c1.2-2.9,2.4-5.9,3.8-9.3c-2.7,0.6-4.8,1-7.3,1.5C252.9,335.5,253.8,338,254.7,340.5z"/>
	<path d="M319.1,43c0-3.7-0.1-7,0-10.3c0.1-5,1.4-9.7,4.8-13.5c3.9-4.5,8.8-6.9,14.8-7c3,0,6,0,9,0c10,0.1,18.8,8.7,19,18.7
		c0.1,3.3,0.1,6.6,0,9.9c0,1.6,0.5,2.3,2.2,2.2c4.8-0.1,9.6,0,14.5,0c10.3-0.1,21.1,8.1,20.3,22.5c-0.6,10.2-9.6,18.4-19.7,18.4
		c-55.8,0-111.6,0-167.4,0c-10.6,0-19.2-9.1-19.5-19.7c-0.3-10.1,6.4-18.4,14.6-20.3c2.3-0.6,4.7-0.8,7.1-0.8c32.3,0,64.6,0,96.9,0
		C316.6,43,317.6,43,319.1,43z M300.4,57.7c-8.5,0-17,0-25.5,0c-19,0-38.1,0-57.1,0c-3.6,0-6,2.3-6,5.6c0,3.3,2.3,5.7,5.8,5.9
		c0.5,0,1.1,0,1.6,0c54.1,0,108.1,0,162.2,0c1,0,2,0,2.9-0.2c3.1-0.7,4.7-3,4.4-6.3c-0.2-2.9-2.3-4.8-5.4-5c-0.8,0-1.7,0-2.5,0
		C354,57.7,327.2,57.7,300.4,57.7z M352,42.7c0-4.1,0.2-8.1-0.1-12c-0.1-2.1-2.3-3.7-4.5-3.8c-2.9-0.1-5.7-0.1-8.6,0
		c-2.4,0.1-4.5,1.9-4.6,4.2c-0.2,3.8-0.1,7.6-0.1,11.6C340.2,42.7,346,42.7,352,42.7z"/>
	<path d="M398.2,567c0.7,10.9-8.2,20.7-18.8,20.9c-4.4,0.1-8.9,0-13.3,0c-48,0-95.9,0-143.9,0c-9.3,0-17-5.8-19.4-14.9
		c-0.3-1.2-0.5-2.5-0.7-3.8c-0.1-0.7,0-1.3,0-2.4c0.8,0.6,1.3,1,1.9,1.5c3.8,3.1,8.2,4.8,13.1,4.8c55.6,0,111.1,0,166.7,0
		C389.2,573.1,393.9,570.9,398.2,567z"/>
</g>
</svg>
