<svg id="Layer_1" data-name="Layer 1" xmlns="http://www.w3.org/2000/svg" viewBox="0 0 600 600"><title>16-redbull</title><path d="M300.28,390.16c-37.9-.4-68.2-30.2-68.5-68.1a68.45,68.45,0,0,1,136.9-.9C369,359.16,338.88,389.76,300.28,390.16Zm-11.1-117.6c0,.3-.1.5-.1.8.5.4.9.9,1.4,1.3,2.9,2.3,5.9,4.6,8.8,7a37.7,37.7,0,0,0,14.9,7.6,11.24,11.24,0,0,1,8.5,8.3l.3.9c.8,2.6,1.2,2.9,4,3.1a16.45,16.45,0,0,1,3.1.4,6.4,6.4,0,0,1,2.9,1.7c3,3.9,5.9,8,8.8,12,.7,1,1.4,2,.6,3.1-1,1.2-2.2.5-3.3,0-3.2-1.6-6.4-3.2-9.7-4.8a24.64,24.64,0,0,0-3.8-1.4,1.72,1.72,0,0,0-2.4,1.5,26.8,26.8,0,0,1-4.8,9.9c-2.1,2.7-4.5,5.3-6.5,8.1-3.1,4.2-11.3,3.8-13.5-2.2a22.94,22.94,0,0,1-.9-2.8c-.3-1.8-1.4-2.5-3.1-2.6a8.47,8.47,0,0,0-2.2-.1,4.49,4.49,0,0,0-2.3,1.4,62.21,62.21,0,0,0-2.9,6.4,2.85,2.85,0,0,0,.3,2c1.5,3.1,3.1,6.1,4.7,9.2a56.34,56.34,0,0,0,3.8,6.8c2.5,3.7,5.3,7.1,7.8,10.8.5.7,1,2,.7,2.6s-1.6,1-2.4,1.1q-6.9.15-13.8,0c-2.3,0-2.6-.3-3.1-2.5s-.9-4.6-1.5-6.8a6.34,6.34,0,0,0-1.4-2.7c-3.1-3-6.2-5.9-9.4-8.8-1.5-1.3-2-1.2-2.8.6-1.3,2.9-2.6,5.9-3.9,8.9a4.81,4.81,0,0,0,1.4,6.2c12.2,10.3,26.3,14.3,42,11.4a50,50,0,0,0,40.6-52.9,48.89,48.89,0,0,0-16.5-33.5c-9.4-8.5-20.5-12.6-33.1-12.8C296.78,271.46,293,272.16,289.18,272.56Zm-38,58.3c2.9-.6,5.5-1.4,8.1-1.7,1.8-.2,2.1-1.1,1.8-2.6-.3-1.7-.6-3.4-.8-5.1-.1-1.1.1-2.2,1.5-2.3s1.7.7,1.8,1.8c.2,1.3.4,2.5.6,3.8a28.34,28.34,0,0,0,7.8,13.5c3.4,3.4,7,6.7,10.5,9.9a14,14,0,0,1,4.7,7.8c.2,1.3.4,2.7.7,4,.1.5.8,1.3,1.3,1.3,3.1.1,6.2.1,10,.1-1.2-1.7-1.9-2.9-2.9-4.1a49.91,49.91,0,0,1-8.9-15.3,18.66,18.66,0,0,0-3.5-5.7c-2-2.4-2.1-2.3-.5-4.9a37.53,37.53,0,0,0,5.2-24.9,33.3,33.3,0,0,0-1.1-5.3c-.3-1.2,0-2.2,1.2-2.5s1.7.7,2.1,1.6c.1.2.1.4.2.6,1.2,4.9,1.9,9.7,1.1,14.7-.3,1.8-.3,3.5-.5,5.6,1.8.1,3.5.3,5.1.3a3,3,0,0,1,3.4,2.6c.3,1.2.7,2.5,1.1,3.7.6,1.9,1.5,3.4,3.7,3.8s3.4-.5,4.6-2.1c1.8-2.2,3.6-4.4,5.4-6.7a24.32,24.32,0,0,0,4.6-8.7c.1-.5.2-1.1.3-1.7a18.59,18.59,0,0,0-2.8-.5c-1.5-.1-2.2-.8-2.1-2.3.1-2.3,0-4.5,0-6.8,0-1.6.7-2.2,2.2-2.1a19.22,19.22,0,0,0,2.4,0c-.1-4.1-2.3-6.8-6.5-7.8a33.58,33.58,0,0,1-13.7-6.6c-4.4-3.6-9-7-13.5-10.6a2.89,2.89,0,0,0-3.5-.5c-2.1,1-4.3,1.8-6.3,3-14.6,8.4-23,21-25.5,37.6A39,39,0,0,0,251.18,330.86Zm11.8,1.8c-2,4.9-3.8,9.2-5.6,13.6a1.4,1.4,0,0,0,0,1.1c1.4,2.2,2.9,4.3,4.6,6.7,2.1-4.7,3.9-8.8,5.7-12.9a3,3,0,0,0,0-2.3C266.28,336.86,264.68,335,263,332.66Zm71.5-20.1a.76.76,0,0,1,.4-.2c-1.5-2-2.9-3.9-4.5-5.8a2.35,2.35,0,0,0-1.4-.7c-3.4-.5-6.8-.9-10.5-1.3v4.1c2.9.4,5.6.5,8.2,1.1A55.88,55.88,0,0,1,334.48,312.56Zm-79.9,29.7h.6c1.2-2.9,2.4-5.9,3.8-9.3-2.7.6-4.8,1-7.3,1.5C252.78,337.26,253.68,339.76,254.58,342.26Z"/><path d="M319,44.76c0-3.7-.1-7,0-10.3.1-5,1.4-9.7,4.8-13.5a19.24,19.24,0,0,1,14.8-7h9c10,.1,18.8,8.7,19,18.7q.15,5,0,9.9c0,1.6.5,2.3,2.2,2.2,4.8-.1,9.6,0,14.5,0,10.3-.1,21.1,8.1,20.3,22.5-.6,10.2-9.6,18.4-19.7,18.4H216.48c-10.6,0-19.2-9.1-19.5-19.7-.3-10.1,6.4-18.4,14.6-20.3a28.13,28.13,0,0,1,7.1-.8h96.9A32.25,32.25,0,0,1,319,44.76Zm-18.7,14.7h-82.6c-3.6,0-6,2.3-6,5.6a5.76,5.76,0,0,0,5.8,5.9h163.8a13.68,13.68,0,0,0,2.9-.2c3.1-.7,4.7-3,4.4-6.3-.2-2.9-2.3-4.8-5.4-5h-82.9Zm51.6-15c0-4.1.2-8.1-.1-12-.1-2.1-2.3-3.7-4.5-3.8-2.9-.1-5.7-.1-8.6,0a4.67,4.67,0,0,0-4.6,4.2c-.2,3.8-.1,7.6-.1,11.6Z"/><path d="M300,561.87c-27,0-54.28,0-81.2-.08-6.11,0-10.83-1.31-14.83-4.12a21.8,21.8,0,0,1-9.47-18.48l.3-454.11c0-1.86,0-2.85,1.51-3.34a2.45,2.45,0,0,1,.69-.1c.89,0,1.42.69,2.21,1.81.13.18.25.36.38.53,3.49,5.18,7.41,8,12.32,9a44.93,44.93,0,0,0,8.29.62h117.3c1.65,0,2.67.25,3.1.78s.51,1.59.21,3.25c-3,17.25-6.2,34.74-9.26,51.65l-1.44,7.94q-2.32,13.11-4.62,26.27t-4.58,26l-.66,3.85c-.65,3.74-1.31,7.61-2.13,11.41-.48,2.11-1.16,4.18-1.82,6.17-.21.63-.42,1.26-.62,1.89-1.67-.13-3.33-.3-5-.45-3.66-.36-7.12-.7-10.63-.7a80.49,80.49,0,0,0-33.72,7c-28.06,12.67-45.45,34.24-51.66,64.11a79.09,79.09,0,0,0-1,25.92,33,33,0,0,1,.12,4.88c0,.67,0,1.34,0,2v202.7c.12,3.15,1.21,4.2,4.3,4.2h38c2.13,0,3.11-.82,3.48-2.92,3.51-20.15,7.17-40.56,10.7-60.3,1.75-10,8.75-49.9,10.5-59.9l.28-1.52c.6-3.28,1.23-6.67,1.92-10a14.48,14.48,0,0,1,1-2.75l.14-.3,4.4.45c2.53.26,4.93.51,7.39.69,1.94.13,3.88.2,5.79.2a79.07,79.07,0,0,0,32.7-7c28.05-12.55,45.43-34.12,51.67-64.1a79.64,79.64,0,0,0,.5-29.27,9.27,9.27,0,0,1-.09-2c0-.24,0-.48,0-.71V100.89a13.82,13.82,0,0,0-.75-4.21,2.85,2.85,0,0,1,.09-2.32,2,2,0,0,1,1.44-.88,22.06,22.06,0,0,0,11.13-6.28,3.25,3.25,0,0,1,2.1-1.24c.92,0,1.72,1,2.23,1.85a22,22,0,0,1,2.76,9.2,6.22,6.22,0,0,1,0,1.22c0,.23,0,.45,0,.66v439.9c0,6.32-2.31,12.06-7.06,17.55-1.66,2-4.09,3.27-7.66,4.08a45.91,45.91,0,0,1-9.58,1.37C354.25,561.84,326.94,561.87,300,561.87Zm84.9-182.08a1,1,0,0,0-.79.39c-21.28,27.58-49.76,41.92-84.63,42.61a1,1,0,0,0-1,.83q-5.25,29.5-10.46,58.92t-10.44,58.78a1,1,0,0,0,1,1.17h104.1l.36,0a2.8,2.8,0,0,0,3-2.58c.07-.64.19-1.26.3-1.87a18.71,18.71,0,0,0,.41-3.37c0-17.9,0-36.13-.1-53.75s-.1-35.85-.1-53.75c0-6.3,0-12.58-.05-18.85s0-12.55,0-18.85c-.15-2.21-.13-4.32-.11-6.36,0-.68,0-1.36,0-2a1,1,0,0,0-.56-.89l-.14-.09a2.29,2.29,0,0,0-.36-.21A1,1,0,0,0,384.88,379.79ZM214.68,112a1,1,0,0,0-.71.3,1,1,0,0,0-.29.71c.2,47.18.4,96,.7,143.9a1,1,0,0,0,.55.89.47.47,0,0,1,.14.08,3.79,3.79,0,0,0,.36.22,1,1,0,0,0,.45.1,1,1,0,0,0,.8-.4,104.26,104.26,0,0,1,36.85-31.2c14.16-7.23,30.09-11,47.36-11.2a1,1,0,0,0,1-.82l6-33.78q6-33.76,12-67.62a1,1,0,0,0-.22-.82,1,1,0,0,0-.76-.36Z"/><path d="M374.85,586c-1.48,0-3,0-4.45,0L366,586H222.08a18.6,18.6,0,0,1-18.44-14.15c-.28-1.15-.48-2.44-.67-3.7l0-.22.3.24a21.27,21.27,0,0,0,13.74,5h166.7a21.09,21.09,0,0,0,13.41-5A19.06,19.06,0,0,1,392,580a18,18,0,0,1-12.78,6C377.8,586,376.33,586,374.85,586Z"/></svg>