<?xml version="1.0" encoding="utf-8"?>
<!-- Generator: Adobe Illustrator 23.0.3, SVG Export Plug-In . SVG Version: 6.00 Build 0)  -->
<svg version="1.1" id="Layer_1" xmlns="http://www.w3.org/2000/svg" xmlns:xlink="http://www.w3.org/1999/xlink" x="0px" y="0px"
	 viewBox="0 0 600 600" style="enable-background:new 0 0 600 600;" xml:space="preserve">
<path d="M319,44.8c0-3.7-0.1-7,0-10.3c0.1-5,1.4-9.7,4.8-13.5c3.6-4.4,9.1-7,14.8-7h9c10,0.1,18.8,8.7,19,18.7
	c0.1,3.3,0.1,6.6,0,9.9c0,1.6,0.5,2.3,2.2,2.2c4.8-0.1,9.6,0,14.5,0c10.3-0.1,21.1,8.1,20.3,22.5c-0.6,10.2-9.6,18.4-19.7,18.4
	H216.5c-10.6,0-19.2-9.1-19.5-19.7c-0.3-10.1,6.4-18.4,14.6-20.3c2.3-0.6,4.7-0.8,7.1-0.8h96.9C316.7,44.8,317.9,44.7,319,44.8z
	 M300.3,59.5h-82.6c-3.6,0-6,2.3-6,5.6c-0.1,3.2,2.4,5.8,5.6,5.9c0.1,0,0.1,0,0.2,0h163.8c1,0,1.9,0,2.9-0.2c3.1-0.7,4.7-3,4.4-6.3
	c-0.2-2.9-2.3-4.8-5.4-5H300.3z M351.9,44.5c0-4.1,0.2-8.1-0.1-12c-0.1-2.1-2.3-3.7-4.5-3.8c-2.9-0.1-5.7-0.1-8.6,0
	c-2.4,0-4.4,1.8-4.6,4.2c-0.2,3.8-0.1,7.6-0.1,11.6H351.9z"/>
<path d="M374.9,583c-1.5,0-3,0-4.5,0H366H222.1c-8.7,0.2-16.4-5.7-18.4-14.2c-0.3-1.2-0.5-2.4-0.7-3.7v-0.2l0.3,0.2
	c3.8,3.2,8.7,5,13.7,5h166.7c4.9-0.1,9.7-1.8,13.4-5c-0.3,4.4-2.1,8.6-5.1,11.8c-3.3,3.7-7.9,5.8-12.8,6
	C377.8,583,376.3,583,374.9,583z"/>
<path d="M299,561.9c-26.7,0-54.3,0-81.2-0.1c-5.9,0-10.4-1.3-14.3-3.9c-5.8-4-9.2-10.6-9-17.6l0.3-454.1c0-2,0.1-2.2,0.8-2.4
	c0.1,0,0.2-0.1,0.4-0.1c0.4,0,0.7,0.4,1.4,1.4l0.1,0.2c0.1,0.1,0.2,0.2,0.3,0.4c3.6,5.3,7.7,8.3,12.9,9.4c2.6,0.4,5.1,0.6,7.7,0.6
	c0.3,0,0.5,0,0.8,0h117.3c1.9,0,2.3,0.4,2.3,0.4c0,0,0.4,0.5,0,2.4c-2.5,14.2-5.1,28.6-7.6,42.6l-3.1,17c-1.5,8.7-3.1,17.5-4.6,26.3
	c-1.5,8.8-3.1,17.4-4.6,26l-0.8,4.7c-0.6,3.5-1.2,7-2,10.5c-0.5,2.1-1.2,4.3-1.8,6.1c-0.1,0.4-0.3,0.8-0.4,1.1
	c-0.8-0.1-1.7-0.2-2.5-0.2l-1.7-0.2c-3.7-0.4-7.2-0.7-10.7-0.7l-0.9,0c-11.5,0-22.7,2.4-33.2,7.1c-28.4,12.8-46,34.6-52.2,64.8
	c-1.8,8.7-2.1,17.5-1,26.2c0.2,1.5,0.2,3.1,0.1,4.7l0,204.8c0.1,3.7,1.7,5.2,5.3,5.2h38c2.6,0,4-1.2,4.5-3.7
	c3.2-18.3,6.5-36.9,9.7-54.8l1-5.5c0.9-5,9.6-54.9,10.5-59.9l0.3-1.5c0.6-3,1.2-6.5,1.9-10c0.2-0.7,0.4-1.5,0.8-2.2l4,0.4
	c2.4,0.2,4.7,0.5,7.1,0.7c2,0.1,4,0.2,5.9,0.2h0.2c11.4,0,22.5-2.4,32.9-7.1c28.4-12.7,45.9-34.5,52.2-64.8c2-9.8,2.2-19.8,0.5-29.6
	c-0.1-0.6-0.1-1.2-0.1-1.8l0-202.9c0-1.6-0.3-3.1-0.8-4.5c-0.2-0.5-0.2-1,0-1.5c0.2-0.2,0.4-0.4,0.7-0.4c0,0,0.1,0,0.1,0
	c4.5-1,8.5-3.3,11.6-6.6c0,0,0-0.1,0.1-0.1c0.3-0.4,0.8-0.7,1.4-0.8c0.3,0,0.8,0.5,1.3,1.4c1.5,2.7,2.4,5.7,2.6,8.8
	c0,0.4,0,0.7,0,1.1l0,0.8v439.9c0,6.1-2.2,11.6-6.8,16.9c-1.5,1.8-3.8,3-7.1,3.8c-3.1,0.8-6.2,1.2-9.4,1.3
	C351.4,561.8,324.1,561.9,299,561.9z M382,544.5c0,0,0.1,0,0.2,0c2,0,3.6-1.5,3.8-3.5c0.1-0.5,0.1-1,0.2-1.5l0-0.3
	c0.2-1.1,0.4-2.3,0.4-3.5c0-17.8,0-36.2-0.1-53.8c-0.1-17.6-0.1-36-0.1-53.7c0-6.2,0-12.6,0-18.9c0-4.2,0-8.4,0-12.5
	c0-2.1,0-4.2,0-6.3c-0.1-2.2-0.1-4.3-0.1-6.3v-2c0-0.7-0.4-1.4-1.1-1.8l-0.1-0.1c-0.1-0.1-0.3-0.2-0.5-0.3c-0.2-0.1-0.5-0.2-0.8-0.2
	c-0.7,0-1.2,0.3-1.6,0.8c-21.1,27.3-49.3,41.5-83.9,42.2h0c-1,0-1.8,0.7-2,1.7c-3.5,19.7-7,39.3-10.5,58.9
	c-3.5,19.6-7,39.2-10.4,58.8c-0.1,0.5,0,1.1,0.3,1.5c0.3,0.4,0.8,0.7,1.3,0.8c0.1,0,0.2,0,0.3,0h0H382z M213.5,259.7
	c0.2,0.1,0.3,0.2,0.4,0.3c0.3,0.2,0.6,0.2,0.9,0.2c0.6,0,1.2-0.3,1.6-0.8c9.5-13,22.2-23.6,36.5-30.9c14-7.2,29.8-10.9,46.9-11.1
	l0,0c1,0,1.8-0.7,2-1.6l6-33.8c4-22.5,8-45,12-67.6c0.1-0.6-0.1-1.2-0.4-1.6c-0.4-0.4-0.9-0.7-1.5-0.7c0,0-104.2,0-104.2,0
	c-0.5,0-1,0.2-1.4,0.6c-0.4,0.4-0.6,0.9-0.6,1.4l0,8.4c0.2,44.5,0.4,90.5,0.7,135.5C212.4,258.7,212.8,259.4,213.5,259.7
	C213.5,259.7,213.5,259.7,213.5,259.7z"/>
<g>
	<path d="M300.8,257.3c-35.6,0-64.4,28.9-64.4,64.4s28.9,64.4,64.4,64.4s64.4-28.9,64.4-64.4S336.3,257.3,300.8,257.3z M250.5,315.8
		c2.5-16.6,10.9-29.2,25.5-37.6c2-1.2,4.2-2,6.3-3c1.1-0.6,2.6-0.4,3.5,0.5c4.5,3.6,9.1,7,13.5,10.6c4,3.2,8.7,5.5,13.7,6.6
		c4.2,1,6.4,3.7,6.5,7.8c-0.8,0-1.6,0-2.4,0c-1.5-0.1-2.2,0.5-2.2,2.1c0,2.3,0.1,4.5,0,6.8c-0.1,1.5,0.6,2.2,2.1,2.3
		c0.9,0.1,1.9,0.3,2.8,0.5c-0.1,0.6-0.2,1.2-0.3,1.7c-0.9,3.2-2.5,6.1-4.6,8.7c-1.8,2.3-3.6,4.5-5.4,6.7c-1.2,1.6-2.4,2.5-4.6,2.1
		c-2.2-0.4-3.1-1.9-3.7-3.8c-0.4-1.2-0.8-2.5-1.1-3.7c0,0,0,0,0-0.1c-0.2-1.6-1.8-2.8-3.4-2.5c-1.6,0-3.3-0.2-5.1-0.3
		c0.2-2.1,0.2-3.8,0.5-5.6c0.8-5,0.1-9.8-1.1-14.7c-0.1-0.2-0.1-0.4-0.2-0.6c-0.4-0.9-0.9-1.9-2.1-1.6s-1.5,1.3-1.2,2.5
		c0.5,1.7,0.9,3.5,1.1,5.3c1.2,8.7-0.6,17.5-5.2,24.9c-1.6,2.6-1.5,2.5,0.5,4.9c1.5,1.7,2.7,3.6,3.5,5.7c2,5.6,5,10.8,8.9,15.3
		c1,1.2,1.7,2.4,2.9,4.1c-3.8,0-6.9,0-10-0.1c-0.5,0-1.2-0.8-1.3-1.3c-0.3-1.3-0.5-2.7-0.7-4c-0.7-3.1-2.3-5.8-4.7-7.8
		c-3.5-3.2-7.1-6.5-10.5-9.9c-3.8-3.7-6.5-8.4-7.8-13.5c-0.2-1.3-0.4-2.5-0.6-3.8c-0.1-1.1-0.4-1.9-1.8-1.8
		c-1.4,0.1-1.6,1.2-1.5,2.3c0.2,1.7,0.5,3.4,0.8,5.1c0.3,1.5,0,2.4-1.8,2.6c-2.6,0.3-5.2,1.1-8.1,1.7
		C250,325.9,249.7,320.8,250.5,315.8z M334.5,312.6c-2.5-1.1-5.1-2.1-7.8-2.8c-2.6-0.6-5.3-0.7-8.2-1.1v-4.1
		c3.7,0.4,7.1,0.8,10.5,1.3c0.5,0.1,1,0.3,1.4,0.7c1.6,1.9,3,3.8,4.5,5.8C334.7,312.4,334.6,312.5,334.5,312.6L334.5,312.6z
		 M255.2,342.3h-0.6v0c-0.9-2.5-1.8-5-2.9-7.8c2.5-0.5,4.6-0.9,7.3-1.5C257.6,336.4,256.4,339.4,255.2,342.3z M257.4,347.4
		c-0.2-0.4-0.2-0.7,0-1.1c1.8-4.4,3.6-8.7,5.6-13.6h0c1.7,2.3,3.3,4.2,4.7,6.2c0.3,0.7,0.3,1.6,0,2.3c-1.8,4.1-3.6,8.2-5.7,12.9
		C260.3,351.7,258.8,349.6,257.4,347.4z M309.4,371c-15.7,2.9-29.8-1.1-42-11.4c-2-1.4-2.6-4.1-1.4-6.2c1.3-3,2.6-6,3.9-8.9
		c0.8-1.8,1.3-1.9,2.8-0.6c3.2,2.9,6.3,5.8,9.4,8.8c0.7,0.8,1.2,1.7,1.4,2.7c0.6,2.2,1,4.6,1.5,6.8s0.8,2.5,3.1,2.5
		c4.6,0.1,9.2,0.1,13.8,0c0.8-0.1,2.1-0.5,2.4-1.1c0.3-0.6-0.2-1.9-0.7-2.6c-2.5-3.7-5.3-7.1-7.8-10.8c-1.4-2.2-2.7-4.4-3.8-6.8
		c-1.6-3.1-3.2-6.1-4.7-9.2c-0.3-0.6-0.4-1.3-0.3-2c0.8-2.2,1.8-4.3,2.9-6.4c0.6-0.7,1.4-1.2,2.3-1.4c0.7-0.1,1.5,0,2.2,0.1
		c1.7,0.1,2.8,0.8,3.1,2.6c0.2,1,0.5,1.9,0.9,2.8c2.2,6,10.4,6.4,13.5,2.2c2-2.8,4.4-5.4,6.5-8.1c2.3-2.9,3.9-6.3,4.8-9.9
		c0-0.2,0.1-0.4,0.1-0.6c0.4-0.9,1.4-1.3,2.3-0.9c1.3,0.4,2.6,0.8,3.8,1.4c3.3,1.6,6.5,3.2,9.7,4.8c1.1,0.5,2.3,1.2,3.3,0
		c0.8-1.1,0.1-2.1-0.6-3.1c-2.9-4-5.8-8.1-8.8-12c-0.8-0.8-1.8-1.4-2.9-1.7c-1-0.2-2.1-0.4-3.1-0.4c-2.8-0.2-3.2-0.5-4-3.1l-0.3-0.9
		c-1-4.2-4.3-7.4-8.5-8.3c-5.5-1.4-10.6-4-14.9-7.6c-2.9-2.4-5.9-4.7-8.8-7c-0.5-0.4-0.9-0.9-1.4-1.3c0-0.3,0.1-0.5,0.1-0.8
		c3.8-0.4,7.6-1.1,11.2-0.8c12.6,0.2,23.7,4.3,33.1,12.8c9.7,8.5,15.6,20.6,16.5,33.5C351.9,343.5,334.4,366.2,309.4,371z"/>
</g>
</svg>
