<?xml version="1.0" encoding="utf-8"?>
<!-- Generator: Adobe Illustrator 23.0.2, SVG Export Plug-In . SVG Version: 6.00 Build 0)  -->
<svg version="1.1" id="Layer_1" xmlns="http://www.w3.org/2000/svg" xmlns:xlink="http://www.w3.org/1999/xlink" x="0px" y="0px"
	 viewBox="0 0 600 600" style="enable-background:new 0 0 600 600;" xml:space="preserve">
<g>
	<path d="M299.8,588.3c-28.1,0-56.2,0-84.3,0c-5.9,0-9.9-3.1-10.8-8.5c-0.7-4.3,0.8-7.9,4.5-10.4c9.5-6.3,18.9-12.7,28.4-19
		c9.6-6.4,19.3-12.7,28.8-19.2c0.9-0.6,1.7-2.1,1.7-3.2c0.2-4.6,0.1-9.1,0.1-13.7c0-3.4-0.4-3.8-3.7-4.5c-7.8-1.6-15.6-3-23.2-5.1
		c-36.5-10-68.4-28.3-96-54.1c-27.7-25.9-48-56.8-60.6-92.6c-6.1-17.3-10.2-35.2-11.4-53.6c-0.6-9.8-0.6-19.6-0.5-29.4
		c0.1-5.2,4.1-8.9,9.3-9.1c8.1-0.2,16.2-0.1,24.3-0.1c0.9,0,1.9,0,2.8,0c28.3,0,56.6,0,85,0c12.7,0,25.3-0.3,38-0.3
		c85.4,0.1,170.7,0.2,256.1,0.3c6.8,0,13.7-0.2,20.5-0.3c2.9,0,5.8,0.1,8.7,0.3c5.2,0.4,9,4.3,9.3,9.5c1,14.5-0.1,28.9-2.3,43.2
		c-3.4,22.4-10.1,43.8-20.1,64.1c-10.2,20.9-23.3,39.9-39.2,56.9c-20.6,22-44.5,39.5-71.8,52.3c-18.5,8.7-37.8,14.6-57.9,17.9
		c-2.3,0.4-3.3,1.5-3.3,3.8c0.1,5-0.1,9.9,0.1,14.9c0.1,1.3,0.9,2.9,1.9,3.6c18.3,12.3,36.6,24.7,55.1,36.7c7.1,4.6,6.7,13.1,2,17
		c-2.3,1.9-5,2.5-7.9,2.5c-25,0-50,0-75.1,0C305.7,588.3,302.7,588.3,299.8,588.3z M299.8,286.2c-67,0-133.9,0-200.9,0
		c-0.9,0-1.7,0-2.6,0c-2.6,0.1-3.4,0.8-3.4,3.4c0,3,0.3,6,0.4,9c0.2,4.3,0.6,4.8,5,4.8c51.4,0,102.7,0,154.1,0c27.9,0,55.7,0,83.6,0
		c6.7,0,10.4,3.9,10.4,10.7c0,6.7-3.7,10.3-10.4,10.3c-10.5-0.1-21.1-0.4-31.6-0.4c-67.3,0-134.7,0-202,0c-0.6,0-1.3,0-1.9,0
		c-2.8,0.1-3.7,1.2-3,3.9c1.2,4.8,2.4,9.6,3.8,14.4c11.4,38.2,32.3,70.4,61.9,97c19.5,17.5,41.5,31.1,66.1,40.2
		c17.1,6.3,34.4,11.5,53,11c6.1-0.2,9.8,4.1,9.9,10.2c0,9.2-0.2,18.4,0.1,27.6c0.2,7.4-3.2,12.9-8.8,17c-4.6,3.4-9.7,6.1-14.5,9.2
		c-4.7,3-9.3,6.1-13.9,9.3c-0.7,0.5-1.5,1.6-1.3,2.2c0.2,0.8,1.3,1.5,2.1,1.8c0.7,0.3,1.7,0.2,2.6,0.2c27.6,0,55.2,0,82.8,0
		c0.6,0,1.2,0.2,1.6,0c1.1-0.5,2.1-1.1,3.1-1.7c-0.6-0.9-1-2.1-1.8-2.7c-5-3.5-10-6.9-15.1-10.1c-3.9-2.5-8.2-4.3-11.9-7
		c-5.7-4.2-8.7-10-8.7-17.2c0.1-9.3,0-18.6,0-27.9c0-7.1,3.8-10.9,10.9-11c4.4-0.1,8.8,0,13.2-0.7c23.5-3.9,45.6-11.8,66.3-23.5
		c28.5-16.1,52.2-37.7,70.9-64.6c15.6-22.5,26.4-47.1,32.3-73.8c0.5-2.3-0.2-3.4-2.6-3.7c-0.9-0.1-1.7,0-2.6,0
		c-28.9,0.1-57.9,0.3-86.8,0.4c-8.4,0-16.8,0-25.3,0c-0.9,0-1.9,0-2.8-0.3c-6.1-1.6-8.1-6.8-6.8-13.5c0.9-4.6,4.8-7.2,10.3-7.2
		c38.4,0,76.8,0,115.2,0c0.8,0,1.6,0,2.4,0c1.8,0,2.9-0.9,3-2.7c0.3-3.8,0.4-7.5,0.6-11.3c0.1-2.1-1-3.2-3.2-3.2c-0.9,0-1.9,0-2.8,0
		C433.7,286.2,366.7,286.2,299.8,286.2z"/>
	<path d="M240.7,260.3c-0.9,0.1-1.6,0.2-2.2,0.2c-6.6,0-13.2,0-19.8,0c-1.7,0-2.3-0.5-2.5-2.2c-1.7-13.8-1.2-27.5,0.9-41.1
		c2.8-17.9,8.7-34.7,17.7-50.4c9.3-16.4,21.3-30.5,35.9-42.4c15.8-12.9,33.5-22.2,53.1-27.9c16.1-4.6,32.4-6.6,49.2-5.7
		c21.4,1,41.6,6.2,60.7,15.9c21.9,11.1,40.1,26.7,54.5,46.6c12.5,17.3,20.9,36.5,25.2,57.4c3.3,15.9,3.9,32,2,48.1
		c-0.1,0.6-0.9,1.7-1.3,1.7c-7.6,0.1-15.2,0.1-23,0.1c5.2-46.6-8.7-85.8-44.4-116.3c-24.7-21.1-54-30.8-86.4-29.2
		c-37.3,1.8-68.3,17.2-92,46.1C244.5,189.9,236,223.2,240.7,260.3z"/>
	<path d="M148.1,138.4C145.2,92,175.5,34.7,236.2,16.9c66.2-19.4,124.8,17.5,146.6,65c-1.4,0-2.7,0-4,0c-7.4-0.1-14.9-0.1-22.3-0.2
		c-0.9,0-2-0.8-2.5-1.6c-8-11.8-18-21.6-30.2-29c-19.3-11.9-40.3-16.8-62.9-14.4c-22.7,2.4-42.3,11.7-58.7,27.5
		c-16,15.5-25.8,34.5-29.1,56.6c-0.1,0.5-0.3,1.1-0.3,1.6c0.5,4.2-2.3,5.3-5.6,6.7c-5.8,2.4-11.4,5.5-17.1,8.3
		C149.5,137.7,148.8,138,148.1,138.4z"/>
	<path d="M77.5,260.4c5.9-46.8,27.6-83.7,66.3-109.9c33.8-22.9,71.3-29.7,110.8-23.1c-2.8,3.2-5.7,6.3-8.5,9.6
		c-2.8,3.2-5.5,6.4-8,9.8c-1.4,1.9-2.6,2.8-5.1,2.7c-30.5-1-58.1,7.4-82.3,26c-22.6,17.4-37.6,39.9-45.1,67.3
		c-1.4,5.1-2.1,10.5-3.2,15.7c-0.2,0.7-1,1.8-1.5,1.9C93.3,260.5,85.8,260.4,77.5,260.4z"/>
</g>
</svg>
