<svg id="Layer_1" data-name="Layer 1" xmlns="http://www.w3.org/2000/svg" viewBox="0 0 600 600"><title>17-icecream</title><path d="M215.54,587.34c-5.43,0-9-2.8-9.81-7.67a8.86,8.86,0,0,1,4.07-9.4q7.14-4.74,14.24-9.53c4.71-3.16,9.42-6.33,14.15-9.47l9.6-6.36c6.33-4.18,12.87-8.5,19.21-12.85a5.38,5.38,0,0,0,2.14-4c.15-3.43.13-6.9.11-10.26,0-1.15,0-2.29,0-3.44,0-3.85-.67-4.67-4.49-5.48l-5-1c-6-1.2-12.21-2.44-18.16-4.09C206,494,173.82,475.89,146,449.91a229.35,229.35,0,0,1-60.34-92.2,200.26,200.26,0,0,1-11.34-53.34c-.57-9.26-.61-18.42-.5-29.32.09-4.59,3.52-7.93,8.34-8.11,3.48-.09,7.22-.13,12.11-.13l6.07,0h93.88c6.36,0,12.79-.08,19-.15s12.65-.15,19-.15l256.1.3c4.55,0,9.21-.09,13.71-.18l6.8-.12c2.86,0,5.76.1,8.62.3a8.9,8.9,0,0,1,8.37,8.56c.9,13.06.15,27.12-2.29,43a218.54,218.54,0,0,1-20,63.81A233.71,233.71,0,0,1,393,490.93a218.45,218.45,0,0,1-57.64,17.82c-2.83.49-4.14,2-4.14,4.79,0,2.15,0,4.3,0,6.38,0,2.79,0,5.68.08,8.56a6.29,6.29,0,0,0,2.33,4.38l8.68,5.84c15.17,10.21,30.86,20.77,46.45,30.88a10.24,10.24,0,0,1,5,8A8.89,8.89,0,0,1,390.7,585a10.78,10.78,0,0,1-7.26,2.27h-75.1c-2.62.1-5.61.1-8.5.1ZM341.34,569a4,4,0,0,1,.5,0c.23,0,.44,0,.64,0a2,2,0,0,0,.91-.2,31.7,31.7,0,0,0,3.16-1.73,1,1,0,0,0,.47-.64,1,1,0,0,0-.15-.78,9.2,9.2,0,0,1-.5-.88,6,6,0,0,0-1.53-2.06c-6-4.2-10.67-7.32-15.17-10.15-1.69-1.08-3.48-2.05-5.2-3a56.89,56.89,0,0,1-6.64-4,19.42,19.42,0,0,1-8.29-16.39c.07-6.2,0-12.51,0-18.61q0-4.64,0-9.29c0-6.54,3.34-9.91,9.91-10l2.65-.05a73.28,73.28,0,0,0,10.7-.66,202.49,202.49,0,0,0,66.63-23.62,214.76,214.76,0,0,0,71.23-64.9,208.67,208.67,0,0,0,32.46-74.16,3.55,3.55,0,0,0-3.46-4.9,8.61,8.61,0,0,0-1-.06c-.3,0-.59,0-.88,0l-.85,0q-21.68.08-43.4.2t-43.4.2h-25.3a8,8,0,0,1-2.48-.25c-7.08-1.86-6.88-8.54-6.14-12.36.8-4.06,4.19-6.39,9.32-6.39h117.6a3.65,3.65,0,0,0,4-3.65c.2-2.55.31-5.12.42-7.6.06-1.23.11-2.46.18-3.7a4,4,0,0,0-1-3.09,4.26,4.26,0,0,0-3.22-1.16h-2.8c-67-.1-135.07-.1-200.9-.1H96.34c-3.22.12-4.4,1.31-4.4,4.4,0,1.83.11,3.67.22,5.46.07,1.19.14,2.38.18,3.57.23,4.91,1.13,5.77,6,5.77H336c6.06,0,9.4,3.44,9.4,9.7,0,6.08-3.25,9.3-9.4,9.3-4.17,0-8.37-.11-12.57-.19-6.25-.1-12.71-.21-19-.21H100.54c-1.16,0-2.76.23-3.64,1.41a4.41,4.41,0,0,0-.33,3.74c1.18,4.71,2.4,9.6,3.81,14.43,11.25,37.7,32.17,70.49,62.19,97.46A206.49,206.49,0,0,0,229,480.48c15.65,5.76,32.63,11.09,50.87,11.09l2.51,0h.38c5.06,0,8.4,3.62,8.49,9.22,0,2.61,0,5.24,0,7.87,0,6.47-.08,13.16.13,19.75s-2.57,11.9-8.39,16.16c-2.88,2.13-6,4-9.05,5.84-1.78,1.07-3.63,2.18-5.4,3.33-4.35,2.77-8.91,5.82-13.93,9.32-.74.53-2.11,2-1.68,3.33a4.26,4.26,0,0,0,2.7,2.42,4.71,4.71,0,0,0,1.85.28h83.9Z"/><path d="M492.25,259.64c5-47.33-10.11-86.37-44.86-116.06-23-19.65-50-29.61-80.22-29.61-2.27,0-4.58.06-6.88.17-37.74,1.82-68.93,17.45-92.72,46.46-23.09,27.85-32.49,61.1-27.95,98.86a9.32,9.32,0,0,1-1.08.08h-19.8c-1.21,0-1.37-.14-1.51-1.32a149.37,149.37,0,0,1,18.48-90.89,149.22,149.22,0,0,1,129.48-75.7c2.58,0,5.21.07,7.8.21a147.36,147.36,0,0,1,60.3,15.79,149.93,149.93,0,0,1,54.14,46.29,147.41,147.41,0,0,1,25,57,148.94,148.94,0,0,1,2,47.78,2.68,2.68,0,0,1-.54.82C506.74,259.63,499.68,259.64,492.25,259.64Z"/><path d="M149.05,136.85c-1.07-23.16,6.22-48.34,20.12-69.33A120.46,120.46,0,0,1,236.52,17.9a127,127,0,0,1,35.76-5.24,122,122,0,0,1,109,68.28h-2.43c-3.71,0-7.45-.08-11.2-.1s-7.41,0-11.09-.1a2.53,2.53,0,0,1-1.66-1.13A101.06,101.06,0,0,0,272,35.15a108.28,108.28,0,0,0-11.16.59,100.46,100.46,0,0,0-88.68,84.95c0,.09-.05.24-.09.38a6,6,0,0,0-.22,1.37.49.49,0,0,0,0,.12c.38,3.22-1.39,4.13-4.81,5.58l-.19.08c-4.07,1.68-8.09,3.73-12,5.72q-2.56,1.32-5.16,2.6Z"/><path d="M93.34,259.48l-7.56,0-7.1,0c6.12-46.33,28.22-82.69,65.72-108.07A143.94,143.94,0,0,1,226.52,126a168.43,168.43,0,0,1,26.17,2.1l-2.22,2.48c-1.68,1.86-3.41,3.79-5.09,5.77-2.47,2.82-5.36,6.2-8,9.86-1.29,1.76-2.21,2.3-3.93,2.3h-.32c-1.63,0-3.27-.08-4.87-.08-29.12,0-55.38,8.84-78.08,26.29a125.56,125.56,0,0,0-45.45,67.82c-.9,3.28-1.52,6.7-2.12,10-.34,1.89-.7,3.85-1.1,5.74a3.2,3.2,0,0,1-.75,1.11C98.25,259.47,95.81,259.48,93.34,259.48Z"/></svg>