<?xml version="1.0" encoding="utf-8"?>
<!-- Generator: Adobe Illustrator 23.0.2, SVG Export Plug-In . SVG Version: 6.00 Build 0)  -->
<svg version="1.1" id="Layer_1" xmlns="http://www.w3.org/2000/svg" xmlns:xlink="http://www.w3.org/1999/xlink" x="0px" y="0px"
	 viewBox="0 0 600 600" style="enable-background:new 0 0 600 600;" xml:space="preserve">
<g>
	<path d="M169.6,364.1c-1.6-0.5-2.9-1-4.2-1.4c-6.2-1.9-12.5-3.6-18.6-5.8c-5.8-2-11.4-4.4-17-6.9c-6.7-3.1-13.4-6.3-20-9.7
		c-3.7-1.9-7.2-4.1-10.6-6.4c-5.6-3.7-11.2-7.5-16.6-11.5c-3.4-2.5-6.5-5.3-9.6-8.1c-3.3-2.9-6.7-5.8-9.9-8.8
		c-1.5-1.4-2.5-3.3-3.8-4.9c-1.4-1.7-3-3.4-4.4-5.1c-2.8-3.6-5.6-7.2-8.3-10.9c-1.7-2.4-3.1-5.1-4.6-7.7c-1.6-2.7-3.2-5.4-4.6-8.2
		c-3-6-5.4-12.2-7.4-18.5c-3.3-10.4-4.6-21.1-4.6-31.9c0-7.9,0.9-15.7,2.8-23.4c3-12,8.2-23,15.6-32.8c3.1-4.1,6.8-7.8,10.5-11.4
		c3.2-3,6.5-6,10.2-8.4c5.7-3.6,11.5-7.1,17.9-9.2c4.7-1.6,9.4-3.2,14.2-4.3c4.3-1,8.7-1.4,13.1-1.9c5-0.6,10-0.2,15,0
		c7.2,0.4,14.2,1.9,21,4.5c4.4,1.7,8.8,3.3,13,5.4c3.2,1.5,6.1,3.5,9,5.5c7.2,4.8,13.6,10.6,18.8,17.5c3.1,4.1,6,8.2,9,12.3
		c6.2,8.5,14.9,12.7,25.2,13.1c3.9,0.2,7.9-0.9,11.7-1.9c5.7-1.5,11.2-3.7,17-5.1c5.8-1.4,11.8-2,17.8-1.7c5.1,0.2,10.2,0.6,15.5,1
		c0.2-1.5,0.5-3.2,0.7-4.9c1.1-10.1,3.7-19.8,7.5-29.1c5.5-13.5,13.4-25.3,24.2-35.2c13-11.9,28.3-19.4,45.8-22
		c26.3-3.9,50.2,2.2,71.2,18.3c18.4,14,29.4,32.8,33.3,55.6c0.6,3.3,0.8,6.7,1.4,10c2.8,15.2,13.7,25.5,29,27.5
		c10.6,1.4,21,3.5,30.8,8c12.3,5.8,22.8,13.9,31.4,24.3c5.3,6.3,9.6,13.2,12.9,20.8c1.3,2.9,2.1,6.1,1.3,9.4c-1,4.5-4.9,7.7-9.5,7.9
		c-4.4,0.2-8.8-2.7-10-7c-1.6-5.8-4.8-10.6-8.3-15.4c-5.1-6.9-11.3-12.7-18.5-17.2c-8.6-5.4-17.9-9-28.1-10
		c-7.2-0.7-14.3-2.1-20.9-5.2c-15.4-7.4-25.4-19.3-29.3-36c-1-4.4-1.6-9-2.3-13.5c-2-12.5-7.1-23.5-15.3-33.1
		c-11.7-13.7-26.5-21.8-44.1-24.5c-20.5-3.1-39.1,1.7-55.1,15.2c-10.1,8.5-17.3,19.3-22,31.6c-5,13-6.7,26.5-5.8,40.5
		c0.8,11.1,2.8,21.9,6.3,32.4c0.2,0.7,0.5,1.4,0.8,2.1c0,0.1,0.2,0.2,0.5,0.4c2.7-1.1,5.4-2.3,8.1-3.5c10.9-4.4,22.3-6.7,34-6.8
		c12.4-0.1,24.5,2.2,36,7.1c15.4,6.6,27.8,17,37.6,30.6c10,14,15.8,29.5,18.4,46.4c1.8,11.8,1.8,23.6,0,35.4
		c-0.8,5.2-1.9,10.3-2.9,15.5c-0.5,2.6-0.6,2.6,2.1,3.4c8,2.4,16.2,3.7,24.5,4.4c10.5,0.9,20.9,0.5,31.1-2c16-3.8,30-11.3,41.3-23.5
		c5.7-6.1,10.1-13.2,13.3-21c1-2.5,2.3-4.9,4.7-6.4c5.7-3.6,13-0.9,15.2,5.5c0.9,2.6,0.5,4.8-0.4,7.1c-3.7,9.6-8.9,18.3-15.6,26.2
		c-8.6,10.1-19,17.8-30.8,23.7c-9.1,4.5-18.7,7.4-28.6,9.3c-8.7,1.7-17.4,2.2-26.2,1.8c-10.8-0.5-21.5-2.4-31.9-5.1
		c-1.2-0.3-2.3-0.5-3.5-1c-1.5-0.5-2.1,0-2.7,1.3c-2.2,5-4.4,10-6.8,14.9c-7.3,14.8-16.6,28.3-27,41.1c-7.8,9.6-16.4,18.6-25.6,26.9
		c-13.2,12.2-27.6,22.9-43.3,31.8c-14.1,8-28.9,14.2-44.6,18.3c-14.1,3.6-28.4,5.5-43,4.7c-11.3-0.7-22.3-3.1-32.9-7
		c-9.1-3.3-17.5-7.8-25.3-13.6c-17-12.7-28.7-29.1-33.6-49.9c-5.6-23.5-2.3-45.9,9.1-67.1c2.2-4.1,5.1-7.8,7.7-11.6
		C169.1,365.1,169.2,364.8,169.6,364.1z M169.8,424c0,15.7,5.9,31,17.6,44c10.6,11.8,23.9,19.2,39.1,23.4c15,4.1,30.3,3.8,45.5,1.2
		c14.8-2.5,28.8-7.8,42.2-14.5c13.7-6.9,26.4-15.5,38.2-25.4c11.2-9.3,21.4-19.5,30.8-30.6c12.4-14.7,22.8-30.7,30.6-48.3
		c7.1-16,11.4-32.7,12.1-50.2c0.6-14.7-1.8-28.9-8-42.3c-5.1-11-12.1-20.6-21.7-28.1c-16.6-13-35.5-17.1-56-13.4
		c-16.3,3-30.1,10.8-41,23.5c-8.4,9.7-13.7,20.9-15.7,33.6c-0.6,3.8-1.1,7.7-1.8,11.6c-1.9,10.4-6.5,19.4-13.9,27
		c-8.3,8.5-18.3,13.4-29.9,15.3c-4.6,0.8-9.2,1.1-13.8,2.2c-16.3,3.7-29.5,12.5-39.5,25.8C174.7,391.5,169.9,406.1,169.8,424z
		 M292.8,240.1c-0.8-2.2-1.7-4.7-2.5-7.2c-3.2-10.3-5.8-20.8-6.9-31.6c-0.2-2.2-0.5-2.6-2.5-2.9c-4.1-0.6-8.3-1.3-12.5-1.4
		c-3.6-0.1-7.3,0.5-11,0.8c-5.2,0.4-10.1,2.1-15,3.8c-2.5,0.9-5,1.7-7.5,2.1c-3.8,0.6-7.6,0.8-11.4,1.4c-7.3,1.2-14.3-0.3-20.9-2.8
		c-4.6-1.7-9.2-3.8-13.1-7.1c-3.2-2.7-6.2-5.6-9-8.7c-1.7-1.9-3.1-4.2-4.7-6.3c-2.2-3.1-4.2-6.4-6.7-9.3c-7-8.2-15.7-14.2-25.6-18.6
		c-8.3-3.6-17-5.1-26-5.3c-3.4-0.1-6.9,0.5-10.3,0.8c-7.4,0.6-14.3,3-21.1,5.9c-5.4,2.4-10.5,5.4-15,9.4c-2.9,2.6-5.9,5.3-8.6,8.2
		c-2,2.2-3.6,4.8-5.4,7.2c-3.8,5.1-6.2,11-8.1,16.9c-1.3,4.1-1.8,8.5-2.6,12.7c-1.6,8.1-0.9,16.3,0.3,24.4
		c1.2,7.7,3.7,15.1,6.7,22.3c2.7,6.4,6.4,12.3,10.3,18.1c3.9,5.8,8.3,11.2,13.1,16.2c3.2,3.3,6.6,6.3,9.9,9.5
		c5.4,5.2,11.4,9.8,17.6,13.9c8,5.3,16.1,10.5,24.9,14.4c5.5,2.4,10.8,5,16.3,7.3c3.1,1.3,6.3,2.5,9.5,3.5
		c5.4,1.8,10.9,3.6,16.4,5.2c4.7,1.3,9.4,2.3,14.1,3.5c1.5,0.4,2.7,0.2,4-0.7c6.2-4.2,12.8-7.6,19.8-10c8.1-2.8,16.5-3.9,24.8-5.3
		c13.7-2.3,22.8-10.3,26.7-23.6c1.5-5,1.8-10.3,2.7-15.5c3.1-17,10.6-31.7,22.4-44.3C288.3,244.8,290.5,242.6,292.8,240.1z"/>
	<path d="M422.6,169.6c-0.1-3.8,1.4-6.1,4.6-7.1c2.7-0.8,5.8,0.2,7.2,2.7c0.7,1.3,1,3,1.2,4.5c1.2,9.6,3.6,18.9,8.6,27.3
		c9.4,15.8,23.1,26,41.1,30c3.6,0.8,7.2,1.3,10.9,1.9c3.7,0.6,5.9,3.1,5.9,6.5c-0.1,3.6-2.8,6.5-6.5,6.2c-4.1-0.3-8.2-1-12.2-1.8
		c-20.2-4.3-36-15.2-47.7-32.1c-6.3-9.2-9.9-19.5-11.9-30.3C423.3,174.8,423,172.2,422.6,169.6z"/>
	<path d="M378.2,116c13.7,0.6,25.8,5.4,36.5,14c1.7,1.4,2.9,3,3,5.3c0.1,2.4-0.8,4.4-2.9,5.7c-2.1,1.3-4.4,1.4-6.6,0.2
		c-0.5-0.3-1-0.6-1.5-1c-9.1-7.5-19.7-11.2-31.5-11.6c-1.4,0-3-0.5-4.2-1.3c-2.4-1.6-3.1-4.6-2.1-7.2c0.9-2.6,3.3-4.2,6.3-4.2
		C376.3,115.8,377.3,115.9,378.2,116z"/>
	<path d="M310.9,308.1c-2.1,21.8-11,40.3-28.4,54.5c-12.7,10.5-27.6,15.4-43.8,17.1c-3.9,0.4-6.8-2-7.3-5.8
		c-0.5-3.3,2.1-6.3,5.8-7.1c5.3-1,10.7-1.6,15.8-3.2c22.9-7.4,37.2-23.1,43.1-46.4c0.8-3.3,1.2-6.6,1.8-10c0.1-0.6,0.2-1.2,0.3-1.8
		c0.8-3.8,3.5-5.6,7.4-5.2c3.1,0.4,5.3,3,5.2,6.5C311,307.2,310.9,307.5,310.9,308.1z"/>
	<path d="M364.9,260.2c0,3.9-2.7,6.6-6.9,6.6c-6.6,0-12.9,1.4-19,4c-4.2,1.8-8.1,4.2-11.7,7.1c-0.4,0.3-0.8,0.7-1.2,1
		c-3,2-6.8,1.4-8.9-1.3c-2.1-2.7-1.8-6.6,0.9-8.9c3.9-3.4,8.3-6.2,12.9-8.5c8.6-4.2,17.7-6.3,27.4-6.3
		C362.3,253.9,364.9,256.5,364.9,260.2z"/>
	<path d="M219,229c-21.2-1-40.7-9.5-55.8-27.4c-2.7-3.3-5.2-6.8-7.6-10.3c-2.4-3.5-1.8-7.3,1.2-9.3c3.2-2.2,7.1-1.4,9.5,2.2
		c3.2,4.8,6.7,9.4,10.8,13.5c10.5,10.5,23.2,16.3,37.9,18.1c10.1,1.2,19.9-0.6,29.4-3.8c1.4-0.5,2.8-1,4.3-1.3
		c3.2-0.7,6.3,1.1,7.4,4.1c1.1,3.3-0.3,6.7-3.5,8c-2.1,0.9-4.4,1.5-6.6,2.3C237.8,227.6,229.4,228.9,219,229z"/>
	<path d="M116.5,157.3c5.1,0.1,10.1,0.7,14.9,2c5,1.3,6.6,7.3,3,10.8c-1.9,1.9-4.2,2.1-6.7,1.5c-4.6-1.1-9.2-1.4-13.9-1.2
		c-6.3,0.3-12.3,1.9-18,4.5c-1,0.4-1.9,0.9-2.9,1.1c-3.3,0.8-6.2-0.9-7.4-4c-1.2-3.1,0-6.3,3-7.9c6.1-3.2,12.6-5.1,19.4-6.1
		C110.8,157.7,113.6,157.6,116.5,157.3z"/>
</g>
</svg>
