<svg id="Layer_1" data-name="Layer 1" xmlns="http://www.w3.org/2000/svg" viewBox="0 0 600 600"><title>18-jellybeans</title><path d="M169.65,364.18c-1.6-.5-2.9-1-4.2-1.4-6.2-1.9-12.5-3.6-18.6-5.8-5.8-2-11.4-4.4-17-6.9-6.7-3.1-13.4-6.3-20-9.7a102.82,102.82,0,0,1-10.6-6.4c-5.6-3.7-11.2-7.5-16.6-11.5a124.48,124.48,0,0,1-9.6-8.1c-3.3-2.9-6.7-5.8-9.9-8.8-1.5-1.4-2.5-3.3-3.8-4.9s-3-3.4-4.4-5.1c-2.8-3.6-5.6-7.2-8.3-10.9-1.7-2.4-3.1-5.1-4.6-7.7s-3.2-5.4-4.6-8.2a127.45,127.45,0,0,1-7.4-18.5,104.81,104.81,0,0,1-4.6-31.9,97.27,97.27,0,0,1,2.8-23.4,90.33,90.33,0,0,1,15.6-32.8,102.79,102.79,0,0,1,10.5-11.4,74.67,74.67,0,0,1,10.2-8.4c5.7-3.6,11.5-7.1,17.9-9.2a144.67,144.67,0,0,1,14.2-4.3,114.8,114.8,0,0,1,13.1-1.9c5-.6,10-.2,15,0a69.21,69.21,0,0,1,21,4.5c4.4,1.7,8.8,3.3,13,5.4a63.71,63.71,0,0,1,9,5.5,76.38,76.38,0,0,1,18.8,17.5c3.1,4.1,6,8.2,9,12.3,6.2,8.5,14.9,12.7,25.2,13.1,3.9.2,7.9-.9,11.7-1.9,5.7-1.5,11.2-3.7,17-5.1a62.6,62.6,0,0,1,17.8-1.7c5.1.2,10.2.6,15.5,1,.2-1.5.5-3.2.7-4.9a107.49,107.49,0,0,1,7.5-29.1,96.13,96.13,0,0,1,24.2-35.2,85.23,85.23,0,0,1,45.8-22c26.3-3.9,50.2,2.2,71.2,18.3,18.4,14,29.4,32.8,33.3,55.6.6,3.3.8,6.7,1.4,10,2.8,15.2,13.7,25.5,29,27.5,10.6,1.4,21,3.5,30.8,8a90.14,90.14,0,0,1,31.4,24.3,84.18,84.18,0,0,1,12.9,20.8,14.46,14.46,0,0,1,1.3,9.4,10.12,10.12,0,0,1-19.5.9c-1.6-5.8-4.8-10.6-8.3-15.4a67.32,67.32,0,0,0-18.5-17.2,64.22,64.22,0,0,0-28.1-10c-7.2-.7-14.3-2.1-20.9-5.2-15.4-7.4-25.4-19.3-29.3-36-1-4.4-1.6-9-2.3-13.5a66,66,0,0,0-15.3-33.1,70.31,70.31,0,0,0-44.1-24.5c-20.5-3.1-39.1,1.7-55.1,15.2a76.08,76.08,0,0,0-22,31.6,94.39,94.39,0,0,0-5.8,40.5,131.86,131.86,0,0,0,6.3,32.4,18,18,0,0,0,.8,2.1c0,.1.2.2.5.4,2.7-1.1,5.4-2.3,8.1-3.5a92.45,92.45,0,0,1,34-6.8,89.31,89.31,0,0,1,36,7.1c15.4,6.6,27.8,17,37.6,30.6,10,14,15.8,29.5,18.4,46.4a116.71,116.71,0,0,1,0,35.4c-.8,5.2-1.9,10.3-2.9,15.5-.5,2.6-.6,2.6,2.1,3.4a120,120,0,0,0,24.5,4.4,95.51,95.51,0,0,0,31.1-2c16-3.8,30-11.3,41.3-23.5a68.73,68.73,0,0,0,13.3-21c1-2.5,2.3-4.9,4.7-6.4a10.21,10.21,0,0,1,15.2,5.5,9.63,9.63,0,0,1-.4,7.1,90.55,90.55,0,0,1-15.6,26.2,96.34,96.34,0,0,1-30.8,23.7,111.35,111.35,0,0,1-28.6,9.3,109.77,109.77,0,0,1-26.2,1.8,156,156,0,0,1-31.9-5.1,23,23,0,0,1-3.5-1c-1.5-.5-2.1,0-2.7,1.3-2.2,5-4.4,10-6.8,14.9-7.3,14.8-16.6,28.3-27,41.1a241,241,0,0,1-25.6,26.9,233.18,233.18,0,0,1-43.3,31.8,184.56,184.56,0,0,1-44.6,18.3,141.67,141.67,0,0,1-43,4.7,115.75,115.75,0,0,1-32.9-7,98.14,98.14,0,0,1-25.3-13.6c-17-12.7-28.7-29.1-33.6-49.9-5.6-23.5-2.3-45.9,9.1-67.1,2.2-4.1,5.1-7.8,7.7-11.6A12,12,0,0,1,169.65,364.18Zm.2,59.9c0,15.7,5.9,31,17.6,44,10.6,11.8,23.9,19.2,39.1,23.4,15,4.1,30.3,3.8,45.5,1.2,14.8-2.5,28.8-7.8,42.2-14.5a198.25,198.25,0,0,0,38.2-25.4,247.31,247.31,0,0,0,30.8-30.6,201.42,201.42,0,0,0,30.6-48.3,136.45,136.45,0,0,0,12.1-50.2,90.53,90.53,0,0,0-8-42.3c-5.1-11-12.1-20.6-21.7-28.1-16.6-13-35.5-17.1-56-13.4a69.14,69.14,0,0,0-41,23.5,66.19,66.19,0,0,0-15.7,33.6c-.6,3.8-1.1,7.7-1.8,11.6a51,51,0,0,1-13.9,27,52.35,52.35,0,0,1-29.9,15.3c-4.6.8-9.2,1.1-13.8,2.2a66.77,66.77,0,0,0-39.5,25.8C174.75,391.58,170,406.18,169.85,424.08Zm123-183.9c-.8-2.2-1.7-4.7-2.5-7.2a162,162,0,0,1-6.9-31.6c-.2-2.2-.5-2.6-2.5-2.9a103.9,103.9,0,0,0-12.5-1.4,103.58,103.58,0,0,0-11,.8c-5.2.4-10.1,2.1-15,3.8a42.08,42.08,0,0,1-7.5,2.1c-3.8.6-7.6.8-11.4,1.4-7.3,1.2-14.3-.3-20.9-2.8a42.85,42.85,0,0,1-13.1-7.1,92.45,92.45,0,0,1-9-8.7c-1.7-1.9-3.1-4.2-4.7-6.3-2.2-3.1-4.2-6.4-6.7-9.3a70.74,70.74,0,0,0-25.6-18.6,68.26,68.26,0,0,0-26-5.3,89.28,89.28,0,0,0-10.3.8c-7.4.6-14.3,3-21.1,5.9a57.31,57.31,0,0,0-15,9.4c-2.9,2.6-5.9,5.3-8.6,8.2-2,2.2-3.6,4.8-5.4,7.2-3.8,5.1-6.2,11-8.1,16.9-1.3,4.1-1.8,8.5-2.6,12.7-1.6,8.1-.9,16.3.3,24.4a97.11,97.11,0,0,0,6.7,22.3A108.16,108.16,0,0,0,63.75,273a120.51,120.51,0,0,0,13.1,16.2c3.2,3.3,6.6,6.3,9.9,9.5a123.62,123.62,0,0,0,17.6,13.9c8,5.3,16.1,10.5,24.9,14.4,5.5,2.4,10.8,5,16.3,7.3,3.1,1.3,6.3,2.5,9.5,3.5,5.4,1.8,10.9,3.6,16.4,5.2,4.7,1.3,9.4,2.3,14.1,3.5a4.43,4.43,0,0,0,4-.7,83.74,83.74,0,0,1,19.8-10c8.1-2.8,16.5-3.9,24.8-5.3,13.7-2.3,22.8-10.3,26.7-23.6,1.5-5,1.8-10.3,2.7-15.5a86.08,86.08,0,0,1,22.4-44.3C288.35,244.88,290.55,242.68,292.85,240.18Z"/><path d="M422.65,169.68c-.1-3.8,1.4-6.1,4.6-7.1a6.22,6.22,0,0,1,7.2,2.7,13.62,13.62,0,0,1,1.2,4.5c1.2,9.6,3.6,18.9,8.6,27.3,9.4,15.8,23.1,26,41.1,30,3.6.8,7.2,1.3,10.9,1.9s5.9,3.1,5.9,6.5c-.1,3.6-2.8,6.5-6.5,6.2a99.64,99.64,0,0,1-12.2-1.8c-20.2-4.3-36-15.2-47.7-32.1-6.3-9.2-9.9-19.5-11.9-30.3C423.35,174.88,423.05,172.28,422.65,169.68Z"/><path d="M378.25,116.08a61.23,61.23,0,0,1,36.5,14,7.08,7.08,0,0,1,3,5.3,6,6,0,0,1-2.9,5.7,6.28,6.28,0,0,1-6.6.2,13,13,0,0,1-1.5-1,50.87,50.87,0,0,0-31.5-11.6,8,8,0,0,1-4.2-1.3,6,6,0,0,1-2.1-7.2,6.36,6.36,0,0,1,6.3-4.2A14.55,14.55,0,0,1,378.25,116.08Z"/><path d="M311,308.18c-2.1,21.8-11,40.3-28.4,54.5-12.7,10.5-27.6,15.4-43.8,17.1a6.38,6.38,0,0,1-7.3-5.8c-.5-3.3,2.1-6.3,5.8-7.1,5.3-1,10.7-1.6,15.8-3.2,22.9-7.4,37.2-23.1,43.1-46.4.8-3.3,1.2-6.6,1.8-10l.3-1.8c.8-3.8,3.5-5.6,7.4-5.2a6,6,0,0,1,5.2,6.5A3.21,3.21,0,0,1,311,308.18Z"/><path d="M365,260.28c0,3.9-2.7,6.6-6.9,6.6a48,48,0,0,0-19,4,50.11,50.11,0,0,0-11.7,7.1c-.4.3-.8.7-1.2,1a6.54,6.54,0,0,1-8.9-1.3,6.44,6.44,0,0,1,.9-8.9,61.49,61.49,0,0,1,40.3-14.8C362.35,254,365,256.58,365,260.28Z"/><path d="M219.05,229.08c-21.2-1-40.7-9.5-55.8-27.4-2.7-3.3-5.2-6.8-7.6-10.3s-1.8-7.3,1.2-9.3c3.2-2.2,7.1-1.4,9.5,2.2a87.6,87.6,0,0,0,10.8,13.5c10.5,10.5,23.2,16.3,37.9,18.1,10.1,1.2,19.9-.6,29.4-3.8a30.56,30.56,0,0,1,4.3-1.3,6.41,6.41,0,0,1,7.4,4.1,6.25,6.25,0,0,1-3.5,8c-2.1.9-4.4,1.5-6.6,2.3A92.5,92.5,0,0,1,219.05,229.08Z"/><path d="M116.55,157.38a61.51,61.51,0,0,1,14.9,2,6.38,6.38,0,0,1,3,10.8c-1.9,1.9-4.2,2.1-6.7,1.5a50,50,0,0,0-13.9-1.2,48.72,48.72,0,0,0-18,4.5,17.18,17.18,0,0,1-2.9,1.1,6.4,6.4,0,0,1-4.4-11.9,60.15,60.15,0,0,1,19.4-6.1C110.85,157.78,113.65,157.68,116.55,157.38Z"/></svg>