<svg id="Layer_1" data-name="Layer 1" xmlns="http://www.w3.org/2000/svg" viewBox="0 0 600 600"><title>19-burger</title><path d="M67.88,228.42c-21.68,0-38.26-15.58-40.3-37.88-1.3-14.19,1.73-28.37,9.52-44.63,8.36-17.62,20.95-33.76,38.49-49.35,23.33-20.66,51.23-36.43,85.28-48.21a356.75,356.75,0,0,1,65.37-15.87c13-2,26.57-3.41,41.35-4.37C279,27.36,290.66,27,302.16,27c5.22,0,10.52.08,15.75.24,40.66,1.32,76,6.61,108,16.17,9.68,2.93,19.85,6.47,31.07,10.82a12.1,12.1,0,0,1,7.44,8.07,12.88,12.88,0,0,1-2.34,11.32,12.37,12.37,0,0,1-10,4.72,15.49,15.49,0,0,1-5.24-.93l-1.52-.54c-9.92-3.56-20.17-7.24-30.53-10.31-13.6-4.09-28.61-7.2-47.24-9.79a375.11,375.11,0,0,0-44.15-3.83l-4.32-.11c-7.47-.18-15.18-.36-22.76-.36-4.21,0-8,0-11.68.17a409.85,409.85,0,0,0-89.64,11.89C163.4,72.64,136.9,84,114,99.12c-20,13.23-35.28,28-46.65,45.14C60.08,155.34,55.52,166,53.45,176.85c-1.14,6-1,10.86.37,15.44,2.07,7,6.87,10.63,14.27,10.63h466.3c7.36,0,12.13-3.63,14.19-10.77,2.15-7.36.84-14.39-.89-20.9-3.49-13.12-10-25.21-20-37-5.28-6.32-11.27-12.21-17.06-17.9l-1.32-1.3c-4.34-4.25-5.62-8.63-4-13.78s5.24-8,10.84-8.81a11.38,11.38,0,0,1,1.54-.1,12.49,12.49,0,0,1,8.2,3.3,172.69,172.69,0,0,1,27.21,30c9.43,13.34,15.7,26.15,19.14,39.14,3.19,11.88,3.64,22.46,1.38,32.36-4,16.94-17,28.74-34,30.79-.71.07-1.54.1-2.65.1h-3c-77.8.3-156.65.3-232.9.3l-66.57,0q-33.3,0-66.62,0c-38.88,0-70.57.05-99.72.17Z"/><path d="M80.79,573c-6.79,0-14.72-.4-22.07-3.38C39.83,562,29.35,548.08,27.58,528.25c-2.18-23.93,13.79-44.66,38-49.29a75.87,75.87,0,0,1,14.83-1.44c137.61-.1,277.46-.1,412.7-.1q4.76,0,9.51,0l9.52,0c3.17,0,6.35,0,9.54.05,12.49.1,22.73,2.83,31.32,8.32,13,8.47,20,19.95,21.53,35.07,2.08,21-10.58,45.16-38.8,50.77a85.63,85.63,0,0,1-15.62,1.34c-73.3.1-147.72.1-219.7.1Zm-.2-70.3c-5.81,0-10.17.67-14.16,2.19-6.55,2.55-10.81,7-12.71,13.24a22.07,22.07,0,0,0,2,17.6,23.06,23.06,0,0,0,14.93,10.89,52.4,52.4,0,0,0,11.48,1.08H521.84c4.48-.21,8.86-.55,13.27-2.31,8.91-3.47,14.6-11.53,14.48-20.52S543.78,508,534.73,504.7a36.73,36.73,0,0,0-13.34-2.08h-28c-64.4.1-129.67.1-192.8.1Z"/><path d="M101.79,459.22c-13.76,0-24.6-4.29-33.14-13.09A47.85,47.85,0,0,1,56,421.92c-3.19-15.76-.39-29.24,8.57-41.21,7.4-9.92,17.81-15.54,31-16.7,3.17-.27,6.55-.39,10.63-.39,62.15,0,126.41,0,189.61-.1a7.19,7.19,0,0,1,4.4,1.27c9.62,6.71,19.8,12.87,29.65,18.83,2.87,1.74,5.8,3.51,8.72,5.3H103.49a42.65,42.65,0,0,0-9,.76c-10.52,2-17.24,10-17.47,20.77-.24,11,6.81,20.3,17.14,22.6a42.89,42.89,0,0,0,9.85,1h251.9c46.27,0,94.11,0,141.21-.1a47.15,47.15,0,0,0,12.28-1.51C518.44,430,524.54,422,524.89,412a21,21,0,0,0-14.49-21.16A39.7,39.7,0,0,0,498.59,389c-9.2-.09-19.09-.13-32-.13H450.63l-14.25,0,14.55-25.3h.56l16.13,0,16.15,0q8.06,0,16.11.05a47.73,47.73,0,0,1,19.23,3.65A43,43,0,0,1,544,394.07c6,17.71,3.36,34.07-7.74,48.63-6.72,8.71-16,14-27.56,15.75a68.64,68.64,0,0,1-9.86.67c-130.08,0-264.6,0-397,.1Z"/><path d="M435.61,341.11A42.61,42.61,0,0,1,410.19,333c-1.62-1.16-3.11-2.34-4.69-3.59-1.15-.91-2.31-1.82-3.51-2.71a19.22,19.22,0,0,0-11.23-3.82,18.86,18.86,0,0,0-11.26,3.91c-1.72,1.22-3.39,2.57-5,3.88a44.7,44.7,0,0,1-57.27-.17c-2.2-1.83-4.11-3.29-5.84-4.48a18,18,0,0,0-10.27-3.17,18.38,18.38,0,0,0-10.53,3.28c-2.26,1.54-4.27,3.15-6.48,4.94a44.52,44.52,0,0,1-55.34.49c-2.45-2-4.7-3.72-6.86-5.23a18.3,18.3,0,0,0-21.47.14c-1.55,1.08-3.05,2.25-4.5,3.38-1.1.85-2.2,1.71-3.32,2.53A43.42,43.42,0,0,1,166.28,341a42.79,42.79,0,0,1-25.49-8.08c-1.38-1-2.71-2.07-4-3.1s-2.74-2.13-4.16-3.19a18.45,18.45,0,0,0-22.26,0c-1.4,1-2.78,2.11-4.11,3.15s-2.45,1.93-3.71,2.87a41.32,41.32,0,0,1-25.24,8.32h-.92a12.37,12.37,0,0,1-12.46-12.44c-.08-7.08,5.16-12.68,11.94-12.76a21.62,21.62,0,0,0,13.78-5.19c4.87-4,10.17-8.18,16.52-10.26A51.61,51.61,0,0,1,122,297.61c9.53,0,18.58,3.2,26.93,9.5,1.93,1.43,3.72,2.75,5.41,4.25a18.4,18.4,0,0,0,12,4.29,18.89,18.89,0,0,0,12-4.11l.89-.7c3.87-3.07,7.87-6.24,12.13-8.33a46.42,46.42,0,0,1,20.32-5A44.36,44.36,0,0,1,235,304.57a84,84,0,0,1,8.76,6.56,18.9,18.9,0,0,0,12.37,4.5,19.41,19.41,0,0,0,12.24-4.29c3.88-3.22,8-6.53,12.52-8.73a46.25,46.25,0,0,1,20.4-5.06c8.08,0,16.15,2.49,24,7.41a59.69,59.69,0,0,1,7.81,5.91,19.36,19.36,0,0,0,12.71,4.8,19.94,19.94,0,0,0,12.81-4.76,57.17,57.17,0,0,1,10.73-7.62,48.49,48.49,0,0,1,21.93-5.72c9.29,0,18.44,3.32,27.21,9.85,2,1.47,4,3.08,5.92,4.64a17.87,17.87,0,0,0,11.21,3.69A18.38,18.38,0,0,0,447,312.08l.5-.41c2.32-1.86,4.72-3.78,7.17-5.5a44.3,44.3,0,0,1,51.73-.21c2.19,1.59,4.28,3.11,6.29,4.83a20.5,20.5,0,0,0,13.29,5,12.31,12.31,0,0,1,12.27,12c.4,6.42-3.67,11.63-10.12,13a16.66,16.66,0,0,1-2.58.18L524,341A43.6,43.6,0,0,1,500,333.06c-1.55-1.11-3-2.29-4.63-3.53-1.15-.91-2.31-1.82-3.5-2.71a18.46,18.46,0,0,0-22.8.1c-1.36,1-2.74,2.08-4.07,3.12s-2.45,1.93-3.71,2.87A43.23,43.23,0,0,1,435.61,341.11Z"/><path d="M83,274.52c-6.31,0-11.29-3.84-12.67-9.78a12.45,12.45,0,0,1,2.33-10.63,12.28,12.28,0,0,1,9.57-4.79c3.76,0,7.53,0,11.3,0l11.35,0,11.32,0h158.9a18.88,18.88,0,0,1,5.76.74,12.61,12.61,0,0,1-4.36,24.46Z"/><path d="M519.2,274.62c-32.3-.1-65.14-.1-96.91-.1H326c-6.86,0-11.7-4-12.95-10.66a12.15,12.15,0,0,1,2.53-9.78,12.29,12.29,0,0,1,9-4.76H518.69c5.38,0,9.17,2.08,11.59,6.37a12.72,12.72,0,0,1,0,12.78,12.45,12.45,0,0,1-11,6.15Z"/><path d="M402.26,409.18a18.22,18.22,0,0,1-9.07-2.47c-15.69-9-31.56-18.16-46.91-27q-12.54-7.25-25.13-14.52a21,21,0,0,1-4.71-4h46.45a7.36,7.36,0,0,1,4.14,1.06c6.59,3.91,13.31,7.76,19.8,11.48l7.69,4.41a16.14,16.14,0,0,0,1.77.95l.56.28a3.07,3.07,0,0,0,1.34.32,3,3,0,0,0,2.31-1.08,23.6,23.6,0,0,0,1.49-2l.09-.13c1.45-2.47,2.89-5,4.32-7.45s2.83-4.92,4.28-7.36c.13-.22.22-.35.27-.42h0c5.44,0,11,0,16.34,0,4.2,0,8.52,0,12.8,0q-3.92,6.79-7.77,13.53c-4.73,8.24-9.62,16.76-14.46,25.09A18.08,18.08,0,0,1,402.26,409.18Z"/><path d="M316.86,99.94A9.47,9.47,0,0,1,317.09,81h.37a9.6,9.6,0,0,1,9.63,9.45,9.15,9.15,0,0,1-2.62,6.62,9.72,9.72,0,0,1-7,2.84h-.19Z"/><path d="M147.59,131.92a9.55,9.55,0,0,1,0-19.1h.28a9.56,9.56,0,0,1-.26,19.11Z"/><path d="M490.32,159.72a9.55,9.55,0,0,1,.09-19.1h.37a9.31,9.31,0,0,1,9.21,9.6A9.48,9.48,0,0,1,490.32,159.72Z"/><path d="M224,115.82a9.71,9.71,0,0,1-7-2.83,9.17,9.17,0,0,1-2.61-6.63,9.6,9.6,0,0,1,16.4-6.61,9.32,9.32,0,0,1,2.7,6.72A9.41,9.41,0,0,1,224,115.82Z"/><path d="M277.29,147.82a9.7,9.7,0,0,1-7-2.84,9.2,9.2,0,0,1-2.63-6.62,9.48,9.48,0,0,1,9.33-9.45h.27a9.53,9.53,0,0,1,9.5,9.4,9.25,9.25,0,0,1-2.62,6.71A9.57,9.57,0,0,1,277.29,147.82Z"/><path d="M206.49,175.52a9.45,9.45,0,0,1-6.79-16.18,9.18,9.18,0,0,1,6.56-2.83h.25a9.46,9.46,0,0,1,9.58,9.44,9.27,9.27,0,0,1-2.67,6.71A9.62,9.62,0,0,1,206.49,175.52Z"/><path d="M392.07,121.22a9.45,9.45,0,1,1,0-18.9,9.15,9.15,0,0,1,9.4,9.34A9.29,9.29,0,0,1,392.07,121.22Z"/><path d="M354.19,169.12a9.49,9.49,0,0,1-6.83-2.69,9.38,9.38,0,0,1-2.57-6.77,9.16,9.16,0,0,1,9.3-9.44h.2a9.45,9.45,0,0,1-.1,18.9Z"/><path d="M429.74,175.62c-3.86-.07-9.42-3.83-9.35-9.56,0-4.53,4-9.55,9.28-9.55h.24c5.66.24,9.48,4.13,9.48,9.7,0,.06,0,.12,0,.18a8.07,8.07,0,0,1-2.4,5.95,10.06,10.06,0,0,1-7.14,3.27Z"/><path d="M102.74,175.62a10.46,10.46,0,0,1-7-3.3,8.66,8.66,0,0,1-2.48-6.38c.24-5.49,4.14-9.32,9.5-9.32a9.62,9.62,0,0,1,6.95,2.71,9.3,9.3,0,0,1,2.55,6.75c0,.08,0,.17,0,.26a8,8,0,0,1-2.32,5.94,10.21,10.21,0,0,1-7.13,3.34Z"/></svg>