<?xml version="1.0" encoding="utf-8"?>
<!-- Generator: Adobe Illustrator 23.0.2, SVG Export Plug-In . SVG Version: 6.00 Build 0)  -->
<svg version="1.1" id="Layer_1" xmlns="http://www.w3.org/2000/svg" xmlns:xlink="http://www.w3.org/1999/xlink" x="0px" y="0px"
	 viewBox="0 0 600 600" style="enable-background:new 0 0 600 600;" xml:space="preserve">
<g>
	<path d="M300,231.3c-77.6,0-155.3-0.2-232.9,0.1c-22.1,0.1-41.2-15.5-43.5-40.6c-1.5-16.4,2.8-31.6,9.8-46.2
		c9.3-19.6,23-35.9,39.2-50.3c25.3-22.4,54.5-37.8,86.3-48.8c21.4-7.5,43.4-12.6,65.9-16c13.8-2.1,27.7-3.5,41.6-4.4
		c16.8-1.1,33.7-1.4,50.6-0.9c36.9,1.2,73.3,5.7,108.8,16.3c10.6,3.2,21,6.9,31.3,10.9c9.9,3.9,12.8,15.6,6.4,24
		c-4.2,5.5-11.6,7.3-18.6,4.8c-10.6-3.8-21.1-7.6-31.9-10.8c-15.3-4.6-31-7.5-46.8-9.7c-14.5-2-29.1-3.5-43.8-3.8
		c-12.9-0.3-25.8-0.7-38.6-0.3c-30,0.8-59.8,4.4-89,11.8c-28.4,7.3-55.5,17.9-80.1,34.2c-18,11.9-33.8,26.2-45.8,44.3
		c-6.4,9.7-11.3,20-13.5,31.5c-0.9,4.7-1.1,9.4,0.3,14c1.7,5.8,5.4,8.5,11.4,8.5c155.4,0,310.9,0,466.3,0c6,0,9.6-2.7,11.3-8.6
		c1.9-6.5,0.8-12.9-0.9-19.3c-3.6-13.5-10.5-25.3-19.4-35.8c-5.6-6.7-12-12.9-18.2-19c-4.9-4.8-6.8-10.3-4.8-16.8
		c2-6.4,6.7-10,13.3-10.9c4.5-0.6,8.6,0.9,12.1,3.9c10.4,9.1,19.7,19.2,27.7,30.5c8.7,12.3,15.7,25.4,19.6,40.1
		c3,11.2,4,22.4,1.4,33.8c-4.2,18-18.3,30.9-36.6,33.1c-2,0.2-4,0.1-6,0.1C455.1,231.3,377.5,231.3,300,231.3z"/>
	<path d="M299.4,576c-73.2,0-146.4,0-219.6,0c-7.9,0-15.8-0.6-23.2-3.6c-19.8-8-31.1-22.6-33-43.9c-2.4-26.3,15.3-47.7,40.4-52.5
		c5-1,10.2-1.5,15.4-1.5c137.6-0.1,275.1-0.1,412.7-0.1c9.5,0,19-0.1,28.6,0c11.7,0.1,22.9,2.4,32.9,8.8
		c13.5,8.8,21.3,21.1,22.9,37.3c2.4,24.2-13,48.4-41.2,54c-5.3,1-10.8,1.4-16.2,1.4C445.8,576,372.6,576,299.4,576z M299.6,505.7
		C299.6,505.7,299.6,505.7,299.6,505.7c-42.3,0-84.7,0-127,0c-31,0-62,0-93,0c-4.5,0-8.9,0.4-13.1,2c-5.4,2.1-9.2,5.7-10.9,11.3
		c-3.3,10.9,3.2,22,14.7,24.7c3.5,0.8,7.2,1,10.8,1c145.6,0,291.3,0,436.9,0c0.9,0,1.8,0,2.7,0c4.2-0.2,8.3-0.5,12.3-2.1
		c7.7-3,12.7-10,12.6-17.7c-0.1-7.9-5-14.5-12.9-17.4c-4-1.5-8.1-1.9-12.3-1.9c-9.3,0-18.7,0-28,0
		C428,505.7,363.8,505.7,299.6,505.7z"/>
	<path d="M430.2,391.9c6.1-10.6,11.9-20.7,18-31.3c0.5,0,1.4,0,2.3,0c16.1,0,32.3-0.1,48.4,0c7,0,13.9,1.1,20.4,3.9
		c13.1,5.6,22,15.2,26.5,28.6c6.2,18.4,3.7,35.8-8.2,51.4c-7.4,9.6-17.5,15.1-29.5,16.9c-3.4,0.5-6.9,0.7-10.3,0.7
		c-132.3,0-264.6,0-397,0.1c-13.7,0-25.7-4.1-35.3-14c-7-7.2-11.4-15.9-13.4-25.7c-3.2-15.8-0.7-30.5,9.1-43.6
		c8.2-11,19.5-16.7,33.1-17.9c3.6-0.3,7.2-0.4,10.9-0.4c63.2,0,126.4,0,189.6-0.1c2.3,0,4.2,0.5,6.1,1.8c14.2,9.9,29.3,18.4,44,27.6
		c0.8,0.5,1.5,1,2.2,2c-1.1,0-2.2,0-3.3,0c-80.4,0-160.9,0-241.3,0c-2.8,0-5.6,0.1-8.4,0.7c-9.4,1.8-14.9,8.6-15.1,17.9
		c-0.2,9.5,5.8,17.6,14.8,19.6c3,0.7,6.1,0.9,9.2,0.9c84,0,168,0,251.9,0c47.1,0,94.1,0,141.2-0.1c3.9,0,7.8-0.4,11.5-1.4
		c7.9-2.1,13-9.2,13.3-17.6c0.3-8.3-4.5-15.7-12.4-18.2c-3.5-1.1-7.3-1.7-10.9-1.7c-21.3-0.2-42.6-0.1-63.9-0.1
		C432.7,391.9,431.7,391.9,430.2,391.9z"/>
	<path d="M523,344c-9.4-0.3-18-3.1-25.7-8.5c-2.8-2-5.4-4.2-8.2-6.3c-6-4.4-13.2-4.4-19.2,0.1c-2.6,1.9-5.1,4-7.8,6
		c-15.7,11.7-39.2,11.7-54.7,0.1c-2.8-2-5.4-4.2-8.2-6.3c-6-4.3-13-4.3-18.9,0.1c-1.7,1.2-3.3,2.5-4.9,3.8
		c-17.3,14.5-43.3,14.8-61.1-0.2c-1.8-1.5-3.7-3-5.6-4.3c-5.2-3.6-12.2-3.5-17.4,0.1c-2.2,1.5-4.2,3.1-6.3,4.8
		c-16.9,14-42.3,14-59.1,0.5c-2.2-1.8-4.4-3.5-6.7-5.1c-5.5-3.9-12.6-3.8-18,0.1c-2.7,1.9-5.2,4-7.8,5.9
		c-15.8,12.1-39.7,12.2-55.4,0.5c-2.8-2.1-5.4-4.2-8.2-6.3c-5.8-4.2-12.9-4.2-18.7,0c-2.6,1.9-5.1,4-7.8,6c-8.3,6.1-17.6,9.1-28,8.9
		c-8.6-0.1-15.3-6.7-15.4-15.4c-0.1-8.6,6.3-15.7,14.9-15.8c4.6-0.1,8.4-1.6,11.9-4.5c5.3-4.4,10.8-8.6,17.5-10.8
		c16.4-5.3,31.6-3.2,45.5,7.3c1.9,1.4,3.8,2.8,5.6,4.4c5.6,4.8,14.6,4.6,20.1,0.1c4.3-3.4,8.7-7,13.6-9.4
		c15.8-7.7,31.5-7.1,46.6,2.2c3.2,2,6.2,4.4,9.1,6.8c5.9,5.1,14.9,5,20.8,0.2c4.1-3.4,8.4-6.8,13.1-9.1c16.1-7.9,32-7.1,47.3,2.5
		c2.9,1.8,5.7,4,8.2,6.2c6.2,5.4,15.2,5.4,21.6,0c3.5-3,7.2-5.9,11.3-8c18.3-9.3,35.8-7.9,52.3,4.4c2,1.5,4,3.1,6,4.7
		c5.1,4.1,13.7,4,18.8,0c2.5-2,5.1-4.1,7.8-6c16.4-11.9,38.7-12,55.2-0.2c2.2,1.6,4.4,3.2,6.5,5c3.3,2.8,7,4.2,11.4,4.3
		c8.3,0.1,14.7,6.3,15.2,14.8c0.5,8.1-4.9,14.5-12.5,16.1C526.1,344,524.6,343.9,523,344z"/>
	<path d="M178.6,277.5c-32.2,0-64.4,0-96.6,0c-7.8,0-13.9-4.8-15.6-12.1c-2.3-9.6,5-19,14.8-19.1c11.3-0.1,22.7,0,34,0
		c53,0,105.9,0,158.9,0c2.2,0,4.6,0.2,6.7,0.9c7.1,2.4,11.4,9.8,10.2,17c-1.3,7.8-7.6,13.3-15.5,13.3
		C243.2,277.5,210.9,277.5,178.6,277.5z"/>
	<path d="M421.3,277.5c-32.1,0-64.2,0-96.3,0c-8.3,0-14.4-5.1-15.9-13.1c-1.7-8.9,5.3-17.7,14.4-18.1c0.6,0,1.3,0,1.9,0
		c64.1,0,128.2,0,192.3,0c6.2,0,11.1,2.4,14.2,7.9c5.8,10.3-1.1,23.4-13.7,23.4C485.9,277.5,453.6,277.5,421.3,277.5z"/>
	<path d="M310,358.1c1.4,0,2.3,0,3.2,0c16.2,0,32.5,0,48.7,0c2.1,0,3.9,0.4,5.7,1.5c9.1,5.4,18.3,10.6,27.5,15.9
		c0.6,0.4,1.3,0.7,2.1,1.1c0.5-0.6,0.9-1.1,1.3-1.7c2.9-4.9,5.7-9.9,8.6-14.8c0.7-1.2,1.4-1.9,2.9-1.9c10.9,0.1,21.8,0,32.6,0.1
		c0.4,0,0.7,0.1,1.3,0.2c-0.3,0.7-0.5,1.4-0.8,1.9c-7.9,13.7-15.7,27.4-23.6,41c-6,10.3-18.5,13.8-28.8,7.9
		c-24.1-13.8-48-27.7-72.1-41.6C315,365.4,312.1,362.5,310,358.1z"/>
	<path d="M316.5,102.9c-6.2,0.4-12.6-5.1-12.6-12.5c0-7.1,6.2-12.7,12.7-12.4c6.9,0.2,12.4,5.5,12.5,12.4
		C329.2,97.4,323.6,102.9,316.5,102.9z"/>
	<path d="M159.1,122.3c0,7.1-5.4,12.6-12.5,12.6c-6.9,0-12.3-5.5-12.5-12.3c-0.2-6,4.5-12.6,12.4-12.8
		C153.4,109.6,159.1,115.3,159.1,122.3z"/>
	<path d="M502,150.2c-0.1,7-5.6,12.5-12.7,12.5c-6.9-0.1-12.4-5.7-12.3-12.8c0.1-6.8,5.7-12.4,12.6-12.3
		C496.5,137.5,502,143.1,502,150.2z"/>
	<path d="M223,93.9c7,0,12.6,5.7,12.5,12.6c-0.1,6.9-5.6,12.3-12.5,12.3c-7.1,0-12.7-5.4-12.6-12.5C210.4,99.4,216,93.9,223,93.9z"
		/>
	<path d="M276.3,150.8c-7.1,0-12.7-5.5-12.6-12.5c0.2-8.2,7-12.6,12.7-12.4c6.9,0.2,12.4,5.6,12.4,12.4
		C288.9,145.3,283.4,150.8,276.3,150.8z"/>
	<path d="M205.5,178.5c-7.1,0-12.5-5.4-12.6-12.5c-0.1-6.4,5.5-12.7,12.7-12.5c7,0.2,12.4,5.4,12.5,12.4
		C218.2,172.9,212.6,178.5,205.5,178.5z"/>
	<path d="M391.1,124.2c-7.1,0-12.6-5.4-12.6-12.4c0-7.1,5.4-12.5,12.6-12.5c7.1,0,12.3,5.3,12.4,12.3
		C403.5,118.8,398.2,124.1,391.1,124.2z"/>
	<path d="M365.7,159.6c0,7.2-5.3,12.5-12.5,12.5c-7.2,0-12.5-5.3-12.4-12.5c0-7,5.4-12.4,12.3-12.4
		C360.2,147.1,365.7,152.5,365.7,159.6z"/>
	<path d="M441.4,166.2c0.4,6.6-6.1,12.5-12.7,12.4c-5.4-0.1-12.4-5.1-12.3-12.6c0-6.4,5.6-12.7,12.6-12.5
		C436.1,153.8,441.4,158.9,441.4,166.2z"/>
	<path d="M114.3,166.1c0.5,6.8-6.3,12.6-12.6,12.5c-5.7-0.1-12.7-5.2-12.4-12.8c0.3-7,5.4-12.2,12.5-12.2
		C109.1,153.6,114.4,158.9,114.3,166.1z"/>
</g>
</svg>
