<?xml version="1.0" encoding="utf-8"?>
<!-- Generator: Adobe Illustrator 23.0.3, SVG Export Plug-In . SVG Version: 6.00 Build 0)  -->
<svg version="1.1" id="Layer_1" xmlns="http://www.w3.org/2000/svg" xmlns:xlink="http://www.w3.org/1999/xlink" x="0px" y="0px"
	 viewBox="0 0 600 600" style="enable-background:new 0 0 600 600;" xml:space="preserve">
<title>19-burger</title>
<path d="M316.9,99.9c-5.2-0.1-9.4-4.4-9.4-9.6c0.1-5.2,4.4-9.4,9.6-9.4h0.4c5.3,0,9.5,4.2,9.6,9.4c0.1,2.5-0.9,4.9-2.6,6.6
	c-1.9,1.9-4.4,2.9-7,2.8h-0.2L316.9,99.9z"/>
<path d="M147.6,131.9c-5.3,0-9.5-4.3-9.5-9.6c0-5.3,4.3-9.5,9.5-9.5h0.3c5.3,0.2,9.4,4.7,9.1,10
	C156.8,127.8,152.7,131.9,147.6,131.9L147.6,131.9z"/>
<path d="M490.3,159.7c-5.3,0-9.5-4.3-9.5-9.6s4.3-9.5,9.6-9.5h0.4c5.1,0.1,9.3,4.3,9.2,9.4c0,0.1,0,0.1,0,0.2c0,5.2-4.2,9.5-9.5,9.5
	C490.5,159.7,490.4,159.7,490.3,159.7z"/>
<path d="M224,115.8c-2.6,0-5.1-1-7-2.8c-1.7-1.8-2.7-4.2-2.6-6.6c0.1-5.3,4.5-9.5,9.8-9.4c2.5,0,4.9,1.1,6.6,2.8
	c1.8,1.8,2.7,4.2,2.7,6.7C233.5,111.7,229.2,115.9,224,115.8C224,115.8,224,115.8,224,115.8z"/>
<path d="M277.3,147.8c-2.6,0-5.1-1-7-2.8c-1.7-1.8-2.7-4.1-2.6-6.6c0-5.2,4.2-9.4,9.3-9.4h0.3c5.2,0,9.4,4.2,9.5,9.4
	c0.1,2.5-0.9,4.9-2.6,6.7C282.3,146.8,279.9,147.8,277.3,147.8z"/>
<path d="M206.5,175.5c-5.2,0.1-9.5-4.1-9.6-9.3c0-2.6,1-5.1,2.8-6.9c1.7-1.8,4.1-2.8,6.6-2.8h0.2c5.2-0.1,9.5,4.1,9.6,9.3
	c0,0,0,0.1,0,0.1c0.1,2.5-0.9,4.9-2.7,6.7C211.6,174.5,209.1,175.5,206.5,175.5z"/>
<path d="M392.1,121.2c-5.2,0-9.5-4.2-9.5-9.4c0-5.2,4.2-9.5,9.5-9.5c5.1-0.1,9.3,3.8,9.4,8.9c0,0.1,0,0.3,0,0.4
	c0.1,5.1-3.9,9.4-9,9.6C392.3,121.2,392.2,121.2,392.1,121.2z"/>
<path d="M354.2,169.1c-2.5,0.1-5-0.9-6.8-2.7c-1.7-1.8-2.7-4.3-2.6-6.8c-0.2-5.1,3.8-9.3,8.9-9.4c0.1,0,0.3,0,0.4,0h0.2
	c5.2,0,9.4,4.3,9.4,9.5S359.4,169.1,354.2,169.1L354.2,169.1L354.2,169.1z"/>
<path d="M429.7,175.6c-3.9-0.1-9.4-3.8-9.4-9.6c0-4.5,4-9.6,9.3-9.6h0.2c5.7,0.2,9.5,4.1,9.5,9.7c0,0.1,0,0.1,0,0.2
	c0.1,2.2-0.8,4.4-2.4,5.9c-1.8,2-4.4,3.2-7.1,3.3L429.7,175.6z"/>
<path d="M102.7,175.6c-2.7-0.2-5.2-1.3-7-3.3c-1.7-1.7-2.6-4-2.5-6.4c0.2-5.5,4.1-9.3,9.5-9.3c2.6-0.1,5.1,0.9,6.9,2.7
	c1.7,1.8,2.6,4.2,2.6,6.8c0,0.1,0,0.2,0,0.3c0.1,2.2-0.8,4.4-2.3,5.9C108.1,174.3,105.5,175.5,102.7,175.6L102.7,175.6z"/>
<g>
	<path d="M66.9,227.9c-0.1,0-0.1,0-0.2,0c-21.4,0-37.8-15.4-39.8-37.4c-1.3-14.1,1.7-28.2,9.5-44.4c8.3-17.6,20.9-33.6,38.4-49.2
		c23.3-20.6,51.1-36.4,85.1-48.1c21.2-7.3,43.1-12.6,65.3-15.8c12.7-2,26.3-3.4,41.3-4.4c11.2-0.7,22.8-1.1,34.5-1.1
		c5.2,0,10.5,0.1,15.7,0.2c40.6,1.3,75.9,6.6,107.9,16.1c9.7,2.9,19.8,6.5,31,10.8c3.5,1.3,6.1,4.2,7.1,7.7c1,3.8,0.2,7.8-2.3,10.9
		c-2.3,2.9-5.7,4.5-9.3,4.5l-0.3,0c-1.7,0-3.5-0.3-5.1-0.9l-1.5-0.5c-10-3.6-20.2-7.3-30.6-10.3c-13.6-4.1-28.7-7.2-47.3-9.8
		c-14.6-2.1-29.5-3.4-44.2-3.8l-4.3-0.1c-6.7-0.2-14.9-0.4-22.8-0.4c-4.3,0-8,0-11.7,0.2c-30.2,0.6-60.4,4.6-89.7,11.9
		c-31.6,8.1-58.1,19.4-81.2,34.7c-20.1,13.3-35.4,28.1-46.8,45.3c-7.3,11.2-11.9,21.9-14,32.8c-1.1,6-1,11,0.4,15.7
		c2.2,7.3,7.1,11,14.7,11h466.3c7.6,0,12.5-3.7,14.7-11.1c2.2-7.5,0.9-14.6-0.9-21.2c-3.5-13.2-10.1-25.4-20.1-37.2
		c-5.3-6.4-11.3-12.2-17.1-17.9l-1.3-1.3c-4.2-4.1-5.4-8.3-3.9-13.3c1.5-4.9,5-7.7,10.4-8.5c0.5-0.1,1-0.1,1.4-0.1
		c2.9,0.1,5.7,1.2,7.9,3.2c10.2,8.9,19.3,18.9,27.1,29.9c9.4,13.3,15.6,26.1,19.1,39c3.2,11.8,3.6,22.3,1.4,32.1
		c-4,16.7-16.8,28.4-33.6,30.4c-0.7,0.1-1.5,0.1-2.6,0.1h-3c-77.8,0.3-156.6,0.3-232.9,0.3H166.7c-39.9,0-71.5,0.1-99.6,0.2
		L66.9,227.9z"/>
	<path d="M79.6,572.5c-6.7,0-14.6-0.4-21.9-3.3c-18.7-7.5-29.1-21.3-30.8-41c-2.2-23.7,13.7-44.2,37.6-48.8c4.8-1,9.7-1.4,14.6-1.4
		h0.1c137.6-0.1,277.5-0.1,412.7-0.1h19c3.1,0,6.3,0,9.5,0c12.4,0.1,22.5,2.8,31.1,8.2c12.8,8.3,19.8,19.7,21.3,34.7
		c2.1,20.8-10.5,44.7-38.4,50.2c-4.9,0.9-10,1.3-15,1.3l-0.5,0c-73.3,0.1-147.7,0.1-219.7,0.1l0,0L79.6,572.5z M79.4,502.2
		c-5.9,0-10.3,0.7-14.3,2.2c-6.7,2.6-11.1,7.2-13,13.6c-1.9,6-1.1,12.6,2,18c3.3,5.7,8.9,9.7,15.3,11.1c3.5,0.7,7.1,1.1,10.7,1.1
		c0.3,0,0.6,0,0.9,0h439.7c4.5-0.2,9-0.6,13.5-2.3c9.1-3.5,14.9-11.8,14.8-21c-0.1-9.2-6.1-17.3-15.2-20.6c-4-1.4-8.2-2.1-12.4-2.1
		c-0.4,0-0.7,0-1.1,0h-28c-64.4,0.1-129.7,0.1-192.8,0.1L79.4,502.2z"/>
	<path d="M100.6,458.7c-13.6,0-24.3-4.2-32.8-12.9c-6.4-6.6-10.8-14.9-12.5-24c-3.2-15.6-0.4-29,8.5-40.8
		c7.3-9.8,17.6-15.4,30.6-16.5c3.1-0.3,6.5-0.4,10.6-0.4c62.1,0,126.4,0,189.6-0.1c0.1,0,0.2,0,0.3,0c1.4,0,2.7,0.4,3.8,1.2
		c9.6,6.7,19.8,12.9,29.7,18.8l1.8,1.1c1.8,1.1,3.6,2.2,5.4,3.3H102.3c-0.3,0-0.6,0-0.9,0c-2.7,0-5.5,0.3-8.2,0.8
		c-10.8,2.1-17.6,10.2-17.9,21.3c-0.2,11.2,7,20.7,17.5,23.1c3.1,0.7,6.2,1,9.3,1l0.6,0h251.9c46.3,0,94.1,0,141.2-0.1l0.4,0
		c4,0,8.1-0.5,12-1.5c9.3-2.5,15.5-10.7,15.9-20.9c0.5-9.7-5.6-18.6-14.8-21.7c-3.9-1.2-7.9-1.9-12-1.9c-9.2-0.1-19.1-0.1-32-0.1
		h-29.3l14-24.3h32.6c5.4,0,10.7,0,16.1,0c0.3,0,0.6,0,0.9,0c6.3,0,12.4,1.2,18.1,3.6c11.8,4.7,20.7,14.4,24.6,26.5
		c5.9,17.5,3.4,33.7-7.7,48.2c-6.6,8.6-15.8,13.8-27.2,15.6c-3.1,0.4-6.3,0.7-9.5,0.7l-0.3,0C367.6,458.6,233.1,458.6,100.6,458.7
		L100.6,458.7z"/>
	<path d="M434,340.6c-8.9,0-17.5-2.8-24.7-8c-1.6-1.1-3.1-2.3-4.6-3.6c-1.1-0.9-2.3-1.8-3.6-2.7c-3.4-2.5-7.3-3.9-11.5-3.9
		c-4.2,0.1-8.3,1.5-11.6,4c-1.7,1.2-3.2,2.5-5,3.9c-7.9,6.6-17.9,10.2-28.2,10.2c-10.4,0-20.5-3.7-28.4-10.3
		c-2.2-1.8-4.1-3.3-5.9-4.5c-3.1-2.1-6.7-3.3-10.5-3.3h-0.1c-3.9,0-7.6,1.2-10.8,3.4c-2.2,1.5-4.2,3.1-6.5,5
		c-7.8,6.3-17.6,9.8-27.7,9.8c-9.8,0-19.4-3.3-27.1-9.3c-2.5-2-4.7-3.8-6.9-5.2c-3.2-2.3-7-3.5-10.9-3.5c-4,0-7.9,1.3-11.1,3.6
		c-1.5,1.1-3,2.2-4.5,3.4l-0.5,0.4c-0.9,0.7-1.9,1.5-2.8,2.2c-7.4,5.5-16.5,8.5-25.7,8.5l-0.8,0c-8.9,0-17.5-2.8-24.7-8
		c-1.3-0.9-2.5-1.9-3.7-2.9l-0.3-0.2c-1.1-0.9-2.4-1.9-4.2-3.2c-3.3-2.5-7.3-3.8-11.4-3.8s-8.1,1.3-11.4,3.8
		c-1.1,0.8-2.2,1.7-3.3,2.5l-1.5,1.2c-1,0.8-1.9,1.5-3,2.3c-7,5.3-15.8,8.2-24.6,8.2l-1.3,0c-6.6,0-11.9-5.3-12-11.8v-0.2
		c-0.1-6.8,5-12.2,11.4-12.3c5.2-0.1,10.2-2,14.1-5.3c5.1-4.2,10.2-8.2,16.4-10.2c5.1-1.7,10.3-2.6,15.7-2.7
		c9.4,0,18.4,3.2,26.6,9.4l0.1,0.1c1.9,1.4,3.6,2.7,5.2,4.1c3.4,2.9,7.7,4.4,12.1,4.4h0.4c4.4,0,8.7-1.5,12.1-4.2l0.9-0.7
		c3.8-3,7.8-6.2,12-8.3c6.2-3.1,13.2-4.9,20.1-4.9c8.2,0.1,16.2,2.5,23,7c3,2,6,4.2,8.7,6.5c3.5,3,8,4.6,12.6,4.6l0.1,0
		c4.6,0,9-1.6,12.6-4.4c4-3.3,8-6.5,12.4-8.7c6.2-3.2,13.2-4.9,20.2-5c8,0,16,2.5,23.7,7.3c2.7,1.7,5.3,3.7,7.7,5.9
		c3.6,3.2,8.2,4.9,13,4.9c4.8,0,9.5-1.8,13.1-4.9c3.2-2.9,6.8-5.5,10.6-7.6c6.6-3.6,14.2-5.5,21.7-5.7c9.2,0,18.2,3.3,26.9,9.8
		c2,1.5,4,3.1,5.9,4.6c3.2,2.5,7.2,3.8,11.2,3.8l0.3,0l0.3,0c4.1,0,8.1-1.3,11.3-3.8l0.5-0.4c2.2-1.8,4.7-3.7,7.1-5.5
		c7.5-5.5,16.4-8.3,25.7-8.3c9.2,0,18,2.8,25.4,8.1c2.1,1.5,4.2,3.1,6.3,4.8c3.8,3.3,8.6,5.1,13.6,5.1c6.4,0,11.6,5.1,11.8,11.5
		c0.4,6.2-3.5,11.2-9.7,12.5c-0.8,0.1-1.5,0.2-2.3,0.2l-0.1,0l-1.6,0c-8.5-0.2-16.7-2.9-23.7-7.8c-1-0.7-1.9-1.4-2.9-2.2
		c-0.5-0.4-1.1-0.9-1.7-1.3c-1.1-0.9-2.3-1.8-3.5-2.7c-3.3-2.6-7.4-4-11.6-4c-4.3,0-8.4,1.5-11.8,4.1c-1.3,1-2.7,2-4,3.1l-0.8,0.6
		c-1,0.8-1.9,1.5-2.9,2.3c-7.3,5.3-16,8.1-25,8.1L434,340.6z"/>
	<path d="M81.8,274c-6.1,0-10.9-3.7-12.2-9.4c-0.9-3.6-0.1-7.3,2.2-10.2c2.2-2.9,5.6-4.6,9.2-4.6h192.9c0.2,0,0.3,0,0.5,0
		c1.7,0,3.5,0.2,5.1,0.7c3,1.1,5.4,3.3,6.8,6.3c1.4,2.9,1.5,6.2,0.4,9.3c-1.7,4.8-6.3,8-11.4,8H81.8z"/>
	<path d="M518.1,274.1c-32.4-0.1-65.2-0.1-97-0.1h-96.3c-6.6,0-11.3-3.8-12.5-10.3c-0.6-3.3,0.3-6.7,2.4-9.4
		c2.1-2.7,5.2-4.4,8.6-4.6l194.1,0c5.2,0,8.8,2,11.2,6.1c2.2,3.8,2.2,8.5,0,12.3c-2.1,3.6-6.1,5.9-10.3,5.9L518.1,274.1z"/>
	<path d="M401.1,408.6c-3.1,0-6.1-0.8-8.8-2.4c-11.5-6.6-23.2-13.3-34.6-19.9l-12.3-7.1c-8.4-4.8-16.7-9.7-25.1-14.5
		c-1.4-0.9-2.7-1.9-3.8-3.1h45.3c0.1,0,0.2,0,0.3,0c1.3,0,2.5,0.3,3.6,1c6.5,3.8,13.1,7.6,19.4,11.3l8.1,4.6c0.6,0.4,1.2,0.7,1.8,1
		l0.5,0.3c0.5,0.2,1,0.4,1.6,0.4c1,0,2-0.5,2.7-1.3c0.5-0.7,1.1-1.3,1.5-2l0.1-0.1c0.8-1.4,1.6-2.8,2.4-4.1c0.7-1.1,1.3-2.3,1.9-3.4
		c0.5-0.9,1.1-1.9,1.6-2.8c0.9-1.5,1.8-3,2.6-4.5c0-0.1,0.1-0.1,0.1-0.2h28c-2.5,4.3-4.9,8.5-7.3,12.8l-0.5,0.9
		c-4.6,7.9-9.3,16.1-13.9,24.2C413.2,405.1,407.4,408.6,401.1,408.6z"/>
</g>
</svg>
