<svg id="Layer_1" data-name="Layer 1" xmlns="http://www.w3.org/2000/svg" viewBox="0 0 271.93 447.21"><defs><style>.cls-1{fill:#fff;}.cls-2{fill:#a12727;}</style></defs><title>Artboard 2</title><g id="SuSu"><path class="cls-1" d="M7.44,281.44c0-.13,0-.27.07-.27l8.38-6.49a.32.32,0,0,1,.33,0c2.64,3.45,5.75,5.48,10.21,5.48,3.38,0,5-1.49,5-3.45,0-2.5-4.26-3.58-9.8-5.94-6.55-2.64-11.69-6.42-11.69-15.35s7.23-14.26,15.81-14.26c8.25,0,12.91,3.65,16.36,7.51a.22.22,0,0,1,0,.27l-7.23,7.23a.2.2,0,0,1-.27,0c-2.37-2.37-5.55-4-8.45-4-2.57,0-4,1.28-4,3.24,0,2.71,4.73,3.52,10.41,5.75,6.28,2.36,11.22,6.55,11.22,14.39,0,9.13-6.9,15.34-17.71,15.34A22,22,0,0,1,7.44,281.44Z"/><path class="cls-1" d="M78.87,269.48v-27.1a.18.18,0,0,1,.2-.2H91.91a.18.18,0,0,1,.2.2v28.45c0,5.34,3.25,8.45,7.51,8.45,4.59,0,7.5-3.45,7.5-7.77V242.38a.18.18,0,0,1,.2-.2h12.84a.18.18,0,0,1,.2.2v27.91c0,10.48-6.08,20.61-20.54,20.61C87.59,290.9,78.87,282.93,78.87,269.48Z"/><path class="cls-1" d="M153.68,281.44c0-.13,0-.27.06-.27l8.38-6.49a.34.34,0,0,1,.34,0c2.64,3.45,5.75,5.48,10.21,5.48,3.38,0,5-1.49,5-3.45,0-2.5-4.26-3.58-9.8-5.94-6.56-2.64-11.69-6.42-11.69-15.35s7.23-14.26,15.81-14.26c8.24,0,12.91,3.65,16.35,7.51a.2.2,0,0,1,0,.27l-7.23,7.23a.2.2,0,0,1-.27,0c-2.36-2.37-5.54-4-8.44-4-2.57,0-4,1.28-4,3.24,0,2.71,4.73,3.52,10.41,5.75,6.28,2.36,11.21,6.55,11.21,14.39,0,9.13-6.89,15.34-17.7,15.34A22,22,0,0,1,153.68,281.44Z"/><path class="cls-1" d="M225.11,269.48v-27.1a.18.18,0,0,1,.2-.2h12.84a.18.18,0,0,1,.2.2v28.45c0,5.34,3.25,8.45,7.5,8.45,4.6,0,7.51-3.45,7.51-7.77V242.38a.18.18,0,0,1,.2-.2H266.4a.18.18,0,0,1,.2.2v27.91c0,10.48-6.08,20.61-20.54,20.61C233.82,290.9,225.11,282.93,225.11,269.48Z"/></g><path id="Stacks_Bolt" data-name="Stacks+Bolt" class="cls-1" d="M271.93,173v-11.2l-36.68,9.83L221,21.35,223.65,0H183.46l2.68,21.35L170.32,189l-28.2,7.56V160.74l-40.71,10.91L87.19,21.35,89.87,0H49.68l2.68,21.35L36.5,189,4.3,197.67v11.19l127-34v35.86ZM216.79,91.64H190.37l1.81-19.14H215Zm-2.85-30H193.2L195,42.54h17.12ZM211.4,10.81l-1.31,10.38,1,10.53H196l.94-9.94.06-.6-1.3-10.37Zm-22.05,91.64h28.47l6.84,72-43.2,11.58ZM83,91.64H56.58L58.39,72.5H81.17Zm-2.83-30H59.41l1.81-19.14H78.34ZM77.62,10.81l-1.3,10.37,1,10.54H62.24l.95-9.94.05-.6-1.3-10.37ZM55.55,102.45H84l6.82,72L47.65,186.06Z"/><path class="cls-1" d="M7.33,281.49c0-.14,0-.27.07-.27l8.43-6.53a.3.3,0,0,1,.34,0c2.65,3.47,5.78,5.51,10.27,5.51,3.4,0,5-1.5,5-3.47,0-2.52-4.28-3.61-9.86-6C15,268.09,9.85,264.29,9.85,255.31S17.12,241,25.76,241c8.29,0,13,3.68,16.45,7.55a.2.2,0,0,1,0,.27l-7.27,7.28a.2.2,0,0,1-.27,0c-2.38-2.38-5.58-4-8.5-4-2.59,0-4,1.29-4,3.26,0,2.72,4.76,3.54,10.47,5.78,6.32,2.38,11.28,6.6,11.28,14.48C43.91,284.75,37,291,26.1,291A22.17,22.17,0,0,1,7.33,281.49Z"/><path class="cls-1" d="M78.8,269.45V242.19A.19.19,0,0,1,79,242H91.92a.19.19,0,0,1,.21.21v28.62c0,5.37,3.26,8.5,7.55,8.5,4.62,0,7.54-3.47,7.54-7.82v-29.3a.19.19,0,0,1,.21-.21h12.91a.19.19,0,0,1,.21.21v28.08c0,10.54-6.12,20.74-20.67,20.74C87.57,291,78.8,283,78.8,269.45Z"/><path class="cls-1" d="M153.67,281.49c0-.14,0-.27.07-.27l8.43-6.53a.3.3,0,0,1,.34,0c2.65,3.47,5.78,5.51,10.27,5.51,3.4,0,5-1.5,5-3.47,0-2.52-4.29-3.61-9.86-6-6.6-2.66-11.77-6.46-11.77-15.44S163.46,241,172.09,241c8.3,0,13,3.68,16.46,7.55a.2.2,0,0,1,0,.27l-7.28,7.28a.2.2,0,0,1-.27,0c-2.38-2.38-5.57-4-8.5-4-2.58,0-4,1.29-4,3.26,0,2.72,4.76,3.54,10.47,5.78,6.33,2.38,11.29,6.6,11.29,14.48,0,9.18-6.94,15.44-17.82,15.44A22.17,22.17,0,0,1,153.67,281.49Z"/><path class="cls-1" d="M225.14,269.45V242.19c0-.14.06-.21.2-.21h12.92c.14,0,.2.07.2.21v28.62c0,5.37,3.27,8.5,7.55,8.5,4.62,0,7.55-3.47,7.55-7.82v-29.3a.18.18,0,0,1,.2-.21h12.92c.14,0,.2.07.2.21v28.08c0,10.54-6.12,20.74-20.67,20.74C233.91,291,225.14,283,225.14,269.45Z"/><path class="cls-1" d="M7.33,360.49c0-.14,0-.27.07-.27l8.43-6.53a.3.3,0,0,1,.34,0c2.65,3.47,5.78,5.51,10.27,5.51,3.4,0,5-1.5,5-3.47,0-2.52-4.28-3.61-9.86-6C15,347.09,9.85,343.29,9.85,334.31S17.12,320,25.76,320c8.29,0,13,3.68,16.45,7.55a.2.2,0,0,1,0,.27l-7.27,7.28a.2.2,0,0,1-.27,0c-2.38-2.38-5.58-4-8.5-4-2.59,0-4,1.29-4,3.26,0,2.72,4.76,3.54,10.47,5.78,6.32,2.38,11.28,6.6,11.28,14.48C43.91,363.75,37,370,26.1,370A22.17,22.17,0,0,1,7.33,360.49Z"/><path class="cls-1" d="M78.8,348.45V321.19A.19.19,0,0,1,79,321H91.92a.19.19,0,0,1,.21.21v28.62c0,5.37,3.26,8.5,7.55,8.5,4.62,0,7.54-3.47,7.54-7.82v-29.3a.19.19,0,0,1,.21-.21h12.91a.19.19,0,0,1,.21.21v28.08c0,10.54-6.12,20.74-20.67,20.74C87.57,370,78.8,362,78.8,348.45Z"/><path class="cls-1" d="M149.79,368.85V321.19A.19.19,0,0,1,150,321h13.12c.14,0,.2,0,.27.14L182,348.05V321.19a.19.19,0,0,1,.21-.21h11.69c.14,0,.2.07.2.21v47.66c0,.14-.06.21-.2.21H181.48c-.07,0-.21-.07-.21-.14L161.9,341.38v27.47a.19.19,0,0,1-.21.21H150A.19.19,0,0,1,149.79,368.85Z"/><path class="cls-1" d="M244.31,369.06h-20.8a.19.19,0,0,1-.21-.21V321.19a.19.19,0,0,1,.21-.21h19.64a28.5,28.5,0,0,1,10.95,2c7.14,3.2,12.78,10.2,12.78,22.58C266.88,361.92,254.17,369.06,244.31,369.06Zm3.81-34.89a14.63,14.63,0,0,0-6.66-1.49H236.9v24.75h6.53c4.35,0,10-3.33,10-12.38C253.42,339.55,251.52,336,248.12,334.17Z"/><path class="cls-1" d="M13.49,446.12c-.07.07-.14.14-.21.14H.23c-.2,0-.27-.14-.2-.28l20.6-47.66c.07-.14.13-.14.2-.14H31.64c.07,0,.14,0,.21.14L51.43,446c.07.14-.07.28-.21.28H37.63c-.07,0-.14-.07-.21-.14l-3.33-8.36H16.82Zm11.9-30-4.56,11.36h9.11Z"/><path class="cls-1" d="M93.15,446.05V424.5l-19-26c-.14-.2-.07-.34.13-.34h15.3l.14.07,10.81,14.69L111,398.25a.24.24,0,0,1,.14-.07H125c.2,0,.27.14.13.34L107,424.09v22a.18.18,0,0,1-.2.21H93.35A.18.18,0,0,1,93.15,446.05Z"/><path class="cls-1" d="M153.67,437.69c0-.14,0-.27.07-.27l8.43-6.53a.3.3,0,0,1,.34,0c2.65,3.47,5.78,5.51,10.27,5.51,3.4,0,5-1.5,5-3.47,0-2.52-4.29-3.6-9.86-6-6.6-2.66-11.77-6.46-11.77-15.44s7.28-14.34,15.91-14.34c8.3,0,13,3.67,16.46,7.54a.2.2,0,0,1,0,.27l-7.28,7.28a.2.2,0,0,1-.27,0c-2.38-2.38-5.57-4-8.5-4-2.58,0-4,1.29-4,3.26,0,2.72,4.76,3.54,10.47,5.78,6.33,2.38,11.29,6.6,11.29,14.48,0,9.18-6.94,15.44-17.82,15.44A22.17,22.17,0,0,1,153.67,437.69Z"/><circle class="cls-2" cx="246.01" cy="422.19" r="16.87"/></svg>