<svg xmlns:dc="http://purl.org/dc/elements/1.1/" xmlns:cc="http://creativecommons.org/ns#" xmlns:rdf="http://www.w3.org/1999/02/22-rdf-syntax-ns#" xmlns:svg="http://www.w3.org/2000/svg" xmlns="http://www.w3.org/2000/svg" xmlns:sodipodi="http://sodipodi.sourceforge.net/DTD/sodipodi-0.dtd" xmlns:inkscape="http://www.inkscape.org/namespaces/inkscape" viewBox="0 0 12.7 15.875" version="1.1" x="0px" y="0px"><g transform="translate(0,-284.29999)"><path style="color:#000000;font-style:normal;font-variant:normal;font-weight:normal;font-stretch:normal;font-size:medium;line-height:normal;font-family:sans-serif;font-variant-ligatures:normal;font-variant-position:normal;font-variant-caps:normal;font-variant-numeric:normal;font-variant-alternates:normal;font-feature-settings:normal;text-indent:0;text-align:start;text-decoration:none;text-decoration-line:none;text-decoration-style:solid;text-decoration-color:#000000;letter-spacing:normal;word-spacing:normal;text-transform:none;writing-mode:lr-tb;direction:ltr;text-orientation:mixed;dominant-baseline:auto;baseline-shift:baseline;text-anchor:start;white-space:normal;shape-padding:0;clip-rule:nonzero;display:inline;overflow:visible;visibility:visible;opacity:1;isolation:auto;mix-blend-mode:normal;color-interpolation:sRGB;color-interpolation-filters:linearRGB;solid-color:#000000;solid-opacity:1;vector-effect:none;fill:#000000;fill-opacity:1;fill-rule:evenodd;stroke:none;stroke-width:0.52916664;stroke-linecap:round;stroke-linejoin:round;stroke-miterlimit:4;stroke-dasharray:none;stroke-dashoffset:0;stroke-opacity:1;color-rendering:auto;image-rendering:auto;shape-rendering:auto;text-rendering:auto;enable-background:accumulate" d="m 6.3514152,285.36814 a 0.26460979,0.26460979 0 0 0 -0.1493448,0.046 l -1.4794963,1.01234 H 2.6472485 a 0.26460979,0.26460979 0 0 0 -0.2645834,0.26459 v 1.33687 l -1.1751219,0.80356 a 0.26460982,0.26460982 0 0 0 -0.1477947,0.28009 c 0,2.11195 -5e-7,4.2241 0,6.33605 0,0.26367 0.2205371,0.48421 0.4842081,0.48421 h 9.6149164 c 0.263673,0 0.484208,-0.22054 0.484208,-0.48421 v -6.36137 a 0.26492192,0.26492192 0 0 0 -0.125573,-0.23978 l -1.197343,-0.81855 v -1.33687 a 0.26460979,0.26460979 0 0 0 -0.264583,-0.2646 H 7.9802564 l -1.4794963,-1.01234 a 0.26460979,0.26460979 0 0 0 -0.1493449,-0.046 z m 0,0.58498 0.6919473,0.47335 H 5.6594679 Z m -3.4395834,1.00252 h 1.8432984 a 0.26460979,0.26460979 0 0 0 0.084749,0 h 3.0220377 a 0.26460979,0.26460979 0 0 0 0.083199,0 h 1.845882 v 1.16789 a 0.26460979,0.26460979 0 0 0 0,0.0816 v 1.77198 a 0.26460979,0.26460979 0 0 0 5.292e-4,0.0109 l -3.4401125,2.71612 -3.4401001,-2.71612 a 0.26460979,0.26460979 0 0 0 5.159e-4,-0.0109 v -1.7601 a 0.26460979,0.26460979 0 0 0 0,-0.10697 z m 0.7679118,1.05885 a 0.26514414,0.26514414 0 0 0 0.025321,0.52968 h 5.2932168 a 0.2648417,0.2648417 0 0 0 0,-0.52968 h -5.293216 a 0.26460982,0.26460982 0 0 0 -0.025322,0 z m -1.2970785,0.65422 v 0.90176 l -0.6118489,-0.48318 z m 7.9374999,0 0.611849,0.41858 -0.611849,0.48318 z m -5.5567665,0.93173 a 0.2646485,0.2646485 0 0 0 0,0.52917 h 3.1760334 a 0.2646485,0.2646485 0 0 0 0,-0.52917 z m -3.1744833,0.0181 4.5986856,3.63027 a 0.26460982,0.26460982 0 0 0 0.3281455,0 l 4.5981687,-3.63027 v 5.78414 H 1.5889152 c -6e-7,-1.92798 0,-3.85614 0,-5.78414 z"/></g><text x="0" y="27.7" fill="#000000" font-size="5px" font-weight="bold" font-family="'Helvetica Neue', Helvetica, Arial-Unicode, Arial, Sans-serif">Created by Nawicon Studio</text><text x="0" y="32.7" fill="#000000" font-size="5px" font-weight="bold" font-family="'Helvetica Neue', Helvetica, Arial-Unicode, Arial, Sans-serif">from the Noun Project</text></svg>