<svg id="Layer_1" data-name="Layer 1" xmlns="http://www.w3.org/2000/svg" viewBox="0 0 101.53 68.13"><defs><style>.cls-1{fill:#fff;}</style></defs><title>Artboard 2</title><polygon class="cls-1" points="0.08 35.24 101.08 8.24 101.08 33.24 0.08 60.24 0.08 35.24"/><path d="M2.69,52.3c1.15.51,3.1,1.31,4.64.9a2.32,2.32,0,0,0,1.36-.83.85.85,0,0,0-.38-1.22C6.77,50.42,2.62,50,2,47.51,1.09,44.25,4,40.48,5.9,39c1-.78,2.1-1.27,3.08-.77a4.49,4.49,0,0,1,1.72,1.68,3.17,3.17,0,0,1,0,2.56,28.64,28.64,0,0,0-.94,3.08c-.06.24-.17.4-.5.21a2,2,0,0,1-.85-2.25c.19-1.27,1.44-3.72.71-4.16C8,38.75,3.17,44,3.85,47c.34,1.56,3.72,2,5.31,2.6,1.07.4,1.24,1.52.52,3-1,2-5,3.58-9.43.43-.34-.23-.29-.43-.1-.55A2.84,2.84,0,0,1,2.69,52.3Z"/><path d="M12.43,52.72c0,.26-.17.35-.38.21a2.74,2.74,0,0,1-.84-2.63,96.47,96.47,0,0,1,2.94-13.65c.12-.41.28-.48.56-.38,1.06.41,1.42,1,1.6,2.73a81.39,81.39,0,0,0,1.51,8.76,98.3,98.3,0,0,1,3.08-13c.11-.34.35-.32.56-.1.55.62.78,1.58.18,3.64C20.87,41,19.38,47.5,18.82,51c0,.27-.14.35-.43.27-.82-.19-1.3-.67-1.83-2.15A48.44,48.44,0,0,1,14.81,41,70.36,70.36,0,0,0,12.43,52.72Z"/><path d="M23.63,46a39.71,39.71,0,0,0-.89,3.9.24.24,0,0,1-.41.16c-.39-.3-.68-1-.53-2.45a12.5,12.5,0,0,1,.27-1.53,1.8,1.8,0,0,1-1-.59c-.2-.28-.18-.39.19-.44s.72-.09,1.1-.17c1-3.72,3-9.31,5-12,.3-.42.53-.48.86-.21a3.36,3.36,0,0,1,.81.83,2.37,2.37,0,0,1,.46,1.73,51.88,51.88,0,0,0,.12,7.38,1.53,1.53,0,0,1,1.4.93c.1.2,0,.29-.21.28a6.74,6.74,0,0,0-1.06.13c.17,1.28.37,2.63.66,3.9.07.24-.06.35-.3.31-.53-.09-1.07-.58-1.45-1.93a18.07,18.07,0,0,1-.39-1.83C26.6,44.9,24.75,45.7,23.63,46Zm4.43-3.15A38.5,38.5,0,0,1,27.85,35a67,67,0,0,0-3.7,9.27C25.57,43.8,27,43.15,28.06,42.83Z"/><path d="M40.74,39.79c1,1.43,0,3.62-.83,4.6a5,5,0,0,1-4.83,1.83A4.73,4.73,0,0,1,32,42.78c-1.45-5,1.63-10.45,4-12.18,1.14-.85,2.28-1.25,3.22-.79a4.43,4.43,0,0,1,1.72,1.4,2.79,2.79,0,0,1,.35,2.14C41.12,34.18,41,35.2,41,36c0,.21-.15.4-.48.28a1.93,1.93,0,0,1-1.18-2.13c0-1.36.53-2.94-.17-3.36-.85-.54-4,2.35-5.14,6.47s0,7.48,1.44,8.12c1.85.82,3.94-1.44,4.8-5.47C40.28,39.58,40.54,39.51,40.74,39.79Z"/><path d="M43.88,44.37c0,.24-.17.33-.36.17-.49-.4-.87-1-.82-2.58a82.53,82.53,0,0,1,2.89-13.73c.13-.35.31-.37.58-.11.45.47.88,1.57.38,3.62-.32,1.28-.72,2.89-1.15,4.71A70.89,70.89,0,0,0,52,26.38c.11-.24.31-.27.46-.08A2.94,2.94,0,0,1,52.41,29a41.57,41.57,0,0,1-5.73,8.62,29,29,0,0,1,2.48,2.52c.93,1.2.94,2.09.7,2.64-.09.2-.26.25-.43.06a49.93,49.93,0,0,0-4.5-4.32C44.52,40.33,44.17,42.33,43.88,44.37Z"/><path d="M52.74,38.18a37,37,0,0,0-.89,3.9.25.25,0,0,1-.42.17c-.39-.31-.67-1-.53-2.46a13.17,13.17,0,0,1,.28-1.53,1.72,1.72,0,0,1-1-.59c-.2-.28-.18-.39.19-.44s.71-.09,1.1-.16c1-3.73,3-9.32,5-12.06.3-.41.54-.48.87-.21a3.35,3.35,0,0,1,.8.83,2.39,2.39,0,0,1,.47,1.73,50.42,50.42,0,0,0,.12,7.38,1.53,1.53,0,0,1,1.39.93c.1.2,0,.3-.2.28a6.61,6.61,0,0,0-1.06.13c.16,1.28.37,2.63.66,3.9.06.24-.06.35-.3.31-.53-.09-1.07-.58-1.46-1.93a18.07,18.07,0,0,1-.39-1.83C55.71,37.1,53.86,37.9,52.74,38.18ZM57.16,35a38.44,38.44,0,0,1-.2-7.79,65.74,65.74,0,0,0-3.7,9.27C54.67,36,56.05,35.35,57.16,35Z"/><path d="M65.81,36.13a1.85,1.85,0,0,1,2.38.51c.12.17.16.33-.15.42a27.78,27.78,0,0,0-4.93,2.31c-.53.3-.77.36-1.13.05a6.11,6.11,0,0,1-.89-.86,1.7,1.7,0,0,1-.3-1.39A91.81,91.81,0,0,1,64,23.26c.14-.35.36-.38.58-.11.45.52.81,1.49.31,3.51-.63,2.59-1.82,6.83-2.55,11.1A22.54,22.54,0,0,1,65.81,36.13Z"/><path d="M78.35,29.61c-1,4.06-3.23,7.64-6.77,7.32-2.15-.2-3.38-1.77-3.9-3.72C66.32,28.15,69.59,22.56,72,20.89a3.13,3.13,0,0,1,3.35-.39C78.66,21,79.25,25.85,78.35,29.61Zm-3.3-8.41c-1.28-.12-3.86,2.31-5.17,6.37s-.3,8.18,1.5,8.44,4-2.41,5.06-6.6C77.53,24.86,76.49,21.32,75.05,21.2Z"/><path d="M80.71,34.43c0,.25-.16.34-.38.2A2.75,2.75,0,0,1,79.5,32a95.39,95.39,0,0,1,2.94-13.65c.12-.41.28-.48.56-.38,1,.41,1.42,1,1.6,2.73a81.6,81.6,0,0,0,1.5,8.77,101.71,101.71,0,0,1,3.08-13c.12-.33.35-.32.56-.1.55.62.78,1.58.19,3.65-.78,2.7-2.27,9.21-2.82,12.75,0,.26-.14.34-.44.27-.82-.19-1.3-.67-1.83-2.16a48.43,48.43,0,0,1-1.74-8.14A71.37,71.37,0,0,0,80.71,34.43Z"/><path d="M97.41,30a4.46,4.46,0,0,1-4.09.59,4.4,4.4,0,0,1-2.57-3.24c-1.42-5.09,2.17-10.89,4.62-12.49a3.6,3.6,0,0,1,3.24-.72,3.31,3.31,0,0,1,1.69,1.36,2.86,2.86,0,0,1,.39,2.11c-.11.72-.24,1.77-.32,2.53,0,.21-.14.42-.46.25a2,2,0,0,1-1.23-2.09c0-1.27.52-2.83-.15-3.22-1-.58-4.29,2.5-5.63,6.55s-.26,7.56.92,8.19c1.63.86,3.94-1.67,4.62-4.93-.73.34-1.45.69-2,.89a2.13,2.13,0,0,1-2.58-.53c-.18-.2-.15-.37.13-.44,1.85-.52,3.5-1.6,4.94-2a2.17,2.17,0,0,1,2.49.63c.19.23.18.41-.14.44a8.77,8.77,0,0,0-1.65.5C100.84,26.38,98.51,29.3,97.41,30Z"/><path d="M95.52,34.05c-.71.22-1.65.54-2.45.72C92.53,34.89,13.55,56,13.15,56s-.3.16-.24.34h0a.06.06,0,0,1,0,0,1.86,1.86,0,0,0,2.22,1,21.66,21.66,0,0,0,3.09-.68s3.17-.82,5.74-1.44a.71.71,0,0,1,.73.25A34.31,34.31,0,0,0,51.11,68.13,33.93,33.93,0,0,0,59.92,67,34.55,34.55,0,0,0,84.41,41.14c.68-2.91,1.59-2.7,5.82-3.87s5.27-1.33,5.73-2.9C96.05,34,95.71,34,95.52,34.05ZM27,55.63c-.43-.51-1-1,.45-1.29L80.87,40a.36.36,0,0,1,.43.43C73.9,70.24,39.22,69.47,27,55.63Z"/><path d="M90.63,11c0-.36-.2-.4-.4-.34-.74.2-1.76.47-2.48.62l-.27.08-.16,0-6.85,1.83h0c-2,.56-3-.78-4.35-2.22a8.23,8.23,0,0,0-.65-.66A34,34,0,0,0,39.25,2.13,35.25,35.25,0,0,0,21,18.13a30.35,30.35,0,0,0-4.1,10.61c-.07.43-.25,1.53-.65,1.7,0,0-8.16,2.34-8.93,2.52-1.7.4-2.1.52-2.1,1.29,0,1.53,5.53-.39,6.69-.73s77-20.58,77.23-20.67C90.3,12.38,90.65,11.67,90.63,11Zm-15.1,3.46c-8,2.19-46.33,12.48-54.7,14.75a.38.38,0,0,1-.47-.42C24,5.1,56.62-8.14,75.88,13.31,76,13.49,76.63,14.13,75.53,14.44Z"/></svg>