<?xml version="1.0" encoding="utf-8"?>
<!-- Generator: Adobe Illustrator 23.0.1, SVG Export Plug-In . SVG Version: 6.00 Build 0)  -->
<svg version="1.1" id="Layer_1" xmlns="http://www.w3.org/2000/svg" xmlns:xlink="http://www.w3.org/1999/xlink" x="0px" y="0px"
	 viewBox="0 0 32 31.4" style="enable-background:new 0 0 32 31.4;" xml:space="preserve">
<style type="text/css">
	.st0{fill:#83704B;}
</style>
<g>
	<circle class="st0" cx="16" cy="8.7" r="0.5"/>
	<circle class="st0" cx="16" cy="25.7" r="0.5"/>
	<circle class="st0" cx="20.2" cy="9.8" r="0.5"/>
	<circle class="st0" cx="23.4" cy="12.9" r="0.5"/>
	<circle class="st0" cx="24.5" cy="17.2" r="0.5"/>
	<circle class="st0" cx="23.4" cy="21.4" r="0.5"/>
	<circle class="st0" cx="20.2" cy="24.6" r="0.5"/>
	<path class="st0" d="M18,6.4V4.2h1.5C19.8,4.2,20,4,20,3.7s-0.2-0.5-0.5-0.5h-7c-0.3,0-0.5,0.2-0.5,0.5s0.2,0.5,0.5,0.5H14v2.2
		c-1.4,0.3-2.7,0.8-3.9,1.5L8.7,6.5C8.5,6.3,8.3,6.2,8,6.2S7.5,6.3,7.3,6.5l-1,1c-0.4,0.4-0.4,1,0,1.4l1.3,1.3C6,12.1,5,14.5,5,17.2
		c0,6.1,4.9,11,11,11s11-4.9,11-11C27,11.8,23.1,7.3,18,6.4z M15,6.2v-2h2v2H15z M7,8.2l1-1l1.3,1.3C8.9,8.8,8.6,9.1,8.2,9.4L7,8.2z
		 M16,27.2c-5.5,0-10-4.5-10-10s4.5-10,10-10s10,4.5,10,10S21.5,27.2,16,27.2z"/>
	<path class="st0" d="M22.4,10.8c-0.2-0.2-0.5-0.2-0.7,0l-5,5c-0.2-0.1-0.4-0.2-0.6-0.2c-0.8,0-1.5,0.7-1.5,1.5s0.7,1.5,1.5,1.5
		c0.8,0,1.5-0.7,1.5-1.5c0-0.2-0.1-0.4-0.2-0.6l5-5C22.5,11.4,22.5,11,22.4,10.8z M16,17.7c-0.3,0-0.5-0.2-0.5-0.5s0.2-0.5,0.5-0.5
		c0.3,0,0.5,0.2,0.5,0.5S16.3,17.7,16,17.7z"/>
	<circle class="st0" cx="11.8" cy="9.8" r="0.5"/>
	<circle class="st0" cx="8.6" cy="12.9" r="0.5"/>
	<circle class="st0" cx="7.5" cy="17.2" r="0.5"/>
	<circle class="st0" cx="8.6" cy="21.4" r="0.5"/>
	<circle class="st0" cx="11.8" cy="24.6" r="0.5"/>
</g>
</svg>
