<svg id="Layer_1" data-name="Layer 1" xmlns="http://www.w3.org/2000/svg" viewBox="0 0 422.18 458.9"><defs><style>.cls-1{fill:#fff;}</style></defs><title>Artboard 3</title><g id="SuSu"><path class="cls-1" d="M4.47,444c0-.21,0-.43.11-.43L17.8,433.32a.46.46,0,0,1,.53,0c4.16,5.44,9.06,8.63,16.1,8.63,5.33,0,7.89-2.34,7.89-5.43,0-3.95-6.72-5.65-15.46-9.39C16.52,423,8.42,417,8.42,402.93s11.4-22.49,24.94-22.49c13,0,20.36,5.76,25.8,11.83a.32.32,0,0,1,0,.43L47.75,404.11a.33.33,0,0,1-.42,0c-3.73-3.73-8.74-6.29-13.33-6.29-4.05,0-6.29,2-6.29,5.11,0,4.27,7.46,5.55,16.42,9.07,9.91,3.73,17.7,10.34,17.7,22.7,0,14.4-10.88,24.2-27.94,24.2C19.29,458.9,9.91,451.65,4.47,444Z"/><path class="cls-1" d="M117.15,425.11V382.36a.28.28,0,0,1,.32-.32h20.26a.28.28,0,0,1,.32.32v44.88c0,8.42,5.11,13.33,11.83,13.33,7.25,0,11.83-5.44,11.83-12.26V382.36A.28.28,0,0,1,162,382h20.26a.28.28,0,0,1,.32.32v44c0,16.52-9.6,32.51-32.41,32.51C130.9,458.9,117.15,446.32,117.15,425.11Z"/><path class="cls-1" d="M235.16,444c0-.21,0-.43.11-.43l13.22-10.23a.46.46,0,0,1,.53,0c4.16,5.44,9.06,8.63,16.1,8.63,5.33,0,7.89-2.34,7.89-5.43,0-3.95-6.72-5.65-15.46-9.39C247.21,423,239.1,417,239.1,402.93s11.41-22.49,25-22.49c13,0,20.36,5.76,25.8,11.83a.32.32,0,0,1,0,.43l-11.41,11.41a.33.33,0,0,1-.42,0c-3.73-3.73-8.74-6.29-13.33-6.29-4.05,0-6.29,2-6.29,5.11,0,4.27,7.46,5.55,16.42,9.07,9.91,3.73,17.7,10.34,17.7,22.7,0,14.4-10.88,24.2-27.93,24.2C250,458.9,240.6,451.65,235.16,444Z"/><path class="cls-1" d="M347.84,425.11V382.36a.28.28,0,0,1,.32-.32h20.26a.28.28,0,0,1,.32.32v44.88c0,8.42,5.11,13.33,11.83,13.33,7.25,0,11.84-5.44,11.84-12.26V382.36c0-.22.1-.32.31-.32H413a.28.28,0,0,1,.32.32v44c0,16.52-9.59,32.51-32.41,32.51C361.59,458.9,347.84,446.32,347.84,425.11Z"/></g><path id="Stacks_Bolt" data-name="Stacks+Bolt" class="cls-1" d="M422.18,272.92V255.26l-57.86,15.51L341.8,33.68,346,0H282.62l4.23,33.68-25,264.53-44.48,11.92V253.57l-64.22,17.21L130.76,33.68,135,0H71.59l4.23,33.68-25,264.53L0,311.82v17.66L200.36,275.8v56.56Zm-87-128.35H293.52l2.85-30.21h36Zm-4.49-47.26H298l2.85-30.21h27Zm-4-80.25-2.05,16.36L326.22,50H302.44l1.48-15.69.09-.93L302,17.06ZM291.91,161.62h44.91l10.8,113.62L279.47,293.5ZM124.12,144.57H82.46l2.86-30.21h35.94Zm-4.47-47.26H86.93L89.79,67.1h27Zm-4-80.25L113.6,33.42,115.18,50H91.4l1.49-15.69.09-.93L90.92,17.06ZM80.85,161.62h44.88l10.75,113.64L68.38,293.5Z"/></svg>