<?xml version="1.0" encoding="utf-8"?>
<!-- Generator: Adobe Illustrator 23.0.1, SVG Export Plug-In . SVG Version: 6.00 Build 0)  -->
<svg version="1.1" id="Layer_1" xmlns="http://www.w3.org/2000/svg" xmlns:xlink="http://www.w3.org/1999/xlink" x="0px" y="0px"
	 viewBox="0 0 86.1 89.9" style="enable-background:new 0 0 86.1 89.9;" xml:space="preserve">
<path fill='#FFFFFF' d="M71.5,24.5c0.1,0.7,0.6,2.2,1.4,1.1c2.9-4.7,5.6-9.5,8.1-14.5c0.4-0.8,0.8-1.6,1.2-2.4c1.1-0.6,2.2-1.2,3.3-1.7
	c1.1-0.6,0.7-5.7-0.6-5.1c-0.5,0.2-1,0.5-1.5,0.7c-0.1-1.1-0.5-2.2-1.5-2.5c-0.9-0.3-2.4,0-3.3,0.1c-1.3,0.1-2.5,0.2-3.8,0.3
	c-2.7,0.3-5.3,0.7-8,1.2C61.3,2.8,56.1,4.6,51,6.9c-0.9,0.4-0.5,3.8,0.1,3.6c5-1.6,10.2-2.8,15.5-3.6c2.5-0.4,5-0.7,7.5-0.8
	c0.8,0,1.5-0.1,2.3-0.1C51.5,19.1,30,39,14,61.9c-5.1,7.3-9.6,15-13.5,23C0,86-0.1,87.4,0.2,88.6c0.1,0.5,0.9,2,1.4,0.9
	c13.9-28,35.1-52.1,61.1-69.4c4.5-3,9.3-5.8,14-8.5c-1.6,2.9-3.2,5.7-5,8.5C71,21.3,71.2,23.2,71.5,24.5z"/>
</svg>
