<?xml version="1.0" encoding="utf-8"?>
<!-- Generator: Adobe Illustrator 23.0.3, SVG Export Plug-In . SVG Version: 6.00 Build 0)  -->
<svg version="1.1" id="Logo" xmlns="http://www.w3.org/2000/svg" xmlns:xlink="http://www.w3.org/1999/xlink" x="0px" y="0px"
	 viewBox="0 0 512 512" style="enable-background:new 0 0 512 512;" xml:space="preserve">
<style type="text/css">
	.st0{display:none;}
	.st1{display:inline;}
</style>
<g class="st0">
	<path d="M256,49.5c67.3,0,75.2,0.3,101.8,1.5c24.6,1.1,37.9,5.2,46.8,8.7c11,4,20.9,10.5,29,18.8c8.4,8.1,14.8,18,18.9,29
		c3.5,8.9,7.5,22.2,8.7,46.8c1.2,26.6,1.5,34.5,1.5,101.8s-0.3,75.2-1.5,101.8c-1.1,24.6-5.2,37.9-8.7,46.8
		c-8.5,22-25.8,39.3-47.8,47.8c-8.9,3.5-22.2,7.5-46.8,8.7c-26.6,1.2-34.5,1.5-101.8,1.5s-75.2-0.3-101.8-1.5
		c-24.6-1.1-37.9-5.2-46.8-8.7c-11-4-20.9-10.5-29-18.9c-8.4-8.1-14.8-18-18.8-29c-3.5-8.9-7.5-22.2-8.7-46.8
		c-1.2-26.6-1.5-34.5-1.5-101.8s0.3-75.2,1.5-101.8c1.1-24.6,5.2-37.9,8.7-46.8c4-11,10.5-20.9,18.8-29c8.1-8.4,18-14.8,29-18.8
		c8.9-3.5,22.2-7.5,46.8-8.7C180.8,49.7,188.8,49.4,256,49.5 M256,4c-68.4,0-77,0.3-103.9,1.5S107,11.1,91,17.3
		c-16.8,6.3-32,16.2-44.6,29.1C33.5,59,23.6,74.2,17.3,91c-6.2,16-10.5,34.3-11.7,61.1S4.1,187.6,4.1,256s0.3,77,1.5,103.9
		S11.1,405,17.3,421c6.3,16.8,16.2,32,29.1,44.6c12.6,12.8,27.8,22.7,44.6,29.1c16,6.2,34.3,10.5,61.1,11.7s35.4,1.5,103.9,1.5
		s77-0.3,103.9-1.5s45.1-5.5,61.1-11.7c33.9-13.1,60.6-39.8,73.7-73.7c6.2-16,10.5-34.3,11.7-61.1s1.5-35.5,1.5-103.9
		s-0.3-77-1.5-103.9S500.9,107,494.7,91c-6.3-16.8-16.2-32-29-44.6C453,33.6,437.8,23.6,421,17.3c-16-6.2-34.3-10.5-61.1-11.7
		S324.4,4.1,256,4L256,4z"/>
	<path d="M256,502.9c-67.8,0-76.7-0.3-103.6-1.5c-23.8-1.1-42.1-4.6-59.6-11.4c-16.1-6.1-30.9-15.7-42.9-27.9
		C37.7,450.1,28,435.3,22,419.2c-6.8-17.5-10.3-35.8-11.4-59.6C9.4,332.9,9.1,324,9.1,256c0-67.8,0.3-76.7,1.5-103.6
		c1.1-23.8,4.6-42.1,11.4-59.6C28,76.7,37.7,61.9,49.9,49.9C61.9,37.7,76.7,28,92.8,22c17.5-6.8,35.9-10.3,59.6-11.4
		C179.1,9.3,188,9,255.4,9c0.2,0,0.4,0,0.6,0c67.8,0,76.7,0.3,103.6,1.5c23.8,1.1,42.1,4.6,59.6,11.4c16.1,6.1,30.9,15.7,42.9,27.9
		C474.3,61.9,484,76.7,490,92.8c6.8,17.5,10.3,35.8,11.4,59.6c1.2,26.8,1.5,35.7,1.5,103.6c0,67.8-0.3,76.7-1.5,103.6
		c-1.1,23.8-4.6,42.1-11.4,59.6c-12.5,32.5-38.4,58.3-70.8,70.8c-17.4,6.8-35.8,10.3-59.5,11.4C332.9,502.6,324,502.9,256,502.9z
		 M74.9,437.1c8.6,8.8,19.2,15.7,30.8,20c9.1,3.6,23,7.8,48.3,9c26.7,1.2,34.7,1.5,102,1.5c67.3,0,75.3-0.3,102-1.5
		c25.3-1.2,39.1-5.4,48.4-9c23.2-9,41.7-27.4,50.7-50.7c3.6-9.2,7.8-23.1,9-48.4c1.2-26.7,1.5-34.8,1.5-102s-0.3-75.3-1.5-102
		c-1.2-25.3-5.4-39.1-9-48.4c-4.2-11.5-11.1-22.1-20-30.7c-8.6-8.8-19.2-15.7-30.8-20c-9.1-3.6-23-7.8-48.3-9
		c-26.6-1.2-34.7-1.5-101.4-1.5c-0.2,0-0.4,0-0.6,0c-67.3,0-75.3,0.3-102,1.5c-25.3,1.2-39.1,5.4-48.4,9
		c-11.5,4.2-22.1,11.1-30.7,20c-8.8,8.6-15.7,19.2-20,30.8c-3.6,9.1-7.8,23-9,48.3c-1.2,26.7-1.5,34.7-1.5,102s0.3,75.3,1.5,102
		c1.2,25.3,5.4,39.1,9,48.4C59.2,417.9,66.1,428.5,74.9,437.1z"/>
	<path class="st1" d="M256,501.9c-67.8,0-76.7-0.3-103.6-1.5c-23.7-1.1-41.9-4.6-59.2-11.3c-15.9-6-30.6-15.6-42.5-27.7
		c-12.2-11.9-21.7-26.7-27.7-42.5c-6.7-17.4-10.2-35.6-11.3-59.3c-1.2-26.8-1.5-35.7-1.5-103.6c0-67.7,0.3-76.7,1.5-103.6
		c1.1-23.6,4.6-41.9,11.3-59.2c6-15.9,15.6-30.6,27.7-42.5c12-12.2,26.7-21.7,42.5-27.7c17.4-6.8,35.7-10.3,59.3-11.4
		C179.2,10.3,188,10,255.3,10c0.2,0,0.5,0,0.7,0c67.7,0,76.7,0.3,103.6,1.5c23.6,1.1,41.9,4.6,59.2,11.3c15.9,6,30.6,15.6,42.5,27.7
		c12.2,11.9,21.7,26.6,27.7,42.5c6.8,17.4,10.2,35.6,11.3,59.3c1.2,26.8,1.5,35.7,1.5,103.6c0,67.8-0.3,76.7-1.5,103.6
		c-1.1,23.7-4.6,41.9-11.3,59.2c-12.4,32.2-38.1,57.8-70.3,70.3c-17.3,6.7-35.6,10.2-59.2,11.3C332.9,501.6,324,501.9,256,501.9z
		 M256,43.4c-67.3,0-75.3,0.3-102.1,1.5c-25.4,1.2-39.4,5.5-48.7,9.1c-11.6,4.3-22.4,11.3-31.1,20.2c-8.9,8.7-15.9,19.5-20.2,31.2
		c-3.6,9.2-7.9,23.1-9,48.6c-1.2,26.8-1.5,34.8-1.5,102.1c0,67.3,0.3,75.3,1.5,102.1c1.2,25.4,5.5,39.4,9.1,48.7
		c4.3,11.6,11.3,22.4,20.2,31.1c8.7,8.9,19.5,15.9,31.2,20.2c9.2,3.6,23.1,7.9,48.6,9c26.8,1.2,34.8,1.5,102.1,1.5
		s75.3-0.3,102.1-1.5c25.4-1.2,39.4-5.5,48.7-9.1c23.5-9.1,42.2-27.7,51.2-51.2c3.6-9.3,7.9-23.2,9.1-48.7
		c1.2-26.8,1.5-34.8,1.5-102.1c0-67.3-0.3-75.3-1.5-102.1c-1.2-25.4-5.5-39.4-9.1-48.7c-4.3-11.6-11.3-22.4-20.2-31.1
		c-8.7-8.9-19.5-15.9-31.2-20.2c-9.2-3.6-23.1-7.9-48.6-9c-26.7-1.2-34.7-1.5-101.3-1.5C256.5,43.4,256.3,43.4,256,43.4z"/>
	<path class="st1" d="M256,126.6c-71.4,0-129.4,57.9-129.4,129.4S184.6,385.4,256,385.4S385.4,327.4,385.4,256l0,0
		C385.4,184.6,327.5,126.6,256,126.6C256,126.6,256,126.6,256,126.6z M256,340c-46.4,0-84-37.6-84-84s37.6-84,84-84s84,37.6,84,84
		S302.4,340,256,340L256,340z"/>
	<circle class="st1" cx="390.5" cy="121.5" r="30.2"/>
</g>
<g>
	<path d="M329.8,204.2H182.3l-0.1,0c-4.1,0.1-7.9,1.8-10.7,4.7c-2.8,3-4.3,6.8-4.2,10.9c0.2,8.2,6.7,14.8,15,15l147.6,0
		c8.4-0.2,15.1-7.2,15-15.6C344.7,211,338.1,204.4,329.8,204.2z"/>
	<path d="M132.5,161.2c0.2,0,0.4,0,0.7,0H379c8.4,0,15.3-6.9,15.3-15.3c0-8.4-6.9-15.3-15.3-15.3H133.2c-0.5,0-0.9,0-1.4,0h0
		c-4.1,0.2-7.9,2-10.6,5c-2.8,3-4.2,6.9-4,11c0.2,4.1,2,7.9,5,10.6C125.1,159.8,128.7,161.2,132.5,161.2z"/>
	<path d="M497.7,169.7l-54.3-37.1V72.1c0-8.4-6.9-15.3-15.3-15.3h-95.5l-68-46.5c-2.6-1.7-5.5-2.7-8.6-2.7c0,0,0,0,0,0
		c-3.1,0-6.1,0.9-8.6,2.7l-68,46.5H84c-8.4,0-15.3,6.9-15.3,15.3v60.5l-53.1,36.3c-5.9,2.9-9.3,9.4-8.4,15.8v294.1
		c0,13.8,11.7,25.5,25.5,25.5h446.7c13.8,0,25.5-11.7,25.5-25.5V183.4C505.2,177.9,502.4,172.6,497.7,169.7z M48.3,183.6l20.4-13.9
		v30L48.3,183.6z M233.6,56.8l22.4-15.4l22.4,15.4H233.6z M443.4,199.7v-30l20.4,13.9L443.4,199.7z M99.3,137.7V87.4h82.4
		c1.5,0.2,2.9,0.2,4.4,0H326c1.4,0.2,2.9,0.2,4.3,0h82.5v51c-0.2,1.4-0.2,2.8,0,4.2l0,81.2L256.1,347.6L99.3,223.8v-80.6
		C99.6,141.4,99.6,139.6,99.3,137.7z M474.3,214.3v259.5H37.8V214.3l208.8,164.8c5.6,4.4,13.4,4.4,19,0L474.3,214.3z"/>
</g>
</svg>
