<svg id="Layer_1" data-name="Layer 1" xmlns="http://www.w3.org/2000/svg" viewBox="0 0 62.5 51.7"><path d="M22.48,51.7A46.63,46.63,0,0,1,1.09,46a2.27,2.27,0,0,1-1-2.68,2.22,2.22,0,0,1,2.42-1.48,18.74,18.74,0,0,0,13.1-2.72C9.8,34.68-3.3,22.16,4.74,3.6a2.24,2.24,0,0,1,4-.31c.24.38,5.88,8.86,20,10.63A14,14,0,0,1,42.64,0a13.83,13.83,0,0,1,9.22,3.49C55.56,3.1,58.47,3,58.6,3a2.39,2.39,0,0,1,.86.14,2.29,2.29,0,0,1,1.59,0,2.25,2.25,0,0,1,1.31,2.9c-.43,1.14-2.5,6.36-5.32,9,.7,6.49-.91,16-11.31,26.74A31.4,31.4,0,0,1,22.48,51.7Zm-10.61-6c8.06,2.41,20.44,3.47,30.63-7,9.83-10.13,10.82-18.76,9.91-24.21a2.25,2.25,0,0,1,1.06-2.29c1-.61,2.26-2.57,3.28-4.59-1.36.08-3.31.23-5.42.48a2.31,2.31,0,0,1-1.88-.67A9.38,9.38,0,0,0,42.64,4.5,9.49,9.49,0,0,0,33.17,14a8.62,8.62,0,0,0,.2,1.94A2.25,2.25,0,0,1,31,18.66C18.62,17.91,11.21,12.51,7.6,8.91,2.65,26.41,19.72,36.55,20.5,37a2.26,2.26,0,0,1,1.09,1.59,2.23,2.23,0,0,1-.54,1.85A19.84,19.84,0,0,1,11.87,45.71Z"/></svg>