<svg id="Layer_1" data-name="Layer 1" xmlns="http://www.w3.org/2000/svg" viewBox="0 0 495.04 538.1"><title>Artboard 2</title><path d="M5.24,520.6c0-.26,0-.51.13-.51l15.5-12a.57.57,0,0,1,.62,0c4.88,6.38,10.63,10.13,18.88,10.13,6.25,0,9.25-2.75,9.25-6.38,0-4.62-7.88-6.62-18.13-11C19.37,496,9.87,489,9.87,472.47s13.37-26.38,29.25-26.38c15.25,0,23.87,6.75,30.25,13.88a.39.39,0,0,1,0,.5L56,473.84a.37.37,0,0,1-.5,0c-4.37-4.37-10.25-7.37-15.62-7.37-4.75,0-7.38,2.37-7.38,6,0,5,8.75,6.5,19.25,10.62,11.63,4.38,20.75,12.13,20.75,26.63,0,16.87-12.74,28.38-32.75,28.38C22.62,538.1,11.62,529.6,5.24,520.6Z"/><path d="M137.37,498.47V448.34a.32.32,0,0,1,.37-.37h23.75a.33.33,0,0,1,.38.37V501c0,9.87,6,15.62,13.87,15.62,8.5,0,13.88-6.37,13.88-14.37V448.34A.33.33,0,0,1,190,448h23.76a.32.32,0,0,1,.37.37V500c0,19.38-11.25,38.13-38,38.13C153.49,538.1,137.37,523.35,137.37,498.47Z"/><path d="M275.74,520.6c0-.26,0-.51.13-.51l15.5-12a.57.57,0,0,1,.62,0c4.88,6.38,10.63,10.13,18.88,10.13,6.25,0,9.25-2.75,9.25-6.38,0-4.62-7.88-6.62-18.13-11C289.87,496,280.37,489,280.37,472.47s13.37-26.38,29.25-26.38c15.25,0,23.87,6.75,30.25,13.88a.39.39,0,0,1,0,.5l-13.38,13.37a.37.37,0,0,1-.5,0c-4.37-4.37-10.25-7.37-15.62-7.37-4.75,0-7.38,2.37-7.38,6,0,5,8.75,6.5,19.25,10.62,11.63,4.38,20.75,12.13,20.75,26.63,0,16.87-12.75,28.38-32.75,28.38C293.12,538.1,282.12,529.6,275.74,520.6Z"/><path d="M407.87,498.47V448.34a.32.32,0,0,1,.37-.37H432a.33.33,0,0,1,.38.37V501c0,9.87,6,15.62,13.87,15.62,8.51,0,13.88-6.37,13.88-14.37V448.34a.33.33,0,0,1,.37-.37h23.76a.32.32,0,0,1,.37.37V500c0,19.38-11.25,38.13-38,38.13C424,538.1,407.87,523.35,407.87,498.47Z"/><path d="M495,320V299.31l-67.85,18.18-26.41-278,5-39.49H331.4l5,39.49L307.08,349.68l-52.15,14V297.33l-75.31,20.18-26.29-278L158.28,0H83.94l5,39.49L59.57,349.68,0,365.64v20.7l234.93-62.95v66.32ZM393,169.51H344.17l3.34-35.41h42.17Zm-5.26-55.41H349.4l3.34-35.42h31.67ZM383.07,20l-2.41,19.19,1.85,19.49H354.63l1.74-18.4.1-1.09L354.06,20ZM342.29,189.51h52.65L407.6,322.74l-79.91,21.41Zm-196.76-20H96.69L100,134.1h42.15Zm-5.24-55.41H101.94l3.35-35.42h31.65ZM135.62,20l-2.41,19.19,1.84,19.49H107.18l1.74-18.4.1-1.09L106.61,20ZM94.8,189.51h52.63L160,322.76,80.18,344.15Z"/></svg>